<svg width="109" height="97" viewBox="0 0 109 97" fill="none" xmlns="http://www.w3.org/2000/svg">
<path d="M90.8406 80.5949C90.9272 80.436 91.0379 80.2916 91.151 80.1521C92.4578 77.7768 93.6105 75.5749 94.8883 73.4499C95.1651 72.9903 95.875 72.6028 96.4309 72.5331C99.9685 72.0878 102.705 70.2974 104.921 67.6238C109.948 61.5593 110.35 51.5362 106.006 44.6921C102.089 38.5194 94.8811 36.2404 89.0742 39.4892C88.7156 39.689 87.8276 39.4074 87.4642 39.0584C82.8919 34.6738 77.5687 31.5453 71.6414 29.3939C71.2058 29.2351 70.7871 29.0281 70.1855 28.7658C71.9013 28.0318 73.545 27.5673 74.9119 26.6793C76.3774 25.7288 77.7515 24.5135 78.8465 23.1562C79.7441 22.0444 79.7032 20.5499 78.7767 19.2937C77.855 18.0448 76.5242 17.6453 75.1068 18.0375C73.7688 18.4057 72.5126 19.0627 71.1264 19.6307C71.2636 18.8341 71.4754 18.0207 71.5187 17.2001C71.55 16.5912 71.3647 15.9704 71.2732 15.3543C70.686 15.53 69.9785 15.554 69.5309 15.9054C67.5527 17.4576 65.6492 19.106 63.7192 20.7184C63.57 20.627 63.4184 20.5355 63.2691 20.4416C64.6457 18.2493 66.003 16.0425 67.4108 13.8671C68.1568 12.7143 69.0713 11.6651 69.7643 10.4811C70.5176 9.1912 71.0133 7.6775 69.6344 6.55607C68.2603 5.43945 66.8645 6.24563 65.7455 7.20101C64.7058 8.08902 63.7577 9.11419 62.901 10.1827C60.2273 13.5109 57.6138 16.8872 54.8199 20.4489C55.2458 19.2119 55.5924 18.1482 55.9798 17.099C56.8919 14.6323 57.9339 12.2066 58.7208 9.70138C59.5174 7.1625 59.4789 4.59235 57.9171 2.27969C55.7801 -0.88969 51.3064 -0.759736 49.7205 2.70324C48.9384 4.40946 48.7097 6.51515 48.7627 8.42593C48.8421 11.2223 49.5159 13.997 49.7229 16.7982C49.9323 19.597 49.4943 22.3356 48.125 25.1512C47.5281 23.9383 47.1383 22.9324 46.5704 22.0444C45.5452 20.4368 44.5513 18.7691 43.2614 17.3902C42.6525 16.7404 41.0618 16.1725 40.5011 16.519C39.7623 16.9739 39.1848 18.4081 39.2834 19.3419C39.435 20.7689 40.0126 22.2658 40.7971 23.4811C41.7092 24.8961 43.04 26.0416 44.2168 27.3363C44.0146 27.3844 43.7956 27.4446 43.5742 27.4927C35.1635 29.3217 27.6191 32.8544 21.2177 38.7143C20.8014 39.0969 19.6727 39.0705 19.0567 38.8082C14.1979 36.7362 9.7531 37.4268 5.85696 40.8754C1.2557 44.9472 -0.260403 50.3137 0.0355978 56.2794C0.483209 65.3135 4.57909 69.5249 11.9502 72.0518C12.3064 72.1745 12.7107 72.4368 12.8888 72.7496C14.4001 75.4064 17.028 80.4433 17.5478 81.0401C18.0411 81.6056 18.8979 82.5851 18.9171 82.5706C20.8255 84.3009 22.705 86.0047 24.582 87.7061C24.9887 87.9853 25.4051 88.2524 25.8045 88.5412C27.6503 89.6313 32.7209 92.6082 32.7353 92.5913C35.9672 93.6598 42.4023 95.7559 42.4576 95.7631C43.4371 95.9075 45.7281 96.1843 45.911 96.1963C50.375 96.4851 54.8608 96.6271 59.3297 96.5212C61.6472 96.4658 63.955 95.9388 66.2388 95.5562C66.4048 95.4527 67.7068 95.2217 68.1327 95.1423C71.3935 93.8427 74.4378 92.6274 77.7443 91.3111C77.7516 91.3231 81.667 88.7987 82.9328 87.8096C83.082 87.6917 84.947 86.4812 84.9398 86.474C86.8482 84.7293 90.6721 80.9005 90.8406 80.5949ZM103.379 42.7115C109.342 49.0358 109.614 60.3729 103.961 66.9933C98.9866 72.8194 91.1727 72.8603 86.1575 67.0486C83.1253 63.5375 81.8595 59.379 81.8859 53.5168C81.9293 50.1886 83.2119 46.0277 86.415 42.6393C91.3435 37.4268 98.4548 37.487 103.379 42.7115ZM5.19757 67.0727C2.24237 63.588 0.990981 59.0036 1.01023 53.1077C1.04874 49.8156 2.34826 45.6017 5.63074 42.1893C10.5063 37.1188 17.4299 37.1501 22.3392 42.1869C28.5793 48.5858 28.779 60.8735 22.7603 67.4818C17.7524 72.9831 10.0708 72.8194 5.19757 67.0727ZM61.9071 95.0267C50.3173 96.7835 39.2329 95.046 29.0028 89.0658C22.8181 85.4512 17.9016 80.5732 14.7033 74.0804C14.4915 73.6521 14.2918 73.2165 14.1137 72.7713C14.0535 72.6197 14.0848 72.4344 14.08 72.3598C15.8921 71.8207 17.7812 72.0325 19.3864 71.2071C24.9647 68.3457 27.4506 62.8781 28.0209 56.8979C28.6539 50.2463 26.6204 44.4875 21.2996 39.7924C29.4432 32.4093 38.6842 28.0534 49.7277 27.5986C48.9937 27.4374 48.2621 27.2762 47.5281 27.1125C44.1037 26.3521 40.6094 22.7278 40.2894 19.4453C40.2172 18.6993 40.6142 17.9076 40.7971 17.1351C41.5119 17.4624 42.5178 17.5947 42.8932 18.1531C44.3564 20.3237 45.5957 22.6436 46.9698 24.8769C47.314 25.4376 47.8458 25.8828 48.2934 26.3809C48.6424 25.8539 49.0828 25.3678 49.3234 24.7974C51.1307 20.4874 50.89 16.0594 50.2162 11.552C49.8673 9.22007 49.7325 6.78469 49.9948 4.45037C50.2523 2.16177 51.9994 0.792466 53.7851 0.756369C55.6549 0.717864 57.5729 2.12567 57.816 4.40224C58.0374 6.46702 57.8232 8.69065 57.2721 10.7001C56.4852 13.5687 55.1833 16.2952 54.1725 19.1084C53.8741 19.9387 53.696 20.8532 53.696 21.7315C53.696 22.1431 54.2519 22.5546 54.5552 22.9661C54.9258 22.6556 55.4769 22.4222 55.6429 22.0251C57.9532 16.4709 62.2464 12.3967 66.0535 7.96147C66.169 7.82671 66.3086 7.66547 66.465 7.62215C67.276 7.40075 68.0966 7.21305 68.9124 7.0133C68.9365 7.89409 69.2229 8.88076 68.9196 9.63159C68.4841 10.7121 67.5888 11.6001 66.9439 12.606C65.6564 14.6131 64.3521 16.6129 63.1705 18.6825C62.7734 19.3804 62.5977 20.2732 62.5616 21.0866C62.5376 21.669 62.9178 22.2682 63.1175 22.8602C63.5507 22.4752 64.0031 22.1046 64.4171 21.6979C66.2701 19.8761 68.1111 18.0448 69.9569 16.2158C70.1349 16.3265 70.313 16.4396 70.4911 16.5503C70.3684 17.3878 70.1205 18.2349 70.1614 19.0651C70.1927 19.7029 70.5922 20.3189 70.828 20.947C71.3141 20.704 71.8099 20.4729 72.2888 20.213C73.119 19.763 73.9035 19.2023 74.7747 18.8558C75.9924 18.3721 77.4122 18.4779 77.9007 19.7149C78.2689 20.6486 78.1944 22.2586 77.6023 22.9613C76.5266 24.2343 75.037 25.3221 73.5041 26.0055C70.8569 27.1871 68.0461 28.0005 65.7238 28.8187C74.0166 29.9209 81.1183 34.2021 87.4354 40.1654C76.2836 49.4281 80.0089 70.1434 93.9739 72.521C92.7056 75.9022 90.6962 78.7731 88.333 81.3818C81.2386 89.2174 72.1901 93.4673 61.9071 95.0267Z" fill="#60C3F1"/>
<path d="M93.9783 72.5212C92.7101 75.9023 90.7006 78.7733 88.3374 81.3819C81.2406 89.2175 72.1921 93.4675 61.9091 95.0269C50.3193 96.7836 39.2349 95.0461 29.0048 89.0659C22.8201 85.4514 17.9036 80.5734 14.7053 74.0806C14.4936 73.6522 14.2938 73.2166 14.1157 72.7714C14.0556 72.6198 14.0869 72.4345 14.082 72.3599C15.8941 71.8209 17.7833 72.0326 19.3884 71.2072C24.9667 68.3459 27.4526 62.8783 28.023 56.8981C28.6559 50.2465 26.6224 44.4877 21.3016 39.7926C29.4452 32.4094 38.6862 28.0536 49.7297 27.5988C48.9958 27.4375 48.2642 27.2763 47.5302 27.1127C44.1057 26.3522 40.6115 22.728 40.2914 19.4455C40.2192 18.6995 40.6163 17.9077 40.7992 17.1352C41.5139 17.4625 42.5198 17.5949 42.8952 18.1532C44.3584 20.3239 45.6002 22.6437 46.9719 24.877C47.316 25.4377 47.8478 25.8829 48.2955 26.3811C48.6444 25.854 49.0848 25.3679 49.3254 24.7976C51.1327 20.4875 50.8921 16.0595 50.2183 11.5521C49.8693 9.22021 49.7345 6.78483 49.9969 4.45051C50.2544 2.16191 52.0015 0.792605 53.7871 0.756507C55.657 0.718003 57.575 2.12581 57.818 4.40237C58.037 6.46716 57.8252 8.69079 57.2742 10.7002C56.4872 13.5688 55.1853 16.2954 54.1746 19.1086C53.8762 19.9388 53.6981 20.8557 53.6981 21.7317C53.6981 22.1432 54.254 22.5547 54.5572 22.9662C54.9278 22.6558 55.4789 22.4224 55.6449 22.0253C57.9552 16.471 62.2484 12.3968 66.0555 7.96161C66.171 7.82685 66.3106 7.66561 66.467 7.62229C67.278 7.40089 68.0987 7.21318 68.9145 7.01344C68.9385 7.89423 69.2249 8.8809 68.9217 9.63173C68.4861 10.7123 67.5909 11.6003 66.9459 12.6062C65.6585 14.6132 64.3541 16.613 63.1725 18.6826C62.7755 19.3805 62.5998 20.2733 62.5637 21.0867C62.5396 21.6691 62.9198 22.2683 63.1196 22.8603C63.5527 22.4753 64.0052 22.1047 64.4191 21.698C66.2721 19.8763 68.1131 18.0449 69.9589 16.2159C70.137 16.3266 70.3151 16.4398 70.4931 16.5505C70.3704 17.3879 70.1225 18.235 70.1634 19.0653C70.1971 19.703 70.5942 20.319 70.8325 20.9471C71.3186 20.7041 71.8143 20.4731 72.2932 20.2132C73.1235 19.7631 73.908 19.2024 74.7791 18.8559C75.9968 18.3722 77.4167 18.4781 77.9052 19.715C78.2734 20.6487 78.1988 22.2587 77.6068 22.9614C76.5311 24.2345 75.0415 25.3222 73.5085 26.0056C70.8613 27.1872 68.0529 28.0006 65.7282 28.8189C74.0211 29.921 81.1227 34.2022 87.4398 40.1656C76.288 49.4307 80.0157 70.1459 93.9783 72.5212ZM42.746 62.2742C43.1431 63.5906 43.6124 64.8275 43.8891 66.1102C45.2512 72.4417 50.2183 77.57 56.1816 78.7276C60.1524 79.5 62.6166 78.2318 64.7897 74.8651C67.6294 70.4612 66.6355 65.7372 66.212 61.0926C65.863 57.2735 63.8078 56.2507 60.1933 57.4853C56.3573 58.7968 52.49 60.0314 48.5915 61.1456C46.6157 61.7135 44.5437 61.9373 42.746 62.2742ZM53.2264 54.0247C53.005 53.9405 52.7836 53.8586 52.5622 53.7744C52.2133 54.4795 51.7705 55.1582 51.5731 55.9042C51.5082 56.1472 52.0881 56.5612 52.697 57.2783C52.9328 55.8272 53.0796 54.9271 53.2264 54.0247Z" fill="#60C3F1"/>
<path d="M0.771703 52.8695C0.810208 49.5774 2.35037 45.3636 5.63286 41.9511C10.5085 36.8806 17.6727 36.9119 22.5819 41.9487C28.822 48.3477 29.0218 60.876 23.0031 67.4842C17.9927 72.9855 9.82982 73.0626 4.95904 67.3158C2.00143 63.8288 0.752451 58.7654 0.771703 52.8695ZM10.7419 54.3856C10.7948 57.8943 11.5962 61.1599 14.0629 63.7927C17.432 67.388 20.3054 67.2797 23.352 63.3138C26.9064 58.6836 26.4468 50.1718 22.4135 45.9772C19.4414 42.8873 15.4033 43.2073 12.9438 46.7497C11.3555 49.0431 10.7275 51.6229 10.7419 54.3856Z" fill="#60C3F1"/>
<path d="M81.6469 53.2785C81.6902 49.9503 83.2135 45.7895 86.4166 42.4011C91.3451 37.1886 98.454 37.2487 103.38 42.4709C109.343 48.7952 109.615 60.3729 103.963 66.9932C98.9882 72.8194 91.1743 72.8603 86.1591 67.0486C83.1245 63.5375 81.618 59.1384 81.6469 53.2785ZM99.1038 55.7789C99.1302 52.1041 97.7898 48.4174 95.6336 46.2322C92.7939 43.3565 88.9603 43.5923 86.4912 46.7954C82.9729 51.3605 83.3363 59.7545 87.2396 64.0044C90.2069 67.2363 94.3244 66.9836 96.8705 63.4075C98.4973 61.1262 98.981 58.5055 99.1038 55.7789Z" fill="#60C3F1"/>
<path d="M42.7441 62.2741C44.5418 61.9396 46.6138 61.4727 48.5896 60.9072C52.4881 59.7929 56.3554 58.5584 60.1914 57.2468C63.8035 56.0123 65.8611 57.0351 66.2101 60.8542C66.6336 65.4988 67.8681 70.4634 65.0285 74.8673C62.8554 78.2341 60.1505 79.7405 56.1797 78.9705C50.214 77.8105 45.2493 72.444 43.8872 66.1125C43.6105 64.8274 43.1412 63.588 42.7441 62.2741ZM44.6573 64.5001C45.0688 71.0651 51.0418 77.2907 57.3276 77.8105C59.2937 77.9742 61.2262 77.7552 62.6027 76.1524C64.5953 73.8277 65.967 71.1878 65.8683 68.0184C65.7961 65.6865 65.671 63.3498 65.4159 61.0323C65.3076 60.0504 64.8119 59.1119 64.4124 57.9207C62.5979 59.6317 62.5786 63.5158 59.005 61.2489C57.6308 65.4964 56.6032 65.8213 53.4242 63.0971C52.1536 65.3159 51.5303 65.3544 48.7388 63.3907C47.4031 66.1654 46.9026 66.3242 44.6573 64.5001ZM57.691 59.1817C56.2062 59.6654 54.8682 60.101 53.5422 60.5317C54.0018 62.635 55.3519 64.18 56.4709 63.9755C57.6862 63.7541 58.1867 61.9588 57.691 59.1817ZM63.368 58.0097C63.226 57.7883 63.0816 57.5669 62.9396 57.3431C61.5318 57.7979 60.1264 58.2504 58.1482 58.8905C59.2769 59.8531 60.5138 61.0925 60.639 60.989C61.6666 60.1347 62.4872 59.0349 63.368 58.0097ZM52.7889 61.2705C52.6012 61.1502 52.4111 61.0299 52.2234 60.9096C51.1621 61.1743 50.1008 61.4414 49.0396 61.7061C48.9698 61.9131 48.9024 62.12 48.8326 62.327C49.7736 62.8612 50.7145 63.3931 51.6555 63.9273C52.0333 63.0417 52.4111 62.1561 52.7889 61.2705ZM48.024 61.978C46.5801 62.2548 45.8028 62.4064 45.0279 62.5556C44.9485 62.7193 44.8667 62.8805 44.7873 63.0441C45.4852 63.6145 46.183 64.1848 46.8809 64.7552C47.1986 63.9827 47.5163 63.2126 48.024 61.978Z" fill="#60C3F1"/>
<path d="M53.2251 54.0247C53.0783 54.9272 52.9316 55.8272 52.6933 57.2807C52.0821 56.5612 51.5045 56.1497 51.5695 55.9066C51.7668 55.1606 52.212 54.482 52.5585 53.7769C52.7823 53.8587 53.0037 53.9429 53.2251 54.0247Z" fill="#60C3F1"/>
<path d="M10.7424 54.3857C10.728 51.623 11.3561 49.0433 12.9444 46.7523C15.4014 43.2075 19.442 42.8898 22.414 45.9798C26.4473 50.1743 26.9094 58.6862 23.3526 63.3163C20.3059 67.2822 17.4325 67.3905 14.0634 63.7952C11.5943 61.1601 10.7954 57.8944 10.7424 54.3857ZM24.8037 55.1414C24.64 52.1284 23.9903 49.1155 21.7234 46.721C19.2904 44.1508 16.1571 44.2952 13.9888 46.9953C10.675 51.1201 11.1034 59.4153 14.8263 63.1647C17.897 66.2571 19.9955 66.233 22.6571 62.5847C24.2309 60.4237 24.7195 57.9209 24.8037 55.1414Z" fill="#60C3F1"/>
<path d="M99.1059 55.779C98.9807 58.5032 98.497 61.1238 96.8702 63.4076C94.3241 66.9837 90.209 67.2364 87.2393 64.0044C83.336 59.7545 82.9726 51.3606 86.4909 46.7955C88.96 43.5924 92.7936 43.3565 95.6333 46.2323C97.7895 48.4174 99.1299 52.1042 99.1059 55.779ZM85.124 54.2147C85.2805 54.2749 84.9074 54.5685 85.0663 54.6287C85.0976 58.017 85.8123 61.1864 88.3127 63.6651C90.6927 66.0259 93.6792 65.8045 95.7873 63.2079C99.1492 59.0639 98.769 50.8312 95.0389 47.0481C92.4663 44.4395 89.0154 44.5742 87.1503 47.7123C85.9398 49.7434 85.9519 51.955 85.124 54.2147Z" fill="#60C3F1"/>
<path d="M44.6582 64.5002C46.9035 66.3267 47.404 66.1679 48.7372 63.3884C51.5312 65.3521 52.1545 65.3136 53.4227 63.0947C56.6017 65.8189 57.6293 65.4916 59.0034 61.2465C62.5771 63.5135 62.5964 59.6294 64.4109 57.9183C64.8103 59.112 65.3061 60.0505 65.4144 61.03C65.6671 63.3474 65.7922 65.6842 65.8668 68.0161C65.9655 71.183 64.5962 73.8254 62.6012 76.1501C61.2271 77.7528 59.2922 77.9718 57.3261 77.8082C51.0427 77.2884 45.0697 71.0651 44.6582 64.5002Z" fill="#60C3F1"/>
<path d="M57.6918 59.1816C58.1875 61.9612 57.687 63.754 56.4717 63.9754C55.3527 64.18 54.0026 62.635 53.543 60.5317C54.869 60.1009 56.207 59.6629 57.6918 59.1816Z" fill="#60C3F1"/>
<path d="M63.3677 58.0096C62.4845 59.0348 61.6663 60.137 60.6411 60.9889C60.516 61.0924 59.279 59.8554 58.1504 58.8904C60.1261 58.2527 61.534 57.7978 62.9418 57.343C63.0838 57.5668 63.2257 57.7882 63.3677 58.0096Z" fill="#60C3F1"/>
<path d="M52.7883 61.2705C52.4105 62.1561 52.0327 63.0417 51.6549 63.9273C50.7139 63.3931 49.773 62.8612 48.832 62.327C48.9018 62.12 48.9692 61.9131 49.039 61.7061C50.1003 61.4414 51.1615 61.1743 52.2228 60.9095C52.4129 61.0299 52.6006 61.1502 52.7883 61.2705Z" fill="#60C3F1"/>
<path d="M48.0239 61.978C47.5161 63.2126 47.1984 63.9827 46.8808 64.7527C46.1829 64.1824 45.485 63.6121 44.7871 63.0417C44.8665 62.8781 44.9483 62.7168 45.0278 62.5532C45.8027 62.4064 46.58 62.2572 48.0239 61.978Z" fill="#60C3F1"/>
<path d="M24.8029 55.1411C24.7211 57.9206 24.2326 60.4234 22.6539 62.5844C19.9923 66.2327 17.8938 66.2568 14.8231 63.1644C11.1026 59.4175 10.6743 51.1198 13.9856 46.9951C16.1563 44.2949 19.2896 44.1506 21.7202 46.7207C23.9895 49.1176 24.6393 52.1306 24.8029 55.1411Z" fill="#60C3F1"/>
<path d="M85.1267 53.9741C85.608 51.327 85.9425 49.7459 87.1505 47.71C89.0132 44.5719 92.4665 44.4371 95.0391 47.0458C98.7692 50.8288 99.1518 59.0615 95.7875 63.2055C93.6818 65.8021 90.6953 66.0235 88.3129 63.6627C85.8125 61.184 85.1002 58.0147 85.0665 54.6263C84.9101 54.5685 85.1267 54.2148 85.1267 53.9741Z" fill="#60C3F1"/>
<path d="M88.8402 79.7146C88.9221 79.5645 89.0266 79.4281 89.1335 79.2962C90.3683 77.0517 91.4576 74.971 92.6651 72.963C92.9266 72.5286 93.5975 72.1625 94.1228 72.0966C97.4656 71.6759 100.051 69.984 102.146 67.4575C106.896 61.7269 107.276 52.2555 103.171 45.7881C99.4691 39.9552 92.6583 37.8017 87.171 40.8716C86.8322 41.0604 85.9931 40.7943 85.6497 40.4646C81.329 36.3213 76.2988 33.365 70.6979 31.332C70.2863 31.1819 69.8906 30.9864 69.322 30.7385C70.9434 30.0449 72.4966 29.606 73.7883 28.7669C75.1732 27.8686 76.4716 26.7203 77.5063 25.4377C78.3546 24.3871 78.3159 22.9749 77.4404 21.7878C76.5694 20.6076 75.3119 20.2301 73.9725 20.6008C72.7081 20.9487 71.5211 21.5695 70.2112 22.1062C70.3408 21.3535 70.5409 20.5849 70.5819 19.8094C70.6114 19.2341 70.4363 18.6474 70.3499 18.0652C69.7951 18.2312 69.1265 18.254 68.7035 18.586C66.8342 20.0528 65.0355 21.6105 63.2117 23.1341C63.0707 23.0477 62.9274 22.9613 62.7864 22.8726C64.0872 20.8009 65.3698 18.7156 66.7001 16.6599C67.405 15.5706 68.2692 14.5791 68.9241 13.4603C69.6359 12.2414 70.1043 10.811 68.8013 9.75134C67.5028 8.69618 66.1839 9.45798 65.1264 10.3608C64.1441 11.1999 63.2481 12.1686 62.4385 13.1783C59.9121 16.3233 57.4424 19.5138 54.8023 22.8794C55.2048 21.7105 55.5322 20.7054 55.8984 19.7139C56.7602 17.383 57.7449 15.0908 58.4885 12.7235C59.2412 10.3244 59.2048 7.89571 57.729 5.71035C55.7096 2.71544 51.4822 2.83824 49.9836 6.11059C49.2445 7.72289 49.0285 9.71268 49.0785 11.5183C49.1535 14.1607 49.7903 16.7827 49.9858 19.4297C50.1837 22.0744 49.7698 24.6622 48.4759 27.3229C47.9119 26.1768 47.5435 25.2262 47.0068 24.3871C46.0381 22.868 45.0989 21.2921 43.88 19.9891C43.3047 19.3751 41.8016 18.8384 41.2717 19.1659C40.5736 19.5957 40.0278 20.951 40.121 21.8333C40.2643 23.1818 40.8101 24.5963 41.5514 25.7447C42.4133 27.0818 43.6708 28.1643 44.7828 29.3877C44.5918 29.4332 44.3849 29.49 44.1757 29.5355C36.2279 31.2638 29.0987 34.6021 23.0498 40.1394C22.6564 40.501 21.5898 40.476 21.0077 40.2281C16.4164 38.2701 12.2162 38.9228 8.53455 42.1815C4.18658 46.0292 2.75393 51.1003 3.03364 56.7377C3.45661 65.2744 7.32703 69.254 14.2924 71.6418C14.629 71.7577 15.011 72.0056 15.1793 72.3012C16.6074 74.8118 19.0907 79.5713 19.5819 80.1353C20.048 80.6697 20.8576 81.5952 20.8758 81.5816C22.6791 83.2166 24.4551 84.8267 26.2289 86.4344C26.6132 86.6982 27.0066 86.9506 27.3841 87.2235C29.1283 88.2536 33.9197 91.0666 33.9334 91.0507C36.9874 92.0604 43.0682 94.0411 43.1205 94.0479C44.046 94.1844 46.2109 94.4459 46.3838 94.4572C50.6021 94.7301 54.8409 94.8643 59.0638 94.7642C61.2537 94.7119 63.4346 94.2139 65.5926 93.8523C65.7495 93.7546 66.9798 93.5363 67.3823 93.4612C70.4636 92.2332 73.3403 91.0848 76.4648 89.8409C76.4717 89.8523 80.1715 87.4668 81.3677 86.5322C81.5087 86.4208 83.271 85.2769 83.2642 85.2701C85.0675 83.6214 88.681 80.0034 88.8402 79.7146ZM100.688 43.9166C106.323 49.8928 106.58 60.6058 101.238 66.8617C96.5378 72.3672 89.154 72.4058 84.4149 66.914C81.5496 63.5962 80.3534 59.6666 80.3785 54.1271C80.4194 50.982 81.6315 47.0502 84.6582 43.8484C89.3155 38.9228 96.0353 38.9796 100.688 43.9166ZM7.91146 66.9368C5.11893 63.6439 3.93643 59.3119 3.95462 53.7405C3.99101 50.6296 5.219 46.6477 8.32079 43.4231C12.928 38.6317 19.4704 38.6613 24.1095 43.4208C30.0061 49.4675 30.1948 61.0788 24.5074 67.3233C19.7752 72.5218 12.5164 72.3672 7.91146 66.9368ZM61.4993 93.3521C50.5475 95.0121 40.0733 93.3703 30.4063 87.7193C24.562 84.3036 19.9161 79.6941 16.8939 73.5588C16.6938 73.154 16.5051 72.7424 16.3368 72.3217C16.28 72.1784 16.3095 72.0033 16.305 71.9328C18.0173 71.4234 19.8025 71.6236 21.3192 70.8436C26.5905 68.1397 28.9396 62.9731 29.4785 57.3221C30.0766 51.0366 28.155 45.5948 23.1271 41.1582C30.8225 34.1814 39.5548 30.0654 49.9904 29.6356C49.2968 29.4832 48.6055 29.3309 47.9119 29.1762C44.6759 28.4576 41.374 25.0329 41.0716 21.9311C41.0034 21.2262 41.3786 20.478 41.5514 19.748C42.2268 20.0573 43.1774 20.1824 43.5321 20.71C44.9147 22.7611 46.0859 24.9533 47.3843 27.0636C47.7095 27.5935 48.2121 28.0142 48.6351 28.4849C48.9648 27.9869 49.381 27.5275 49.6084 26.9886C51.3162 22.9158 51.0888 18.7315 50.452 14.4722C50.1223 12.2687 49.9949 9.96737 50.2428 7.76155C50.4861 5.59893 52.1371 4.305 53.8244 4.27089C55.5914 4.2345 57.4038 5.56482 57.6335 7.71606C57.8427 9.66719 57.6403 11.7684 57.1195 13.6672C56.3759 16.3779 55.1457 18.9544 54.1906 21.6128C53.9086 22.3973 53.7403 23.2614 53.7403 24.0915C53.7403 24.4803 54.2656 24.8692 54.5521 25.258C54.9023 24.9647 55.4231 24.7441 55.58 24.3689C57.7631 19.1204 61.82 15.2704 65.4175 11.0794C65.5267 10.952 65.6586 10.7997 65.8064 10.7587C66.5727 10.5495 67.3482 10.3721 68.1191 10.1834C68.1418 11.0157 68.4124 11.9481 68.1259 12.6576C67.7143 13.6786 66.8684 14.5177 66.2589 15.4683C65.0423 17.3648 63.8098 19.2546 62.6932 21.2102C62.318 21.8697 62.152 22.7134 62.1179 23.482C62.0951 24.0323 62.4544 24.5986 62.6432 25.158C63.0525 24.7941 63.48 24.4439 63.8712 24.0596C65.6222 22.3382 67.3618 20.6076 69.106 18.8793C69.2743 18.984 69.4426 19.0908 69.6109 19.1954C69.4949 19.9868 69.2607 20.7873 69.2993 21.5718C69.3289 22.1744 69.7064 22.7566 69.9292 23.3501C70.3886 23.1204 70.857 22.9021 71.3096 22.6565C72.0941 22.2313 72.8354 21.7014 73.6587 21.374C74.8093 20.9169 76.151 21.0169 76.6126 22.1858C76.9606 23.0681 76.8901 24.5895 76.3307 25.2535C75.3142 26.4565 73.9065 27.4843 72.458 28.1302C69.9565 29.2467 67.3004 30.0153 65.106 30.7885C72.9423 31.83 79.653 35.8756 85.6224 41.5107C75.0845 50.2635 78.6047 69.8384 91.801 72.0852C90.6026 75.2802 88.7037 77.9931 86.4706 80.4582C79.7667 87.8625 71.2163 91.8785 61.4993 93.3521Z" fill="white"/>
<path d="M91.8047 72.0852C90.6063 75.2802 88.7075 77.9931 86.4744 80.4582C79.7682 87.8625 71.2178 91.8784 61.5008 93.352C50.549 95.0121 40.0748 93.3702 30.4078 87.7192C24.5635 84.3036 19.9176 79.6941 16.8954 73.5587C16.6953 73.154 16.5066 72.7424 16.3383 72.3217C16.2814 72.1784 16.311 72.0033 16.3064 71.9328C18.0188 71.4234 19.8039 71.6235 21.3207 70.8435C26.5919 68.1397 28.941 62.9731 29.48 57.3221C30.0781 51.0366 28.1565 45.5948 23.1286 41.1582C30.8239 34.1814 39.5563 30.0654 49.9919 29.6356C49.2983 29.4832 48.607 29.3308 47.9134 29.1762C44.6774 28.4576 41.3755 25.0329 41.0731 21.9311C41.0048 21.2261 41.3801 20.478 41.5529 19.748C42.2283 20.0573 43.1788 20.1824 43.5336 20.7099C44.9162 22.7611 46.0896 24.9533 47.3858 27.0636C47.711 27.5935 48.2136 28.0142 48.6365 28.4849C48.9663 27.9869 49.3824 27.5275 49.6098 26.9886C51.3176 22.9158 51.0902 18.7315 50.4535 14.4722C50.1238 12.2687 49.9964 9.96735 50.2443 7.76153C50.4876 5.59891 52.1386 4.30498 53.8259 4.27087C55.5928 4.23448 57.4053 5.5648 57.6349 7.71605C57.8419 9.66718 57.6418 11.7684 57.121 13.6672C56.3774 16.3779 55.1471 18.9544 54.192 21.6127C53.91 22.3973 53.7418 23.2637 53.7418 24.0914C53.7418 24.4803 54.2671 24.8692 54.5536 25.258C54.9038 24.9647 55.4246 24.7441 55.5815 24.3689C57.7646 19.1204 61.8215 15.2704 65.419 11.0794C65.5281 10.952 65.66 10.7997 65.8079 10.7587C66.5742 10.5495 67.3497 10.3721 68.1206 10.1834C68.1433 11.0157 68.4139 11.948 68.1274 12.6575C67.7158 13.6786 66.8698 14.5177 66.2604 15.4683C65.0438 17.3648 63.8112 19.2545 62.6947 21.2102C62.3195 21.8697 62.1535 22.7134 62.1194 23.482C62.0966 24.0323 62.4559 24.5986 62.6447 25.158C63.054 24.7941 63.4815 24.4439 63.8726 24.0596C65.6237 22.3382 67.3633 20.6076 69.1075 18.8793C69.2758 18.9839 69.4441 19.0908 69.6123 19.1954C69.4964 19.9868 69.2621 20.7873 69.3008 21.5718C69.3326 22.1744 69.7078 22.7566 69.933 23.3501C70.3923 23.1204 70.8608 22.9021 71.3133 22.6565C72.0979 22.2313 72.8392 21.7014 73.6624 21.374C74.8131 20.9169 76.1548 21.0169 76.6164 22.1858C76.9643 23.0681 76.8938 24.5895 76.3344 25.2535C75.3179 26.4565 73.9103 27.4843 72.4617 28.1301C69.9603 29.2467 67.3065 30.0153 65.1097 30.7885C72.9461 31.83 79.6568 35.8756 85.6262 41.5106C75.0882 50.2657 78.6107 69.8407 91.8047 72.0852ZM43.3926 62.4023C43.7678 63.6462 44.2112 64.815 44.4728 66.0271C45.7599 72.0101 50.4535 76.8561 56.0886 77.9499C59.8408 78.6799 62.1694 77.4815 64.2228 74.3001C66.9062 70.1386 65.967 65.6746 65.5668 61.2857C65.2371 57.6768 63.295 56.7103 59.8794 57.8769C56.2546 59.1163 52.6002 60.2829 48.9162 61.3358C47.0493 61.8724 45.0913 62.0839 43.3926 62.4023ZM53.2961 54.6069C53.0868 54.5273 52.8776 54.4499 52.6684 54.3704C52.3387 55.0367 51.9203 55.6779 51.7338 56.3829C51.6724 56.6126 52.2204 57.0037 52.7958 57.6814C53.0186 56.3101 53.1573 55.4596 53.2961 54.6069Z" fill="#FFE00A"/>
<path d="M3.72872 53.5153C3.76511 50.4044 5.22049 46.4226 8.32229 43.198C12.9295 38.4066 19.6993 38.4361 24.3384 43.1957C30.235 49.2424 30.4237 61.0811 24.7364 67.3256C20.0018 72.5241 12.2882 72.5969 7.68556 67.1664C4.89076 63.8714 3.71053 59.0868 3.72872 53.5153ZM13.1501 54.948C13.2001 58.2635 13.9574 61.3494 16.2883 63.8372C19.4719 67.2347 22.1871 67.1323 25.0661 63.3847C28.4249 59.0094 27.9905 50.9661 24.1792 47.0025C21.3708 44.0826 17.5549 44.3851 15.2308 47.7324C13.73 49.8996 13.1364 52.3374 13.1501 54.948Z" fill="white"/>
<path d="M80.1527 53.902C80.1937 50.7569 81.6331 46.8251 84.6599 43.6233C89.3171 38.6977 96.0347 38.7545 100.69 43.6892C106.325 49.6654 106.582 60.6058 101.24 66.8617C96.5395 72.3672 89.1557 72.4058 84.4166 66.914C81.549 63.5962 80.1254 59.4393 80.1527 53.902ZM96.6487 56.2647C96.6737 52.7922 95.407 49.3084 93.3695 47.2435C90.6861 44.5261 87.0636 44.7489 84.7304 47.7757C81.4057 52.0895 81.7491 60.0214 85.4376 64.0374C88.2415 67.0914 92.1324 66.8526 94.5383 63.4734C96.0756 61.3176 96.5327 58.8412 96.6487 56.2647Z" fill="white"/>
<path d="M43.3906 62.4024C45.0893 62.0863 47.0473 61.6452 48.9143 61.1108C52.5982 60.0579 56.2526 58.8913 59.8775 57.6519C63.2908 56.4853 65.2351 57.4518 65.5648 61.0607C65.9651 65.4496 67.1317 70.141 64.4483 74.3025C62.3948 77.4839 59.8388 78.9074 56.0866 78.1797C50.4493 77.0836 45.7579 72.0125 44.4708 66.0295C44.2093 64.8152 43.7658 63.644 43.3906 62.4024ZM45.1985 64.5059C45.5873 70.7095 51.2315 76.5925 57.1713 77.0836C59.0292 77.2383 60.8553 77.0313 62.156 75.5168C64.0389 73.3201 65.3352 70.8255 65.2419 67.8306C65.1737 65.627 65.0554 63.4189 64.8144 61.229C64.7121 60.3012 64.2436 59.4143 63.8661 58.2887C62.1515 59.9055 62.1333 63.5758 58.7564 61.4337C57.4579 65.4474 56.4868 65.7543 53.4828 63.1801C52.2821 65.2768 51.6932 65.3132 49.0553 63.4576C47.7932 66.0795 47.3202 66.2296 45.1985 64.5059ZM57.5147 59.4803C56.1116 59.9373 54.8473 60.3489 53.5943 60.756C54.0286 62.7435 55.3043 64.2035 56.3618 64.0102C57.5102 63.8009 57.9832 62.1045 57.5147 59.4803ZM62.8792 58.3728C62.745 58.1636 62.6086 57.9544 62.4744 57.7429C61.1441 58.1727 59.8161 58.6002 57.9468 59.2051C59.0133 60.1147 60.1822 61.2858 60.3004 61.1881C61.2714 60.3808 62.0469 59.3415 62.8792 58.3728ZM52.8825 61.4541C52.7051 61.3404 52.5255 61.2267 52.3481 61.113C51.3452 61.3632 50.3424 61.6156 49.3395 61.8657C49.2736 62.0613 49.2099 62.2569 49.144 62.4524C50.0331 62.9573 50.9223 63.4598 51.8114 63.9647C52.1684 63.1278 52.5255 62.291 52.8825 61.4541ZM48.3799 62.1227C47.0155 62.3842 46.2809 62.5275 45.5487 62.6685C45.4736 62.8231 45.3963 62.9755 45.3213 63.1301C45.9808 63.6691 46.6402 64.208 47.2997 64.7469C47.5999 64.017 47.9001 63.2893 48.3799 62.1227Z" fill="white"/>
<path d="M53.2958 54.607C53.1571 55.4598 53.0184 56.3103 52.7933 57.6838C52.2157 57.0039 51.6699 56.615 51.7313 56.3853C51.9178 55.6804 52.3385 55.0391 52.6659 54.3728C52.8774 54.4501 53.0866 54.5297 53.2958 54.607Z" fill="white"/>
<path d="M13.1506 54.948C13.137 52.3374 13.7305 49.8996 15.2314 47.7347C17.5532 44.3851 21.3713 44.0849 24.1797 47.0048C27.991 50.9684 28.4277 59.0117 25.0666 63.387C22.1877 67.1346 19.4725 67.2369 16.2888 63.8395C13.9556 61.3494 13.2006 58.2636 13.1506 54.948ZM26.4379 55.662C26.2832 52.8149 25.6692 49.9678 23.5271 47.7052C21.228 45.2765 18.2672 45.4129 16.2183 47.9644C13.0869 51.8621 13.4917 59.7008 17.0097 63.2437C19.9114 66.1659 21.8943 66.1431 24.4094 62.6957C25.8966 60.6536 26.3583 58.2886 26.4379 55.662Z" fill="#60C3F1"/>
<path d="M96.6511 56.2647C96.5328 58.8389 96.0757 61.3153 94.5385 63.4734C92.1325 66.8526 88.2439 67.0914 85.4377 64.0373C81.7492 60.0214 81.4059 52.0895 84.7305 47.7756C87.0637 44.7489 90.6862 44.526 93.3696 47.2435C95.4072 49.3083 96.6738 52.7922 96.6511 56.2647ZM83.4389 54.7865C83.5867 54.8434 83.2342 55.1208 83.3843 55.1777C83.4138 58.3795 84.0892 61.3744 86.452 63.7167C88.701 65.9475 91.5231 65.7383 93.5152 63.2846C96.692 59.3687 96.3327 51.5892 92.8079 48.0144C90.377 45.5494 87.116 45.6767 85.3536 48.6421C84.2098 50.5613 84.2211 52.6512 83.4389 54.7865Z" fill="#60C3F1"/>
<path d="M45.1992 64.5059C47.3209 66.2319 47.7939 66.0818 49.0537 63.4553C51.6939 65.3109 52.2829 65.2745 53.4813 63.1779C56.4853 65.7521 57.4563 65.4428 58.7548 61.4314C62.1318 63.5735 62.1499 59.9032 63.8646 58.2864C64.2421 59.4143 64.7105 60.3012 64.8129 61.2267C65.0516 63.4166 65.1699 65.6247 65.2404 67.8283C65.3336 70.8209 64.0397 73.3178 62.1545 75.5145C60.856 77.0291 59.0277 77.236 57.1698 77.0814C51.2323 76.5902 45.5881 70.7095 45.1992 64.5059Z" fill="#60C3F1"/>
<path d="M57.5162 59.4802C57.9846 62.1067 57.5116 63.8009 56.3632 64.0101C55.3058 64.2034 54.03 62.7435 53.5957 60.756C54.8487 60.3489 56.1131 59.935 57.5162 59.4802Z" fill="white"/>
<path d="M62.8794 58.3726C62.0448 59.3413 61.2716 60.3828 60.3029 61.1878C60.1846 61.2856 59.0157 60.1168 57.9492 59.2049C59.8162 58.6023 61.1465 58.1725 62.4769 57.7427C62.611 57.9542 62.7452 58.1634 62.8794 58.3726Z" fill="white"/>
<path d="M52.8831 61.454C52.526 62.2909 52.169 63.1277 51.812 63.9646C50.9228 63.4597 50.0337 62.9572 49.1445 62.4523C49.2105 62.2567 49.2741 62.0612 49.3401 61.8656C50.3429 61.6155 51.3458 61.3631 52.3487 61.1129C52.5283 61.2266 52.7057 61.3403 52.8831 61.454Z" fill="white"/>
<path d="M48.3809 62.1227C47.901 63.2893 47.6009 64.017 47.3007 64.7447C46.6412 64.2057 45.9817 63.6668 45.3223 63.1278C45.3973 62.9732 45.4746 62.8208 45.5497 62.6662C46.2819 62.5275 47.0164 62.3865 48.3809 62.1227Z" fill="white"/>
<path d="M26.4377 55.662C26.3604 58.2885 25.8987 60.6535 24.407 62.6956C21.8919 66.1431 19.9089 66.1658 17.0072 63.2437C13.4916 59.703 13.0868 51.8621 16.2159 47.9644C18.267 45.4129 21.2279 45.2764 23.5246 47.7051C25.6691 49.9701 26.2831 52.8172 26.4377 55.662Z" fill="#60C3F1"/>
<path d="M83.4406 54.5591C83.8954 52.0576 84.2114 50.5636 85.353 48.6397C87.1131 45.6744 90.3764 45.547 92.8073 48.0121C96.3321 51.5869 96.6937 59.3664 93.5146 63.2823C91.5248 65.736 88.7027 65.9452 86.4514 63.7144C84.0887 61.3721 83.4155 58.3772 83.3837 55.1753C83.2359 55.1208 83.4406 54.7865 83.4406 54.5591Z" fill="#60C3F1"/>
</svg>
