<svg width="65" height="79" viewBox="0 0 65 79" fill="none" xmlns="http://www.w3.org/2000/svg">
<path d="M23.1406 63.25H6.92188V58.9844C6.92188 56.3281 7.09375 54.4688 7.4375 53.4062C8.46875 50.4062 10.9062 48.0625 14.75 46.375L17.6562 45.1094C20.0625 44.0469 21.5938 42.8438 22.25 41.5C22.6562 40.5 22.8594 38.9531 22.8594 36.8594V27.0625H16.4375V34.2812H2.51562V27.9062C2.48438 22.4375 3.48438 18.8438 5.51562 17.125C6.73438 16.125 8.57812 15.5 11.0469 15.25C12.3594 15.0938 13.9219 15.0156 15.7344 15.0156H22.7656C28.3281 15.0156 31.9531 15.4219 33.6406 16.2344C36.6719 17.6406 38.1719 21.1719 38.1406 26.8281V34.2812C38.2344 40.0625 37.6094 44.1094 36.2656 46.4219C34.5781 48.7344 31.8281 50.7188 28.0156 52.375C26.3906 53.1562 25.2812 53.9375 24.6875 54.7188C23.7812 55.875 23.2812 57.3281 23.1875 59.0781C23.1562 59.7656 23.1406 61.1562 23.1406 63.25ZM6.92188 68.7812H23.1406V79H6.92188V68.7812Z" fill="#FFE00A"/>
<path d="M59.1367 26L54.2539 15.7266L58.8242 6.83984H53.7461L52.1445 10.043C51.9362 10.4727 51.7799 10.8633 51.6758 11.2148C51.5716 11.5534 51.5 11.8919 51.4609 12.2305C51.4089 11.8789 51.3242 11.5208 51.207 11.1562C51.0898 10.7786 50.9336 10.3945 50.7383 10.0039L49.2539 6.83984H44.0195L48.8633 15.6484L43.8633 26H49.1367L50.8555 21.6445C50.9857 21.293 51.1029 20.9023 51.207 20.4727C51.2982 20.043 51.3828 19.5677 51.4609 19.0469C51.5391 19.5417 51.6367 20.0039 51.7539 20.4336C51.8581 20.8633 51.9883 21.2539 52.1445 21.6055L54.0195 26H59.1367Z" fill="#FFE00A"/>
</svg>
