<svg width="37" height="64" viewBox="0 0 37 64" fill="none" xmlns="http://www.w3.org/2000/svg">
<path d="M21.1406 48.25H4.92188V43.9844C4.92188 41.3281 5.09375 39.4688 5.4375 38.4062C6.46875 35.4062 8.90625 33.0625 12.75 31.375L15.6562 30.1094C18.0625 29.0469 19.5938 27.8438 20.25 26.5C20.6562 25.5 20.8594 23.9531 20.8594 21.8594V12.0625H14.4375V19.2812H0.515625V12.9062C0.484375 7.4375 1.48438 3.84375 3.51562 2.125C4.73438 1.125 6.57812 0.5 9.04688 0.25C10.3594 0.09375 11.9219 0.015625 13.7344 0.015625H20.7656C26.3281 0.015625 29.9531 0.421875 31.6406 1.23438C34.6719 2.64062 36.1719 6.17187 36.1406 11.8281V19.2812C36.2344 25.0625 35.6094 29.1094 34.2656 31.4219C32.5781 33.7344 29.8281 35.7188 26.0156 37.375C24.3906 38.1562 23.2812 38.9375 22.6875 39.7188C21.7812 40.875 21.2812 42.3281 21.1875 44.0781C21.1562 44.7656 21.1406 46.1562 21.1406 48.25ZM4.92188 53.7812H21.1406V64H4.92188V53.7812Z" fill="#FFE00A"/>
</svg>
