<svg width="610" height="422" viewBox="0 0 610 422" fill="none" xmlns="http://www.w3.org/2000/svg">
<path d="M187.844 33.0156H214.094C217.969 33.0156 220.672 33.1094 222.203 33.2969C225.297 33.6719 227.312 35.25 228.25 38.0312C228.969 40.0312 229.344 42.4688 229.375 45.3438V49.4688C229.375 52.3125 229.297 54.3281 229.141 55.5156C228.672 58.7344 227.438 61.0781 225.438 62.5469C224.281 63.3594 222.469 63.9062 220 64.1875C222.531 64.9375 224.375 65.6875 225.531 66.4375C228.25 68.3438 229.531 71.6562 229.375 76.375V86.2656C229.406 90.6406 229.859 94.2188 230.734 97H213.531C212.625 94.2812 212.188 90.6875 212.219 86.2188V77.6875C212.188 75.4062 211.703 73.8594 210.766 73.0469C209.891 72.3281 208.688 71.9688 207.156 71.9688H205V97H187.844V33.0156ZM205 58.0469H207.438C209.375 58.0469 210.625 57.75 211.188 57.1562C211.938 56.375 212.312 54.8125 212.312 52.4688C212.312 50.1875 211.797 48.5938 210.766 47.6875C210.141 47.1562 209.031 46.8906 207.438 46.8906H205V58.0469ZM271.984 78.5781H249.859V81.1562C249.859 82.9688 250.25 84.1406 251.031 84.6719C251.75 85.1719 253.172 85.4219 255.297 85.4219H271.984V97H246.25C241.469 97.0625 238.25 96.3594 236.594 94.8906C235.438 93.7344 234.781 91.6094 234.625 88.5156C234.594 87.7031 234.578 86.125 234.578 83.7812V57.7656C234.609 54.0781 235.375 51.5 236.875 50.0312C237.938 49 239.75 48.3438 242.312 48.0625C243.625 47.9062 245.234 47.8281 247.141 47.8281H259.234C264.516 47.8906 268 48.6406 269.688 50.0781C271.031 51.1719 271.781 52.7812 271.938 54.9062C271.969 55.4688 271.984 56.625 271.984 58.375V78.5781ZM249.859 69.25H256.703V64.7969C256.703 63.2344 256.469 62.0469 256 61.2344C255.344 60.0469 254.438 59.4531 253.281 59.4531C251 59.4531 249.859 61.2344 249.859 64.7969V69.25ZM299.172 97H289.422C286.547 97 284.719 96.9531 283.938 96.8594C280.656 96.5469 278.562 95.3594 277.656 93.2969C276.938 91.7344 276.578 89.6719 276.578 87.1094L276.672 83.5938V61.5156C276.672 58.2344 276.734 55.9844 276.859 54.7656C277.047 52.8906 277.656 51.4375 278.688 50.4062C279.75 49.3438 281.312 48.6406 283.375 48.2969C285.375 47.9844 288.016 47.8281 291.297 47.8281H300.391C303.078 47.8281 305.266 47.8906 306.953 48.0156C309.172 48.2344 310.844 48.8125 311.969 49.75C313.125 50.6562 313.828 52 314.078 53.7812C314.234 55.1562 314.359 57.7344 314.453 61.5156V100.797C314.453 103.578 314.344 105.688 314.125 107.125C313.562 110.5 311.625 112.375 308.312 112.75C304.844 113.062 302.766 113.219 302.078 113.219H287.266C282.891 113.188 280.125 112.734 278.969 111.859C277.438 110.734 276.672 108.578 276.672 105.391V100.797H289.422C289.422 101.953 289.609 102.875 289.984 103.562C290.578 104.656 292.078 105.203 294.484 105.203C297.609 105.203 299.172 103.734 299.172 100.797V97ZM299.172 80.2656V64.7969C299.172 61.2656 297.953 59.5 295.516 59.5C293.109 59.5 291.906 61.2656 291.906 64.7969V80.2656C291.906 83.7969 293.109 85.5625 295.516 85.5625C297.953 85.5625 299.172 83.7969 299.172 80.2656ZM320.078 47.8281H335.359V54.1562C337.047 51.375 338.781 49.5312 340.562 48.625C341.938 47.9375 343.484 47.5938 345.203 47.5938C346.016 47.5938 346.938 47.7656 347.969 48.1094L346.844 64.7969C343.156 62.9844 339.328 61.4688 335.359 60.25V97H320.078V47.8281ZM388.516 47.8281V97H373.234V91.6562C372.141 93.7188 371.203 95.0781 370.422 95.7344C369.078 96.7344 367.203 97.2344 364.797 97.2344H361.797C358.797 97.2344 356.75 97.0312 355.656 96.625C354.656 96.3125 353.797 95.6562 353.078 94.6562C352.359 93.6562 351.906 92.4844 351.719 91.1406C351.375 89.2031 351.188 86.9844 351.156 84.4844V58.1875C351.156 55.6875 351.312 53.8594 351.625 52.7031C352.062 50.8906 353.234 49.4844 355.141 48.4844C356.234 47.8906 357.75 47.5938 359.688 47.5938H363.016C366.234 47.5938 368.484 48.0781 369.766 49.0469C370.484 49.6406 371.641 50.9531 373.234 52.9844V47.8281H388.516ZM373.234 79.75V64.5625C373.234 60.8438 372.109 58.9844 369.859 58.9844C367.609 58.9844 366.484 60.8438 366.484 64.5625V79.75C366.484 83.4375 367.609 85.2812 369.859 85.2812C372.109 85.2812 373.234 83.4375 373.234 79.75ZM422.547 47.8281V59.4062H408.672V65.2188H414.062C418.531 65.1562 421.5 66.1406 422.969 68.1719C423.688 69.3594 424.094 71.3906 424.188 74.2656C424.219 75.0156 424.234 76.5156 424.234 78.7656V85.6094C424.234 86.2969 424.156 87.2812 424 88.5625C423.875 89.8438 423.75 90.7969 423.625 91.4219C423.25 93.2031 422.172 94.6562 420.391 95.7812C419.297 96.4375 417.531 96.8125 415.094 96.9062L412.609 97H393.438V85.4219H408.484V79.0938H401.031C398.75 79.0938 397.062 78.8125 395.969 78.25C394.375 77.3438 393.562 75.375 393.531 72.3438C393.5 71.5625 393.469 70.2031 393.438 68.2656V56.6875C393.375 52.7188 394.516 50.0781 396.859 48.7656C398.078 48.1406 400.359 47.8281 403.703 47.8281H422.547Z" fill="#FFE00A"/>
<path d="M2.83203 192.34H12.9492C14.3294 192.353 15.2018 192.366 15.5664 192.379C17.832 192.47 19.2188 193.342 19.7266 194.996C20.013 195.816 20.1758 197.919 20.2148 201.305V208.492C20.2148 211.474 20.0977 213.655 19.8633 215.035C19.6289 216.415 19.2122 217.398 18.6133 217.984C18.0534 218.544 17.2721 218.857 16.2695 218.922C16.0872 218.935 14.9805 218.961 12.9492 219H2.83203V192.34ZM9.98047 213.121H11.2695C11.9857 213.121 12.4544 212.991 12.6758 212.73C12.9232 212.431 13.0534 211.78 13.0664 210.777V200.484C13.0534 199.469 12.9232 198.818 12.6758 198.531C12.4544 198.271 11.9857 198.141 11.2695 198.141H9.98047V213.121ZM37.8125 198.512V219H31.4453V216.773C30.9896 217.633 30.599 218.199 30.2734 218.473C29.7135 218.889 28.9323 219.098 27.9297 219.098H26.6797C25.4297 219.098 24.5768 219.013 24.1211 218.844C23.7044 218.714 23.3464 218.44 23.0469 218.023C22.7474 217.607 22.5586 217.118 22.4805 216.559C22.3372 215.751 22.2591 214.827 22.2461 213.785V202.828C22.2461 201.786 22.3112 201.025 22.4414 200.543C22.6237 199.788 23.112 199.202 23.9062 198.785C24.362 198.538 24.9935 198.414 25.8008 198.414H27.1875C28.5286 198.414 29.4661 198.616 30 199.02C30.2995 199.267 30.7812 199.814 31.4453 200.66V198.512H37.8125ZM31.4453 211.812V205.484C31.4453 203.935 30.9766 203.16 30.0391 203.16C29.1016 203.16 28.6328 203.935 28.6328 205.484V211.812C28.6328 213.349 29.1016 214.117 30.0391 214.117C30.9766 214.117 31.4453 213.349 31.4453 211.812ZM29.5703 191.871H35.4102L31.9727 197.184H27.4414L29.5703 191.871ZM55.625 198.512H59.1602C60.5273 198.512 61.6276 198.577 62.4609 198.707C63.3203 198.85 63.9648 199.143 64.3945 199.586C64.8372 200.016 65.0977 200.621 65.1758 201.402C65.2279 201.91 65.2539 202.848 65.2539 204.215V213.297C65.2539 214.664 65.2279 215.602 65.1758 216.109C65.0977 216.891 64.8372 217.503 64.3945 217.945C63.9648 218.375 63.3203 218.661 62.4609 218.805C61.6276 218.935 60.5273 219 59.1602 219H55.625C54.2578 219 53.1576 218.935 52.3242 218.805C51.4648 218.661 50.8138 218.375 50.3711 217.945C49.9414 217.503 49.6875 216.891 49.6094 216.109C49.5573 215.602 49.5312 214.664 49.5312 213.297V204.215C49.5312 202.848 49.5573 201.91 49.6094 201.402C49.6875 200.621 49.9414 200.016 50.3711 199.586C50.8138 199.143 51.4648 198.85 52.3242 198.707C53.1576 198.577 54.2578 198.512 55.625 198.512ZM58.8867 212.027V205.582C58.8867 204.111 58.3854 203.375 57.3828 203.375C56.3802 203.375 55.8789 204.111 55.8789 205.582V212.027C55.8789 213.499 56.3802 214.234 57.3828 214.234C58.3854 214.234 58.8867 213.499 58.8867 212.027ZM86.6992 219H81.6602C80.7357 219 79.987 218.902 79.4141 218.707C78.8411 218.499 78.3919 218.173 78.0664 217.73C77.5065 216.936 77.2461 215.758 77.2852 214.195V204.117H75.5664V199.293H77.2852V194.449H83.6719V199.293H86.6992V204.117H83.6719V212.75C83.6719 213.193 83.737 213.512 83.8672 213.707C84.0625 214.007 84.4466 214.163 85.0195 214.176H86.6992V219ZM103.984 211.324H94.7656V212.398C94.7656 213.154 94.9284 213.642 95.2539 213.863C95.5534 214.072 96.1458 214.176 97.0312 214.176H103.984V219H93.2617C91.2695 219.026 89.9284 218.733 89.2383 218.121C88.7565 217.639 88.4831 216.754 88.418 215.465C88.4049 215.126 88.3984 214.469 88.3984 213.492V202.652C88.4115 201.116 88.7305 200.042 89.3555 199.43C89.7982 199 90.5534 198.727 91.6211 198.609C92.168 198.544 92.8385 198.512 93.6328 198.512H98.6719C100.872 198.538 102.324 198.85 103.027 199.449C103.587 199.905 103.9 200.576 103.965 201.461C103.978 201.695 103.984 202.177 103.984 202.906V211.324ZM94.7656 207.438H97.6172V205.582C97.6172 204.931 97.5195 204.436 97.3242 204.098C97.0508 203.603 96.6732 203.355 96.1914 203.355C95.2409 203.355 94.7656 204.098 94.7656 205.582V207.438ZM112.402 198.512V212.027C112.402 213.499 112.91 214.234 113.926 214.234C114.928 214.234 115.43 213.499 115.43 212.027V198.512H121.777V212.711C121.764 214.078 121.706 215.016 121.602 215.523C121.419 216.617 120.807 217.509 119.766 218.199C119.089 218.642 118.079 218.896 116.738 218.961C116.4 218.987 115.853 219 115.098 219H112.734C111.211 219 110.104 218.928 109.414 218.785C108.294 218.551 107.402 217.9 106.738 216.832C106.374 216.22 106.159 215.335 106.094 214.176C106.068 213.616 106.055 213.128 106.055 212.711V198.512H112.402ZM142.852 219H138.789C137.591 219 136.829 218.98 136.504 218.941C135.137 218.811 134.264 218.316 133.887 217.457C133.587 216.806 133.438 215.947 133.438 214.879L133.477 213.414V204.215C133.477 202.848 133.503 201.91 133.555 201.402C133.633 200.621 133.887 200.016 134.316 199.586C134.759 199.143 135.41 198.85 136.27 198.707C137.103 198.577 138.203 198.512 139.57 198.512H143.359C144.479 198.512 145.391 198.538 146.094 198.59C147.018 198.681 147.715 198.922 148.184 199.312C148.665 199.69 148.958 200.25 149.062 200.992C149.128 201.565 149.18 202.639 149.219 204.215V220.582C149.219 221.741 149.173 222.62 149.082 223.219C148.848 224.625 148.04 225.406 146.66 225.562C145.215 225.693 144.349 225.758 144.062 225.758H137.891C136.068 225.745 134.915 225.556 134.434 225.191C133.796 224.723 133.477 223.824 133.477 222.496V220.582H138.789C138.789 221.064 138.867 221.448 139.023 221.734C139.271 222.19 139.896 222.418 140.898 222.418C142.201 222.418 142.852 221.806 142.852 220.582V219ZM142.852 212.027V205.582C142.852 204.111 142.344 203.375 141.328 203.375C140.326 203.375 139.824 204.111 139.824 205.582V212.027C139.824 213.499 140.326 214.234 141.328 214.234C142.344 214.234 142.852 213.499 142.852 212.027ZM151.562 198.512H157.93V201.148C158.633 199.99 159.355 199.221 160.098 198.844C160.671 198.557 161.315 198.414 162.031 198.414C162.37 198.414 162.754 198.486 163.184 198.629L162.715 205.582C161.178 204.827 159.583 204.195 157.93 203.688V219H151.562V198.512ZM164.219 198.512H170.605V219H164.219V198.512ZM164.219 192.34H170.605V196.695H164.219V192.34ZM182.715 219H177.676C176.751 219 176.003 218.902 175.43 218.707C174.857 218.499 174.408 218.173 174.082 217.73C173.522 216.936 173.262 215.758 173.301 214.195V204.117H171.582V199.293H173.301V194.449H179.688V199.293H182.715V204.117H179.688V212.75C179.688 213.193 179.753 213.512 179.883 213.707C180.078 214.007 180.462 214.163 181.035 214.176H182.715V219ZM190.508 198.512H194.043C195.41 198.512 196.51 198.577 197.344 198.707C198.203 198.85 198.848 199.143 199.277 199.586C199.72 200.016 199.98 200.621 200.059 201.402C200.111 201.91 200.137 202.848 200.137 204.215V213.297C200.137 214.664 200.111 215.602 200.059 216.109C199.98 216.891 199.72 217.503 199.277 217.945C198.848 218.375 198.203 218.661 197.344 218.805C196.51 218.935 195.41 219 194.043 219H190.508C189.141 219 188.04 218.935 187.207 218.805C186.348 218.661 185.697 218.375 185.254 217.945C184.824 217.503 184.57 216.891 184.492 216.109C184.44 215.602 184.414 214.664 184.414 213.297V204.215C184.414 202.848 184.44 201.91 184.492 201.402C184.57 200.621 184.824 200.016 185.254 199.586C185.697 199.143 186.348 198.85 187.207 198.707C188.04 198.577 189.141 198.512 190.508 198.512ZM193.77 212.027V205.582C193.77 204.111 193.268 203.375 192.266 203.375C191.263 203.375 190.762 204.111 190.762 205.582V212.027C190.762 213.499 191.263 214.234 192.266 214.234C193.268 214.234 193.77 213.499 193.77 212.027ZM211.797 198.512H218.164V200.719C218.633 199.924 219.115 199.371 219.609 199.059C220.312 198.629 221.348 198.414 222.715 198.414C224.251 198.414 225.384 198.609 226.113 199C226.738 199.339 227.194 199.996 227.48 200.973C228.092 199.918 228.659 199.234 229.18 198.922C229.753 198.583 230.651 198.414 231.875 198.414C233.307 198.414 234.362 198.557 235.039 198.844C235.898 199.195 236.426 199.853 236.621 200.816C236.712 201.259 236.758 201.904 236.758 202.75V219H230.391V205.348C230.391 204.658 230.26 204.124 230 203.746C229.74 203.368 229.368 203.18 228.887 203.18C227.949 203.18 227.48 203.922 227.48 205.406V219H221.094V205.465C221.094 203.928 220.586 203.16 219.57 203.16C218.633 203.16 218.164 203.954 218.164 205.543V219H211.797V198.512ZM254.492 198.512V219H248.125V216.773C247.669 217.633 247.279 218.199 246.953 218.473C246.393 218.889 245.612 219.098 244.609 219.098H243.359C242.109 219.098 241.257 219.013 240.801 218.844C240.384 218.714 240.026 218.44 239.727 218.023C239.427 217.607 239.238 217.118 239.16 216.559C239.017 215.751 238.939 214.827 238.926 213.785V202.828C238.926 201.786 238.991 201.025 239.121 200.543C239.303 199.788 239.792 199.202 240.586 198.785C241.042 198.538 241.673 198.414 242.48 198.414H243.867C245.208 198.414 246.146 198.616 246.68 199.02C246.979 199.267 247.461 199.814 248.125 200.66V198.512H254.492ZM248.125 211.812V205.484C248.125 203.935 247.656 203.16 246.719 203.16C245.781 203.16 245.312 203.935 245.312 205.484V211.812C245.312 213.349 245.781 214.117 246.719 214.117C247.656 214.117 248.125 213.349 248.125 211.812ZM256.836 198.512H263.223V219H256.836V198.512ZM256.836 192.34H263.223V196.695H256.836V192.34ZM277.383 198.512V203.336H271.602V205.758H273.848C275.71 205.732 276.947 206.142 277.559 206.988C277.858 207.483 278.027 208.329 278.066 209.527C278.079 209.84 278.086 210.465 278.086 211.402V214.254C278.086 214.54 278.053 214.951 277.988 215.484C277.936 216.018 277.884 216.415 277.832 216.676C277.676 217.418 277.227 218.023 276.484 218.492C276.029 218.766 275.293 218.922 274.277 218.961L273.242 219H265.254V214.176H271.523V211.539H268.418C267.467 211.539 266.764 211.422 266.309 211.188C265.645 210.81 265.306 209.99 265.293 208.727C265.28 208.401 265.267 207.835 265.254 207.027V202.203C265.228 200.549 265.703 199.449 266.68 198.902C267.188 198.642 268.138 198.512 269.531 198.512H277.383ZM305 198.512V219H298.633V216.773C298.177 217.633 297.786 218.199 297.461 218.473C296.901 218.889 296.12 219.098 295.117 219.098H293.867C292.617 219.098 291.764 219.013 291.309 218.844C290.892 218.714 290.534 218.44 290.234 218.023C289.935 217.607 289.746 217.118 289.668 216.559C289.525 215.751 289.447 214.827 289.434 213.785V202.828C289.434 201.786 289.499 201.025 289.629 200.543C289.811 199.788 290.299 199.202 291.094 198.785C291.549 198.538 292.181 198.414 292.988 198.414H294.375C295.716 198.414 296.654 198.616 297.188 199.02C297.487 199.267 297.969 199.814 298.633 200.66V198.512H305ZM298.633 211.812V205.484C298.633 203.935 298.164 203.16 297.227 203.16C296.289 203.16 295.82 203.935 295.82 205.484V211.812C295.82 213.349 296.289 214.117 297.227 214.117C298.164 214.117 298.633 213.349 298.633 211.812ZM319.18 198.512V203.336H313.398V205.758H315.645C317.507 205.732 318.743 206.142 319.355 206.988C319.655 207.483 319.824 208.329 319.863 209.527C319.876 209.84 319.883 210.465 319.883 211.402V214.254C319.883 214.54 319.85 214.951 319.785 215.484C319.733 216.018 319.681 216.415 319.629 216.676C319.473 217.418 319.023 218.023 318.281 218.492C317.826 218.766 317.09 218.922 316.074 218.961L315.039 219H307.051V214.176H313.32V211.539H310.215C309.264 211.539 308.561 211.422 308.105 211.188C307.441 210.81 307.103 209.99 307.09 208.727C307.077 208.401 307.064 207.835 307.051 207.027V202.203C307.025 200.549 307.5 199.449 308.477 198.902C308.984 198.642 309.935 198.512 311.328 198.512H319.18ZM333.711 198.512V203.336H327.93V205.758H330.176C332.038 205.732 333.275 206.142 333.887 206.988C334.186 207.483 334.355 208.329 334.395 209.527C334.408 209.84 334.414 210.465 334.414 211.402V214.254C334.414 214.54 334.382 214.951 334.316 215.484C334.264 216.018 334.212 216.415 334.16 216.676C334.004 217.418 333.555 218.023 332.812 218.492C332.357 218.766 331.621 218.922 330.605 218.961L329.57 219H321.582V214.176H327.852V211.539H324.746C323.796 211.539 323.092 211.422 322.637 211.188C321.973 210.81 321.634 209.99 321.621 208.727C321.608 208.401 321.595 207.835 321.582 207.027V202.203C321.556 200.549 322.031 199.449 323.008 198.902C323.516 198.642 324.466 198.512 325.859 198.512H333.711ZM342.754 198.512V212.027C342.754 213.499 343.262 214.234 344.277 214.234C345.28 214.234 345.781 213.499 345.781 212.027V198.512H352.129V212.711C352.116 214.078 352.057 215.016 351.953 215.523C351.771 216.617 351.159 217.509 350.117 218.199C349.44 218.642 348.431 218.896 347.09 218.961C346.751 218.987 346.204 219 345.449 219H343.086C341.562 219 340.456 218.928 339.766 218.785C338.646 218.551 337.754 217.9 337.09 216.832C336.725 216.22 336.51 215.335 336.445 214.176C336.419 213.616 336.406 213.128 336.406 212.711V198.512H342.754ZM366.289 198.512V203.336H360.508V205.758H362.754C364.616 205.732 365.853 206.142 366.465 206.988C366.764 207.483 366.934 208.329 366.973 209.527C366.986 209.84 366.992 210.465 366.992 211.402V214.254C366.992 214.54 366.96 214.951 366.895 215.484C366.842 216.018 366.79 216.415 366.738 216.676C366.582 217.418 366.133 218.023 365.391 218.492C364.935 218.766 364.199 218.922 363.184 218.961L362.148 219H354.16V214.176H360.43V211.539H357.324C356.374 211.539 355.671 211.422 355.215 211.188C354.551 210.81 354.212 209.99 354.199 208.727C354.186 208.401 354.173 207.835 354.16 207.027V202.203C354.134 200.549 354.609 199.449 355.586 198.902C356.094 198.642 357.044 198.512 358.438 198.512H366.289ZM379.082 219H374.043C373.118 219 372.37 218.902 371.797 218.707C371.224 218.499 370.775 218.173 370.449 217.73C369.889 216.936 369.629 215.758 369.668 214.195V204.117H367.949V199.293H369.668V194.449H376.055V199.293H379.082V204.117H376.055V212.75C376.055 213.193 376.12 213.512 376.25 213.707C376.445 214.007 376.829 214.163 377.402 214.176H379.082V219ZM396.328 198.512V219H389.961V216.773C389.505 217.633 389.115 218.199 388.789 218.473C388.229 218.889 387.448 219.098 386.445 219.098H385.195C383.945 219.098 383.092 219.013 382.637 218.844C382.22 218.714 381.862 218.44 381.562 218.023C381.263 217.607 381.074 217.118 380.996 216.559C380.853 215.751 380.775 214.827 380.762 213.785V202.828C380.762 201.786 380.827 201.025 380.957 200.543C381.139 199.788 381.628 199.202 382.422 198.785C382.878 198.538 383.509 198.414 384.316 198.414H385.703C387.044 198.414 387.982 198.616 388.516 199.02C388.815 199.267 389.297 199.814 389.961 200.66V198.512H396.328ZM389.961 211.812V205.484C389.961 203.935 389.492 203.16 388.555 203.16C387.617 203.16 387.148 203.935 387.148 205.484V211.812C387.148 213.349 387.617 214.117 388.555 214.117C389.492 214.117 389.961 213.349 389.961 211.812ZM414.102 192.34V219H407.734V216.773C407.292 217.62 406.901 218.186 406.562 218.473C406.003 218.889 405.221 219.098 404.219 219.098H402.969C401.719 219.098 400.866 219.013 400.41 218.844C399.993 218.714 399.635 218.44 399.336 218.023C399.036 217.607 398.848 217.118 398.77 216.559C398.626 215.751 398.548 214.827 398.535 213.785V202.828C398.535 201.786 398.6 201.025 398.73 200.543C398.913 199.788 399.401 199.202 400.195 198.785C400.651 198.538 401.283 198.414 402.09 198.414H403.477C404.818 198.414 405.755 198.616 406.289 199.02C406.589 199.267 407.07 199.814 407.734 200.66V192.34H414.102ZM407.734 211.812V205.484C407.734 203.935 407.266 203.16 406.328 203.16C405.391 203.16 404.922 203.935 404.922 205.484V211.812C404.922 213.349 405.391 214.117 406.328 214.117C407.266 214.117 407.734 213.349 407.734 211.812ZM422.422 198.512H425.957C427.324 198.512 428.424 198.577 429.258 198.707C430.117 198.85 430.762 199.143 431.191 199.586C431.634 200.016 431.895 200.621 431.973 201.402C432.025 201.91 432.051 202.848 432.051 204.215V213.297C432.051 214.664 432.025 215.602 431.973 216.109C431.895 216.891 431.634 217.503 431.191 217.945C430.762 218.375 430.117 218.661 429.258 218.805C428.424 218.935 427.324 219 425.957 219H422.422C421.055 219 419.954 218.935 419.121 218.805C418.262 218.661 417.611 218.375 417.168 217.945C416.738 217.503 416.484 216.891 416.406 216.109C416.354 215.602 416.328 214.664 416.328 213.297V204.215C416.328 202.848 416.354 201.91 416.406 201.402C416.484 200.621 416.738 200.016 417.168 199.586C417.611 199.143 418.262 198.85 419.121 198.707C419.954 198.577 421.055 198.512 422.422 198.512ZM425.684 212.027V205.582C425.684 204.111 425.182 203.375 424.18 203.375C423.177 203.375 422.676 204.111 422.676 205.582V212.027C422.676 213.499 423.177 214.234 424.18 214.234C425.182 214.234 425.684 213.499 425.684 212.027ZM434.219 198.512H440.586V201.148C441.289 199.99 442.012 199.221 442.754 198.844C443.327 198.557 443.971 198.414 444.688 198.414C445.026 198.414 445.41 198.486 445.84 198.629L445.371 205.582C443.835 204.827 442.24 204.195 440.586 203.688V219H434.219V198.512ZM456.367 225.562V198.512H462.754V200.738C463.184 199.892 463.574 199.326 463.926 199.039C464.473 198.622 465.247 198.414 466.25 198.414H467.52C468.757 198.414 469.603 198.499 470.059 198.668C470.475 198.798 470.833 199.072 471.133 199.488C471.432 199.905 471.628 200.393 471.719 200.953C471.849 201.721 471.921 202.646 471.934 203.727V214.684C471.934 215.738 471.868 216.5 471.738 216.969C471.556 217.724 471.068 218.31 470.273 218.727C469.818 218.974 469.186 219.098 468.379 219.098H467.012C465.658 219.098 464.72 218.896 464.199 218.492C463.9 218.245 463.418 217.698 462.754 216.852V225.562H456.367ZM462.734 205.602V211.93C462.734 213.479 463.21 214.254 464.16 214.254C465.098 214.254 465.566 213.479 465.566 211.93V205.602C465.566 204.065 465.098 203.297 464.16 203.297C463.21 203.297 462.734 204.065 462.734 205.602ZM489.57 198.512V219H483.203V216.773C482.747 217.633 482.357 218.199 482.031 218.473C481.471 218.889 480.69 219.098 479.688 219.098H478.438C477.188 219.098 476.335 219.013 475.879 218.844C475.462 218.714 475.104 218.44 474.805 218.023C474.505 217.607 474.316 217.118 474.238 216.559C474.095 215.751 474.017 214.827 474.004 213.785V202.828C474.004 201.786 474.069 201.025 474.199 200.543C474.382 199.788 474.87 199.202 475.664 198.785C476.12 198.538 476.751 198.414 477.559 198.414H478.945C480.286 198.414 481.224 198.616 481.758 199.02C482.057 199.267 482.539 199.814 483.203 200.66V198.512H489.57ZM483.203 211.812V205.484C483.203 203.935 482.734 203.16 481.797 203.16C480.859 203.16 480.391 203.935 480.391 205.484V211.812C480.391 213.349 480.859 214.117 481.797 214.117C482.734 214.117 483.203 213.349 483.203 211.812ZM491.914 198.512H498.281V201.148C498.984 199.99 499.707 199.221 500.449 198.844C501.022 198.557 501.667 198.414 502.383 198.414C502.721 198.414 503.105 198.486 503.535 198.629L503.066 205.582C501.53 204.827 499.935 204.195 498.281 203.688V219H491.914V198.512ZM520.43 198.512V219H514.062V216.773C513.607 217.633 513.216 218.199 512.891 218.473C512.331 218.889 511.549 219.098 510.547 219.098H509.297C508.047 219.098 507.194 219.013 506.738 218.844C506.322 218.714 505.964 218.44 505.664 218.023C505.365 217.607 505.176 217.118 505.098 216.559C504.954 215.751 504.876 214.827 504.863 213.785V202.828C504.863 201.786 504.928 201.025 505.059 200.543C505.241 199.788 505.729 199.202 506.523 198.785C506.979 198.538 507.611 198.414 508.418 198.414H509.805C511.146 198.414 512.083 198.616 512.617 199.02C512.917 199.267 513.398 199.814 514.062 200.66V198.512H520.43ZM514.062 211.812V205.484C514.062 203.935 513.594 203.16 512.656 203.16C511.719 203.16 511.25 203.935 511.25 205.484V211.812C511.25 213.349 511.719 214.117 512.656 214.117C513.594 214.117 514.062 213.349 514.062 211.812ZM538.242 198.512H541.777C543.145 198.512 544.245 198.577 545.078 198.707C545.938 198.85 546.582 199.143 547.012 199.586C547.454 200.016 547.715 200.621 547.793 201.402C547.845 201.91 547.871 202.848 547.871 204.215V213.297C547.871 214.664 547.845 215.602 547.793 216.109C547.715 216.891 547.454 217.503 547.012 217.945C546.582 218.375 545.938 218.661 545.078 218.805C544.245 218.935 543.145 219 541.777 219H538.242C536.875 219 535.775 218.935 534.941 218.805C534.082 218.661 533.431 218.375 532.988 217.945C532.559 217.503 532.305 216.891 532.227 216.109C532.174 215.602 532.148 214.664 532.148 213.297V204.215C532.148 202.848 532.174 201.91 532.227 201.402C532.305 200.621 532.559 200.016 532.988 199.586C533.431 199.143 534.082 198.85 534.941 198.707C535.775 198.577 536.875 198.512 538.242 198.512ZM541.504 212.027V205.582C541.504 204.111 541.003 203.375 540 203.375C538.997 203.375 538.496 204.111 538.496 205.582V212.027C538.496 213.499 538.997 214.234 540 214.234C541.003 214.234 541.504 213.499 541.504 212.027ZM550.039 192.34H556.426V200.66C556.582 200.452 556.738 200.25 556.895 200.055C557.52 199.26 558.112 198.779 558.672 198.609C559.062 198.479 559.727 198.414 560.664 198.414H562.051C563.327 198.414 564.303 198.811 564.98 199.605C565.384 200.139 565.592 201.214 565.605 202.828V213.785C565.592 214.827 565.514 215.751 565.371 216.559C565.293 217.118 565.104 217.607 564.805 218.023C564.505 218.44 564.147 218.714 563.73 218.844C563.288 219.013 562.435 219.098 561.172 219.098H559.922C559.18 219.098 558.646 219.026 558.32 218.883C557.721 218.648 557.259 218.251 556.934 217.691C556.816 217.509 556.647 217.203 556.426 216.773V219H550.039V192.34ZM559.219 211.812V205.484C559.219 203.935 558.75 203.16 557.812 203.16C556.875 203.16 556.406 203.935 556.406 205.484V211.812C556.406 213.349 556.875 214.117 557.812 214.117C558.75 214.117 559.219 213.349 559.219 211.812ZM577.598 219H572.559C571.634 219 570.885 218.902 570.312 218.707C569.74 218.499 569.29 218.173 568.965 217.73C568.405 216.936 568.145 215.758 568.184 214.195V204.117H566.465V199.293H568.184V194.449H574.57V199.293H577.598V204.117H574.57V212.75C574.57 213.193 574.635 213.512 574.766 213.707C574.961 214.007 575.345 214.163 575.918 214.176H577.598V219ZM594.883 211.324H585.664V212.398C585.664 213.154 585.827 213.642 586.152 213.863C586.452 214.072 587.044 214.176 587.93 214.176H594.883V219H584.16C582.168 219.026 580.827 218.733 580.137 218.121C579.655 217.639 579.382 216.754 579.316 215.465C579.303 215.126 579.297 214.469 579.297 213.492V202.652C579.31 201.116 579.629 200.042 580.254 199.43C580.697 199 581.452 198.727 582.52 198.609C583.066 198.544 583.737 198.512 584.531 198.512H589.57C591.771 198.538 593.223 198.85 593.926 199.449C594.486 199.905 594.798 200.576 594.863 201.461C594.876 201.695 594.883 202.177 594.883 202.906V211.324ZM585.664 207.438H588.516V205.582C588.516 204.931 588.418 204.436 588.223 204.098C587.949 203.603 587.572 203.355 587.09 203.355C586.139 203.355 585.664 204.098 585.664 205.582V207.438ZM596.953 198.512H603.32V201.148C604.023 199.99 604.746 199.221 605.488 198.844C606.061 198.557 606.706 198.414 607.422 198.414C607.76 198.414 608.145 198.486 608.574 198.629L608.105 205.582C606.569 204.827 604.974 204.195 603.32 203.688V219H596.953V198.512ZM69.9609 273.562V246.512H76.3477V248.738C76.7773 247.892 77.168 247.326 77.5195 247.039C78.0664 246.622 78.8411 246.414 79.8438 246.414H81.1133C82.3503 246.414 83.1966 246.499 83.6523 246.668C84.069 246.798 84.4271 247.072 84.7266 247.488C85.026 247.905 85.2214 248.393 85.3125 248.953C85.4427 249.721 85.5143 250.646 85.5273 251.727V262.684C85.5273 263.738 85.4622 264.5 85.332 264.969C85.1497 265.724 84.6615 266.31 83.8672 266.727C83.4115 266.974 82.7799 267.098 81.9727 267.098H80.6055C79.2513 267.098 78.3138 266.896 77.793 266.492C77.4935 266.245 77.0117 265.698 76.3477 264.852V273.562H69.9609ZM76.3281 253.602V259.93C76.3281 261.479 76.8034 262.254 77.7539 262.254C78.6914 262.254 79.1602 261.479 79.1602 259.93V253.602C79.1602 252.065 78.6914 251.297 77.7539 251.297C76.8034 251.297 76.3281 252.065 76.3281 253.602ZM93.7109 246.512H97.2461C98.6133 246.512 99.7135 246.577 100.547 246.707C101.406 246.85 102.051 247.143 102.48 247.586C102.923 248.016 103.184 248.621 103.262 249.402C103.314 249.91 103.34 250.848 103.34 252.215V261.297C103.34 262.664 103.314 263.602 103.262 264.109C103.184 264.891 102.923 265.503 102.48 265.945C102.051 266.375 101.406 266.661 100.547 266.805C99.7135 266.935 98.6133 267 97.2461 267H93.7109C92.3438 267 91.2435 266.935 90.4102 266.805C89.5508 266.661 88.8997 266.375 88.457 265.945C88.0273 265.503 87.7734 264.891 87.6953 264.109C87.6432 263.602 87.6172 262.664 87.6172 261.297V252.215C87.6172 250.848 87.6432 249.91 87.6953 249.402C87.7734 248.621 88.0273 248.016 88.457 247.586C88.8997 247.143 89.5508 246.85 90.4102 246.707C91.2435 246.577 92.3438 246.512 93.7109 246.512ZM96.9727 260.027V253.582C96.9727 252.111 96.4714 251.375 95.4688 251.375C94.4661 251.375 93.9648 252.111 93.9648 253.582V260.027C93.9648 261.499 94.4661 262.234 95.4688 262.234C96.4714 262.234 96.9727 261.499 96.9727 260.027ZM105.508 246.512H111.895V248.719C112.363 247.924 112.845 247.371 113.34 247.059C114.043 246.629 115.065 246.414 116.406 246.414C117.904 246.414 119.01 246.609 119.727 247C120.495 247.43 120.944 248.087 121.074 248.973C121.139 249.389 121.178 250.867 121.191 253.406V267H114.824V253.465C114.824 251.928 114.316 251.16 113.301 251.16C112.363 251.16 111.895 251.954 111.895 253.543V267H105.508V246.512ZM133.301 267H128.262C127.337 267 126.589 266.902 126.016 266.707C125.443 266.499 124.993 266.173 124.668 265.73C124.108 264.936 123.848 263.758 123.887 262.195V252.117H122.168V247.293H123.887V242.449H130.273V247.293H133.301V252.117H130.273V260.75C130.273 261.193 130.339 261.512 130.469 261.707C130.664 262.007 131.048 262.163 131.621 262.176H133.301V267ZM141.094 246.512H144.629C145.996 246.512 147.096 246.577 147.93 246.707C148.789 246.85 149.434 247.143 149.863 247.586C150.306 248.016 150.566 248.621 150.645 249.402C150.697 249.91 150.723 250.848 150.723 252.215V261.297C150.723 262.664 150.697 263.602 150.645 264.109C150.566 264.891 150.306 265.503 149.863 265.945C149.434 266.375 148.789 266.661 147.93 266.805C147.096 266.935 145.996 267 144.629 267H141.094C139.727 267 138.626 266.935 137.793 266.805C136.934 266.661 136.283 266.375 135.84 265.945C135.41 265.503 135.156 264.891 135.078 264.109C135.026 263.602 135 262.664 135 261.297V252.215C135 250.848 135.026 249.91 135.078 249.402C135.156 248.621 135.41 248.016 135.84 247.586C136.283 247.143 136.934 246.85 137.793 246.707C138.626 246.577 139.727 246.512 141.094 246.512ZM144.355 260.027V253.582C144.355 252.111 143.854 251.375 142.852 251.375C141.849 251.375 141.348 252.111 141.348 253.582V260.027C141.348 261.499 141.849 262.234 142.852 262.234C143.854 262.234 144.355 261.499 144.355 260.027ZM164.727 246.512V251.336H158.945V253.758H161.191C163.053 253.732 164.29 254.142 164.902 254.988C165.202 255.483 165.371 256.329 165.41 257.527C165.423 257.84 165.43 258.465 165.43 259.402V262.254C165.43 262.54 165.397 262.951 165.332 263.484C165.28 264.018 165.228 264.415 165.176 264.676C165.02 265.418 164.57 266.023 163.828 266.492C163.372 266.766 162.637 266.922 161.621 266.961L160.586 267H152.598V262.176H158.867V259.539H155.762C154.811 259.539 154.108 259.422 153.652 259.188C152.988 258.81 152.65 257.99 152.637 256.727C152.624 256.401 152.611 255.835 152.598 255.027V250.203C152.572 248.549 153.047 247.449 154.023 246.902C154.531 246.642 155.482 246.512 156.875 246.512H164.727ZM192.383 259.324H183.164V260.398C183.164 261.154 183.327 261.642 183.652 261.863C183.952 262.072 184.544 262.176 185.43 262.176H192.383V267H181.66C179.668 267.026 178.327 266.733 177.637 266.121C177.155 265.639 176.882 264.754 176.816 263.465C176.803 263.126 176.797 262.469 176.797 261.492V250.652C176.81 249.116 177.129 248.042 177.754 247.43C178.197 247 178.952 246.727 180.02 246.609C180.566 246.544 181.237 246.512 182.031 246.512H187.07C189.271 246.538 190.723 246.85 191.426 247.449C191.986 247.905 192.298 248.576 192.363 249.461C192.376 249.695 192.383 250.177 192.383 250.906V259.324ZM183.164 255.438H186.016V253.582C186.016 252.931 185.918 252.436 185.723 252.098C185.449 251.603 185.072 251.355 184.59 251.355C183.639 251.355 183.164 252.098 183.164 253.582V255.438ZM203.945 246.512H210.312V249.148C211.016 247.99 211.738 247.221 212.48 246.844C213.053 246.557 213.698 246.414 214.414 246.414C214.753 246.414 215.137 246.486 215.566 246.629L215.098 253.582C213.561 252.827 211.966 252.195 210.312 251.688V267H203.945V246.512ZM232.5 259.324H223.281V260.398C223.281 261.154 223.444 261.642 223.77 261.863C224.069 262.072 224.661 262.176 225.547 262.176H232.5V267H221.777C219.785 267.026 218.444 266.733 217.754 266.121C217.272 265.639 216.999 264.754 216.934 263.465C216.921 263.126 216.914 262.469 216.914 261.492V250.652C216.927 249.116 217.246 248.042 217.871 247.43C218.314 247 219.069 246.727 220.137 246.609C220.684 246.544 221.354 246.512 222.148 246.512H227.188C229.388 246.538 230.84 246.85 231.543 247.449C232.103 247.905 232.415 248.576 232.48 249.461C232.493 249.695 232.5 250.177 232.5 250.906V259.324ZM223.281 255.438H226.133V253.582C226.133 252.931 226.035 252.436 225.84 252.098C225.566 251.603 225.189 251.355 224.707 251.355C223.757 251.355 223.281 252.098 223.281 253.582V255.438ZM246.406 246.512V251.336H240.625V253.758H242.871C244.733 253.732 245.97 254.142 246.582 254.988C246.882 255.483 247.051 256.329 247.09 257.527C247.103 257.84 247.109 258.465 247.109 259.402V262.254C247.109 262.54 247.077 262.951 247.012 263.484C246.96 264.018 246.908 264.415 246.855 264.676C246.699 265.418 246.25 266.023 245.508 266.492C245.052 266.766 244.316 266.922 243.301 266.961L242.266 267H234.277V262.176H240.547V259.539H237.441C236.491 259.539 235.788 259.422 235.332 259.188C234.668 258.81 234.329 257.99 234.316 256.727C234.303 256.401 234.29 255.835 234.277 255.027V250.203C234.251 248.549 234.727 247.449 235.703 246.902C236.211 246.642 237.161 246.512 238.555 246.512H246.406ZM258.359 267H254.297C253.099 267 252.337 266.98 252.012 266.941C250.645 266.811 249.772 266.316 249.395 265.457C249.095 264.806 248.945 263.947 248.945 262.879L248.984 261.414V252.215C248.984 250.848 249.01 249.91 249.062 249.402C249.141 248.621 249.395 248.016 249.824 247.586C250.267 247.143 250.918 246.85 251.777 246.707C252.611 246.577 253.711 246.512 255.078 246.512H258.867C259.987 246.512 260.898 246.538 261.602 246.59C262.526 246.681 263.223 246.922 263.691 247.312C264.173 247.69 264.466 248.25 264.57 248.992C264.635 249.565 264.688 250.639 264.727 252.215V268.582C264.727 269.741 264.681 270.62 264.59 271.219C264.355 272.625 263.548 273.406 262.168 273.562C260.723 273.693 259.857 273.758 259.57 273.758H253.398C251.576 273.745 250.423 273.556 249.941 273.191C249.303 272.723 248.984 271.824 248.984 270.496V268.582H254.297C254.297 269.064 254.375 269.448 254.531 269.734C254.779 270.19 255.404 270.418 256.406 270.418C257.708 270.418 258.359 269.806 258.359 268.582V267ZM258.359 260.027V253.582C258.359 252.111 257.852 251.375 256.836 251.375C255.833 251.375 255.332 252.111 255.332 253.582V260.027C255.332 261.499 255.833 262.234 256.836 262.234C257.852 262.234 258.359 261.499 258.359 260.027ZM282.5 246.512V267H276.133V264.773C275.677 265.633 275.286 266.199 274.961 266.473C274.401 266.889 273.62 267.098 272.617 267.098H271.367C270.117 267.098 269.264 267.013 268.809 266.844C268.392 266.714 268.034 266.44 267.734 266.023C267.435 265.607 267.246 265.118 267.168 264.559C267.025 263.751 266.947 262.827 266.934 261.785V250.828C266.934 249.786 266.999 249.025 267.129 248.543C267.311 247.788 267.799 247.202 268.594 246.785C269.049 246.538 269.681 246.414 270.488 246.414H271.875C273.216 246.414 274.154 246.616 274.688 247.02C274.987 247.267 275.469 247.814 276.133 248.66V246.512H282.5ZM276.133 259.812V253.484C276.133 251.935 275.664 251.16 274.727 251.16C273.789 251.16 273.32 251.935 273.32 253.484V259.812C273.32 261.349 273.789 262.117 274.727 262.117C275.664 262.117 276.133 261.349 276.133 259.812ZM294.629 267H289.59C288.665 267 287.917 266.902 287.344 266.707C286.771 266.499 286.322 266.173 285.996 265.73C285.436 264.936 285.176 263.758 285.215 262.195V252.117H283.496V247.293H285.215V242.449H291.602V247.293H294.629V252.117H291.602V260.75C291.602 261.193 291.667 261.512 291.797 261.707C291.992 262.007 292.376 262.163 292.949 262.176H294.629V267ZM311.875 246.512V267H305.508V264.773C305.052 265.633 304.661 266.199 304.336 266.473C303.776 266.889 302.995 267.098 301.992 267.098H300.742C299.492 267.098 298.639 267.013 298.184 266.844C297.767 266.714 297.409 266.44 297.109 266.023C296.81 265.607 296.621 265.118 296.543 264.559C296.4 263.751 296.322 262.827 296.309 261.785V250.828C296.309 249.786 296.374 249.025 296.504 248.543C296.686 247.788 297.174 247.202 297.969 246.785C298.424 246.538 299.056 246.414 299.863 246.414H301.25C302.591 246.414 303.529 246.616 304.062 247.02C304.362 247.267 304.844 247.814 305.508 248.66V246.512H311.875ZM305.508 259.812V253.484C305.508 251.935 305.039 251.16 304.102 251.16C303.164 251.16 302.695 251.935 302.695 253.484V259.812C302.695 261.349 303.164 262.117 304.102 262.117C305.039 262.117 305.508 261.349 305.508 259.812ZM314.219 246.512H320.586V249.148C321.289 247.99 322.012 247.221 322.754 246.844C323.327 246.557 323.971 246.414 324.688 246.414C325.026 246.414 325.41 246.486 325.84 246.629L325.371 253.582C323.835 252.827 322.24 252.195 320.586 251.688V267H314.219V246.512ZM336.367 246.512H342.734V249.148C343.438 247.99 344.16 247.221 344.902 246.844C345.475 246.557 346.12 246.414 346.836 246.414C347.174 246.414 347.559 246.486 347.988 246.629L347.52 253.582C345.983 252.827 344.388 252.195 342.734 251.688V267H336.367V246.512ZM364.922 259.324H355.703V260.398C355.703 261.154 355.866 261.642 356.191 261.863C356.491 262.072 357.083 262.176 357.969 262.176H364.922V267H354.199C352.207 267.026 350.866 266.733 350.176 266.121C349.694 265.639 349.421 264.754 349.355 263.465C349.342 263.126 349.336 262.469 349.336 261.492V250.652C349.349 249.116 349.668 248.042 350.293 247.43C350.736 247 351.491 246.727 352.559 246.609C353.105 246.544 353.776 246.512 354.57 246.512H359.609C361.81 246.538 363.262 246.85 363.965 247.449C364.525 247.905 364.837 248.576 364.902 249.461C364.915 249.695 364.922 250.177 364.922 250.906V259.324ZM355.703 255.438H358.555V253.582C358.555 252.931 358.457 252.436 358.262 252.098C357.988 251.603 357.611 251.355 357.129 251.355C356.178 251.355 355.703 252.098 355.703 253.582V255.438ZM377.168 246.512V251.336H375.078C374.323 251.336 373.828 251.486 373.594 251.785C373.385 252.072 373.275 252.788 373.262 253.934V259.734C373.249 260.698 373.333 261.336 373.516 261.648C373.763 262 374.323 262.176 375.195 262.176H377.168V267H371.387C369.59 267 368.398 266.714 367.812 266.141C367.461 265.815 367.22 265.457 367.09 265.066C366.973 264.663 366.908 264.051 366.895 263.23C366.882 262.918 366.875 262.156 366.875 260.945V251.082C366.875 249.858 366.934 248.986 367.051 248.465C367.35 247.501 368.034 246.909 369.102 246.688C369.583 246.57 370.352 246.512 371.406 246.512H377.168ZM384.688 246.512H388.223C389.59 246.512 390.69 246.577 391.523 246.707C392.383 246.85 393.027 247.143 393.457 247.586C393.9 248.016 394.16 248.621 394.238 249.402C394.29 249.91 394.316 250.848 394.316 252.215V261.297C394.316 262.664 394.29 263.602 394.238 264.109C394.16 264.891 393.9 265.503 393.457 265.945C393.027 266.375 392.383 266.661 391.523 266.805C390.69 266.935 389.59 267 388.223 267H384.688C383.32 267 382.22 266.935 381.387 266.805C380.527 266.661 379.876 266.375 379.434 265.945C379.004 265.503 378.75 264.891 378.672 264.109C378.62 263.602 378.594 262.664 378.594 261.297V252.215C378.594 250.848 378.62 249.91 378.672 249.402C378.75 248.621 379.004 248.016 379.434 247.586C379.876 247.143 380.527 246.85 381.387 246.707C382.22 246.577 383.32 246.512 384.688 246.512ZM387.949 260.027V253.582C387.949 252.111 387.448 251.375 386.445 251.375C385.443 251.375 384.941 252.111 384.941 253.582V260.027C384.941 261.499 385.443 262.234 386.445 262.234C387.448 262.234 387.949 261.499 387.949 260.027ZM396.484 246.512H402.852V248.719C403.32 247.924 403.802 247.371 404.297 247.059C405 246.629 406.035 246.414 407.402 246.414C408.939 246.414 410.072 246.609 410.801 247C411.426 247.339 411.882 247.996 412.168 248.973C412.78 247.918 413.346 247.234 413.867 246.922C414.44 246.583 415.339 246.414 416.562 246.414C417.995 246.414 419.049 246.557 419.727 246.844C420.586 247.195 421.113 247.853 421.309 248.816C421.4 249.259 421.445 249.904 421.445 250.75V267H415.078V253.348C415.078 252.658 414.948 252.124 414.688 251.746C414.427 251.368 414.056 251.18 413.574 251.18C412.637 251.18 412.168 251.922 412.168 253.406V267H405.781V253.465C405.781 251.928 405.273 251.16 404.258 251.16C403.32 251.16 402.852 251.954 402.852 253.543V267H396.484V246.512ZM423.672 273.562V246.512H430.059V248.738C430.488 247.892 430.879 247.326 431.23 247.039C431.777 246.622 432.552 246.414 433.555 246.414H434.824C436.061 246.414 436.908 246.499 437.363 246.668C437.78 246.798 438.138 247.072 438.438 247.488C438.737 247.905 438.932 248.393 439.023 248.953C439.154 249.721 439.225 250.646 439.238 251.727V262.684C439.238 263.738 439.173 264.5 439.043 264.969C438.861 265.724 438.372 266.31 437.578 266.727C437.122 266.974 436.491 267.098 435.684 267.098H434.316C432.962 267.098 432.025 266.896 431.504 266.492C431.204 266.245 430.723 265.698 430.059 264.852V273.562H423.672ZM430.039 253.602V259.93C430.039 261.479 430.514 262.254 431.465 262.254C432.402 262.254 432.871 261.479 432.871 259.93V253.602C432.871 252.065 432.402 251.297 431.465 251.297C430.514 251.297 430.039 252.065 430.039 253.602ZM456.914 259.324H447.695V260.398C447.695 261.154 447.858 261.642 448.184 261.863C448.483 262.072 449.076 262.176 449.961 262.176H456.914V267H446.191C444.199 267.026 442.858 266.733 442.168 266.121C441.686 265.639 441.413 264.754 441.348 263.465C441.335 263.126 441.328 262.469 441.328 261.492V250.652C441.341 249.116 441.66 248.042 442.285 247.43C442.728 247 443.483 246.727 444.551 246.609C445.098 246.544 445.768 246.512 446.562 246.512H451.602C453.802 246.538 455.254 246.85 455.957 247.449C456.517 247.905 456.829 248.576 456.895 249.461C456.908 249.695 456.914 250.177 456.914 250.906V259.324ZM447.695 255.438H450.547V253.582C450.547 252.931 450.449 252.436 450.254 252.098C449.98 251.603 449.603 251.355 449.121 251.355C448.171 251.355 447.695 252.098 447.695 253.582V255.438ZM458.984 246.512H465.371V248.719C465.84 247.924 466.322 247.371 466.816 247.059C467.52 246.629 468.542 246.414 469.883 246.414C471.38 246.414 472.487 246.609 473.203 247C473.971 247.43 474.421 248.087 474.551 248.973C474.616 249.389 474.655 250.867 474.668 253.406V267H468.301V253.465C468.301 251.928 467.793 251.16 466.777 251.16C465.84 251.16 465.371 251.954 465.371 253.543V267H458.984V246.512ZM488.828 246.512V251.336H483.047V253.758H485.293C487.155 253.732 488.392 254.142 489.004 254.988C489.303 255.483 489.473 256.329 489.512 257.527C489.525 257.84 489.531 258.465 489.531 259.402V262.254C489.531 262.54 489.499 262.951 489.434 263.484C489.382 264.018 489.329 264.415 489.277 264.676C489.121 265.418 488.672 266.023 487.93 266.492C487.474 266.766 486.738 266.922 485.723 266.961L484.688 267H476.699V262.176H482.969V259.539H479.863C478.913 259.539 478.21 259.422 477.754 259.188C477.09 258.81 476.751 257.99 476.738 256.727C476.725 256.401 476.712 255.835 476.699 255.027V250.203C476.673 248.549 477.148 247.449 478.125 246.902C478.633 246.642 479.583 246.512 480.977 246.512H488.828ZM506.953 246.512V267H500.586V264.773C500.13 265.633 499.74 266.199 499.414 266.473C498.854 266.889 498.073 267.098 497.07 267.098H495.82C494.57 267.098 493.717 267.013 493.262 266.844C492.845 266.714 492.487 266.44 492.188 266.023C491.888 265.607 491.699 265.118 491.621 264.559C491.478 263.751 491.4 262.827 491.387 261.785V250.828C491.387 249.786 491.452 249.025 491.582 248.543C491.764 247.788 492.253 247.202 493.047 246.785C493.503 246.538 494.134 246.414 494.941 246.414H496.328C497.669 246.414 498.607 246.616 499.141 247.02C499.44 247.267 499.922 247.814 500.586 248.66V246.512H506.953ZM500.586 259.812V253.484C500.586 251.935 500.117 251.16 499.18 251.16C498.242 251.16 497.773 251.935 497.773 253.484V259.812C497.773 261.349 498.242 262.117 499.18 262.117C500.117 262.117 500.586 261.349 500.586 259.812ZM521.133 246.512V251.336H515.352V253.758H517.598C519.46 253.732 520.697 254.142 521.309 254.988C521.608 255.483 521.777 256.329 521.816 257.527C521.829 257.84 521.836 258.465 521.836 259.402V262.254C521.836 262.54 521.803 262.951 521.738 263.484C521.686 264.018 521.634 264.415 521.582 264.676C521.426 265.418 520.977 266.023 520.234 266.492C519.779 266.766 519.043 266.922 518.027 266.961L516.992 267H509.004V262.176H515.273V259.539H512.168C511.217 259.539 510.514 259.422 510.059 259.188C509.395 258.81 509.056 257.99 509.043 256.727C509.03 256.401 509.017 255.835 509.004 255.027V250.203C508.978 248.549 509.453 247.449 510.43 246.902C510.938 246.642 511.888 246.512 513.281 246.512H521.133ZM527.246 261.434C528.223 261.434 529.03 261.792 529.668 262.508C530.124 263.029 530.352 263.615 530.352 264.266C530.352 264.943 530.124 265.529 529.668 266.023C529.017 266.74 528.19 267.098 527.188 267.098C526.185 267.098 525.352 266.74 524.688 266.023C524.232 265.529 524.004 264.949 524.004 264.285C524.004 263.595 524.232 263.003 524.688 262.508C525.352 261.792 526.204 261.434 527.246 261.434ZM18.8281 309.375V315H11.6797V293.789C11.6667 291.615 12.0768 290.13 12.9102 289.336C13.4831 288.867 14.4727 288.574 15.8789 288.457C16.6862 288.379 17.6888 288.34 18.8867 288.34H21.7969C23.5807 288.34 24.9154 288.418 25.8008 288.574C26.6862 288.717 27.3372 288.971 27.7539 289.336C28.6133 290.13 29.0299 291.615 29.0039 293.789V315H21.8555V309.375H18.8281ZM18.8281 303.438H21.8555V296.387C21.8555 294.759 21.3477 293.945 20.332 293.945C19.3294 293.945 18.8281 294.759 18.8281 296.387V303.438ZM41.6602 315H36.6211C35.6966 315 34.9479 314.902 34.375 314.707C33.8021 314.499 33.3529 314.173 33.0273 313.73C32.4674 312.936 32.207 311.758 32.2461 310.195V300.117H30.5273V295.293H32.2461V290.449H38.6328V295.293H41.6602V300.117H38.6328V308.75C38.6328 309.193 38.6979 309.512 38.8281 309.707C39.0234 310.007 39.4076 310.163 39.9805 310.176H41.6602V315ZM58.9453 307.324H49.7266V308.398C49.7266 309.154 49.8893 309.642 50.2148 309.863C50.5143 310.072 51.1068 310.176 51.9922 310.176H58.9453V315H48.2227C46.2305 315.026 44.8893 314.733 44.1992 314.121C43.7174 313.639 43.444 312.754 43.3789 311.465C43.3659 311.126 43.3594 310.469 43.3594 309.492V298.652C43.3724 297.116 43.6914 296.042 44.3164 295.43C44.7591 295 45.5143 294.727 46.582 294.609C47.1289 294.544 47.7995 294.512 48.5938 294.512H53.6328C55.8333 294.538 57.2852 294.85 57.9883 295.449C58.5482 295.905 58.8607 296.576 58.9258 297.461C58.9388 297.695 58.9453 298.177 58.9453 298.906V307.324ZM49.7266 303.438H52.5781V301.582C52.5781 300.931 52.4805 300.436 52.2852 300.098C52.0117 299.603 51.6341 299.355 51.1523 299.355C50.2018 299.355 49.7266 300.098 49.7266 301.582V303.438ZM61.0156 294.512H67.4023V296.719C67.8711 295.924 68.3529 295.371 68.8477 295.059C69.5508 294.629 70.5729 294.414 71.9141 294.414C73.4115 294.414 74.5182 294.609 75.2344 295C76.0026 295.43 76.4518 296.087 76.582 296.973C76.6471 297.389 76.6862 298.867 76.6992 301.406V315H70.332V301.465C70.332 299.928 69.8242 299.16 68.8086 299.16C67.8711 299.16 67.4023 299.954 67.4023 301.543V315H61.0156V294.512ZM89.1797 294.512V299.336H87.0898C86.3346 299.336 85.8398 299.486 85.6055 299.785C85.3971 300.072 85.2865 300.788 85.2734 301.934V307.734C85.2604 308.698 85.3451 309.336 85.5273 309.648C85.7747 310 86.3346 310.176 87.207 310.176H89.1797V315H83.3984C81.6016 315 80.4102 314.714 79.8242 314.141C79.4727 313.815 79.2318 313.457 79.1016 313.066C78.9844 312.663 78.9193 312.051 78.9062 311.23C78.8932 310.918 78.8867 310.156 78.8867 308.945V299.082C78.8867 297.858 78.9453 296.986 79.0625 296.465C79.362 295.501 80.0456 294.909 81.1133 294.688C81.5951 294.57 82.3633 294.512 83.418 294.512H89.1797ZM82.3438 316.348H87.207L83.9062 322.422H79.8242L82.3438 316.348ZM106.172 294.512V315H99.8047V312.773C99.349 313.633 98.9583 314.199 98.6328 314.473C98.0729 314.889 97.2917 315.098 96.2891 315.098H95.0391C93.7891 315.098 92.9362 315.013 92.4805 314.844C92.0638 314.714 91.7057 314.44 91.4062 314.023C91.1068 313.607 90.918 313.118 90.8398 312.559C90.6966 311.751 90.6185 310.827 90.6055 309.785V298.828C90.6055 297.786 90.6706 297.025 90.8008 296.543C90.9831 295.788 91.4714 295.202 92.2656 294.785C92.7214 294.538 93.3529 294.414 94.1602 294.414H95.5469C96.888 294.414 97.8255 294.616 98.3594 295.02C98.6589 295.267 99.1406 295.814 99.8047 296.66V294.512H106.172ZM99.8047 307.812V301.484C99.8047 299.935 99.3359 299.16 98.3984 299.16C97.4609 299.16 96.9922 299.935 96.9922 301.484V307.812C96.9922 309.349 97.4609 310.117 98.3984 310.117C99.3359 310.117 99.8047 309.349 99.8047 307.812ZM114.492 294.512H118.027C119.395 294.512 120.495 294.577 121.328 294.707C122.188 294.85 122.832 295.143 123.262 295.586C123.704 296.016 123.965 296.621 124.043 297.402C124.095 297.91 124.121 298.848 124.121 300.215V309.297C124.121 310.664 124.095 311.602 124.043 312.109C123.965 312.891 123.704 313.503 123.262 313.945C122.832 314.375 122.188 314.661 121.328 314.805C120.495 314.935 119.395 315 118.027 315H114.492C113.125 315 112.025 314.935 111.191 314.805C110.332 314.661 109.681 314.375 109.238 313.945C108.809 313.503 108.555 312.891 108.477 312.109C108.424 311.602 108.398 310.664 108.398 309.297V300.215C108.398 298.848 108.424 297.91 108.477 297.402C108.555 296.621 108.809 296.016 109.238 295.586C109.681 295.143 110.332 294.85 111.191 294.707C112.025 294.577 113.125 294.512 114.492 294.512ZM117.754 308.027V301.582C117.754 300.111 117.253 299.375 116.25 299.375C115.247 299.375 114.746 300.111 114.746 301.582V308.027C114.746 309.499 115.247 310.234 116.25 310.234C117.253 310.234 117.754 309.499 117.754 308.027ZM127.949 310.469H134.023L129.043 319.629H124.141L127.949 310.469ZM144.805 321.562V294.512H151.191V296.738C151.621 295.892 152.012 295.326 152.363 295.039C152.91 294.622 153.685 294.414 154.688 294.414H155.957C157.194 294.414 158.04 294.499 158.496 294.668C158.913 294.798 159.271 295.072 159.57 295.488C159.87 295.905 160.065 296.393 160.156 296.953C160.286 297.721 160.358 298.646 160.371 299.727V310.684C160.371 311.738 160.306 312.5 160.176 312.969C159.993 313.724 159.505 314.31 158.711 314.727C158.255 314.974 157.624 315.098 156.816 315.098H155.449C154.095 315.098 153.158 314.896 152.637 314.492C152.337 314.245 151.855 313.698 151.191 312.852V321.562H144.805ZM151.172 301.602V307.93C151.172 309.479 151.647 310.254 152.598 310.254C153.535 310.254 154.004 309.479 154.004 307.93V301.602C154.004 300.065 153.535 299.297 152.598 299.297C151.647 299.297 151.172 300.065 151.172 301.602ZM162.578 294.512H168.945V297.148C169.648 295.99 170.371 295.221 171.113 294.844C171.686 294.557 172.331 294.414 173.047 294.414C173.385 294.414 173.77 294.486 174.199 294.629L173.73 301.582C172.194 300.827 170.599 300.195 168.945 299.688V315H162.578V294.512ZM191.133 307.324H181.914V308.398C181.914 309.154 182.077 309.642 182.402 309.863C182.702 310.072 183.294 310.176 184.18 310.176H191.133V315H180.41C178.418 315.026 177.077 314.733 176.387 314.121C175.905 313.639 175.632 312.754 175.566 311.465C175.553 311.126 175.547 310.469 175.547 309.492V298.652C175.56 297.116 175.879 296.042 176.504 295.43C176.947 295 177.702 294.727 178.77 294.609C179.316 294.544 179.987 294.512 180.781 294.512H185.82C188.021 294.538 189.473 294.85 190.176 295.449C190.736 295.905 191.048 296.576 191.113 297.461C191.126 297.695 191.133 298.177 191.133 298.906V307.324ZM181.914 303.438H184.766V301.582C184.766 300.931 184.668 300.436 184.473 300.098C184.199 299.603 183.822 299.355 183.34 299.355C182.389 299.355 181.914 300.098 181.914 301.582V303.438ZM203.379 294.512V299.336H201.289C200.534 299.336 200.039 299.486 199.805 299.785C199.596 300.072 199.486 300.788 199.473 301.934V307.734C199.46 308.698 199.544 309.336 199.727 309.648C199.974 310 200.534 310.176 201.406 310.176H203.379V315H197.598C195.801 315 194.609 314.714 194.023 314.141C193.672 313.815 193.431 313.457 193.301 313.066C193.184 312.663 193.118 312.051 193.105 311.23C193.092 310.918 193.086 310.156 193.086 308.945V299.082C193.086 297.858 193.145 296.986 193.262 296.465C193.561 295.501 194.245 294.909 195.312 294.688C195.794 294.57 196.562 294.512 197.617 294.512H203.379ZM204.922 294.512H211.309V315H204.922V294.512ZM204.922 288.34H211.309V292.695H204.922V288.34ZM225.469 294.512V299.336H219.688V301.758H221.934C223.796 301.732 225.033 302.142 225.645 302.988C225.944 303.483 226.113 304.329 226.152 305.527C226.165 305.84 226.172 306.465 226.172 307.402V310.254C226.172 310.54 226.139 310.951 226.074 311.484C226.022 312.018 225.97 312.415 225.918 312.676C225.762 313.418 225.312 314.023 224.57 314.492C224.115 314.766 223.379 314.922 222.363 314.961L221.328 315H213.34V310.176H219.609V307.539H216.504C215.553 307.539 214.85 307.422 214.395 307.188C213.73 306.81 213.392 305.99 213.379 304.727C213.366 304.401 213.353 303.835 213.34 303.027V298.203C213.314 296.549 213.789 295.449 214.766 294.902C215.273 294.642 216.224 294.512 217.617 294.512H225.469ZM243.594 294.512V315H237.227V312.773C236.771 313.633 236.38 314.199 236.055 314.473C235.495 314.889 234.714 315.098 233.711 315.098H232.461C231.211 315.098 230.358 315.013 229.902 314.844C229.486 314.714 229.128 314.44 228.828 314.023C228.529 313.607 228.34 313.118 228.262 312.559C228.118 311.751 228.04 310.827 228.027 309.785V298.828C228.027 297.786 228.092 297.025 228.223 296.543C228.405 295.788 228.893 295.202 229.688 294.785C230.143 294.538 230.775 294.414 231.582 294.414H232.969C234.31 294.414 235.247 294.616 235.781 295.02C236.081 295.267 236.562 295.814 237.227 296.66V294.512H243.594ZM237.227 307.812V301.484C237.227 299.935 236.758 299.16 235.82 299.16C234.883 299.16 234.414 299.935 234.414 301.484V307.812C234.414 309.349 234.883 310.117 235.82 310.117C236.758 310.117 237.227 309.349 237.227 307.812ZM257.773 294.512V299.336H251.992V301.758H254.238C256.1 301.732 257.337 302.142 257.949 302.988C258.249 303.483 258.418 304.329 258.457 305.527C258.47 305.84 258.477 306.465 258.477 307.402V310.254C258.477 310.54 258.444 310.951 258.379 311.484C258.327 312.018 258.275 312.415 258.223 312.676C258.066 313.418 257.617 314.023 256.875 314.492C256.419 314.766 255.684 314.922 254.668 314.961L253.633 315H245.645V310.176H251.914V307.539H248.809C247.858 307.539 247.155 307.422 246.699 307.188C246.035 306.81 245.697 305.99 245.684 304.727C245.671 304.401 245.658 303.835 245.645 303.027V298.203C245.618 296.549 246.094 295.449 247.07 294.902C247.578 294.642 248.529 294.512 249.922 294.512H257.773ZM285.391 288.34V315H279.023V312.773C278.581 313.62 278.19 314.186 277.852 314.473C277.292 314.889 276.51 315.098 275.508 315.098H274.258C273.008 315.098 272.155 315.013 271.699 314.844C271.283 314.714 270.924 314.44 270.625 314.023C270.326 313.607 270.137 313.118 270.059 312.559C269.915 311.751 269.837 310.827 269.824 309.785V298.828C269.824 297.786 269.889 297.025 270.02 296.543C270.202 295.788 270.69 295.202 271.484 294.785C271.94 294.538 272.572 294.414 273.379 294.414H274.766C276.107 294.414 277.044 294.616 277.578 295.02C277.878 295.267 278.359 295.814 279.023 296.66V288.34H285.391ZM279.023 307.812V301.484C279.023 299.935 278.555 299.16 277.617 299.16C276.68 299.16 276.211 299.935 276.211 301.484V307.812C276.211 309.349 276.68 310.117 277.617 310.117C278.555 310.117 279.023 309.349 279.023 307.812ZM303.203 307.324H293.984V308.398C293.984 309.154 294.147 309.642 294.473 309.863C294.772 310.072 295.365 310.176 296.25 310.176H303.203V315H292.48C290.488 315.026 289.147 314.733 288.457 314.121C287.975 313.639 287.702 312.754 287.637 311.465C287.624 311.126 287.617 310.469 287.617 309.492V298.652C287.63 297.116 287.949 296.042 288.574 295.43C289.017 295 289.772 294.727 290.84 294.609C291.387 294.544 292.057 294.512 292.852 294.512H297.891C300.091 294.538 301.543 294.85 302.246 295.449C302.806 295.905 303.118 296.576 303.184 297.461C303.197 297.695 303.203 298.177 303.203 298.906V307.324ZM293.984 303.438H296.836V301.582C296.836 300.931 296.738 300.436 296.543 300.098C296.27 299.603 295.892 299.355 295.41 299.355C294.46 299.355 293.984 300.098 293.984 301.582V303.438ZM314.766 321.562V294.512H321.152V296.738C321.582 295.892 321.973 295.326 322.324 295.039C322.871 294.622 323.646 294.414 324.648 294.414H325.918C327.155 294.414 328.001 294.499 328.457 294.668C328.874 294.798 329.232 295.072 329.531 295.488C329.831 295.905 330.026 296.393 330.117 296.953C330.247 297.721 330.319 298.646 330.332 299.727V310.684C330.332 311.738 330.267 312.5 330.137 312.969C329.954 313.724 329.466 314.31 328.672 314.727C328.216 314.974 327.585 315.098 326.777 315.098H325.41C324.056 315.098 323.118 314.896 322.598 314.492C322.298 314.245 321.816 313.698 321.152 312.852V321.562H314.766ZM321.133 301.602V307.93C321.133 309.479 321.608 310.254 322.559 310.254C323.496 310.254 323.965 309.479 323.965 307.93V301.602C323.965 300.065 323.496 299.297 322.559 299.297C321.608 299.297 321.133 300.065 321.133 301.602ZM348.008 307.324H338.789V308.398C338.789 309.154 338.952 309.642 339.277 309.863C339.577 310.072 340.169 310.176 341.055 310.176H348.008V315H337.285C335.293 315.026 333.952 314.733 333.262 314.121C332.78 313.639 332.507 312.754 332.441 311.465C332.428 311.126 332.422 310.469 332.422 309.492V298.652C332.435 297.116 332.754 296.042 333.379 295.43C333.822 295 334.577 294.727 335.645 294.609C336.191 294.544 336.862 294.512 337.656 294.512H342.695C344.896 294.538 346.348 294.85 347.051 295.449C347.611 295.905 347.923 296.576 347.988 297.461C348.001 297.695 348.008 298.177 348.008 298.906V307.324ZM338.789 303.438H341.641V301.582C341.641 300.931 341.543 300.436 341.348 300.098C341.074 299.603 340.697 299.355 340.215 299.355C339.264 299.355 338.789 300.098 338.789 301.582V303.438ZM350.078 288.34H356.465V315H350.078V288.34ZM364.766 294.512H368.301C369.668 294.512 370.768 294.577 371.602 294.707C372.461 294.85 373.105 295.143 373.535 295.586C373.978 296.016 374.238 296.621 374.316 297.402C374.368 297.91 374.395 298.848 374.395 300.215V309.297C374.395 310.664 374.368 311.602 374.316 312.109C374.238 312.891 373.978 313.503 373.535 313.945C373.105 314.375 372.461 314.661 371.602 314.805C370.768 314.935 369.668 315 368.301 315H364.766C363.398 315 362.298 314.935 361.465 314.805C360.605 314.661 359.954 314.375 359.512 313.945C359.082 313.503 358.828 312.891 358.75 312.109C358.698 311.602 358.672 310.664 358.672 309.297V300.215C358.672 298.848 358.698 297.91 358.75 297.402C358.828 296.621 359.082 296.016 359.512 295.586C359.954 295.143 360.605 294.85 361.465 294.707C362.298 294.577 363.398 294.512 364.766 294.512ZM368.027 308.027V301.582C368.027 300.111 367.526 299.375 366.523 299.375C365.521 299.375 365.02 300.111 365.02 301.582V308.027C365.02 309.499 365.521 310.234 366.523 310.234C367.526 310.234 368.027 309.499 368.027 308.027ZM386.055 294.512H392.422V296.719C392.891 295.924 393.372 295.371 393.867 295.059C394.57 294.629 395.605 294.414 396.973 294.414C398.509 294.414 399.642 294.609 400.371 295C400.996 295.339 401.452 295.996 401.738 296.973C402.35 295.918 402.917 295.234 403.438 294.922C404.01 294.583 404.909 294.414 406.133 294.414C407.565 294.414 408.62 294.557 409.297 294.844C410.156 295.195 410.684 295.853 410.879 296.816C410.97 297.259 411.016 297.904 411.016 298.75V315H404.648V301.348C404.648 300.658 404.518 300.124 404.258 299.746C403.997 299.368 403.626 299.18 403.145 299.18C402.207 299.18 401.738 299.922 401.738 301.406V315H395.352V301.465C395.352 299.928 394.844 299.16 393.828 299.16C392.891 299.16 392.422 299.954 392.422 301.543V315H386.055V294.512ZM428.789 307.324H419.57V308.398C419.57 309.154 419.733 309.642 420.059 309.863C420.358 310.072 420.951 310.176 421.836 310.176H428.789V315H418.066C416.074 315.026 414.733 314.733 414.043 314.121C413.561 313.639 413.288 312.754 413.223 311.465C413.21 311.126 413.203 310.469 413.203 309.492V298.652C413.216 297.116 413.535 296.042 414.16 295.43C414.603 295 415.358 294.727 416.426 294.609C416.973 294.544 417.643 294.512 418.438 294.512H423.477C425.677 294.538 427.129 294.85 427.832 295.449C428.392 295.905 428.704 296.576 428.77 297.461C428.783 297.695 428.789 298.177 428.789 298.906V307.324ZM419.57 303.438H422.422V301.582C422.422 300.931 422.324 300.436 422.129 300.098C421.855 299.603 421.478 299.355 420.996 299.355C420.046 299.355 419.57 300.098 419.57 301.582V303.438ZM430.859 294.512H437.246V296.719C437.715 295.924 438.197 295.371 438.691 295.059C439.395 294.629 440.417 294.414 441.758 294.414C443.255 294.414 444.362 294.609 445.078 295C445.846 295.43 446.296 296.087 446.426 296.973C446.491 297.389 446.53 298.867 446.543 301.406V315H440.176V301.465C440.176 299.928 439.668 299.16 438.652 299.16C437.715 299.16 437.246 299.954 437.246 301.543V315H430.859V294.512ZM454.844 294.512H458.379C459.746 294.512 460.846 294.577 461.68 294.707C462.539 294.85 463.184 295.143 463.613 295.586C464.056 296.016 464.316 296.621 464.395 297.402C464.447 297.91 464.473 298.848 464.473 300.215V309.297C464.473 310.664 464.447 311.602 464.395 312.109C464.316 312.891 464.056 313.503 463.613 313.945C463.184 314.375 462.539 314.661 461.68 314.805C460.846 314.935 459.746 315 458.379 315H454.844C453.477 315 452.376 314.935 451.543 314.805C450.684 314.661 450.033 314.375 449.59 313.945C449.16 313.503 448.906 312.891 448.828 312.109C448.776 311.602 448.75 310.664 448.75 309.297V300.215C448.75 298.848 448.776 297.91 448.828 297.402C448.906 296.621 449.16 296.016 449.59 295.586C450.033 295.143 450.684 294.85 451.543 294.707C452.376 294.577 453.477 294.512 454.844 294.512ZM458.105 308.027V301.582C458.105 300.111 457.604 299.375 456.602 299.375C455.599 299.375 455.098 300.111 455.098 301.582V308.027C455.098 309.499 455.599 310.234 456.602 310.234C457.604 310.234 458.105 309.499 458.105 308.027ZM478.477 294.512V299.336H472.695V301.758H474.941C476.803 301.732 478.04 302.142 478.652 302.988C478.952 303.483 479.121 304.329 479.16 305.527C479.173 305.84 479.18 306.465 479.18 307.402V310.254C479.18 310.54 479.147 310.951 479.082 311.484C479.03 312.018 478.978 312.415 478.926 312.676C478.77 313.418 478.32 314.023 477.578 314.492C477.122 314.766 476.387 314.922 475.371 314.961L474.336 315H466.348V310.176H472.617V307.539H469.512C468.561 307.539 467.858 307.422 467.402 307.188C466.738 306.81 466.4 305.99 466.387 304.727C466.374 304.401 466.361 303.835 466.348 303.027V298.203C466.322 296.549 466.797 295.449 467.773 294.902C468.281 294.642 469.232 294.512 470.625 294.512H478.477ZM490.664 294.512H497.031V296.719C497.5 295.924 497.982 295.371 498.477 295.059C499.18 294.629 500.215 294.414 501.582 294.414C503.118 294.414 504.251 294.609 504.98 295C505.605 295.339 506.061 295.996 506.348 296.973C506.96 295.918 507.526 295.234 508.047 294.922C508.62 294.583 509.518 294.414 510.742 294.414C512.174 294.414 513.229 294.557 513.906 294.844C514.766 295.195 515.293 295.853 515.488 296.816C515.579 297.259 515.625 297.904 515.625 298.75V315H509.258V301.348C509.258 300.658 509.128 300.124 508.867 299.746C508.607 299.368 508.236 299.18 507.754 299.18C506.816 299.18 506.348 299.922 506.348 301.406V315H499.961V301.465C499.961 299.928 499.453 299.16 498.438 299.16C497.5 299.16 497.031 299.954 497.031 301.543V315H490.664V294.512ZM533.398 307.324H524.18V308.398C524.18 309.154 524.342 309.642 524.668 309.863C524.967 310.072 525.56 310.176 526.445 310.176H533.398V315H522.676C520.684 315.026 519.342 314.733 518.652 314.121C518.171 313.639 517.897 312.754 517.832 311.465C517.819 311.126 517.812 310.469 517.812 309.492V298.652C517.826 297.116 518.145 296.042 518.77 295.43C519.212 295 519.967 294.727 521.035 294.609C521.582 294.544 522.253 294.512 523.047 294.512H528.086C530.286 294.538 531.738 294.85 532.441 295.449C533.001 295.905 533.314 296.576 533.379 297.461C533.392 297.695 533.398 298.177 533.398 298.906V307.324ZM524.18 303.438H527.031V301.582C527.031 300.931 526.934 300.436 526.738 300.098C526.465 299.603 526.087 299.355 525.605 299.355C524.655 299.355 524.18 300.098 524.18 301.582V303.438ZM545.879 315H540.84C539.915 315 539.167 314.902 538.594 314.707C538.021 314.499 537.572 314.173 537.246 313.73C536.686 312.936 536.426 311.758 536.465 310.195V300.117H534.746V295.293H536.465V290.449H542.852V295.293H545.879V300.117H542.852V308.75C542.852 309.193 542.917 309.512 543.047 309.707C543.242 310.007 543.626 310.163 544.199 310.176H545.879V315ZM563.125 294.512V315H556.758V312.773C556.302 313.633 555.911 314.199 555.586 314.473C555.026 314.889 554.245 315.098 553.242 315.098H551.992C550.742 315.098 549.889 315.013 549.434 314.844C549.017 314.714 548.659 314.44 548.359 314.023C548.06 313.607 547.871 313.118 547.793 312.559C547.65 311.751 547.572 310.827 547.559 309.785V298.828C547.559 297.786 547.624 297.025 547.754 296.543C547.936 295.788 548.424 295.202 549.219 294.785C549.674 294.538 550.306 294.414 551.113 294.414H552.5C553.841 294.414 554.779 294.616 555.312 295.02C555.612 295.267 556.094 295.814 556.758 296.66V294.512H563.125ZM556.758 307.812V301.484C556.758 299.935 556.289 299.16 555.352 299.16C554.414 299.16 553.945 299.935 553.945 301.484V307.812C553.945 309.349 554.414 310.117 555.352 310.117C556.289 310.117 556.758 309.349 556.758 307.812ZM580.898 288.34V315H574.531V312.773C574.089 313.62 573.698 314.186 573.359 314.473C572.799 314.889 572.018 315.098 571.016 315.098H569.766C568.516 315.098 567.663 315.013 567.207 314.844C566.79 314.714 566.432 314.44 566.133 314.023C565.833 313.607 565.645 313.118 565.566 312.559C565.423 311.751 565.345 310.827 565.332 309.785V298.828C565.332 297.786 565.397 297.025 565.527 296.543C565.71 295.788 566.198 295.202 566.992 294.785C567.448 294.538 568.079 294.414 568.887 294.414H570.273C571.615 294.414 572.552 294.616 573.086 295.02C573.385 295.267 573.867 295.814 574.531 296.66V288.34H580.898ZM574.531 307.812V301.484C574.531 299.935 574.062 299.16 573.125 299.16C572.188 299.16 571.719 299.935 571.719 301.484V307.812C571.719 309.349 572.188 310.117 573.125 310.117C574.062 310.117 574.531 309.349 574.531 307.812ZM598.711 307.324H589.492V308.398C589.492 309.154 589.655 309.642 589.98 309.863C590.28 310.072 590.872 310.176 591.758 310.176H598.711V315H587.988C585.996 315.026 584.655 314.733 583.965 314.121C583.483 313.639 583.21 312.754 583.145 311.465C583.132 311.126 583.125 310.469 583.125 309.492V298.652C583.138 297.116 583.457 296.042 584.082 295.43C584.525 295 585.28 294.727 586.348 294.609C586.895 294.544 587.565 294.512 588.359 294.512H593.398C595.599 294.538 597.051 294.85 597.754 295.449C598.314 295.905 598.626 296.576 598.691 297.461C598.704 297.695 598.711 298.177 598.711 298.906V307.324ZM589.492 303.438H592.344V301.582C592.344 300.931 592.246 300.436 592.051 300.098C591.777 299.603 591.4 299.355 590.918 299.355C589.967 299.355 589.492 300.098 589.492 301.582V303.438ZM75.5078 336.34V363H69.1406V360.773C68.6979 361.62 68.3073 362.186 67.9688 362.473C67.4089 362.889 66.6276 363.098 65.625 363.098H64.375C63.125 363.098 62.2721 363.013 61.8164 362.844C61.3997 362.714 61.0417 362.44 60.7422 362.023C60.4427 361.607 60.2539 361.118 60.1758 360.559C60.0326 359.751 59.9544 358.827 59.9414 357.785V346.828C59.9414 345.786 60.0065 345.025 60.1367 344.543C60.319 343.788 60.8073 343.202 61.6016 342.785C62.0573 342.538 62.6888 342.414 63.4961 342.414H64.8828C66.224 342.414 67.1615 342.616 67.6953 343.02C67.9948 343.267 68.4766 343.814 69.1406 344.66V336.34H75.5078ZM69.1406 355.812V349.484C69.1406 347.935 68.6719 347.16 67.7344 347.16C66.7969 347.16 66.3281 347.935 66.3281 349.484V355.812C66.3281 357.349 66.7969 358.117 67.7344 358.117C68.6719 358.117 69.1406 357.349 69.1406 355.812ZM93.2812 342.512V363H86.9141V360.773C86.4583 361.633 86.0677 362.199 85.7422 362.473C85.1823 362.889 84.401 363.098 83.3984 363.098H82.1484C80.8984 363.098 80.0456 363.013 79.5898 362.844C79.1732 362.714 78.8151 362.44 78.5156 362.023C78.2161 361.607 78.0273 361.118 77.9492 360.559C77.806 359.751 77.7279 358.827 77.7148 357.785V346.828C77.7148 345.786 77.7799 345.025 77.9102 344.543C78.0924 343.788 78.5807 343.202 79.375 342.785C79.8307 342.538 80.4622 342.414 81.2695 342.414H82.6562C83.9974 342.414 84.9349 342.616 85.4688 343.02C85.7682 343.267 86.25 343.814 86.9141 344.66V342.512H93.2812ZM86.9141 355.812V349.484C86.9141 347.935 86.4453 347.16 85.5078 347.16C84.5703 347.16 84.1016 347.935 84.1016 349.484V355.812C84.1016 357.349 84.5703 358.117 85.5078 358.117C86.4453 358.117 86.9141 357.349 86.9141 355.812ZM105.117 369.562V342.512H111.504V344.738C111.934 343.892 112.324 343.326 112.676 343.039C113.223 342.622 113.997 342.414 115 342.414H116.27C117.507 342.414 118.353 342.499 118.809 342.668C119.225 342.798 119.583 343.072 119.883 343.488C120.182 343.905 120.378 344.393 120.469 344.953C120.599 345.721 120.671 346.646 120.684 347.727V358.684C120.684 359.738 120.618 360.5 120.488 360.969C120.306 361.724 119.818 362.31 119.023 362.727C118.568 362.974 117.936 363.098 117.129 363.098H115.762C114.408 363.098 113.47 362.896 112.949 362.492C112.65 362.245 112.168 361.698 111.504 360.852V369.562H105.117ZM111.484 349.602V355.93C111.484 357.479 111.96 358.254 112.91 358.254C113.848 358.254 114.316 357.479 114.316 355.93V349.602C114.316 348.065 113.848 347.297 112.91 347.297C111.96 347.297 111.484 348.065 111.484 349.602ZM128.867 342.512H132.402C133.77 342.512 134.87 342.577 135.703 342.707C136.562 342.85 137.207 343.143 137.637 343.586C138.079 344.016 138.34 344.621 138.418 345.402C138.47 345.91 138.496 346.848 138.496 348.215V357.297C138.496 358.664 138.47 359.602 138.418 360.109C138.34 360.891 138.079 361.503 137.637 361.945C137.207 362.375 136.562 362.661 135.703 362.805C134.87 362.935 133.77 363 132.402 363H128.867C127.5 363 126.4 362.935 125.566 362.805C124.707 362.661 124.056 362.375 123.613 361.945C123.184 361.503 122.93 360.891 122.852 360.109C122.799 359.602 122.773 358.664 122.773 357.297V348.215C122.773 346.848 122.799 345.91 122.852 345.402C122.93 344.621 123.184 344.016 123.613 343.586C124.056 343.143 124.707 342.85 125.566 342.707C126.4 342.577 127.5 342.512 128.867 342.512ZM132.129 356.027V349.582C132.129 348.111 131.628 347.375 130.625 347.375C129.622 347.375 129.121 348.111 129.121 349.582V356.027C129.121 357.499 129.622 358.234 130.625 358.234C131.628 358.234 132.129 357.499 132.129 356.027ZM140.664 342.512H147.051V344.719C147.52 343.924 148.001 343.371 148.496 343.059C149.199 342.629 150.221 342.414 151.562 342.414C153.06 342.414 154.167 342.609 154.883 343C155.651 343.43 156.1 344.087 156.23 344.973C156.296 345.389 156.335 346.867 156.348 349.406V363H149.98V349.465C149.98 347.928 149.473 347.16 148.457 347.16C147.52 347.16 147.051 347.954 147.051 349.543V363H140.664V342.512ZM168.457 363H163.418C162.493 363 161.745 362.902 161.172 362.707C160.599 362.499 160.15 362.173 159.824 361.73C159.264 360.936 159.004 359.758 159.043 358.195V348.117H157.324V343.293H159.043V338.449H165.43V343.293H168.457V348.117H165.43V356.75C165.43 357.193 165.495 357.512 165.625 357.707C165.82 358.007 166.204 358.163 166.777 358.176H168.457V363ZM176.309 342.512V356.027C176.309 357.499 176.816 358.234 177.832 358.234C178.835 358.234 179.336 357.499 179.336 356.027V342.512H185.684V356.711C185.671 358.078 185.612 359.016 185.508 359.523C185.326 360.617 184.714 361.509 183.672 362.199C182.995 362.642 181.986 362.896 180.645 362.961C180.306 362.987 179.759 363 179.004 363H176.641C175.117 363 174.01 362.928 173.32 362.785C172.201 362.551 171.309 361.9 170.645 360.832C170.28 360.22 170.065 359.335 170 358.176C169.974 357.616 169.961 357.128 169.961 356.711V342.512H176.309ZM203.438 342.512V363H197.07V360.773C196.615 361.633 196.224 362.199 195.898 362.473C195.339 362.889 194.557 363.098 193.555 363.098H192.305C191.055 363.098 190.202 363.013 189.746 362.844C189.329 362.714 188.971 362.44 188.672 362.023C188.372 361.607 188.184 361.118 188.105 360.559C187.962 359.751 187.884 358.827 187.871 357.785V346.828C187.871 345.786 187.936 345.025 188.066 344.543C188.249 343.788 188.737 343.202 189.531 342.785C189.987 342.538 190.618 342.414 191.426 342.414H192.812C194.154 342.414 195.091 342.616 195.625 343.02C195.924 343.267 196.406 343.814 197.07 344.66V342.512H203.438ZM197.07 355.812V349.484C197.07 347.935 196.602 347.16 195.664 347.16C194.727 347.16 194.258 347.935 194.258 349.484V355.812C194.258 357.349 194.727 358.117 195.664 358.117C196.602 358.117 197.07 357.349 197.07 355.812ZM205.781 336.34H212.168V363H205.781V336.34ZM224.648 342.512V347.336H222.559C221.803 347.336 221.309 347.486 221.074 347.785C220.866 348.072 220.755 348.788 220.742 349.934V355.734C220.729 356.698 220.814 357.336 220.996 357.648C221.243 358 221.803 358.176 222.676 358.176H224.648V363H218.867C217.07 363 215.879 362.714 215.293 362.141C214.941 361.815 214.701 361.457 214.57 361.066C214.453 360.663 214.388 360.051 214.375 359.23C214.362 358.918 214.355 358.156 214.355 356.945V347.082C214.355 345.858 214.414 344.986 214.531 344.465C214.831 343.501 215.514 342.909 216.582 342.688C217.064 342.57 217.832 342.512 218.887 342.512H224.648ZM217.812 364.348H222.676L219.375 370.422H215.293L217.812 364.348ZM241.641 342.512V363H235.273V360.773C234.818 361.633 234.427 362.199 234.102 362.473C233.542 362.889 232.76 363.098 231.758 363.098H230.508C229.258 363.098 228.405 363.013 227.949 362.844C227.533 362.714 227.174 362.44 226.875 362.023C226.576 361.607 226.387 361.118 226.309 360.559C226.165 359.751 226.087 358.827 226.074 357.785V346.828C226.074 345.786 226.139 345.025 226.27 344.543C226.452 343.788 226.94 343.202 227.734 342.785C228.19 342.538 228.822 342.414 229.629 342.414H231.016C232.357 342.414 233.294 342.616 233.828 343.02C234.128 343.267 234.609 343.814 235.273 344.66V342.512H241.641ZM235.273 355.812V349.484C235.273 347.935 234.805 347.16 233.867 347.16C232.93 347.16 232.461 347.935 232.461 349.484V355.812C232.461 357.349 232.93 358.117 233.867 358.117C234.805 358.117 235.273 357.349 235.273 355.812ZM249.961 342.512H253.496C254.863 342.512 255.964 342.577 256.797 342.707C257.656 342.85 258.301 343.143 258.73 343.586C259.173 344.016 259.434 344.621 259.512 345.402C259.564 345.91 259.59 346.848 259.59 348.215V357.297C259.59 358.664 259.564 359.602 259.512 360.109C259.434 360.891 259.173 361.503 258.73 361.945C258.301 362.375 257.656 362.661 256.797 362.805C255.964 362.935 254.863 363 253.496 363H249.961C248.594 363 247.493 362.935 246.66 362.805C245.801 362.661 245.15 362.375 244.707 361.945C244.277 361.503 244.023 360.891 243.945 360.109C243.893 359.602 243.867 358.664 243.867 357.297V348.215C243.867 346.848 243.893 345.91 243.945 345.402C244.023 344.621 244.277 344.016 244.707 343.586C245.15 343.143 245.801 342.85 246.66 342.707C247.493 342.577 248.594 342.512 249.961 342.512ZM253.223 356.027V349.582C253.223 348.111 252.721 347.375 251.719 347.375C250.716 347.375 250.215 348.111 250.215 349.582V356.027C250.215 357.499 250.716 358.234 251.719 358.234C252.721 358.234 253.223 357.499 253.223 356.027ZM271.25 369.562V342.512H277.637V344.738C278.066 343.892 278.457 343.326 278.809 343.039C279.355 342.622 280.13 342.414 281.133 342.414H282.402C283.639 342.414 284.486 342.499 284.941 342.668C285.358 342.798 285.716 343.072 286.016 343.488C286.315 343.905 286.51 344.393 286.602 344.953C286.732 345.721 286.803 346.646 286.816 347.727V358.684C286.816 359.738 286.751 360.5 286.621 360.969C286.439 361.724 285.951 362.31 285.156 362.727C284.701 362.974 284.069 363.098 283.262 363.098H281.895C280.54 363.098 279.603 362.896 279.082 362.492C278.783 362.245 278.301 361.698 277.637 360.852V369.562H271.25ZM277.617 349.602V355.93C277.617 357.479 278.092 358.254 279.043 358.254C279.98 358.254 280.449 357.479 280.449 355.93V349.602C280.449 348.065 279.98 347.297 279.043 347.297C278.092 347.297 277.617 348.065 277.617 349.602ZM304.453 342.512V363H298.086V360.773C297.63 361.633 297.24 362.199 296.914 362.473C296.354 362.889 295.573 363.098 294.57 363.098H293.32C292.07 363.098 291.217 363.013 290.762 362.844C290.345 362.714 289.987 362.44 289.688 362.023C289.388 361.607 289.199 361.118 289.121 360.559C288.978 359.751 288.9 358.827 288.887 357.785V346.828C288.887 345.786 288.952 345.025 289.082 344.543C289.264 343.788 289.753 343.202 290.547 342.785C291.003 342.538 291.634 342.414 292.441 342.414H293.828C295.169 342.414 296.107 342.616 296.641 343.02C296.94 343.267 297.422 343.814 298.086 344.66V342.512H304.453ZM298.086 355.812V349.484C298.086 347.935 297.617 347.16 296.68 347.16C295.742 347.16 295.273 347.935 295.273 349.484V355.812C295.273 357.349 295.742 358.117 296.68 358.117C297.617 358.117 298.086 357.349 298.086 355.812ZM306.797 342.512H313.164V345.148C313.867 343.99 314.59 343.221 315.332 342.844C315.905 342.557 316.549 342.414 317.266 342.414C317.604 342.414 317.988 342.486 318.418 342.629L317.949 349.582C316.413 348.827 314.818 348.195 313.164 347.688V363H306.797V342.512ZM335.312 342.512V363H328.945V360.773C328.49 361.633 328.099 362.199 327.773 362.473C327.214 362.889 326.432 363.098 325.43 363.098H324.18C322.93 363.098 322.077 363.013 321.621 362.844C321.204 362.714 320.846 362.44 320.547 362.023C320.247 361.607 320.059 361.118 319.98 360.559C319.837 359.751 319.759 358.827 319.746 357.785V346.828C319.746 345.786 319.811 345.025 319.941 344.543C320.124 343.788 320.612 343.202 321.406 342.785C321.862 342.538 322.493 342.414 323.301 342.414H324.688C326.029 342.414 326.966 342.616 327.5 343.02C327.799 343.267 328.281 343.814 328.945 344.66V342.512H335.312ZM328.945 355.812V349.484C328.945 347.935 328.477 347.16 327.539 347.16C326.602 347.16 326.133 347.935 326.133 349.484V355.812C326.133 357.349 326.602 358.117 327.539 358.117C328.477 358.117 328.945 357.349 328.945 355.812ZM362.578 336.34V363H356.211V360.773C355.768 361.62 355.378 362.186 355.039 362.473C354.479 362.889 353.698 363.098 352.695 363.098H351.445C350.195 363.098 349.342 363.013 348.887 362.844C348.47 362.714 348.112 362.44 347.812 362.023C347.513 361.607 347.324 361.118 347.246 360.559C347.103 359.751 347.025 358.827 347.012 357.785V346.828C347.012 345.786 347.077 345.025 347.207 344.543C347.389 343.788 347.878 343.202 348.672 342.785C349.128 342.538 349.759 342.414 350.566 342.414H351.953C353.294 342.414 354.232 342.616 354.766 343.02C355.065 343.267 355.547 343.814 356.211 344.66V336.34H362.578ZM356.211 355.812V349.484C356.211 347.935 355.742 347.16 354.805 347.16C353.867 347.16 353.398 347.935 353.398 349.484V355.812C353.398 357.349 353.867 358.117 354.805 358.117C355.742 358.117 356.211 357.349 356.211 355.812ZM380.391 355.324H371.172V356.398C371.172 357.154 371.335 357.642 371.66 357.863C371.96 358.072 372.552 358.176 373.438 358.176H380.391V363H369.668C367.676 363.026 366.335 362.733 365.645 362.121C365.163 361.639 364.889 360.754 364.824 359.465C364.811 359.126 364.805 358.469 364.805 357.492V346.652C364.818 345.116 365.137 344.042 365.762 343.43C366.204 343 366.96 342.727 368.027 342.609C368.574 342.544 369.245 342.512 370.039 342.512H375.078C377.279 342.538 378.73 342.85 379.434 343.449C379.993 343.905 380.306 344.576 380.371 345.461C380.384 345.695 380.391 346.177 380.391 346.906V355.324ZM371.172 351.438H374.023V349.582C374.023 348.931 373.926 348.436 373.73 348.098C373.457 347.603 373.079 347.355 372.598 347.355C371.647 347.355 371.172 348.098 371.172 349.582V351.438ZM394.297 342.512V347.336H388.516V349.758H390.762C392.624 349.732 393.861 350.142 394.473 350.988C394.772 351.483 394.941 352.329 394.98 353.527C394.993 353.84 395 354.465 395 355.402V358.254C395 358.54 394.967 358.951 394.902 359.484C394.85 360.018 394.798 360.415 394.746 360.676C394.59 361.418 394.141 362.023 393.398 362.492C392.943 362.766 392.207 362.922 391.191 362.961L390.156 363H382.168V358.176H388.438V355.539H385.332C384.382 355.539 383.678 355.422 383.223 355.188C382.559 354.81 382.22 353.99 382.207 352.727C382.194 352.401 382.181 351.835 382.168 351.027V346.203C382.142 344.549 382.617 343.449 383.594 342.902C384.102 342.642 385.052 342.512 386.445 342.512H394.297ZM396.992 336.34H403.379V344.66C403.535 344.452 403.691 344.25 403.848 344.055C404.473 343.26 405.065 342.779 405.625 342.609C406.016 342.479 406.68 342.414 407.617 342.414H409.004C410.28 342.414 411.257 342.811 411.934 343.605C412.337 344.139 412.546 345.214 412.559 346.828V357.785C412.546 358.827 412.467 359.751 412.324 360.559C412.246 361.118 412.057 361.607 411.758 362.023C411.458 362.44 411.1 362.714 410.684 362.844C410.241 363.013 409.388 363.098 408.125 363.098H406.875C406.133 363.098 405.599 363.026 405.273 362.883C404.674 362.648 404.212 362.251 403.887 361.691C403.77 361.509 403.6 361.203 403.379 360.773V363H396.992V336.34ZM406.172 355.812V349.484C406.172 347.935 405.703 347.16 404.766 347.16C403.828 347.16 403.359 347.935 403.359 349.484V355.812C403.359 357.349 403.828 358.117 404.766 358.117C405.703 358.117 406.172 357.349 406.172 355.812ZM414.766 336.34H421.152V363H414.766V336.34ZM429.453 342.512H432.988C434.355 342.512 435.456 342.577 436.289 342.707C437.148 342.85 437.793 343.143 438.223 343.586C438.665 344.016 438.926 344.621 439.004 345.402C439.056 345.91 439.082 346.848 439.082 348.215V357.297C439.082 358.664 439.056 359.602 439.004 360.109C438.926 360.891 438.665 361.503 438.223 361.945C437.793 362.375 437.148 362.661 436.289 362.805C435.456 362.935 434.355 363 432.988 363H429.453C428.086 363 426.986 362.935 426.152 362.805C425.293 362.661 424.642 362.375 424.199 361.945C423.77 361.503 423.516 360.891 423.438 360.109C423.385 359.602 423.359 358.664 423.359 357.297V348.215C423.359 346.848 423.385 345.91 423.438 345.402C423.516 344.621 423.77 344.016 424.199 343.586C424.642 343.143 425.293 342.85 426.152 342.707C426.986 342.577 428.086 342.512 429.453 342.512ZM432.715 356.027V349.582C432.715 348.111 432.214 347.375 431.211 347.375C430.208 347.375 429.707 348.111 429.707 349.582V356.027C429.707 357.499 430.208 358.234 431.211 358.234C432.214 358.234 432.715 357.499 432.715 356.027ZM456.68 369.562H450.312V360.852C450.039 361.203 449.883 361.405 449.844 361.457C449.206 362.251 448.607 362.733 448.047 362.902C447.643 363.033 446.979 363.098 446.055 363.098H444.668C443.392 363.098 442.415 362.701 441.738 361.906C441.335 361.372 441.126 360.298 441.113 358.684V347.727C441.126 346.685 441.204 345.76 441.348 344.953C441.426 344.393 441.615 343.905 441.914 343.488C442.214 343.072 442.572 342.798 442.988 342.668C443.457 342.499 444.31 342.414 445.547 342.414H446.797C447.539 342.414 448.079 342.486 448.418 342.629C449.004 342.863 449.466 343.26 449.805 343.82C449.922 344.003 450.091 344.309 450.312 344.738V342.512H456.68V369.562ZM447.5 349.602V355.93C447.5 357.479 447.969 358.254 448.906 358.254C449.844 358.254 450.312 357.479 450.312 355.93V349.602C450.312 348.065 449.844 347.297 448.906 347.297C447.969 347.297 447.5 348.065 447.5 349.602ZM465.293 342.512V356.027C465.293 357.499 465.801 358.234 466.816 358.234C467.819 358.234 468.32 357.499 468.32 356.027V342.512H474.668V356.711C474.655 358.078 474.596 359.016 474.492 359.523C474.31 360.617 473.698 361.509 472.656 362.199C471.979 362.642 470.97 362.896 469.629 362.961C469.29 362.987 468.743 363 467.988 363H465.625C464.102 363 462.995 362.928 462.305 362.785C461.185 362.551 460.293 361.9 459.629 360.832C459.264 360.22 459.049 359.335 458.984 358.176C458.958 357.616 458.945 357.128 458.945 356.711V342.512H465.293ZM492.461 355.324H483.242V356.398C483.242 357.154 483.405 357.642 483.73 357.863C484.03 358.072 484.622 358.176 485.508 358.176H492.461V363H481.738C479.746 363.026 478.405 362.733 477.715 362.121C477.233 361.639 476.96 360.754 476.895 359.465C476.882 359.126 476.875 358.469 476.875 357.492V346.652C476.888 345.116 477.207 344.042 477.832 343.43C478.275 343 479.03 342.727 480.098 342.609C480.645 342.544 481.315 342.512 482.109 342.512H487.148C489.349 342.538 490.801 342.85 491.504 343.449C492.064 343.905 492.376 344.576 492.441 345.461C492.454 345.695 492.461 346.177 492.461 346.906V355.324ZM483.242 351.438H486.094V349.582C486.094 348.931 485.996 348.436 485.801 348.098C485.527 347.603 485.15 347.355 484.668 347.355C483.717 347.355 483.242 348.098 483.242 349.582V351.438ZM509.961 342.512V363H503.594V360.773C503.138 361.633 502.747 362.199 502.422 362.473C501.862 362.889 501.081 363.098 500.078 363.098H498.828C497.578 363.098 496.725 363.013 496.27 362.844C495.853 362.714 495.495 362.44 495.195 362.023C494.896 361.607 494.707 361.118 494.629 360.559C494.486 359.751 494.408 358.827 494.395 357.785V346.828C494.395 345.786 494.46 345.025 494.59 344.543C494.772 343.788 495.26 343.202 496.055 342.785C496.51 342.538 497.142 342.414 497.949 342.414H499.336C500.677 342.414 501.615 342.616 502.148 343.02C502.448 343.267 502.93 343.814 503.594 344.66V342.512H509.961ZM503.594 355.812V349.484C503.594 347.935 503.125 347.16 502.188 347.16C501.25 347.16 500.781 347.935 500.781 349.484V355.812C500.781 357.349 501.25 358.117 502.188 358.117C503.125 358.117 503.594 357.349 503.594 355.812ZM512.305 342.512H518.672V345.148C519.375 343.99 520.098 343.221 520.84 342.844C521.413 342.557 522.057 342.414 522.773 342.414C523.112 342.414 523.496 342.486 523.926 342.629L523.457 349.582C521.921 348.827 520.326 348.195 518.672 347.688V363H512.305V342.512ZM540.43 342.512H543.965C545.332 342.512 546.432 342.577 547.266 342.707C548.125 342.85 548.77 343.143 549.199 343.586C549.642 344.016 549.902 344.621 549.98 345.402C550.033 345.91 550.059 346.848 550.059 348.215V357.297C550.059 358.664 550.033 359.602 549.98 360.109C549.902 360.891 549.642 361.503 549.199 361.945C548.77 362.375 548.125 362.661 547.266 362.805C546.432 362.935 545.332 363 543.965 363H540.43C539.062 363 537.962 362.935 537.129 362.805C536.27 362.661 535.618 362.375 535.176 361.945C534.746 361.503 534.492 360.891 534.414 360.109C534.362 359.602 534.336 358.664 534.336 357.297V348.215C534.336 346.848 534.362 345.91 534.414 345.402C534.492 344.621 534.746 344.016 535.176 343.586C535.618 343.143 536.27 342.85 537.129 342.707C537.962 342.577 539.062 342.512 540.43 342.512ZM543.691 356.027V349.582C543.691 348.111 543.19 347.375 542.188 347.375C541.185 347.375 540.684 348.111 540.684 349.582V356.027C540.684 357.499 541.185 358.234 542.188 358.234C543.19 358.234 543.691 357.499 543.691 356.027ZM204.844 417.562V390.512H211.23V392.738C211.66 391.892 212.051 391.326 212.402 391.039C212.949 390.622 213.724 390.414 214.727 390.414H215.996C217.233 390.414 218.079 390.499 218.535 390.668C218.952 390.798 219.31 391.072 219.609 391.488C219.909 391.905 220.104 392.393 220.195 392.953C220.326 393.721 220.397 394.646 220.41 395.727V406.684C220.41 407.738 220.345 408.5 220.215 408.969C220.033 409.724 219.544 410.31 218.75 410.727C218.294 410.974 217.663 411.098 216.855 411.098H215.488C214.134 411.098 213.197 410.896 212.676 410.492C212.376 410.245 211.895 409.698 211.23 408.852V417.562H204.844ZM211.211 397.602V403.93C211.211 405.479 211.686 406.254 212.637 406.254C213.574 406.254 214.043 405.479 214.043 403.93V397.602C214.043 396.065 213.574 395.297 212.637 395.297C211.686 395.297 211.211 396.065 211.211 397.602ZM222.617 390.512H228.984V393.148C229.688 391.99 230.41 391.221 231.152 390.844C231.725 390.557 232.37 390.414 233.086 390.414C233.424 390.414 233.809 390.486 234.238 390.629L233.77 397.582C232.233 396.827 230.638 396.195 228.984 395.688V411H222.617V390.512ZM238.516 390.512H242.051C243.418 390.512 244.518 390.577 245.352 390.707C246.211 390.85 246.855 391.143 247.285 391.586C247.728 392.016 247.988 392.621 248.066 393.402C248.118 393.91 248.145 394.848 248.145 396.215V405.297C248.145 406.664 248.118 407.602 248.066 408.109C247.988 408.891 247.728 409.503 247.285 409.945C246.855 410.375 246.211 410.661 245.352 410.805C244.518 410.935 243.418 411 242.051 411H238.516C237.148 411 236.048 410.935 235.215 410.805C234.355 410.661 233.704 410.375 233.262 409.945C232.832 409.503 232.578 408.891 232.5 408.109C232.448 407.602 232.422 406.664 232.422 405.297V396.215C232.422 394.848 232.448 393.91 232.5 393.402C232.578 392.621 232.832 392.016 233.262 391.586C233.704 391.143 234.355 390.85 235.215 390.707C236.048 390.577 237.148 390.512 238.516 390.512ZM241.777 404.027V397.582C241.777 396.111 241.276 395.375 240.273 395.375C239.271 395.375 238.77 396.111 238.77 397.582V404.027C238.77 405.499 239.271 406.234 240.273 406.234C241.276 406.234 241.777 405.499 241.777 404.027ZM239.766 383.871H245.605L242.168 389.184H237.637L239.766 383.871ZM257.969 398.578C258.633 398.37 259.069 397.947 259.277 397.309C259.421 396.827 259.492 396.189 259.492 395.395V390.512H265.859V395.531C265.859 396.898 265.671 397.914 265.293 398.578C264.876 399.268 264.049 399.854 262.812 400.336C263.516 400.557 264.043 400.785 264.395 401.02C264.759 401.254 265.059 401.56 265.293 401.938C265.671 402.549 265.859 403.35 265.859 404.34V411H259.492V405.941C259.492 405.134 259.375 404.47 259.141 403.949C258.932 403.507 258.542 403.109 257.969 402.758C257.383 403.109 256.986 403.507 256.777 403.949C256.556 404.47 256.445 405.134 256.445 405.941V411H250.059V404.34C250.059 403.35 250.247 402.549 250.625 401.938C250.938 401.443 251.354 401.072 251.875 400.824C252.201 400.655 252.611 400.492 253.105 400.336C251.882 399.854 251.055 399.268 250.625 398.578C250.247 397.914 250.059 396.898 250.059 395.531V390.512H256.445V395.395C256.445 396.189 256.517 396.827 256.66 397.309C256.868 397.96 257.305 398.383 257.969 398.578ZM267.891 390.512H274.277V411H267.891V390.512ZM267.891 384.34H274.277V388.695H267.891V384.34ZM276.602 390.512H282.969V392.719C283.438 391.924 283.919 391.371 284.414 391.059C285.117 390.629 286.152 390.414 287.52 390.414C289.056 390.414 290.189 390.609 290.918 391C291.543 391.339 291.999 391.996 292.285 392.973C292.897 391.918 293.464 391.234 293.984 390.922C294.557 390.583 295.456 390.414 296.68 390.414C298.112 390.414 299.167 390.557 299.844 390.844C300.703 391.195 301.23 391.853 301.426 392.816C301.517 393.259 301.562 393.904 301.562 394.75V411H295.195V397.348C295.195 396.658 295.065 396.124 294.805 395.746C294.544 395.368 294.173 395.18 293.691 395.18C292.754 395.18 292.285 395.922 292.285 397.406V411H285.898V397.465C285.898 395.928 285.391 395.16 284.375 395.16C283.438 395.16 282.969 395.954 282.969 397.543V411H276.602V390.512ZM309.844 390.512H313.379C314.746 390.512 315.846 390.577 316.68 390.707C317.539 390.85 318.184 391.143 318.613 391.586C319.056 392.016 319.316 392.621 319.395 393.402C319.447 393.91 319.473 394.848 319.473 396.215V405.297C319.473 406.664 319.447 407.602 319.395 408.109C319.316 408.891 319.056 409.503 318.613 409.945C318.184 410.375 317.539 410.661 316.68 410.805C315.846 410.935 314.746 411 313.379 411H309.844C308.477 411 307.376 410.935 306.543 410.805C305.684 410.661 305.033 410.375 304.59 409.945C304.16 409.503 303.906 408.891 303.828 408.109C303.776 407.602 303.75 406.664 303.75 405.297V396.215C303.75 394.848 303.776 393.91 303.828 393.402C303.906 392.621 304.16 392.016 304.59 391.586C305.033 391.143 305.684 390.85 306.543 390.707C307.376 390.577 308.477 390.512 309.844 390.512ZM313.105 404.027V397.582C313.105 396.111 312.604 395.375 311.602 395.375C310.599 395.375 310.098 396.111 310.098 397.582V404.027C310.098 405.499 310.599 406.234 311.602 406.234C312.604 406.234 313.105 405.499 313.105 404.027ZM331.133 390.512H337.52V392.719C337.988 391.924 338.47 391.371 338.965 391.059C339.668 390.629 340.69 390.414 342.031 390.414C343.529 390.414 344.635 390.609 345.352 391C346.12 391.43 346.569 392.087 346.699 392.973C346.764 393.389 346.803 394.867 346.816 397.406V411H340.449V397.465C340.449 395.928 339.941 395.16 338.926 395.16C337.988 395.16 337.52 395.954 337.52 397.543V411H331.133V390.512ZM349.141 390.512H355.527V411H349.141V390.512ZM351.816 383.871H357.656L354.219 389.184H349.688L351.816 383.871ZM362.441 405.707C363.027 404.626 363.411 403.493 363.594 402.309C363.776 401.111 363.867 399.646 363.867 397.914V390.512H370.234V397.953C370.182 400.948 369.753 403.383 368.945 405.258C367.93 407.654 366.79 409.568 365.527 411H359.336C357.891 409.385 356.654 407.211 355.625 404.477C355 402.888 354.668 400.714 354.629 397.953V390.512H360.996V397.914C360.996 399.646 361.087 401.111 361.27 402.309C361.452 403.507 361.842 404.639 362.441 405.707ZM387.656 403.324H378.438V404.398C378.438 405.154 378.6 405.642 378.926 405.863C379.225 406.072 379.818 406.176 380.703 406.176H387.656V411H376.934C374.941 411.026 373.6 410.733 372.91 410.121C372.428 409.639 372.155 408.754 372.09 407.465C372.077 407.126 372.07 406.469 372.07 405.492V394.652C372.083 393.116 372.402 392.042 373.027 391.43C373.47 391 374.225 390.727 375.293 390.609C375.84 390.544 376.51 390.512 377.305 390.512H382.344C384.544 390.538 385.996 390.85 386.699 391.449C387.259 391.905 387.572 392.576 387.637 393.461C387.65 393.695 387.656 394.177 387.656 394.906V403.324ZM378.438 399.438H381.289V397.582C381.289 396.931 381.191 396.436 380.996 396.098C380.723 395.603 380.345 395.355 379.863 395.355C378.913 395.355 378.438 396.098 378.438 397.582V399.438ZM389.727 384.34H396.113V411H389.727V384.34ZM401.855 405.434C402.832 405.434 403.639 405.792 404.277 406.508C404.733 407.029 404.961 407.615 404.961 408.266C404.961 408.943 404.733 409.529 404.277 410.023C403.626 410.74 402.799 411.098 401.797 411.098C400.794 411.098 399.961 410.74 399.297 410.023C398.841 409.529 398.613 408.949 398.613 408.285C398.613 407.595 398.841 407.003 399.297 406.508C399.961 405.792 400.814 405.434 401.855 405.434Z" fill="#FFE00A"/>
<path d="M93.6087 290L91 287.429L96.2174 281L104 285L108.391 281L111 284.857L104.913 290L98 286L93.6087 290Z" fill="#FFE00A"/>
<path d="M227.609 338L225 335.429L230.217 329L238 333L242.391 329L245 332.857L238.913 338L232 334L227.609 338Z" fill="#FFE00A"/>
</svg>
