<svg width="304" height="492" viewBox="0 0 304 492" fill="none" xmlns="http://www.w3.org/2000/svg">
<path d="M47.6748 14.8201L287.017 1.83995L282.267 44.6323L50.5842 20.7492L47.6748 14.8201Z" fill="#BF101F"/>
<path d="M50.6055 17.7949L302.952 43.3093L273.116 478.749L115.138 473.138L50.6055 17.7949Z" fill="#E94738"/>
<path d="M63.7543 37.0924L60.7346 45.9308L94.7422 238.172L276.315 248.389L290.996 62.4192L283.645 57.9338L63.7543 37.0924Z" fill="#BF101F"/>
<path d="M101.926 264.808L127.095 454.029L130.026 457.005L257.015 459.43L274.616 277.912L271.685 274.937L101.926 264.808Z" fill="#BF101F"/>
<path d="M248.42 226.029L246.921 228.971L251.351 229.004L244.97 292.46L241.995 295.392L241.973 298.345L243.427 301.31L258.161 305.85L262.625 301.453L261.192 295.535L261.203 294.058L262.691 292.592L267.574 232.079L264.664 226.15L254.349 223.12L248.42 226.029Z" fill="#FFCA00"/>
<path opacity="0.6" d="M81.9984 411.76C98.3984 387.63 83.2085 353.86 64.4485 341.35C57.6985 336.82 5.81845 310 5.81845 310C5.81845 310 18.4084 378.85 25.9984 391.65C27.7684 394.65 32.2785 400.43 35.4884 399.34C37.8185 398.55 39.4884 394.11 38.2085 391.77C35.5185 386.89 17.9584 387.45 11.7484 397.22C7.03844 404.64 1.14844 431.4 1.14844 431.4C1.14844 431.4 65.9984 435.44 81.9984 411.76Z" fill="#93F1C7" stroke="#FFE563" stroke-width="0.75" stroke-miterlimit="10"/>
<path opacity="0.6" d="M123.999 401.39C113.249 374.27 135.419 344.61 156.459 336.48C164.069 333.54 220.549 318.62 220.549 318.62C220.549 318.62 193.279 383.08 183.089 393.92C180.699 396.46 175.089 401.11 172.159 399.35C170.049 398.08 169.379 393.35 171.159 391.35C174.839 387.16 191.859 391.53 195.789 402.42C198.789 410.69 198.709 438.09 198.709 438.09C198.709 438.09 134.499 428 123.999 401.39Z" fill="#93F1C7" stroke="#FFE563" stroke-width="0.75" stroke-miterlimit="10"/>
<path d="M83.6292 459.49L90.0592 480.38L79.5092 477.28L67.9492 490.58L99.7692 489.38L99.0392 460.9L83.6292 459.49Z" fill="#FF93BA"/>
<path d="M122.179 456.351L115.429 479.511L126.049 475.931L137.429 490.441L105.559 489.591L106.719 458.141L122.179 456.351Z" fill="#FF93BA"/>
<path d="M137.68 491.07C136.02 490.8 134.18 491.16 132.61 490.64C132.352 490.524 132.122 490.353 131.937 490.139C131.751 489.924 131.615 489.672 131.538 489.399C131.461 489.127 131.445 488.84 131.49 488.561C131.535 488.281 131.641 488.015 131.8 487.78C133.13 485.45 136.24 486.58 137.85 488.15C138.858 488.974 139.72 489.961 140.4 491.07C140.5 491.54 139.28 491.23 137.78 491.07H137.68Z" fill="#FFFFBF"/>
<path d="M66.7491 491.141C68.4091 490.871 70.2491 491.231 71.8191 490.711C72.0788 490.596 72.31 490.425 72.4962 490.211C72.6824 489.997 72.8191 489.744 72.8964 489.471C72.9738 489.198 72.99 488.911 72.9437 488.631C72.8975 488.351 72.7901 488.084 72.6291 487.851C71.3091 485.521 68.1891 486.651 66.5791 488.221C65.5692 489.042 64.7068 490.029 64.0291 491.141C63.9291 491.611 65.1591 491.301 66.6491 491.141H66.7491Z" fill="#FFFFBF"/>
<path d="M146.85 348.331C138.5 337.331 127.17 333.151 122.85 331.601C98.0802 322.731 75.8502 334.471 73.4702 335.791C47.1102 350.261 53.9902 385.581 53.5702 388.791C53.2402 405.151 47.1402 417.921 43.5702 432.251C42.2815 437.396 42.9042 442.835 45.3227 447.556C47.7413 452.277 51.7912 455.96 56.7202 457.921C58.4869 458.587 60.3102 459.254 62.1902 459.921C94.7002 470.431 125.6 461.421 143.93 453.571C147.79 451.921 151.1 449.206 153.473 445.744C155.846 442.282 157.184 438.215 157.33 434.021C157.98 414.851 157.47 398.641 156.7 386.021C155.58 367.431 153.91 357.611 146.85 348.331Z" fill="#AF1D73"/>
<path opacity="0.8" d="M51.9403 437.71L63.9903 427.19L51.8203 421.71L51.9403 437.71Z" fill="#FBD1FF"/>
<path opacity="0.8" d="M96.7489 437.28L108.799 426.75L96.6289 421.28L96.7489 437.28Z" fill="#FBD1FF"/>
<path opacity="0.8" d="M106.158 459.711L111.418 449.271H100.898L106.158 459.711Z" fill="#FBD1FF"/>
<path opacity="0.8" d="M86.1176 435.351L85.4576 423.681L76.3477 428.941L86.1176 435.351Z" fill="#FBD1FF"/>
<path opacity="0.8" d="M150.927 433.13V421.44L141.527 426.17L150.927 433.13Z" fill="#FBD1FF"/>
<path opacity="0.8" d="M119.977 444.2L119.307 432.53L110.207 437.78L119.977 444.2Z" fill="#FBD1FF"/>
<path opacity="0.8" d="M137.287 451.11L142.407 435.95L129.137 437.34L137.287 451.11Z" fill="#FBD1FF"/>
<path opacity="0.8" d="M63.1595 453.31L69.4895 443.47L59.0195 442.37L63.1595 453.31Z" fill="#FBD1FF"/>
<path opacity="0.8" d="M86.9177 445.78L76.0977 450.2L84.0276 457.11L86.9177 445.78Z" fill="#FBD1FF"/>
<path d="M82.8594 371.691L85.2094 383.411C85.2499 383.51 85.3191 383.595 85.4082 383.655C85.4972 383.715 85.6021 383.747 85.7094 383.747C85.8167 383.747 85.9215 383.715 86.0106 383.655C86.0996 383.595 86.1689 383.51 86.2094 383.411L89.7894 370.261L82.8594 371.691Z" fill="white"/>
<path d="M114.621 374.5L116.051 387.5C116.068 387.664 116.137 387.817 116.247 387.94C116.357 388.062 116.503 388.146 116.664 388.181C116.825 388.215 116.992 388.198 117.143 388.131C117.293 388.065 117.418 387.952 117.501 387.81L123.501 377.54L114.621 374.5Z" fill="white"/>
<path d="M80 373C89.93 369 97.43 369.41 101.16 370C104.509 370.58 107.796 371.471 110.98 372.66C116.597 374.526 122.074 376.788 127.37 379.43" stroke="black" stroke-width="0.25" stroke-miterlimit="10"/>
<path d="M100.767 351.68C100.767 351.68 95.3767 363.16 86.6367 364.59C77.8967 366.02 69.1367 356.86 69.1367 356.86C69.1367 356.86 74.5267 345.39 83.2567 343.96C91.9867 342.53 100.767 351.68 100.767 351.68Z" fill="white"/>
<path d="M84.9467 363.33C89.9504 363.33 94.0067 359.274 94.0067 354.27C94.0067 349.266 89.9504 345.21 84.9467 345.21C79.943 345.21 75.8867 349.266 75.8867 354.27C75.8867 359.274 79.943 363.33 84.9467 363.33Z" fill="#009245"/>
<path d="M84.9458 360.54C88.4086 360.54 91.2158 357.733 91.2158 354.27C91.2158 350.807 88.4086 348 84.9458 348C81.483 348 78.6758 350.807 78.6758 354.27C78.6758 357.733 81.483 360.54 84.9458 360.54Z" fill="black"/>
<path d="M108.809 351.891C108.809 351.891 112.229 364.101 120.609 366.951C128.989 369.801 139.149 362.231 139.149 362.231C139.149 362.231 135.729 350.021 127.349 347.171C118.969 344.321 108.809 351.891 108.809 351.891Z" fill="white"/>
<path d="M123.978 366.121C128.982 366.121 133.038 362.065 133.038 357.061C133.038 352.057 128.982 348.001 123.978 348.001C118.974 348.001 114.918 352.057 114.918 357.061C114.918 362.065 118.974 366.121 123.978 366.121Z" fill="#009245"/>
<path d="M123.977 363.331C127.44 363.331 130.247 360.524 130.247 357.061C130.247 353.598 127.44 350.791 123.977 350.791C120.514 350.791 117.707 353.598 117.707 357.061C117.707 360.524 120.514 363.331 123.977 363.331Z" fill="black"/>
<path d="M135.09 320.381C131.92 324.701 126.89 327.971 124.45 332.641C122.84 336.211 125.28 339.931 128.99 340.881C137.22 343.191 141.82 333.711 141.99 326.581C142.25 323.051 142.37 316.761 141.31 314.341C140.5 313.041 138.37 316.471 135.31 320.131L135.09 320.381Z" fill="#FFFFBF"/>
<path d="M83.7286 315.77C85.4286 320.86 89.1986 325.51 90.0886 330.71C90.5286 334.6 87.0886 337.4 83.2286 337.16C74.6886 336.83 73.2286 326.39 75.2286 319.55C76.0686 316.1 77.8886 310.09 79.6486 308.11C80.8086 307.11 81.7786 311.04 83.5986 315.48L83.7286 315.77Z" fill="#FFFFBF"/>
<path d="M104.999 394.721C103.869 395.471 102.999 396.651 101.809 397.231C101.6 397.318 101.375 397.361 101.148 397.358C100.922 397.354 100.698 397.304 100.492 397.21C100.285 397.116 100.1 396.981 99.9485 396.813C99.7967 396.644 99.6813 396.446 99.6094 396.231C98.9594 394.321 101.449 393.231 103.329 393.161C104.407 393.046 105.496 393.093 106.559 393.301C106.909 393.481 106.009 393.981 105.059 394.711L104.999 394.721Z" fill="#FFEBA5"/>
<path d="M59.4091 387.581C60.9697 388.07 62.4491 388.788 63.7991 389.711C68.1891 392.451 68.5691 400.711 74.0091 401.021C76.5791 401.021 80.8091 396.091 83.7291 394.571C86.6491 393.051 90.2991 391.701 93.9291 392.241C98.0991 392.871 110.749 398.431 110.749 398.431C110.749 398.431 101.749 405.211 100.119 405.321C97.1191 405.471 91.6291 399.941 89.1191 401.601C84.8991 404.391 82.7491 409.771 77.8691 412.141C71.6691 415.351 66.5191 412.141 60.8691 407.391C57.9213 404.969 55.1197 402.374 52.4791 399.621C50.1791 396.881 48.7791 394.171 49.3891 391.961C50.4391 388.531 55.0991 386.051 59.2391 387.531L59.4091 387.581Z" fill="#FF93BA"/>
<path d="M113.15 400.36C111.74 400.1 109.96 400.18 108.7 399.79C107.8 399.46 107.97 398.69 108.84 398.17C109.688 397.709 110.658 397.521 111.617 397.63C112.576 397.739 113.478 398.141 114.2 398.78C114.73 399.24 115.58 400.1 115.61 400.55C115.56 400.81 114.54 400.55 113.24 400.38L113.15 400.36Z" fill="#FFEBA5"/>
<path d="M110.158 403.89C108.948 403.24 107.408 402.99 106.348 402.19C106.185 402.047 106.059 401.866 105.981 401.663C105.903 401.46 105.875 401.241 105.899 401.025C105.924 400.809 106 400.602 106.122 400.422C106.243 400.242 106.407 400.094 106.598 399.99C108.348 398.74 110.418 400.38 111.188 401.91C111.711 402.744 112.077 403.665 112.268 404.63C112.208 404.99 111.348 404.44 110.268 403.92L110.158 403.89Z" fill="#FFEBA5"/>
<path d="M105.999 406.461C104.999 405.621 103.499 405.111 102.619 404.161C102.492 403.983 102.41 403.777 102.378 403.561C102.346 403.345 102.366 403.124 102.437 402.917C102.507 402.71 102.625 402.522 102.782 402.37C102.939 402.218 103.13 402.105 103.339 402.041C105.339 401.101 106.999 403.041 107.439 404.691C107.777 405.602 107.94 406.569 107.919 407.541C107.789 407.881 107.059 407.201 106.069 406.541L105.999 406.461Z" fill="#FFEBA5"/>
<path d="M99.7477 408.251C99.2077 407.101 98.1377 406.081 97.7977 404.881C97.6177 403.981 98.4677 403.261 99.4677 403.241C101.708 403.151 102.288 405.561 101.898 407.241C101.775 408.209 101.469 409.146 100.998 410.001C100.718 410.251 100.388 409.351 99.8277 408.351L99.7477 408.251Z" fill="#FFEBA5"/>
<path d="M110.431 410.051C111.641 410.501 112.721 411.431 113.961 411.691C114.175 411.717 114.391 411.697 114.596 411.631C114.801 411.564 114.989 411.454 115.146 411.307C115.304 411.16 115.427 410.98 115.507 410.78C115.587 410.581 115.623 410.366 115.611 410.151C115.611 408.151 113.141 407.711 111.461 408.151C110.474 408.296 109.518 408.604 108.631 409.061C108.381 409.321 109.311 409.591 110.361 410.061L110.431 410.051Z" fill="#FFEBA5"/>
<path d="M148.761 392.07C147.504 392.923 146.393 393.973 145.471 395.18C142.361 398.89 144.371 406.98 139.621 408.55C137.341 409.13 132.211 405.46 129.201 404.72C126.191 403.98 122.581 403.56 119.511 404.96C116.001 406.59 106.371 415 106.371 415C106.371 415 116.221 419.34 117.741 419C120.461 418.4 123.741 411.75 126.401 412.74C130.921 414.39 134.341 419.05 139.321 420.14C145.721 421.71 149.321 417.33 153.071 411.41C155 408.381 156.747 405.239 158.301 402C159.561 398.81 160.031 395.86 158.871 393.88C158.342 393.095 157.662 392.423 156.871 391.903C156.079 391.384 155.192 391.027 154.261 390.854C153.33 390.68 152.374 390.694 151.449 390.895C150.523 391.095 149.647 391.478 148.871 392.02L148.761 392.07Z" fill="#FF93BA"/>
<path d="M104.8 417.47C106.084 416.991 107.343 416.443 108.57 415.831C109.28 415.291 108.91 414.59 107.99 414.3C107.125 414.058 106.204 414.114 105.376 414.459C104.547 414.803 103.858 415.417 103.42 416.201C103.012 416.796 102.758 417.483 102.68 418.201C102.79 418.441 103.62 417.951 104.73 417.461L104.8 417.47Z" fill="#FFEBA5"/>
<path d="M108.44 420.13C109.33 419.21 110.62 418.59 111.34 417.57C111.441 417.382 111.499 417.174 111.51 416.962C111.521 416.749 111.484 416.536 111.403 416.339C111.322 416.142 111.197 415.965 111.04 415.822C110.882 415.679 110.694 415.572 110.49 415.51C108.58 414.73 107.22 416.82 106.97 418.51C106.744 419.453 106.68 420.426 106.78 421.39C106.94 421.71 107.55 420.97 108.39 420.21L108.44 420.13Z" fill="#FFEBA5"/>
<path d="M112.85 421.59C113.53 420.53 114.68 419.68 115.19 418.59C115.255 418.386 115.274 418.17 115.244 417.957C115.215 417.744 115.139 417.541 115.021 417.362C114.903 417.183 114.747 417.032 114.563 416.921C114.38 416.81 114.173 416.741 113.96 416.72C111.96 416.3 110.96 418.6 111.08 420.27C111.041 421.241 111.166 422.211 111.45 423.14C111.67 423.43 112.12 422.59 112.8 421.69L112.85 421.59Z" fill="#FFEBA5"/>
<path d="M118.888 421.79C119.038 420.54 119.698 419.3 119.658 418.07C119.623 417.858 119.542 417.656 119.421 417.477C119.3 417.299 119.142 417.149 118.957 417.038C118.773 416.927 118.567 416.857 118.353 416.833C118.139 416.81 117.922 416.832 117.718 416.9C115.718 417.36 115.878 419.82 116.718 421.3C117.108 422.198 117.653 423.021 118.328 423.73C118.648 423.91 118.688 422.96 118.898 421.86L118.888 421.79Z" fill="#FFEBA5"/>
</svg>
