<svg width="278" height="68" viewBox="0 0 278 68" fill="none" xmlns="http://www.w3.org/2000/svg">
<path d="M15.0779 52.5081L4.94981 13.5081C3.96299 9.70819 6.83118 6 10.7572 6H267.238C270.835 6 273.623 9.1428 273.195 12.714L268.521 51.714C268.159 54.73 265.601 57 262.563 57H20.8852C18.1524 57 15.7648 55.1533 15.0779 52.5081Z" fill="#60C3F1" stroke="#FFE00A" stroke-width="8"/>
<path d="M95.2456 15.0073V20.4346H94.2129C93.5684 20.4492 93.1362 20.625 92.9165 20.9619C92.77 21.1816 92.6968 21.5405 92.6968 22.0386V22.8296H95.2456V28.2568H92.6968V45H85.5337V28.2568H83.6001V22.8296H85.5337V20.4126C85.4897 18.6255 85.7754 17.2998 86.3906 16.4355C86.9619 15.7031 87.8262 15.2637 88.9834 15.1172C89.4961 15.0439 89.9795 15.0073 90.4336 15.0073H95.2456ZM114.713 36.3647H104.342V37.5732C104.342 38.4229 104.525 38.9722 104.892 39.2212C105.229 39.4556 105.895 39.5728 106.891 39.5728H114.713V45H102.65C100.409 45.0293 98.9004 44.6997 98.124 44.0112C97.582 43.4692 97.2744 42.4731 97.2012 41.0229C97.1865 40.6421 97.1792 39.9023 97.1792 38.8037V26.6089C97.1938 24.8804 97.5527 23.6719 98.2559 22.9834C98.7539 22.5 99.6035 22.1924 100.805 22.0605C101.42 21.9873 102.174 21.9507 103.068 21.9507H108.737C111.212 21.98 112.846 22.3315 113.637 23.0054C114.267 23.5181 114.618 24.2725 114.691 25.2686C114.706 25.5322 114.713 26.0742 114.713 26.8945V36.3647ZM104.342 31.9922H107.55V29.9048C107.55 29.1724 107.44 28.6157 107.221 28.2349C106.913 27.6782 106.488 27.3999 105.946 27.3999C104.877 27.3999 104.342 28.2349 104.342 29.9048V31.9922ZM128.49 21.9507V27.3779H126.139C125.29 27.3779 124.733 27.5464 124.469 27.8833C124.235 28.2056 124.11 29.0112 124.096 30.3003V36.8262C124.081 37.9102 124.176 38.6279 124.381 38.9795C124.66 39.375 125.29 39.5728 126.271 39.5728H128.49V45H121.986C119.965 45 118.625 44.6777 117.965 44.0332C117.57 43.667 117.299 43.2642 117.152 42.8247C117.021 42.3706 116.947 41.6821 116.933 40.7593C116.918 40.4077 116.911 39.5508 116.911 38.1885V27.0923C116.911 25.7153 116.977 24.7339 117.108 24.1479C117.445 23.064 118.214 22.3975 119.416 22.1484C119.958 22.0166 120.822 21.9507 122.008 21.9507H128.49ZM130.226 15.0073H137.411V24.4336C137.938 23.54 138.48 22.9175 139.037 22.5659C139.828 22.0825 140.978 21.8408 142.487 21.8408C144.171 21.8408 145.417 22.0605 146.222 22.5C147.086 22.9834 147.592 23.7231 147.738 24.7192C147.812 25.188 147.855 26.8506 147.87 29.707V45H140.707V29.7729C140.707 28.0444 140.136 27.1802 138.993 27.1802C137.938 27.1802 137.411 28.0737 137.411 29.8608V45H130.226V15.0073ZM167.843 21.9507V45H160.68V42.4951C160.167 43.4619 159.728 44.0991 159.362 44.4067C158.732 44.8755 157.853 45.1099 156.725 45.1099H155.319C153.913 45.1099 152.953 45.0146 152.44 44.8242C151.972 44.6777 151.569 44.3701 151.232 43.9014C150.895 43.4326 150.683 42.8833 150.595 42.2534C150.434 41.3452 150.346 40.3052 150.331 39.1333V26.8066C150.331 25.6348 150.404 24.7778 150.551 24.2358C150.756 23.3862 151.305 22.7271 152.199 22.2583C152.711 21.98 153.422 21.8408 154.33 21.8408H155.89C157.399 21.8408 158.454 22.0679 159.054 22.522C159.391 22.8003 159.933 23.4155 160.68 24.3677V21.9507H167.843ZM160.68 36.9141V29.7949C160.68 28.0518 160.153 27.1802 159.098 27.1802C158.043 27.1802 157.516 28.0518 157.516 29.7949V36.9141C157.516 38.6426 158.043 39.5068 159.098 39.5068C160.153 39.5068 160.68 38.6426 160.68 36.9141ZM170.48 21.9507H177.643V24.917C178.434 23.6133 179.247 22.749 180.082 22.3242C180.727 22.002 181.452 21.8408 182.257 21.8408C182.638 21.8408 183.07 21.9214 183.554 22.0825L183.026 29.9048C181.298 29.0552 179.503 28.3447 177.643 27.7734V45H170.48V21.9507Z" fill="#FFE00A"/>
</svg>
