<svg width="124" height="131" viewBox="0 0 124 131" fill="none" xmlns="http://www.w3.org/2000/svg">
<mask id="path-1-outside-1_295_1337" maskUnits="userSpaceOnUse" x="0.566406" y="0.0227051" width="123" height="131" fill="black">
<rect fill="white" x="0.566406" y="0.0227051" width="123" height="131"/>
<path d="M45.9039 125.706C45.6417 125.827 45.3909 125.951 45.1345 126.065C44.0326 126.553 42.9194 126.747 41.9771 125.793C41.0557 124.86 41.1526 123.726 41.6238 122.618C42.3229 120.977 43.4969 119.801 45.3301 119.165C41.5307 112.246 39.1313 104.964 38.7001 97.0898C38.2631 89.1223 40.558 81.7913 43.8597 74.6787C42.2355 73.7193 40.653 72.7846 39.1959 71.924C36.6484 73.5008 34.2338 75.2562 31.6008 76.5708C24.6439 80.0492 17.7137 80.1252 10.9677 75.8622C5.52498 72.4218 3.39158 67.112 2.70578 61.0632C2.45121 58.8216 2.61838 56.5305 2.64308 54.2622C2.64878 53.6581 2.70957 52.9875 2.97744 52.4669C3.31939 51.8001 3.79623 50.9719 4.40794 50.7515C4.86008 50.5881 5.62187 51.2853 6.33047 51.6425C7.65839 50.4133 7.84836 50.3924 9.33015 51.4487C10.7284 50.6394 11.5073 50.7268 12.2216 52.1288C12.9663 53.5897 13.5134 55.1646 14.0263 56.73C14.9724 59.6156 15.9412 62.4691 17.9853 64.8171C21.2339 68.5482 25.9813 69.8704 30.5692 68.2063C31.521 67.8605 32.3872 67.2811 33.1452 66.8859C31.7033 64.2871 30.3678 61.8611 29 59.4523C28.8594 59.2053 28.5403 58.9982 28.2591 58.9013C22.4915 56.9256 19.1556 52.5505 18.8535 46.4505C18.6199 41.741 19.8167 37.5065 23.449 34.2903C26.5266 31.568 30.0335 31.0208 33.869 32.6584C34.3554 32.8655 35.2463 32.8864 35.575 32.5843C40.6302 27.9566 46.584 25.1677 53.2235 23.7259C53.3983 23.6879 53.5712 23.6423 53.7308 23.6024C52.8018 22.5803 51.7512 21.676 51.0312 20.559C50.4119 19.5977 49.956 18.418 49.8363 17.2914C49.7584 16.5543 50.2144 15.4221 50.7976 15.0631C51.2402 14.7895 52.4959 15.2378 52.9766 15.7508C53.9948 16.8393 54.7794 18.1558 55.5887 19.4249C56.037 20.1278 56.3448 20.9218 56.8159 21.8774C57.8969 19.6547 58.2426 17.4928 58.0774 15.2834C57.9121 13.0721 57.3821 10.8817 57.3194 8.67425C57.2757 7.16586 57.458 5.50359 58.0755 4.15668C59.3293 1.42296 62.859 1.32037 64.546 3.82232C65.777 5.64797 65.8093 7.67499 65.1805 9.68111C64.5593 11.6587 63.7367 13.5737 63.0167 15.5209C62.7108 16.3492 62.4373 17.1889 62.101 18.1653C64.3066 15.3556 66.3697 12.6884 68.4803 10.0611C69.1585 9.21757 69.9051 8.40828 70.7258 7.70728C71.6092 6.95309 72.711 6.31668 73.7958 7.19815C74.8843 8.08343 74.4949 9.27836 73.8984 10.2966C73.3531 11.2294 72.6312 12.0577 72.0404 12.9695C70.9291 14.685 69.8595 16.4271 68.771 18.1596C68.8888 18.2318 69.0084 18.304 69.1262 18.3781C70.6498 17.1053 72.1525 15.804 73.7141 14.5786C74.0674 14.3013 74.626 14.2823 75.0895 14.1436C75.1598 14.6299 75.308 15.1201 75.2833 15.6007C75.2491 16.2504 75.0819 16.8906 74.9736 17.5194C76.066 17.0711 77.0595 16.5524 78.1158 16.2618C79.2347 15.954 80.2872 16.2675 81.0129 17.2535C81.7443 18.2451 81.7747 19.4249 81.068 20.3025C80.2036 21.374 79.1169 22.3314 77.9619 23.0837C76.8809 23.7847 75.5834 24.1514 74.2308 24.7308C74.7057 24.936 75.0363 25.1013 75.3801 25.2266C80.0592 26.9269 84.2614 29.3947 87.8709 32.856C88.1578 33.1314 88.8588 33.3537 89.1418 33.196C93.724 30.6314 99.4156 32.4304 102.508 37.3033C105.937 42.7061 105.62 50.6204 101.652 55.4058C99.9019 57.5164 97.7419 58.9298 94.9493 59.2813C94.5105 59.3364 93.9501 59.6422 93.7316 60.0051C92.7133 61.6997 91.7958 63.455 90.7509 65.3528C93.3516 67.3514 96.3608 67.9213 99.5809 67.2317C103.981 66.2875 106.718 63.3239 108.424 59.3478C109.241 57.4443 109.773 55.4191 110.474 53.4624C110.791 52.5752 111.129 51.6805 111.591 50.8655C112.186 49.8168 112.953 48.96 114.321 49.8681C114.443 49.9479 114.722 49.9897 114.796 49.9156C116.025 48.6941 116.895 49.4654 117.569 50.2671C118.265 49.8966 119.008 49.1804 119.477 49.3286C120.089 49.5224 120.809 50.3468 120.919 50.9966C122.359 59.4523 120.987 71.3484 110.134 75.9933C104.108 78.5731 98.215 78.0849 92.4778 75.2372C90.2893 74.1505 88.2547 72.7333 86.239 71.337C85.4696 70.8032 85.0061 70.7842 84.2918 71.3427C83.2907 72.1235 82.1888 72.7751 80.9882 73.5787C88.8398 88.6569 87.8538 103.56 79.721 118.285C81.5581 118.954 82.7777 120.143 83.4692 121.841C83.9252 122.962 83.9745 124.095 83.0209 124.997C82.1014 125.865 81.03 125.692 79.9756 125.227C79.7192 125.115 79.4741 124.98 79.1169 124.803C78.8852 126.391 78.338 127.822 76.6378 128.025C74.2194 128.314 72.8934 126.629 71.6491 124.706C71.3869 125.21 71.1969 125.62 70.969 126.008C69.9621 127.729 68.2732 127.833 67.0935 126.209C65.72 124.317 65.8853 122.174 66.345 120.071C66.6965 118.464 67.2436 116.893 67.7717 115.329C70.4826 107.297 72.428 99.0827 73.4614 90.6706C74.0579 85.8187 73.4006 81.2935 71.7403 77.3592C69.7341 77.6593 67.7033 78.1742 65.6611 78.2217C62.1333 78.3052 58.5903 78.1913 55.0682 77.9633C53.8296 77.8835 53.2672 78.0241 52.836 79.2969C50.7729 85.3913 51.1889 91.5274 52.4921 97.6389C53.9986 104.7 55.526 111.758 58.0299 118.574C58.7366 120.498 58.6549 122.721 58.862 124.815C58.9057 125.252 58.6948 125.749 58.4934 126.165C57.9843 127.212 57.3479 128.171 56.0047 128.185C54.73 128.196 54.276 127.204 53.7897 126.275C53.689 126.082 53.5997 125.882 53.4439 125.555C52.1331 127.453 50.8318 129.207 48.3298 128.867C47.0285 128.696 46.4187 127.78 45.9039 125.706ZM93.0192 59.4675C81.9969 57.5905 79.0542 41.2376 87.8576 33.9255C82.8708 29.2199 77.2647 25.8384 70.7182 24.9683C72.5533 24.3205 74.7722 23.6784 76.86 22.7475C78.0702 22.208 79.2461 21.3493 80.0953 20.3443C80.5645 19.7896 80.6215 18.5187 80.3309 17.7816C79.9452 16.807 78.8244 16.7215 77.8631 17.1034C77.1754 17.3769 76.5561 17.8196 75.9007 18.1748C75.5226 18.38 75.1332 18.5624 74.7475 18.7542C74.5614 18.2603 74.246 17.7721 74.2194 17.2687C74.1852 16.6132 74.3828 15.9464 74.4797 15.2834C74.3391 15.196 74.1985 15.1068 74.0579 15.0194C72.6008 16.4632 71.1456 17.9089 69.6847 19.347C69.358 19.668 69.0027 19.9587 68.6589 20.2645C68.5012 19.7972 68.201 19.3242 68.22 18.8644C68.2466 18.2223 68.3853 17.5156 68.7007 16.9666C69.6335 15.3328 70.6631 13.7541 71.6795 12.1698C72.1886 11.3757 72.8953 10.6747 73.2392 9.82169C73.4785 9.23087 73.2524 8.45008 73.2334 7.75478C72.5894 7.91245 71.9416 8.06063 71.3014 8.23541C71.1779 8.2696 71.0677 8.39689 70.9766 8.50327C67.9712 12.0045 64.582 15.2207 62.7583 19.6053C62.6291 19.9169 62.1941 20.1031 61.8996 20.3481C61.6603 20.0233 61.2214 19.6984 61.2214 19.3736C61.2214 18.6821 61.362 17.9583 61.5976 17.3028C62.3955 15.0821 63.4232 12.9316 64.0444 10.6652C64.4795 9.07889 64.6485 7.32354 64.4738 5.69356C64.2819 3.89641 62.7678 2.78507 61.2917 2.81546C59.8821 2.84586 58.5029 3.92871 58.2996 5.73346C58.0926 7.5762 58.1989 9.49683 58.4744 11.3396C59.0063 14.8997 59.1982 18.3952 57.7696 21.7957C57.5796 22.246 57.232 22.6316 56.9565 23.0457C56.6051 22.6525 56.1852 22.301 55.9117 21.8584C54.8269 20.0955 53.8466 18.266 52.6935 16.5506C52.3972 16.1117 51.6031 16.0072 51.0388 15.747C50.8964 16.3549 50.581 16.9799 50.638 17.5707C50.8907 20.16 53.6491 23.0229 56.3524 23.6233C56.9318 23.7524 57.5093 23.8797 58.0888 24.007C49.369 24.3661 42.0759 27.8027 35.6472 33.633C39.8494 37.3394 41.4528 41.8854 40.9532 47.1363C40.5048 51.859 38.5405 55.7934 34.1369 58.0522C32.8698 58.7019 31.3785 58.9165 29.948 59.3421C29.9518 59.3991 29.9271 59.5473 29.9746 59.6669C30.1133 60.0184 30.2728 60.3622 30.44 60.7004C32.9648 65.824 36.8478 69.6747 41.7282 72.53C49.804 77.2509 58.5542 78.6225 67.7033 77.2357C75.819 76.0047 82.9639 72.6497 88.5662 66.4642C90.4318 64.403 92.018 62.1366 93.0192 59.4675ZM53.233 123.397C53.3907 123.388 53.5484 123.376 53.7042 123.367C53.9416 124.146 54.0518 124.999 54.4508 125.683C54.8402 126.35 55.5507 127.313 56.0769 127.286C56.6887 127.256 57.5169 126.389 57.7753 125.706C58.1458 124.731 58.2388 123.58 58.1628 122.525C58.0755 121.315 57.7259 120.113 57.4011 118.931C55.7635 112.975 54.0309 107.046 52.4579 101.075C51.0179 95.6099 50.1593 90.0475 50.9116 84.3844C51.2117 82.1218 51.8956 79.9105 52.4047 77.6764C49.8667 76.8387 47.285 75.9857 44.669 75.1213C44.5949 75.2068 44.4791 75.2942 44.4221 75.4119C39.9083 84.7036 38.1263 94.3599 40.5219 104.579C41.639 109.341 43.2898 113.897 45.731 118.146C46.2648 119.075 46.3275 119.607 45.125 120.193C44.0972 120.694 43.2233 121.682 42.5204 122.634C41.9277 123.437 41.7035 124.579 42.6724 125.328C43.5976 126.042 44.5911 125.599 45.3947 124.951C45.7728 124.647 45.9818 124.133 46.2629 123.711C46.4947 123.359 46.7188 123.004 46.9468 122.649C47.1273 122.719 47.3097 122.788 47.4901 122.858C47.3306 123.409 47.1805 123.963 47.0114 124.511C46.6524 125.671 46.6828 126.796 47.625 127.653C48.5996 128.54 49.7565 128.301 50.5943 127.541C51.4758 126.741 52.1388 125.685 52.8227 124.689C53.0716 124.334 53.1039 123.832 53.233 123.397ZM72.616 77.1369C72.692 77.42 72.7414 77.6935 72.8364 77.95C74.3106 81.9261 74.5766 86.022 74.2859 90.2261C73.8414 96.632 72.029 102.757 70.5567 108.942C69.6961 112.557 68.3055 116.043 67.2626 119.619C66.7174 121.488 66.4153 123.456 67.4564 125.269C67.7698 125.816 68.4803 126.462 69.0103 126.462C69.5043 126.462 70.1179 125.74 70.4598 125.198C70.798 124.664 70.8398 123.948 71.0563 123.327C71.1608 123.029 71.3679 122.767 71.4724 122.584C72.371 123.939 73.0568 125.288 74.0389 126.367C75.0724 127.503 76.4782 127.579 77.3616 126.893C78.2791 126.18 78.4729 124.773 77.9125 123.395C77.7339 122.955 77.7225 122.446 77.6332 121.967C77.8099 121.91 77.9866 121.851 78.1633 121.794C78.4292 122.288 78.7104 122.774 78.9611 123.274C79.5273 124.404 81.2199 125.13 82.1907 124.645C83.0893 124.197 83.3191 122.894 82.4776 121.638C81.8943 120.768 81.1022 119.925 80.2093 119.404C78.7085 118.528 78.6572 118.589 79.4893 117.041C86.7577 103.547 87.7816 89.7834 81.2028 75.7159C80.9179 75.1061 80.4904 74.5647 80.2036 74.1087C77.5933 75.1517 75.1902 76.111 72.616 77.1369ZM33.7608 67.2108C31.3519 69.0079 28.6239 69.8362 25.6565 69.5285C20.5595 69.0003 17.2065 66.0064 15.1376 61.5154C14.2144 59.5112 13.6597 57.3379 12.8884 55.2596C12.5122 54.247 12.0829 53.242 11.5566 52.3017C11.3667 51.9616 10.7797 51.595 10.4491 51.6539C10.1508 51.709 9.84688 52.2998 9.7386 52.7063C9.55432 53.3978 9.52203 54.1292 9.42704 54.8435C9.30356 54.8492 9.17817 54.853 9.05469 54.8587C8.9768 54.0608 8.97491 53.2458 8.79063 52.4726C8.69755 52.0832 8.30809 51.5399 7.98894 51.4924C7.66788 51.4449 7.09986 51.8495 6.94218 52.1934C6.65912 52.8165 6.58313 53.5403 6.45395 54.228C6.37606 54.6402 6.36277 55.0658 6.32098 55.4856C6.1633 55.4875 6.00561 55.4894 5.84984 55.4913C5.80804 54.8359 5.87263 54.152 5.69786 53.5346C5.47939 52.7633 5.06525 52.049 4.73659 51.3081C4.30345 51.9559 3.52076 52.5942 3.49986 53.2553C3.40108 56.4051 3.17501 59.6118 3.62335 62.7065C4.31675 67.4901 6.30388 71.7284 10.413 74.7071C19.1138 81.0162 29.8701 78.9208 38.2764 71.299C36.7775 69.9464 35.2805 68.5881 33.7608 67.2108ZM114.906 53.4738C114.771 53.4757 114.634 53.4795 114.5 53.4814C114.441 52.7937 114.465 52.0851 114.294 51.4278C114.177 50.9738 113.787 50.59 113.519 50.1759C113.08 50.476 112.48 50.6831 112.235 51.0991C111.735 51.9445 111.388 52.8868 111.048 53.8158C110.269 55.9435 109.684 58.1548 108.753 60.2084C106.163 65.9171 100.981 68.9282 95.3388 67.9384C93.534 67.6211 91.8281 66.7435 90.3425 66.2172C88.9139 67.5242 87.4587 68.8541 85.8838 70.2922C91.2163 74.4051 96.8491 77.5776 103.798 76.9222C110.09 76.3295 115.166 73.5103 118.231 67.756C120.822 62.8927 121.044 57.6171 120.571 52.277C120.491 51.3689 120.482 50.0277 119.224 50.0182C118.894 50.0163 118.51 51.6197 118.227 52.5106C118.067 53.0122 118.062 53.5612 117.987 54.0893C117.501 53.0369 117.44 51.9958 117.134 51.0326C117 50.6071 116.363 50.3392 115.957 49.9992C115.677 50.4361 115.278 50.8408 115.151 51.3195C114.965 52.011 114.978 52.7538 114.906 53.4738ZM19.6324 44.1423C19.6172 48.7967 20.6032 52.0338 22.938 54.7865C26.783 59.3212 32.847 59.4504 36.8022 55.1095C41.5535 49.8928 41.3958 40.5727 36.4698 35.5213C32.5924 31.5452 27.1288 31.5224 23.2799 35.5232C20.6868 38.217 19.6628 41.5435 19.6324 44.1423ZM83.4768 44.4653C83.454 49.0911 84.4552 52.3739 86.8488 55.1475C90.8079 59.7353 96.9782 59.703 100.903 55.1038C105.366 49.8776 105.151 40.928 100.443 35.9354C96.5565 31.8111 90.9428 31.7636 87.0521 35.8804C84.5217 38.5533 83.511 41.8379 83.4768 44.4653Z"/>
</mask>
<path d="M45.9039 125.706C45.6417 125.827 45.3909 125.951 45.1345 126.065C44.0326 126.553 42.9194 126.747 41.9771 125.793C41.0557 124.86 41.1526 123.726 41.6238 122.618C42.3229 120.977 43.4969 119.801 45.3301 119.165C41.5307 112.246 39.1313 104.964 38.7001 97.0898C38.2631 89.1223 40.558 81.7913 43.8597 74.6787C42.2355 73.7193 40.653 72.7846 39.1959 71.924C36.6484 73.5008 34.2338 75.2562 31.6008 76.5708C24.6439 80.0492 17.7137 80.1252 10.9677 75.8622C5.52498 72.4218 3.39158 67.112 2.70578 61.0632C2.45121 58.8216 2.61838 56.5305 2.64308 54.2622C2.64878 53.6581 2.70957 52.9875 2.97744 52.4669C3.31939 51.8001 3.79623 50.9719 4.40794 50.7515C4.86008 50.5881 5.62187 51.2853 6.33047 51.6425C7.65839 50.4133 7.84836 50.3924 9.33015 51.4487C10.7284 50.6394 11.5073 50.7268 12.2216 52.1288C12.9663 53.5897 13.5134 55.1646 14.0263 56.73C14.9724 59.6156 15.9412 62.4691 17.9853 64.8171C21.2339 68.5482 25.9813 69.8704 30.5692 68.2063C31.521 67.8605 32.3872 67.2811 33.1452 66.8859C31.7033 64.2871 30.3678 61.8611 29 59.4523C28.8594 59.2053 28.5403 58.9982 28.2591 58.9013C22.4915 56.9256 19.1556 52.5505 18.8535 46.4505C18.6199 41.741 19.8167 37.5065 23.449 34.2903C26.5266 31.568 30.0335 31.0208 33.869 32.6584C34.3554 32.8655 35.2463 32.8864 35.575 32.5843C40.6302 27.9566 46.584 25.1677 53.2235 23.7259C53.3983 23.6879 53.5712 23.6423 53.7308 23.6024C52.8018 22.5803 51.7512 21.676 51.0312 20.559C50.4119 19.5977 49.956 18.418 49.8363 17.2914C49.7584 16.5543 50.2144 15.4221 50.7976 15.0631C51.2402 14.7895 52.4959 15.2378 52.9766 15.7508C53.9948 16.8393 54.7794 18.1558 55.5887 19.4249C56.037 20.1278 56.3448 20.9218 56.8159 21.8774C57.8969 19.6547 58.2426 17.4928 58.0774 15.2834C57.9121 13.0721 57.3821 10.8817 57.3194 8.67425C57.2757 7.16586 57.458 5.50359 58.0755 4.15668C59.3293 1.42296 62.859 1.32037 64.546 3.82232C65.777 5.64797 65.8093 7.67499 65.1805 9.68111C64.5593 11.6587 63.7367 13.5737 63.0167 15.5209C62.7108 16.3492 62.4373 17.1889 62.101 18.1653C64.3066 15.3556 66.3697 12.6884 68.4803 10.0611C69.1585 9.21757 69.9051 8.40828 70.7258 7.70728C71.6092 6.95309 72.711 6.31668 73.7958 7.19815C74.8843 8.08343 74.4949 9.27836 73.8984 10.2966C73.3531 11.2294 72.6312 12.0577 72.0404 12.9695C70.9291 14.685 69.8595 16.4271 68.771 18.1596C68.8888 18.2318 69.0084 18.304 69.1262 18.3781C70.6498 17.1053 72.1525 15.804 73.7141 14.5786C74.0674 14.3013 74.626 14.2823 75.0895 14.1436C75.1598 14.6299 75.308 15.1201 75.2833 15.6007C75.2491 16.2504 75.0819 16.8906 74.9736 17.5194C76.066 17.0711 77.0595 16.5524 78.1158 16.2618C79.2347 15.954 80.2872 16.2675 81.0129 17.2535C81.7443 18.2451 81.7747 19.4249 81.068 20.3025C80.2036 21.374 79.1169 22.3314 77.9619 23.0837C76.8809 23.7847 75.5834 24.1514 74.2308 24.7308C74.7057 24.936 75.0363 25.1013 75.3801 25.2266C80.0592 26.9269 84.2614 29.3947 87.8709 32.856C88.1578 33.1314 88.8588 33.3537 89.1418 33.196C93.724 30.6314 99.4156 32.4304 102.508 37.3033C105.937 42.7061 105.62 50.6204 101.652 55.4058C99.9019 57.5164 97.7419 58.9298 94.9493 59.2813C94.5105 59.3364 93.9501 59.6422 93.7316 60.0051C92.7133 61.6997 91.7958 63.455 90.7509 65.3528C93.3516 67.3514 96.3608 67.9213 99.5809 67.2317C103.981 66.2875 106.718 63.3239 108.424 59.3478C109.241 57.4443 109.773 55.4191 110.474 53.4624C110.791 52.5752 111.129 51.6805 111.591 50.8655C112.186 49.8168 112.953 48.96 114.321 49.8681C114.443 49.9479 114.722 49.9897 114.796 49.9156C116.025 48.6941 116.895 49.4654 117.569 50.2671C118.265 49.8966 119.008 49.1804 119.477 49.3286C120.089 49.5224 120.809 50.3468 120.919 50.9966C122.359 59.4523 120.987 71.3484 110.134 75.9933C104.108 78.5731 98.215 78.0849 92.4778 75.2372C90.2893 74.1505 88.2547 72.7333 86.239 71.337C85.4696 70.8032 85.0061 70.7842 84.2918 71.3427C83.2907 72.1235 82.1888 72.7751 80.9882 73.5787C88.8398 88.6569 87.8538 103.56 79.721 118.285C81.5581 118.954 82.7777 120.143 83.4692 121.841C83.9252 122.962 83.9745 124.095 83.0209 124.997C82.1014 125.865 81.03 125.692 79.9756 125.227C79.7192 125.115 79.4741 124.98 79.1169 124.803C78.8852 126.391 78.338 127.822 76.6378 128.025C74.2194 128.314 72.8934 126.629 71.6491 124.706C71.3869 125.21 71.1969 125.62 70.969 126.008C69.9621 127.729 68.2732 127.833 67.0935 126.209C65.72 124.317 65.8853 122.174 66.345 120.071C66.6965 118.464 67.2436 116.893 67.7717 115.329C70.4826 107.297 72.428 99.0827 73.4614 90.6706C74.0579 85.8187 73.4006 81.2935 71.7403 77.3592C69.7341 77.6593 67.7033 78.1742 65.6611 78.2217C62.1333 78.3052 58.5903 78.1913 55.0682 77.9633C53.8296 77.8835 53.2672 78.0241 52.836 79.2969C50.7729 85.3913 51.1889 91.5274 52.4921 97.6389C53.9986 104.7 55.526 111.758 58.0299 118.574C58.7366 120.498 58.6549 122.721 58.862 124.815C58.9057 125.252 58.6948 125.749 58.4934 126.165C57.9843 127.212 57.3479 128.171 56.0047 128.185C54.73 128.196 54.276 127.204 53.7897 126.275C53.689 126.082 53.5997 125.882 53.4439 125.555C52.1331 127.453 50.8318 129.207 48.3298 128.867C47.0285 128.696 46.4187 127.78 45.9039 125.706ZM93.0192 59.4675C81.9969 57.5905 79.0542 41.2376 87.8576 33.9255C82.8708 29.2199 77.2647 25.8384 70.7182 24.9683C72.5533 24.3205 74.7722 23.6784 76.86 22.7475C78.0702 22.208 79.2461 21.3493 80.0953 20.3443C80.5645 19.7896 80.6215 18.5187 80.3309 17.7816C79.9452 16.807 78.8244 16.7215 77.8631 17.1034C77.1754 17.3769 76.5561 17.8196 75.9007 18.1748C75.5226 18.38 75.1332 18.5624 74.7475 18.7542C74.5614 18.2603 74.246 17.7721 74.2194 17.2687C74.1852 16.6132 74.3828 15.9464 74.4797 15.2834C74.3391 15.196 74.1985 15.1068 74.0579 15.0194C72.6008 16.4632 71.1456 17.9089 69.6847 19.347C69.358 19.668 69.0027 19.9587 68.6589 20.2645C68.5012 19.7972 68.201 19.3242 68.22 18.8644C68.2466 18.2223 68.3853 17.5156 68.7007 16.9666C69.6335 15.3328 70.6631 13.7541 71.6795 12.1698C72.1886 11.3757 72.8953 10.6747 73.2392 9.82169C73.4785 9.23087 73.2524 8.45008 73.2334 7.75478C72.5894 7.91245 71.9416 8.06063 71.3014 8.23541C71.1779 8.2696 71.0677 8.39689 70.9766 8.50327C67.9712 12.0045 64.582 15.2207 62.7583 19.6053C62.6291 19.9169 62.1941 20.1031 61.8996 20.3481C61.6603 20.0233 61.2214 19.6984 61.2214 19.3736C61.2214 18.6821 61.362 17.9583 61.5976 17.3028C62.3955 15.0821 63.4232 12.9316 64.0444 10.6652C64.4795 9.07889 64.6485 7.32354 64.4738 5.69356C64.2819 3.89641 62.7678 2.78507 61.2917 2.81546C59.8821 2.84586 58.5029 3.92871 58.2996 5.73346C58.0926 7.5762 58.1989 9.49683 58.4744 11.3396C59.0063 14.8997 59.1982 18.3952 57.7696 21.7957C57.5796 22.246 57.232 22.6316 56.9565 23.0457C56.6051 22.6525 56.1852 22.301 55.9117 21.8584C54.8269 20.0955 53.8466 18.266 52.6935 16.5506C52.3972 16.1117 51.6031 16.0072 51.0388 15.747C50.8964 16.3549 50.581 16.9799 50.638 17.5707C50.8907 20.16 53.6491 23.0229 56.3524 23.6233C56.9318 23.7524 57.5093 23.8797 58.0888 24.007C49.369 24.3661 42.0759 27.8027 35.6472 33.633C39.8494 37.3394 41.4528 41.8854 40.9532 47.1363C40.5048 51.859 38.5405 55.7934 34.1369 58.0522C32.8698 58.7019 31.3785 58.9165 29.948 59.3421C29.9518 59.3991 29.9271 59.5473 29.9746 59.6669C30.1133 60.0184 30.2728 60.3622 30.44 60.7004C32.9648 65.824 36.8478 69.6747 41.7282 72.53C49.804 77.2509 58.5542 78.6225 67.7033 77.2357C75.819 76.0047 82.9639 72.6497 88.5662 66.4642C90.4318 64.403 92.018 62.1366 93.0192 59.4675ZM53.233 123.397C53.3907 123.388 53.5484 123.376 53.7042 123.367C53.9416 124.146 54.0518 124.999 54.4508 125.683C54.8402 126.35 55.5507 127.313 56.0769 127.286C56.6887 127.256 57.5169 126.389 57.7753 125.706C58.1458 124.731 58.2388 123.58 58.1628 122.525C58.0755 121.315 57.7259 120.113 57.4011 118.931C55.7635 112.975 54.0309 107.046 52.4579 101.075C51.0179 95.6099 50.1593 90.0475 50.9116 84.3844C51.2117 82.1218 51.8956 79.9105 52.4047 77.6764C49.8667 76.8387 47.285 75.9857 44.669 75.1213C44.5949 75.2068 44.4791 75.2942 44.4221 75.4119C39.9083 84.7036 38.1263 94.3599 40.5219 104.579C41.639 109.341 43.2898 113.897 45.731 118.146C46.2648 119.075 46.3275 119.607 45.125 120.193C44.0972 120.694 43.2233 121.682 42.5204 122.634C41.9277 123.437 41.7035 124.579 42.6724 125.328C43.5976 126.042 44.5911 125.599 45.3947 124.951C45.7728 124.647 45.9818 124.133 46.2629 123.711C46.4947 123.359 46.7188 123.004 46.9468 122.649C47.1273 122.719 47.3097 122.788 47.4901 122.858C47.3306 123.409 47.1805 123.963 47.0114 124.511C46.6524 125.671 46.6828 126.796 47.625 127.653C48.5996 128.54 49.7565 128.301 50.5943 127.541C51.4758 126.741 52.1388 125.685 52.8227 124.689C53.0716 124.334 53.1039 123.832 53.233 123.397ZM72.616 77.1369C72.692 77.42 72.7414 77.6935 72.8364 77.95C74.3106 81.9261 74.5766 86.022 74.2859 90.2261C73.8414 96.632 72.029 102.757 70.5567 108.942C69.6961 112.557 68.3055 116.043 67.2626 119.619C66.7174 121.488 66.4153 123.456 67.4564 125.269C67.7698 125.816 68.4803 126.462 69.0103 126.462C69.5043 126.462 70.1179 125.74 70.4598 125.198C70.798 124.664 70.8398 123.948 71.0563 123.327C71.1608 123.029 71.3679 122.767 71.4724 122.584C72.371 123.939 73.0568 125.288 74.0389 126.367C75.0724 127.503 76.4782 127.579 77.3616 126.893C78.2791 126.18 78.4729 124.773 77.9125 123.395C77.7339 122.955 77.7225 122.446 77.6332 121.967C77.8099 121.91 77.9866 121.851 78.1633 121.794C78.4292 122.288 78.7104 122.774 78.9611 123.274C79.5273 124.404 81.2199 125.13 82.1907 124.645C83.0893 124.197 83.3191 122.894 82.4776 121.638C81.8943 120.768 81.1022 119.925 80.2093 119.404C78.7085 118.528 78.6572 118.589 79.4893 117.041C86.7577 103.547 87.7816 89.7834 81.2028 75.7159C80.9179 75.1061 80.4904 74.5647 80.2036 74.1087C77.5933 75.1517 75.1902 76.111 72.616 77.1369ZM33.7608 67.2108C31.3519 69.0079 28.6239 69.8362 25.6565 69.5285C20.5595 69.0003 17.2065 66.0064 15.1376 61.5154C14.2144 59.5112 13.6597 57.3379 12.8884 55.2596C12.5122 54.247 12.0829 53.242 11.5566 52.3017C11.3667 51.9616 10.7797 51.595 10.4491 51.6539C10.1508 51.709 9.84688 52.2998 9.7386 52.7063C9.55432 53.3978 9.52203 54.1292 9.42704 54.8435C9.30356 54.8492 9.17817 54.853 9.05469 54.8587C8.9768 54.0608 8.97491 53.2458 8.79063 52.4726C8.69755 52.0832 8.30809 51.5399 7.98894 51.4924C7.66788 51.4449 7.09986 51.8495 6.94218 52.1934C6.65912 52.8165 6.58313 53.5403 6.45395 54.228C6.37606 54.6402 6.36277 55.0658 6.32098 55.4856C6.1633 55.4875 6.00561 55.4894 5.84984 55.4913C5.80804 54.8359 5.87263 54.152 5.69786 53.5346C5.47939 52.7633 5.06525 52.049 4.73659 51.3081C4.30345 51.9559 3.52076 52.5942 3.49986 53.2553C3.40108 56.4051 3.17501 59.6118 3.62335 62.7065C4.31675 67.4901 6.30388 71.7284 10.413 74.7071C19.1138 81.0162 29.8701 78.9208 38.2764 71.299C36.7775 69.9464 35.2805 68.5881 33.7608 67.2108ZM114.906 53.4738C114.771 53.4757 114.634 53.4795 114.5 53.4814C114.441 52.7937 114.465 52.0851 114.294 51.4278C114.177 50.9738 113.787 50.59 113.519 50.1759C113.08 50.476 112.48 50.6831 112.235 51.0991C111.735 51.9445 111.388 52.8868 111.048 53.8158C110.269 55.9435 109.684 58.1548 108.753 60.2084C106.163 65.9171 100.981 68.9282 95.3388 67.9384C93.534 67.6211 91.8281 66.7435 90.3425 66.2172C88.9139 67.5242 87.4587 68.8541 85.8838 70.2922C91.2163 74.4051 96.8491 77.5776 103.798 76.9222C110.09 76.3295 115.166 73.5103 118.231 67.756C120.822 62.8927 121.044 57.6171 120.571 52.277C120.491 51.3689 120.482 50.0277 119.224 50.0182C118.894 50.0163 118.51 51.6197 118.227 52.5106C118.067 53.0122 118.062 53.5612 117.987 54.0893C117.501 53.0369 117.44 51.9958 117.134 51.0326C117 50.6071 116.363 50.3392 115.957 49.9992C115.677 50.4361 115.278 50.8408 115.151 51.3195C114.965 52.011 114.978 52.7538 114.906 53.4738ZM19.6324 44.1423C19.6172 48.7967 20.6032 52.0338 22.938 54.7865C26.783 59.3212 32.847 59.4504 36.8022 55.1095C41.5535 49.8928 41.3958 40.5727 36.4698 35.5213C32.5924 31.5452 27.1288 31.5224 23.2799 35.5232C20.6868 38.217 19.6628 41.5435 19.6324 44.1423ZM83.4768 44.4653C83.454 49.0911 84.4552 52.3739 86.8488 55.1475C90.8079 59.7353 96.9782 59.703 100.903 55.1038C105.366 49.8776 105.151 40.928 100.443 35.9354C96.5565 31.8111 90.9428 31.7636 87.0521 35.8804C84.5217 38.5533 83.511 41.8379 83.4768 44.4653Z" fill="white"/>
<path d="M45.9039 125.706C45.6417 125.827 45.3909 125.951 45.1345 126.065C44.0326 126.553 42.9194 126.747 41.9771 125.793C41.0557 124.86 41.1526 123.726 41.6238 122.618C42.3229 120.977 43.4969 119.801 45.3301 119.165C41.5307 112.246 39.1313 104.964 38.7001 97.0898C38.2631 89.1223 40.558 81.7913 43.8597 74.6787C42.2355 73.7193 40.653 72.7846 39.1959 71.924C36.6484 73.5008 34.2338 75.2562 31.6008 76.5708C24.6439 80.0492 17.7137 80.1252 10.9677 75.8622C5.52498 72.4218 3.39158 67.112 2.70578 61.0632C2.45121 58.8216 2.61838 56.5305 2.64308 54.2622C2.64878 53.6581 2.70957 52.9875 2.97744 52.4669C3.31939 51.8001 3.79623 50.9719 4.40794 50.7515C4.86008 50.5881 5.62187 51.2853 6.33047 51.6425C7.65839 50.4133 7.84836 50.3924 9.33015 51.4487C10.7284 50.6394 11.5073 50.7268 12.2216 52.1288C12.9663 53.5897 13.5134 55.1646 14.0263 56.73C14.9724 59.6156 15.9412 62.4691 17.9853 64.8171C21.2339 68.5482 25.9813 69.8704 30.5692 68.2063C31.521 67.8605 32.3872 67.2811 33.1452 66.8859C31.7033 64.2871 30.3678 61.8611 29 59.4523C28.8594 59.2053 28.5403 58.9982 28.2591 58.9013C22.4915 56.9256 19.1556 52.5505 18.8535 46.4505C18.6199 41.741 19.8167 37.5065 23.449 34.2903C26.5266 31.568 30.0335 31.0208 33.869 32.6584C34.3554 32.8655 35.2463 32.8864 35.575 32.5843C40.6302 27.9566 46.584 25.1677 53.2235 23.7259C53.3983 23.6879 53.5712 23.6423 53.7308 23.6024C52.8018 22.5803 51.7512 21.676 51.0312 20.559C50.4119 19.5977 49.956 18.418 49.8363 17.2914C49.7584 16.5543 50.2144 15.4221 50.7976 15.0631C51.2402 14.7895 52.4959 15.2378 52.9766 15.7508C53.9948 16.8393 54.7794 18.1558 55.5887 19.4249C56.037 20.1278 56.3448 20.9218 56.8159 21.8774C57.8969 19.6547 58.2426 17.4928 58.0774 15.2834C57.9121 13.0721 57.3821 10.8817 57.3194 8.67425C57.2757 7.16586 57.458 5.50359 58.0755 4.15668C59.3293 1.42296 62.859 1.32037 64.546 3.82232C65.777 5.64797 65.8093 7.67499 65.1805 9.68111C64.5593 11.6587 63.7367 13.5737 63.0167 15.5209C62.7108 16.3492 62.4373 17.1889 62.101 18.1653C64.3066 15.3556 66.3697 12.6884 68.4803 10.0611C69.1585 9.21757 69.9051 8.40828 70.7258 7.70728C71.6092 6.95309 72.711 6.31668 73.7958 7.19815C74.8843 8.08343 74.4949 9.27836 73.8984 10.2966C73.3531 11.2294 72.6312 12.0577 72.0404 12.9695C70.9291 14.685 69.8595 16.4271 68.771 18.1596C68.8888 18.2318 69.0084 18.304 69.1262 18.3781C70.6498 17.1053 72.1525 15.804 73.7141 14.5786C74.0674 14.3013 74.626 14.2823 75.0895 14.1436C75.1598 14.6299 75.308 15.1201 75.2833 15.6007C75.2491 16.2504 75.0819 16.8906 74.9736 17.5194C76.066 17.0711 77.0595 16.5524 78.1158 16.2618C79.2347 15.954 80.2872 16.2675 81.0129 17.2535C81.7443 18.2451 81.7747 19.4249 81.068 20.3025C80.2036 21.374 79.1169 22.3314 77.9619 23.0837C76.8809 23.7847 75.5834 24.1514 74.2308 24.7308C74.7057 24.936 75.0363 25.1013 75.3801 25.2266C80.0592 26.9269 84.2614 29.3947 87.8709 32.856C88.1578 33.1314 88.8588 33.3537 89.1418 33.196C93.724 30.6314 99.4156 32.4304 102.508 37.3033C105.937 42.7061 105.62 50.6204 101.652 55.4058C99.9019 57.5164 97.7419 58.9298 94.9493 59.2813C94.5105 59.3364 93.9501 59.6422 93.7316 60.0051C92.7133 61.6997 91.7958 63.455 90.7509 65.3528C93.3516 67.3514 96.3608 67.9213 99.5809 67.2317C103.981 66.2875 106.718 63.3239 108.424 59.3478C109.241 57.4443 109.773 55.4191 110.474 53.4624C110.791 52.5752 111.129 51.6805 111.591 50.8655C112.186 49.8168 112.953 48.96 114.321 49.8681C114.443 49.9479 114.722 49.9897 114.796 49.9156C116.025 48.6941 116.895 49.4654 117.569 50.2671C118.265 49.8966 119.008 49.1804 119.477 49.3286C120.089 49.5224 120.809 50.3468 120.919 50.9966C122.359 59.4523 120.987 71.3484 110.134 75.9933C104.108 78.5731 98.215 78.0849 92.4778 75.2372C90.2893 74.1505 88.2547 72.7333 86.239 71.337C85.4696 70.8032 85.0061 70.7842 84.2918 71.3427C83.2907 72.1235 82.1888 72.7751 80.9882 73.5787C88.8398 88.6569 87.8538 103.56 79.721 118.285C81.5581 118.954 82.7777 120.143 83.4692 121.841C83.9252 122.962 83.9745 124.095 83.0209 124.997C82.1014 125.865 81.03 125.692 79.9756 125.227C79.7192 125.115 79.4741 124.98 79.1169 124.803C78.8852 126.391 78.338 127.822 76.6378 128.025C74.2194 128.314 72.8934 126.629 71.6491 124.706C71.3869 125.21 71.1969 125.62 70.969 126.008C69.9621 127.729 68.2732 127.833 67.0935 126.209C65.72 124.317 65.8853 122.174 66.345 120.071C66.6965 118.464 67.2436 116.893 67.7717 115.329C70.4826 107.297 72.428 99.0827 73.4614 90.6706C74.0579 85.8187 73.4006 81.2935 71.7403 77.3592C69.7341 77.6593 67.7033 78.1742 65.6611 78.2217C62.1333 78.3052 58.5903 78.1913 55.0682 77.9633C53.8296 77.8835 53.2672 78.0241 52.836 79.2969C50.7729 85.3913 51.1889 91.5274 52.4921 97.6389C53.9986 104.7 55.526 111.758 58.0299 118.574C58.7366 120.498 58.6549 122.721 58.862 124.815C58.9057 125.252 58.6948 125.749 58.4934 126.165C57.9843 127.212 57.3479 128.171 56.0047 128.185C54.73 128.196 54.276 127.204 53.7897 126.275C53.689 126.082 53.5997 125.882 53.4439 125.555C52.1331 127.453 50.8318 129.207 48.3298 128.867C47.0285 128.696 46.4187 127.78 45.9039 125.706ZM93.0192 59.4675C81.9969 57.5905 79.0542 41.2376 87.8576 33.9255C82.8708 29.2199 77.2647 25.8384 70.7182 24.9683C72.5533 24.3205 74.7722 23.6784 76.86 22.7475C78.0702 22.208 79.2461 21.3493 80.0953 20.3443C80.5645 19.7896 80.6215 18.5187 80.3309 17.7816C79.9452 16.807 78.8244 16.7215 77.8631 17.1034C77.1754 17.3769 76.5561 17.8196 75.9007 18.1748C75.5226 18.38 75.1332 18.5624 74.7475 18.7542C74.5614 18.2603 74.246 17.7721 74.2194 17.2687C74.1852 16.6132 74.3828 15.9464 74.4797 15.2834C74.3391 15.196 74.1985 15.1068 74.0579 15.0194C72.6008 16.4632 71.1456 17.9089 69.6847 19.347C69.358 19.668 69.0027 19.9587 68.6589 20.2645C68.5012 19.7972 68.201 19.3242 68.22 18.8644C68.2466 18.2223 68.3853 17.5156 68.7007 16.9666C69.6335 15.3328 70.6631 13.7541 71.6795 12.1698C72.1886 11.3757 72.8953 10.6747 73.2392 9.82169C73.4785 9.23087 73.2524 8.45008 73.2334 7.75478C72.5894 7.91245 71.9416 8.06063 71.3014 8.23541C71.1779 8.2696 71.0677 8.39689 70.9766 8.50327C67.9712 12.0045 64.582 15.2207 62.7583 19.6053C62.6291 19.9169 62.1941 20.1031 61.8996 20.3481C61.6603 20.0233 61.2214 19.6984 61.2214 19.3736C61.2214 18.6821 61.362 17.9583 61.5976 17.3028C62.3955 15.0821 63.4232 12.9316 64.0444 10.6652C64.4795 9.07889 64.6485 7.32354 64.4738 5.69356C64.2819 3.89641 62.7678 2.78507 61.2917 2.81546C59.8821 2.84586 58.5029 3.92871 58.2996 5.73346C58.0926 7.5762 58.1989 9.49683 58.4744 11.3396C59.0063 14.8997 59.1982 18.3952 57.7696 21.7957C57.5796 22.246 57.232 22.6316 56.9565 23.0457C56.6051 22.6525 56.1852 22.301 55.9117 21.8584C54.8269 20.0955 53.8466 18.266 52.6935 16.5506C52.3972 16.1117 51.6031 16.0072 51.0388 15.747C50.8964 16.3549 50.581 16.9799 50.638 17.5707C50.8907 20.16 53.6491 23.0229 56.3524 23.6233C56.9318 23.7524 57.5093 23.8797 58.0888 24.007C49.369 24.3661 42.0759 27.8027 35.6472 33.633C39.8494 37.3394 41.4528 41.8854 40.9532 47.1363C40.5048 51.859 38.5405 55.7934 34.1369 58.0522C32.8698 58.7019 31.3785 58.9165 29.948 59.3421C29.9518 59.3991 29.9271 59.5473 29.9746 59.6669C30.1133 60.0184 30.2728 60.3622 30.44 60.7004C32.9648 65.824 36.8478 69.6747 41.7282 72.53C49.804 77.2509 58.5542 78.6225 67.7033 77.2357C75.819 76.0047 82.9639 72.6497 88.5662 66.4642C90.4318 64.403 92.018 62.1366 93.0192 59.4675ZM53.233 123.397C53.3907 123.388 53.5484 123.376 53.7042 123.367C53.9416 124.146 54.0518 124.999 54.4508 125.683C54.8402 126.35 55.5507 127.313 56.0769 127.286C56.6887 127.256 57.5169 126.389 57.7753 125.706C58.1458 124.731 58.2388 123.58 58.1628 122.525C58.0755 121.315 57.7259 120.113 57.4011 118.931C55.7635 112.975 54.0309 107.046 52.4579 101.075C51.0179 95.6099 50.1593 90.0475 50.9116 84.3844C51.2117 82.1218 51.8956 79.9105 52.4047 77.6764C49.8667 76.8387 47.285 75.9857 44.669 75.1213C44.5949 75.2068 44.4791 75.2942 44.4221 75.4119C39.9083 84.7036 38.1263 94.3599 40.5219 104.579C41.639 109.341 43.2898 113.897 45.731 118.146C46.2648 119.075 46.3275 119.607 45.125 120.193C44.0972 120.694 43.2233 121.682 42.5204 122.634C41.9277 123.437 41.7035 124.579 42.6724 125.328C43.5976 126.042 44.5911 125.599 45.3947 124.951C45.7728 124.647 45.9818 124.133 46.2629 123.711C46.4947 123.359 46.7188 123.004 46.9468 122.649C47.1273 122.719 47.3097 122.788 47.4901 122.858C47.3306 123.409 47.1805 123.963 47.0114 124.511C46.6524 125.671 46.6828 126.796 47.625 127.653C48.5996 128.54 49.7565 128.301 50.5943 127.541C51.4758 126.741 52.1388 125.685 52.8227 124.689C53.0716 124.334 53.1039 123.832 53.233 123.397ZM72.616 77.1369C72.692 77.42 72.7414 77.6935 72.8364 77.95C74.3106 81.9261 74.5766 86.022 74.2859 90.2261C73.8414 96.632 72.029 102.757 70.5567 108.942C69.6961 112.557 68.3055 116.043 67.2626 119.619C66.7174 121.488 66.4153 123.456 67.4564 125.269C67.7698 125.816 68.4803 126.462 69.0103 126.462C69.5043 126.462 70.1179 125.74 70.4598 125.198C70.798 124.664 70.8398 123.948 71.0563 123.327C71.1608 123.029 71.3679 122.767 71.4724 122.584C72.371 123.939 73.0568 125.288 74.0389 126.367C75.0724 127.503 76.4782 127.579 77.3616 126.893C78.2791 126.18 78.4729 124.773 77.9125 123.395C77.7339 122.955 77.7225 122.446 77.6332 121.967C77.8099 121.91 77.9866 121.851 78.1633 121.794C78.4292 122.288 78.7104 122.774 78.9611 123.274C79.5273 124.404 81.2199 125.13 82.1907 124.645C83.0893 124.197 83.3191 122.894 82.4776 121.638C81.8943 120.768 81.1022 119.925 80.2093 119.404C78.7085 118.528 78.6572 118.589 79.4893 117.041C86.7577 103.547 87.7816 89.7834 81.2028 75.7159C80.9179 75.1061 80.4904 74.5647 80.2036 74.1087C77.5933 75.1517 75.1902 76.111 72.616 77.1369ZM33.7608 67.2108C31.3519 69.0079 28.6239 69.8362 25.6565 69.5285C20.5595 69.0003 17.2065 66.0064 15.1376 61.5154C14.2144 59.5112 13.6597 57.3379 12.8884 55.2596C12.5122 54.247 12.0829 53.242 11.5566 52.3017C11.3667 51.9616 10.7797 51.595 10.4491 51.6539C10.1508 51.709 9.84688 52.2998 9.7386 52.7063C9.55432 53.3978 9.52203 54.1292 9.42704 54.8435C9.30356 54.8492 9.17817 54.853 9.05469 54.8587C8.9768 54.0608 8.97491 53.2458 8.79063 52.4726C8.69755 52.0832 8.30809 51.5399 7.98894 51.4924C7.66788 51.4449 7.09986 51.8495 6.94218 52.1934C6.65912 52.8165 6.58313 53.5403 6.45395 54.228C6.37606 54.6402 6.36277 55.0658 6.32098 55.4856C6.1633 55.4875 6.00561 55.4894 5.84984 55.4913C5.80804 54.8359 5.87263 54.152 5.69786 53.5346C5.47939 52.7633 5.06525 52.049 4.73659 51.3081C4.30345 51.9559 3.52076 52.5942 3.49986 53.2553C3.40108 56.4051 3.17501 59.6118 3.62335 62.7065C4.31675 67.4901 6.30388 71.7284 10.413 74.7071C19.1138 81.0162 29.8701 78.9208 38.2764 71.299C36.7775 69.9464 35.2805 68.5881 33.7608 67.2108ZM114.906 53.4738C114.771 53.4757 114.634 53.4795 114.5 53.4814C114.441 52.7937 114.465 52.0851 114.294 51.4278C114.177 50.9738 113.787 50.59 113.519 50.1759C113.08 50.476 112.48 50.6831 112.235 51.0991C111.735 51.9445 111.388 52.8868 111.048 53.8158C110.269 55.9435 109.684 58.1548 108.753 60.2084C106.163 65.9171 100.981 68.9282 95.3388 67.9384C93.534 67.6211 91.8281 66.7435 90.3425 66.2172C88.9139 67.5242 87.4587 68.8541 85.8838 70.2922C91.2163 74.4051 96.8491 77.5776 103.798 76.9222C110.09 76.3295 115.166 73.5103 118.231 67.756C120.822 62.8927 121.044 57.6171 120.571 52.277C120.491 51.3689 120.482 50.0277 119.224 50.0182C118.894 50.0163 118.51 51.6197 118.227 52.5106C118.067 53.0122 118.062 53.5612 117.987 54.0893C117.501 53.0369 117.44 51.9958 117.134 51.0326C117 50.6071 116.363 50.3392 115.957 49.9992C115.677 50.4361 115.278 50.8408 115.151 51.3195C114.965 52.011 114.978 52.7538 114.906 53.4738ZM19.6324 44.1423C19.6172 48.7967 20.6032 52.0338 22.938 54.7865C26.783 59.3212 32.847 59.4504 36.8022 55.1095C41.5535 49.8928 41.3958 40.5727 36.4698 35.5213C32.5924 31.5452 27.1288 31.5224 23.2799 35.5232C20.6868 38.217 19.6628 41.5435 19.6324 44.1423ZM83.4768 44.4653C83.454 49.0911 84.4552 52.3739 86.8488 55.1475C90.8079 59.7353 96.9782 59.703 100.903 55.1038C105.366 49.8776 105.151 40.928 100.443 35.9354C96.5565 31.8111 90.9428 31.7636 87.0521 35.8804C84.5217 38.5533 83.511 41.8379 83.4768 44.4653Z" stroke="white" stroke-width="4" mask="url(#path-1-outside-1_295_1337)"/>
<path d="M93.0177 59.4686C92.0165 62.1377 90.4302 64.4041 88.5647 66.4634C82.9624 72.649 75.8194 76.0039 67.7018 77.2349C58.5527 78.6217 49.8025 77.2501 41.7267 72.5293C36.8444 69.6759 32.9632 65.8251 30.4385 60.6996C30.2713 60.3615 30.1136 60.0176 29.973 59.6662C29.9256 59.5465 29.9503 59.4002 29.9465 59.3413C31.377 58.9158 32.8682 58.703 34.1354 58.0514C38.539 55.7926 40.5014 51.8564 40.9516 47.1355C41.4513 41.8846 39.846 37.3386 35.6457 33.6322C42.0744 27.8038 49.3694 24.3653 58.0872 24.0062C57.5078 23.879 56.9303 23.7517 56.3509 23.6225C53.6476 23.0222 50.8891 20.1612 50.6365 17.5699C50.5795 16.981 50.8929 16.356 51.0373 15.7462C51.6015 16.0045 52.3956 16.109 52.692 16.5498C53.847 18.2633 54.8254 20.0947 55.9101 21.8576C56.1818 22.3003 56.6016 22.6517 56.955 23.045C57.2305 22.6289 57.5781 22.2452 57.7681 21.7949C59.1948 18.3925 59.0048 14.897 58.4729 11.3388C58.1974 9.49796 58.091 7.57542 58.2981 5.73268C58.5014 3.92603 59.8806 2.84508 61.2902 2.81659C62.7663 2.78619 64.2804 3.89754 64.4722 5.69469C64.6451 7.32466 64.4779 9.08001 64.0429 10.6663C63.4217 12.9308 62.3939 15.0832 61.596 17.304C61.3605 17.9594 61.2199 18.6813 61.2199 19.3747C61.2199 19.6995 61.6587 20.0244 61.8981 20.3492C62.1907 20.1042 62.6257 19.9199 62.7568 19.6064C64.5805 15.2219 67.9697 12.0056 70.975 8.5044C71.0662 8.39801 71.1764 8.27073 71.2999 8.23653C71.9401 8.06176 72.5879 7.91358 73.2319 7.7559C73.2509 8.4512 73.477 9.23009 73.2376 9.82281C72.8938 10.6758 72.1871 11.3768 71.6779 12.1709C70.6616 13.7553 69.6319 15.3339 68.6992 16.9677C68.3857 17.5186 68.247 18.2234 68.2185 18.8656C68.1995 19.3253 68.4997 19.7983 68.6574 20.2657C68.9993 19.9617 69.3565 19.6691 69.6832 19.3481C71.146 17.91 72.5993 16.4643 74.0564 15.0205C74.197 15.1079 74.3376 15.1972 74.4781 15.2845C74.3813 15.9457 74.1856 16.6144 74.2179 17.2698C74.2445 17.7732 74.5579 18.2595 74.746 18.7554C75.1298 18.5635 75.5211 18.3811 75.8991 18.1759C76.5546 17.8207 77.1739 17.3781 77.8616 17.1045C78.8228 16.7226 79.9437 16.8062 80.3293 17.7827C80.62 18.5198 80.5611 19.7907 80.0938 20.3454C79.2446 21.3504 78.0687 22.2091 76.8585 22.7486C74.7688 23.6814 72.5518 24.3235 70.7167 24.9694C77.2632 25.8395 82.8693 29.2191 87.8561 33.9267C79.0527 41.2387 81.9954 57.5917 93.0177 59.4686ZM52.5742 51.3776C52.8877 52.4168 53.2581 53.3932 53.4766 54.4058C54.5518 59.404 58.4729 63.4523 63.1804 64.3661C66.315 64.9759 68.2603 63.9748 69.9758 61.317C72.2175 57.8405 71.4329 54.1113 71.0985 50.4449C70.8231 47.43 69.2007 46.6226 66.3473 47.5971C63.3191 48.6325 60.2662 49.6071 57.1887 50.4866C55.629 50.935 53.9914 51.1136 52.5742 51.3776ZM60.8475 44.8672C60.6728 44.8007 60.498 44.7361 60.3232 44.6697C60.0478 45.2263 59.6982 45.762 59.5424 46.3509C59.4911 46.5428 59.949 46.8695 60.4296 47.4357C60.6158 46.2901 60.7317 45.5777 60.8475 44.8672Z" fill="#FFE00A"/>
<path d="M53.2335 123.397C53.1043 123.832 53.072 124.333 52.827 124.689C52.1412 125.684 51.48 126.74 50.5986 127.54C49.7589 128.302 48.602 128.539 47.6293 127.652C46.687 126.794 46.6585 125.671 47.0157 124.51C47.1847 123.963 47.3348 123.408 47.4944 122.857C47.3139 122.787 47.1316 122.719 46.9511 122.648C46.7231 123.002 46.4989 123.359 46.2672 123.71C45.9879 124.134 45.777 124.649 45.399 124.951C44.5954 125.597 43.6018 126.041 42.6767 125.327C41.7078 124.578 41.932 123.437 42.5247 122.633C43.2276 121.683 44.0996 120.693 45.1292 120.192C46.3299 119.607 46.2691 119.075 45.7352 118.146C43.2941 113.896 41.6432 109.341 40.5262 104.578C38.1306 94.3593 39.9126 84.703 44.4263 75.4114C44.4833 75.2936 44.5992 75.2062 44.6733 75.1207C47.2892 75.9851 49.871 76.8381 52.409 77.6759C51.8999 79.9081 51.216 82.1213 50.9158 84.3838C50.1635 90.0469 51.0222 95.6094 52.4622 101.075C54.0352 107.046 55.7677 112.977 57.4053 118.931C57.7302 120.112 58.0816 121.313 58.1671 122.525C58.2431 123.579 58.1481 124.73 57.7796 125.705C57.5212 126.389 56.6929 127.255 56.0812 127.286C55.555 127.312 54.8445 126.349 54.455 125.682C54.0542 124.998 53.9459 124.145 53.7084 123.366C53.5489 123.376 53.3912 123.387 53.2335 123.397Z" fill="#FFE00A"/>
<path d="M72.6165 77.1359C75.1906 76.11 77.5957 75.1507 80.204 74.1115C80.4909 74.5674 80.9183 75.1108 81.2033 75.7187C87.7821 89.7862 86.7581 103.55 79.4897 117.044C78.6557 118.592 78.707 118.529 80.2097 119.407C81.1026 119.929 81.8967 120.771 82.478 121.641C83.3196 122.897 83.0897 124.2 82.1911 124.648C81.2185 125.133 79.5277 124.407 78.9616 123.277C78.7108 122.775 78.4316 122.289 78.1637 121.797C77.987 121.854 77.8103 121.913 77.6337 121.97C77.7211 122.448 77.7325 122.958 77.9129 123.398C78.4734 124.776 78.2796 126.183 77.362 126.896C76.4786 127.581 75.0728 127.505 74.0394 126.369C73.0572 125.29 72.3714 123.942 71.4728 122.587C71.3683 122.769 71.1613 123.032 71.0568 123.33C70.8402 123.951 70.7984 124.665 70.4603 125.201C70.1183 125.743 69.5047 126.464 69.0108 126.464C68.4807 126.464 67.7702 125.819 67.4568 125.271C66.4157 123.459 66.7159 121.491 67.263 119.622C68.306 116.046 69.6966 112.56 70.5572 108.945C72.0295 102.76 73.8437 96.6348 74.2863 90.2289C74.577 86.0248 74.311 81.9289 72.8368 77.9528C72.74 77.6925 72.6906 77.4189 72.6165 77.1359Z" fill="#FFE00A"/>
<path d="M33.7615 67.2111C35.2813 68.5884 36.7782 69.9467 38.2752 71.3012C29.8689 78.9229 19.1126 81.0183 10.4118 74.7093C6.30268 71.7305 4.31556 67.4941 3.62216 62.7087C3.17382 59.614 3.39988 56.4073 3.49867 53.2575C3.51957 52.5964 4.30416 51.9581 4.7354 51.3103C5.06405 52.0493 5.4782 52.7655 5.69667 53.5368C5.87144 54.1542 5.80685 54.8381 5.84864 55.4935C6.00632 55.4916 6.16401 55.4897 6.31978 55.4878C6.36158 55.0679 6.37488 54.6443 6.45277 54.2302C6.58195 53.5425 6.65793 52.8187 6.94099 52.1955C7.09867 51.8517 7.66669 51.4471 7.98775 51.4945C8.3069 51.542 8.69635 52.0854 8.78944 52.4748C8.97372 53.2461 8.97562 54.063 9.05351 54.8609C9.17699 54.8552 9.30236 54.8514 9.42585 54.8457C9.52083 54.1314 9.55313 53.4 9.73741 52.7085C9.84569 52.3019 10.1496 51.7111 10.4479 51.656C10.7785 51.5952 11.3655 51.9619 11.5555 52.3038C12.0817 53.2442 12.511 54.2473 12.8872 55.2617C13.6585 57.34 14.2132 59.5133 15.1365 61.5176C17.2053 66.0085 20.5583 69.0025 25.6553 69.5306C28.6246 69.8365 31.3526 69.0082 33.7615 67.2111Z" fill="#FFE00A"/>
<path d="M114.905 53.4747C114.977 52.7547 114.964 52.0119 115.15 51.3242C115.277 50.8474 115.678 50.4408 115.956 50.0039C116.364 50.344 116.999 50.6099 117.133 51.0374C117.439 52.0005 117.5 53.0416 117.986 54.094C118.061 53.5659 118.066 53.015 118.226 52.5154C118.509 51.6244 118.891 50.021 119.223 50.0229C120.479 50.0324 120.488 51.3736 120.57 52.2817C121.043 57.6218 120.821 62.8974 118.23 67.7607C115.163 73.515 110.089 76.3342 103.797 76.927C96.8481 77.5805 91.2135 74.4079 85.8828 70.2969C87.4577 68.8569 88.9129 67.5271 90.3415 66.2219C91.8271 66.7482 93.5331 67.6277 95.3378 67.9431C100.98 68.9329 106.162 65.9218 108.752 60.2131C109.685 58.1576 110.27 55.9463 111.047 53.8205C111.387 52.8915 111.734 51.9492 112.234 51.1039C112.479 50.6878 113.079 50.4826 113.518 50.1806C113.786 50.5947 114.176 50.9785 114.293 51.4325C114.464 52.0898 114.44 52.7984 114.499 53.4861C114.633 53.4804 114.77 53.4766 114.905 53.4747Z" fill="#FFE00A"/>
<path d="M19.633 44.1422C19.6634 41.5434 20.6893 38.217 23.2805 35.5231C27.1294 31.5204 32.5949 31.5451 36.4704 35.5212C41.3964 40.5726 41.5541 49.8927 36.8028 55.1094C32.8476 59.4522 26.7836 59.323 22.9386 54.7864C20.6038 52.0337 19.6159 48.7966 19.633 44.1422ZM27.3137 45.341C27.3555 48.1108 27.9881 50.6887 29.9353 52.767C32.1675 55.1493 35.2906 54.9631 37.2683 52.389C40.0761 48.7339 39.7113 42.0145 36.5274 38.7033C34.1812 36.264 30.9934 36.5167 29.0519 39.3131C27.7981 41.1216 27.3023 43.1601 27.3137 45.341Z" fill="white"/>
<path d="M83.4769 44.4635C83.5111 41.8362 84.5237 38.5516 87.0523 35.8767C90.9429 31.7619 96.5547 31.8094 100.443 35.9318C105.151 40.9243 105.366 49.874 100.903 55.1001C96.9765 59.6994 90.808 59.7317 86.849 55.1438C84.4534 52.3721 83.4541 49.0894 83.4769 44.4635ZM97.0677 46.4374C97.0886 43.5365 96.0304 40.6261 94.3282 38.9011C92.0865 36.6309 89.0603 36.8171 87.1111 39.3456C84.3337 42.9494 84.6206 49.5757 87.702 52.9307C90.0443 55.482 93.2948 55.2825 95.3047 52.4595C96.5889 50.6586 96.9708 48.5898 97.0677 46.4374Z" fill="white"/>
<path d="M52.5762 51.3769C53.9953 51.1128 55.6309 50.9343 57.1906 50.4878C60.2682 49.6082 63.3211 48.6337 66.3493 47.5983C69.2008 46.6238 70.825 47.4311 71.1005 50.446C71.4348 54.1125 72.2213 57.8417 69.9777 61.3182C68.2623 63.9759 66.317 64.9752 63.1824 64.3673C58.473 63.4535 54.5538 59.4052 53.4785 54.407C53.2601 53.3944 52.8896 52.4161 52.5762 51.3769ZM54.0865 53.3241C54.4113 58.5066 59.1265 63.4212 64.0886 63.8316C65.6406 63.9607 67.1661 63.7879 68.2528 62.5226C69.8258 60.6875 70.9086 58.6035 70.8307 56.1015C70.7737 54.2607 70.675 52.4161 70.4736 50.5866C70.3881 49.8115 69.9967 49.0706 69.6814 48.1303C68.249 49.481 68.2338 52.5471 65.4127 50.7576C64.3279 54.1106 63.5167 54.3671 61.0072 52.2166C60.0041 53.9681 59.5121 53.9985 57.3084 52.4483C56.2541 54.6406 55.8589 54.766 54.0865 53.3241ZM64.3754 49.1257C63.2033 49.5076 62.147 49.8514 61.1003 50.1915C61.465 51.8518 62.5289 53.0715 63.4123 52.91C64.3716 52.7352 64.7649 51.3199 64.3754 49.1257ZM68.8569 48.2005C68.7448 48.0258 68.6308 47.851 68.5187 47.6743C67.4074 48.0334 66.298 48.3905 64.7364 48.8958C65.6274 49.6557 66.6038 50.6341 66.7026 50.5524C67.5138 49.8799 68.1597 49.0098 68.8569 48.2005ZM60.5057 50.7747C60.3575 50.6797 60.2074 50.5847 60.0592 50.4897C59.2214 50.6987 58.3837 50.9096 57.5459 51.1185C57.4908 51.2819 57.4376 51.4453 57.3825 51.6087C58.1253 52.0304 58.8681 52.4503 59.6109 52.872C59.9091 52.1729 60.2074 51.4738 60.5057 50.7747ZM56.7442 51.3351C55.6044 51.5536 54.9907 51.6733 54.379 51.791C54.3163 51.9202 54.2517 52.0475 54.189 52.1767C54.74 52.6269 55.2909 53.0772 55.8418 53.5274C56.0926 52.9176 56.3433 52.3078 56.7442 51.3351Z" fill="white"/>
<path d="M60.8481 44.8647C60.7322 45.5771 60.6163 46.2876 60.4282 47.4351C59.9457 46.8671 59.4898 46.5422 59.5411 46.3503C59.6968 45.7614 60.0483 45.2257 60.3219 44.6691C60.4985 44.7318 60.6733 44.7982 60.8481 44.8647Z" fill="white"/>
<path d="M27.3146 45.3413C27.3032 43.1604 27.7991 41.1239 29.0529 39.3154C30.9925 36.517 34.1822 36.2663 36.5284 38.7055C39.7123 42.0168 40.0771 48.7361 37.2693 52.3912C35.2916 54.9654 32.1685 55.1496 29.9363 52.7693C27.9871 50.6891 27.3564 48.1111 27.3146 45.3413ZM38.4148 45.9378C38.2856 43.5613 37.7727 41.1809 35.9831 39.2907C34.0625 37.2617 31.589 37.3757 29.8774 39.5072C27.2615 42.7634 27.5996 49.3118 30.5385 52.2715C32.5351 54.2834 35.0447 54.1105 36.7202 51.8137C37.9627 50.1078 38.3483 48.132 38.4148 45.9378Z" fill="#60C3F1"/>
<path d="M97.0677 46.4431C96.9689 48.5936 96.587 50.6624 95.3028 52.4653C93.2929 55.2883 90.0443 55.4878 87.7001 52.9364C84.6187 49.5815 84.3318 42.9552 87.1093 39.3514C89.0584 36.8229 92.0847 36.6367 94.3264 38.9069C96.0285 40.6299 97.0867 43.5422 97.0677 46.4431ZM85.6104 45.3907C85.7338 45.4382 85.8592 45.4856 85.9827 45.5331C86.0074 48.208 86.5716 50.7099 88.5455 52.6666C90.4243 54.5303 92.7819 54.3555 94.446 52.3057C97.1 49.0344 96.7998 42.5354 93.8552 39.549C91.8244 37.4897 89.1002 37.596 87.6279 40.0733C86.6742 41.6786 86.2639 43.6068 85.6104 45.3907Z" fill="#60C3F1"/>
<path d="M54.0859 53.324C55.8584 54.7659 56.2535 54.6405 57.306 52.4463C59.5116 53.9965 60.0036 53.9661 61.0048 52.2145C63.5143 54.365 64.3255 54.1066 65.4103 50.7555C68.2314 52.5451 68.2466 49.4789 69.679 48.1282C69.9943 49.0704 70.3857 49.8113 70.4712 50.5845C70.6706 52.414 70.7713 54.2586 70.8283 56.0995C70.9062 58.5995 69.8252 60.6854 68.2504 62.5206C67.1656 63.7858 65.6382 63.9587 64.0861 63.8295C59.1259 63.421 54.4108 58.5064 54.0859 53.324Z" fill="#60C3F1"/>
<path d="M64.3748 49.1255C64.7661 51.3197 64.371 52.735 63.4116 52.9098C62.5282 53.0713 61.4625 51.8516 61.0996 50.1913C62.1464 49.8512 63.2026 49.5074 64.3748 49.1255Z" fill="white"/>
<path d="M68.8569 48.2008C68.1597 49.0101 67.5138 49.8802 66.7045 50.5527C66.6057 50.6344 65.6293 49.6579 64.7383 48.8962C66.298 48.3927 67.4093 48.0337 68.5206 47.6746C68.6308 47.8513 68.7448 48.0261 68.8569 48.2008Z" fill="white"/>
<path d="M60.506 50.7734C60.2077 51.4725 59.9095 52.1716 59.6112 52.8707C58.8684 52.449 58.1256 52.0292 57.3828 51.6074C57.4379 51.444 57.4911 51.2807 57.5462 51.1173C58.384 50.9083 59.2218 50.6974 60.0595 50.4885C60.2077 50.5835 60.3578 50.6784 60.506 50.7734Z" fill="white"/>
<path d="M56.7426 51.3357C56.3418 52.3102 56.091 52.9181 55.8403 53.5261C55.2893 53.0758 54.7384 52.6256 54.1875 52.1753C54.2502 52.0462 54.3148 51.9189 54.3775 51.7897C54.9892 51.6719 55.6028 51.5541 56.7426 51.3357Z" fill="white"/>
<path d="M38.4127 45.939C38.3481 48.1332 37.9625 50.1089 36.7162 51.8149C35.0407 54.1097 32.533 54.2845 30.5345 52.2727C27.5975 49.3148 27.2593 42.7645 29.8734 39.5084C31.5869 37.3769 34.0604 37.2629 35.9791 39.2918C37.7706 41.182 38.2835 43.5605 38.4127 45.939Z" fill="#60C3F1"/>
<path d="M85.6113 45.3891C86.2648 43.6052 86.6733 41.6751 87.6269 40.0698C89.0973 37.5926 91.8235 37.4862 93.8543 39.5455C96.7989 42.5319 97.1009 49.0309 94.4451 52.3022C92.7828 54.352 90.4253 54.5268 88.5445 52.6632C86.5707 50.7064 86.0084 48.2045 85.9818 45.5296C85.8602 45.4841 85.7367 45.4366 85.6113 45.3891Z" fill="#60C3F1"/>
</svg>
