<svg width="316" height="383" viewBox="0 0 316 383" fill="none" xmlns="http://www.w3.org/2000/svg">
<path d="M229.652 367.141L238.652 371.141L259.652 375.141H282.652L284.652 368.141L294.652 363.141L296.652 361.141L293.652 355.141L288.652 340.141L284.652 318.141L285.152 258.641L290.652 206.141L305.222 150.541L277.972 218.981L255.652 292.141L240.042 346.551L229.652 367.141Z" fill="#F0B99F"/>
<path d="M115.652 23.1411C114.172 23.2811 109.902 24.1711 105.652 27.1411C98.1217 32.4011 96.1417 40.7011 95.6517 43.1411C90.9017 59.4011 85.0017 76.8511 77.6517 95.1411C72.7917 107.221 67.7517 118.551 62.6517 129.141C52.6517 149.471 42.6517 169.811 32.6517 190.141C27.2517 201.881 21.8917 214.221 16.6517 227.141C11.9317 238.771 7.61172 250.121 3.65172 261.141C2.26172 264.481 0.271717 270.731 1.65172 278.141C4.99172 296.131 24.8317 302.881 25.6517 303.141C32.8517 305.711 43.6717 309.711 56.6517 315.141C77.3917 323.811 78.4017 325.551 94.6517 332.141C117.952 341.581 119.502 340.521 141.652 349.141C154.482 354.131 164.202 359.341 170.652 363.141C181.252 369.381 185.902 373.491 196.652 377.141C204.712 379.881 212.532 382.521 220.652 379.141C228.702 375.781 232.522 369.261 233.652 367.141C239.652 347.811 245.652 328.471 251.652 309.141C255.132 295.151 259.732 277.851 265.652 258.141C277.012 220.351 283.642 201.881 289.652 187.141C296.982 169.141 304.322 151.141 311.652 133.141C313.502 129.011 317.962 117.621 312.652 108.141C311.962 106.911 311.112 105.721 309.652 104.141C306.332 100.561 298.622 93.6211 282.652 89.1411C277.512 87.5111 270.272 85.1511 261.652 82.1411C241.002 74.9211 225.702 68.5711 212.652 63.1411C195.202 55.8711 186.582 52.0111 178.652 48.1411C170.552 44.1911 162.892 40.1711 155.652 36.1411C152.652 34.6111 148.552 32.5411 143.652 30.1411C134.452 25.6511 132.212 24.7911 129.652 24.1411C126.502 23.3411 121.772 22.5611 115.652 23.1411Z" fill="#BF101F"/>
<path d="M155.652 32.1411L166.652 10.1411L168.652 9.14111L197.652 23.1411L201.652 22.1411L206.652 12.1411L212.652 6.14111L219.652 2.14111L229.652 1.14111L239.652 3.14111L246.652 9.14111L251.652 17.1411L253.652 23.1411V29.1411L252.652 38.1411L253.652 40.1411L271.652 47.1411L278.652 50.1411L279.652 52.1411L277.652 58.1411L274.652 66.1411L268.652 81.1411L270.652 85.1411L280.152 89.6411L213.152 63.6411L144.152 30.6411L151.652 33.1411L155.652 32.1411ZM220.152 34.6411C225.242 39.2511 234.412 38.6011 238.152 32.6411C241.062 28.0011 240.402 20.2011 236.152 16.6411C230.752 12.1211 221.532 14.5211 218.152 20.6411C215.742 24.9911 216.312 31.1611 220.152 34.6411Z" fill="#F0B99F"/>
<path d="M194.152 113.641C231.292 129.701 250.662 174.801 234.152 212.641C216.742 252.541 166.202 268.891 128.152 247.641C91.3122 227.061 78.4222 178.071 100.152 142.641C119.442 111.191 160.662 99.1609 194.152 113.641Z" fill="white"/>
<path d="M109.652 186.141L126.652 157.141L141.652 135.141L155.652 137.141L170.652 144.141L171.652 147.141L173.652 158.141L179.652 155.141L183.652 150.141L201.652 156.141L209.652 162.141L210.652 165.141L207.652 182.141L202.652 214.141L201.652 222.141L199.652 226.141L171.652 215.141L170.652 211.141L167.652 204.141L164.652 205.141L157.652 209.141L151.652 207.141L142.652 202.141L141.652 191.141L137.652 192.141L133.652 196.141L130.652 197.141L113.652 189.141L109.652 186.141Z" fill="#61B3E5"/>
<path d="M171.952 167.641L176.152 173.141L175.102 188.541L159.382 189.641L154.152 181.941L156.242 168.741L171.952 167.641Z" fill="black"/>
<path d="M130.652 166.141L137.652 163.141L147.652 162.141H158.652L164.652 164.141L158.152 171.641L156.652 175.141L159.152 186.641L160.152 188.641V192.641L150.652 189.141L144.652 186.141L135.652 175.141L130.652 166.141Z" fill="white"/>
<path d="M192.832 197.031L185.352 198.461L175.372 197.291L160.152 193.641L159.152 188.641H171.152L176.152 182.641L176.172 175.891L175.152 169.641L176.152 167.641L178.242 170.271L183.452 174.491L189.882 187.171L192.832 197.031Z" fill="white"/>
<path d="M288.983 231.431L284.983 215.431C283.813 216.261 279.543 262.611 279.373 263.971C276.493 286.711 276.143 309.571 277.343 332.401C277.943 343.841 278.953 355.451 283.353 366.161C286.243 366.591 288.153 364.981 290.273 364.261C294.293 362.891 296.323 360.911 293.313 356.261C291.023 352.721 289.673 348.491 288.393 344.411C285.753 336.031 279.423 301.701 280.963 292.441L284.963 261.441C286.063 261.641 286.813 320.391 286.963 321.441C288.763 333.711 290.553 344.621 295.583 355.891C298.643 362.761 298.553 363.121 291.833 366.271C288.293 367.931 284.433 368.481 284.863 374.131C285.033 376.411 281.243 376.411 278.963 376.651C267.913 377.831 257.033 376.971 246.303 374.041C243.423 373.251 240.433 372.831 237.583 371.971C234.323 371.001 231.783 371.721 229.533 374.241C221.173 383.581 211.113 383.501 200.293 379.511C193.393 376.971 186.913 373.611 180.643 369.861C161.733 358.541 141.683 349.801 120.623 343.391C108.523 339.711 96.8128 335.051 85.3428 329.791C66.6328 321.211 47.9028 312.691 28.5128 305.701C23.2328 303.801 18.0828 301.301 13.2528 298.441C3.05281 292.411 -1.01719 283.231 0.21281 271.431C1.01281 263.711 3.42281 256.521 6.16281 249.371C18.6628 216.771 33.5628 185.231 49.2028 154.081C65.0428 122.531 78.5328 90.1211 88.9728 56.4211C91.3328 48.8111 93.8528 41.2311 98.0928 34.3911C105.473 22.4711 114.113 19.0611 127.703 22.3511C135.233 24.1711 141.973 27.7711 148.733 31.3011C152.303 33.1611 154.123 32.4111 155.673 28.9311C158.233 23.1611 161.153 17.5511 163.653 11.7611C165.163 8.26105 167.163 7.46105 170.653 8.99105C180.363 13.2511 190.153 17.3311 199.903 21.4711C201.903 20.4511 202.253 18.4511 203.063 16.6911C209.103 3.62105 219.063 -1.59895 233.893 0.421052C243.783 1.77105 252.643 11.4511 254.713 23.2711C255.003 24.9011 254.683 26.6611 255.123 28.2411C256.163 32.0111 251.923 36.4011 255.423 39.3011C258.343 41.7311 262.653 42.4611 266.283 44.0711C271.383 46.3311 278.943 46.3011 281.063 51.0411C282.903 55.1611 277.213 60.3011 276.003 65.4111C274.563 71.4711 268.773 77.7511 271.693 83.1811C274.243 87.9211 282.273 87.5911 287.723 89.9111C291.993 91.7311 296.613 92.7811 300.813 94.7311C310.423 99.1911 315.813 106.601 315.463 117.571C315.323 121.891 315.343 126.211 313.973 130.411C305.303 156.891 298.243 183.831 291.653 210.871C290.083 217.301 287.843 224.011 289.043 230.961C287.623 231.711 286.683 231.211 286.403 229.731C285.943 227.291 285.643 224.821 285.263 222.371C282.633 218.121 287.203 213.271 283.753 207.721C282.503 211.471 281.673 214.231 280.673 216.931C262.533 266.381 251.733 318.051 235.353 368.321C243.693 371.291 252.763 373.221 261.913 374.441C267.123 375.131 272.523 374.551 277.833 374.341C281.353 374.201 281.793 372.321 281.213 368.971C280.623 365.521 277.103 363.271 277.343 360.141C277.963 352.041 275.553 344.341 275.073 336.421M286.533 200.351C288.463 198.931 288.463 198.931 287.593 194.851C287.193 197.551 286.973 199.031 286.773 200.521C284.703 202.341 284.313 204.301 286.353 207.911C286.813 204.451 288.233 202.471 286.533 200.351ZM2.65281 273.291C2.52281 284.161 5.39281 289.931 13.3228 295.541C17.9628 298.821 23.1428 301.051 28.4728 302.981C47.8428 309.991 66.6528 318.341 85.3328 327.001C97.3928 332.591 109.723 337.461 122.443 341.361C142.843 347.611 162.263 356.121 180.673 366.931C185.823 369.951 191.113 372.781 196.563 375.211C215.733 383.761 226.603 379.571 234.833 360.571C238.263 352.641 240.933 344.421 243.093 336.061C250.983 305.541 258.903 275.041 268.833 245.061C279.903 211.631 290.283 178.001 304.993 145.901C307.613 140.181 309.963 134.261 311.763 128.231C316.123 113.611 311.693 103.531 297.983 97.0611C291.393 93.9511 284.513 91.4211 277.623 89.0011C232.813 73.2011 188.563 56.1311 146.833 33.1011C141.043 29.9111 134.923 27.0611 128.623 25.1111C115.243 20.9611 106.283 24.8211 99.3528 37.0711C95.5728 43.7511 93.2428 51.0511 90.9828 58.3511C80.8328 91.0911 67.8228 122.641 52.4528 153.271C36.3728 185.321 21.0228 217.721 8.13281 251.221C5.28281 258.691 2.48281 266.181 2.65281 273.291ZM167.293 10.3911C163.843 17.5711 160.783 24.1611 157.523 30.6511C155.683 34.3111 157.283 36.0211 160.463 37.5511C167.643 41.0011 174.653 44.8211 181.853 48.2111C207.673 60.3811 234.413 70.3311 260.983 80.7111C265.803 82.5911 267.923 82.0211 269.483 76.7211C271.993 68.2311 275.453 60.0211 278.593 51.4911C273.503 49.5111 268.803 47.8611 264.253 45.8511C259.463 43.7311 254.143 42.7611 249.683 39.5711C255.483 28.9511 252.583 19.4811 246.223 10.6511C236.583 -2.71895 214.003 1.35105 207.653 13.0111C206.233 15.6211 204.963 18.3611 203.983 21.1611C202.723 24.7811 200.813 26.0511 197.323 23.8811C188.253 18.2311 177.813 15.6311 167.293 10.3911ZM289.823 206.071C289.823 206.601 289.823 207.111 289.823 207.631C289.953 207.401 290.143 207.191 290.213 206.951C290.273 206.701 290.223 206.421 290.183 206.161C290.173 206.121 289.983 206.101 289.823 206.071Z" fill="#BF101F"/>
<path d="M105.053 226.521C100.823 227.631 100.643 223.521 99.4235 221.571C73.0335 179.631 95.1235 122.361 142.803 108.701C191.073 94.881 239.673 129.921 240.513 180.141C241.283 226.221 205.693 253.631 174.853 257.161C147.223 260.321 124.513 251.571 106.183 230.931C105.113 229.721 102.683 228.541 104.803 226.251C106.403 227.931 108.003 229.591 109.583 231.271C123.933 246.541 141.423 254.731 162.493 255.411C207.223 256.851 246.903 216.491 236.213 165.931C228.133 127.711 193.713 107.361 162.323 108.281C123.423 109.411 91.6235 140.961 90.7135 179.721C90.3035 197.091 95.9935 212.231 105.053 226.521Z" fill="#BF101F"/>
<path d="M237.332 34.441C229.552 40.161 222.822 40.131 218.292 34.381C213.732 28.581 214.702 20.481 220.542 15.731C225.182 11.961 230.672 11.511 235.252 14.541C240.672 18.121 242.672 23.081 240.922 29.071C240.272 31.291 239.302 33.411 237.102 34.631C234.982 31.841 238.492 30.351 238.652 27.971C238.972 23.191 236.752 18.341 232.702 16.421C228.192 14.281 224.312 15.691 220.962 18.821C217.622 21.941 217.082 27.651 219.702 31.551C222.392 35.561 226.242 36.741 230.922 35.671C233.042 35.201 234.852 33.041 237.332 34.441Z" fill="#BF101F"/>
<path d="M181.013 152.701C181.663 150.041 182.923 148.741 185.953 149.781C192.193 151.941 198.663 153.431 204.503 156.661C211.623 160.591 212.003 161.021 210.803 169.081C208.623 183.801 206.393 198.531 203.753 213.171C202.903 217.911 204.143 223.301 199.813 227.861C191.213 224.431 182.513 220.631 173.563 217.551C169.843 216.271 167.653 214.841 168.593 210.801C169.793 205.671 165.853 205.601 162.803 204.561L163.033 204.741C166.213 201.201 170.463 200.861 170.353 205.941C170.173 214.111 175.553 215.851 180.893 218.071C186.643 220.451 192.613 222.301 198.383 224.341C199.023 223.601 199.743 223.151 199.833 222.611C202.843 204.021 205.743 185.401 208.783 166.811C209.373 163.191 207.623 161.191 204.803 159.661C197.323 155.591 189.523 152.571 180.833 152.551L181.013 152.701Z" fill="#4098F6"/>
<path d="M148.973 206.651C140.373 205.801 140.223 199.481 140.823 192.951C139.633 193.121 138.893 193.001 138.563 193.311C132.223 199.131 132.243 199.131 124.713 195.401C119.713 192.931 114.613 190.651 109.743 187.961C107.143 186.531 107.383 185.961 111.133 182.801L110.903 182.631C114.243 191.231 123.373 191.071 129.823 194.881C134.183 197.461 135.483 191.671 138.283 189.911C139.743 188.991 142.333 189.021 142.533 186.451C141.333 183.301 137.543 182.091 136.763 178.661C139.913 177.061 140.363 180.421 141.783 181.631C146.333 185.491 150.973 189.371 156.743 190.901C162.143 192.331 159.233 188.611 158.803 186.601C163.583 187.181 168.363 187.451 173.133 186.581C170.293 191.901 164.723 189.271 160.403 190.171C161.223 193.621 163.663 193.861 165.733 194.581C172.023 196.781 178.633 196.911 185.163 197.451C194.463 198.211 179.043 178.561 178.993 169.441C189.923 178.981 203.433 198.921 189.123 200.161C176.093 200.271 163.373 197.801 151.643 191.511C149.453 190.331 147.553 188.011 144.233 188.741C142.373 195.411 141.313 201.671 149.383 205.291C149.433 205.311 149.043 206.301 148.863 206.841L148.973 206.651Z" fill="#4098F6"/>
<path d="M141.083 136.841C139.173 134.221 141.293 132.851 143.063 133.181C152.843 134.991 162.273 138.021 171.073 142.791C173.223 143.961 173.003 146.001 173.313 147.931C173.723 150.461 172.733 153.301 174.823 155.421C177.603 156.031 178.663 152.931 181.013 152.711L180.833 152.571C180.603 157.951 176.333 158.821 172.813 160.851C170.123 156.871 171.423 153.151 171.093 149.661C170.863 147.261 170.613 144.951 168.063 144.001C159.263 140.721 151.063 135.151 140.963 136.671L141.083 136.841Z" fill="#4098F6"/>
<path d="M121.983 163.431C125.113 155.941 131.093 148.841 135.683 142.251C135.733 142.181 140.623 134.581 140.983 134.431C143.643 133.301 141.903 134.301 141.983 134.431L136.893 142.621C134.113 150.321 128.823 156.481 124.303 163.111C124.263 163.171 115.793 178.561 111.983 184.431C109.513 188.251 111.183 182.511 110.983 182.431L121.983 163.431Z" fill="#4098F6"/>
<path d="M167.983 203.431C168.013 203.951 159.553 210.311 159.253 210.521C158.443 211.081 157.443 211.391 156.403 211.211C153.833 209.861 150.803 209.211 148.973 206.651L148.863 206.821C151.073 205.471 154.533 207.881 157.983 207.431C160.643 207.081 163.393 203.801 164.983 203.431H167.983Z" fill="#4098F6"/>
<path d="M159.323 209.181C159.343 209.221 158.963 208.681 158.963 208.681Z" fill="#4098F6"/>
<path d="M172.982 186.431C172.882 185.791 174.532 183.561 174.602 182.941C175.922 169.851 171.232 166.221 158.882 170.841C157.502 167.201 162.522 167.801 162.652 164.901C153.772 161.411 144.832 163.081 135.902 164.901C132.742 165.541 131.342 167.191 133.052 170.431C133.802 171.851 139.302 177.981 139.992 179.431C144.992 192.431 130.662 170.621 129.122 168.011C128.152 166.371 128.842 165.011 130.752 164.141C142.012 159.061 166.752 158.451 179.292 169.291C179.472 169.441 179.012 170.321 178.852 170.861L179.002 170.631C178.422 171.171 177.332 171.741 177.362 172.261C177.402 173.211 178.322 173.301 179.122 172.751L178.842 172.481C176.852 173.491 177.932 175.081 177.962 176.561C178.012 179.681 176.422 184.571 172.982 186.431Z" fill="#4098F6"/>
<path d="M178.832 172.481L179.112 172.751C179.072 172.041 179.032 171.341 178.992 170.631L178.842 170.861" fill="#4098F6"/>
<path d="M159.123 170.621C155.563 174.941 159.663 181.681 158.983 186.431C154.953 178.321 153.353 174.291 159.123 170.621Z" fill="#4098F6"/>
</svg>
