<svg width="463" height="467" viewBox="0 0 463 467" fill="none" xmlns="http://www.w3.org/2000/svg">
<path d="M253.754 45.4771L262.754 34.4771L279.754 25.4771L306.754 18.4771L422.754 1.47705L433.754 4.47705L447.754 17.4771L454.754 38.4771L457.754 62.4771L453.754 97.4771L450.754 125.477L452.754 165.477L457.754 206.477L460.754 256.477L459.754 296.477L451.754 326.477L440.754 343.477L423.754 353.477L354.394 354.397L338.754 354.477L253.754 45.4771Z" fill="#CDB3F9"/>
<path d="M40.7539 285.477L61.7539 280.477L100.754 273.477L119.754 267.477L135.754 256.477L148.754 234.477L150.754 221.477V198.477L146.754 165.477L142.754 128.477L144.754 105.477L152.754 81.4771L164.754 66.4771L178.754 58.4771L198.754 52.4771L220.754 49.4771L253.754 46.4771L309.754 45.4771L344.754 43.4771L353.754 48.4771L362.754 56.4771L369.754 69.4771L373.754 86.4771L374.754 101.477L370.754 125.477L366.754 148.477L361.754 175.477L360.754 189.477V255.477L359.754 303.477L356.754 338.477L352.754 365.477L348.754 380.477L339.754 400.477L322.754 416.477L306.754 421.477H289.754L251.754 416.477L220.754 417.477L191.754 425.477L168.754 435.477L133.754 454.477L115.754 461.477L92.7539 465.477L64.7539 463.477L40.7539 452.477L23.7539 434.477L7.75391 405.477L2.75391 377.477V348.477L10.7539 313.477L19.7539 298.477L40.7539 285.477Z" fill="#CDB3F9"/>
<path d="M363.754 56.4771L371.754 51.4771H374.754L382.754 57.4771L386.754 56.4771L394.754 45.4771L398.754 44.4771C398.754 44.4771 407.754 52.4771 410.754 52.4771C413.754 52.4771 413.754 52.4771 413.754 52.4771L422.754 44.4771L426.754 43.4771L432.754 46.4771L438.754 45.4771L445.754 42.4771L454.754 43.4771L457.754 52.4771L455.754 60.4771L448.754 58.4771L439.754 63.4771H437.754C437.754 63.4771 431.754 60.4771 428.754 60.4771C425.754 60.4771 425.754 60.4771 425.754 60.4771L419.754 67.4771L415.754 69.4771L409.754 68.4771C409.754 68.4771 402.754 60.4771 400.754 61.4771C398.754 62.4771 394.754 67.4771 394.754 67.4771L388.754 73.4771H383.754L375.754 68.4771L369.754 70.4771L363.754 56.4771Z" fill="#5C208C"/>
<path d="M145.754 105.477L151.754 97.4772L159.754 91.4772H166.754L176.754 98.4772H180.754L192.754 89.4772H197.754L205.754 98.4772H210.754L220.754 89.4772H224.754L233.754 98.4772H237.754L249.754 87.4772C249.754 87.4772 254.754 86.4772 255.754 87.4772C256.754 88.4772 266.754 98.4772 266.754 98.4772L271.754 97.4772L280.754 92.4772H284.754L293.754 99.4772H297.754L307.754 87.4772H312.754L323.754 97.4772L328.754 96.4772L336.754 89.4772H342.754L349.754 94.4772L353.754 93.4772L360.754 89.4772H365.754L372.754 95.4772L374.754 99.4772L373.754 113.477L365.754 107.477H361.754L353.754 111.477L341.754 106.477L328.754 115.477L324.754 114.477L311.754 105.477L299.754 116.477H295.754L283.754 110.477L270.754 116.477H268.754L254.754 104.477L252.754 105.477L238.754 117.477H236.754L225.754 107.477H223.754L211.754 117.477L208.754 116.477L196.754 108.477L193.754 109.477L181.754 117.477H178.754L166.754 109.477L160.754 111.477L150.754 117.477L143.754 125.477V116.477L145.754 105.477Z" fill="#5C208C"/>
<path d="M459.115 58.7471C459.585 65.4871 458.455 74.9971 456.895 84.4171C451.265 118.417 453.525 152.287 457.555 186.247C461.875 222.627 464.215 259.127 460.675 295.767C459.855 304.197 458.555 312.537 455.825 320.557C446.305 348.557 427.555 360.377 398.205 357.207C386.725 355.967 375.205 355.757 363.645 356.097C358.335 356.257 355.515 357.517 354.775 363.407C354.005 369.487 352.105 375.477 350.175 381.337C339.345 414.217 317.115 428.437 283.305 421.397C237.565 411.877 195.635 420.007 156.345 444.317C133.145 458.667 108.615 468.017 80.7249 466.647C53.8649 465.327 33.385 453.247 19.345 430.637C-3.88505 393.237 -4.82505 353.517 9.25495 313.017C17.465 289.417 37.825 282.087 60.185 278.517C75.995 275.987 91.9949 274.567 107.445 270.007C135.585 261.687 148.565 244.387 149.425 215.067C150.195 188.977 143.675 163.677 141.685 137.887C140.655 124.517 141.435 111.397 144.745 98.5271C152.145 69.7471 169.935 54.8371 201.915 50.4771C216.685 48.4671 231.535 47.0971 246.355 45.4771C249.095 45.1771 252.045 45.7171 253.975 42.9071C265.875 25.5671 284.625 21.0671 303.405 16.7671C341.625 7.99712 380.895 6.41712 419.515 0.287119C427.285 -0.952881 434.435 1.88712 440.285 7.57712C453.895 20.8471 458.325 37.5971 459.115 58.7471ZM3.60495 364.177C2.95495 388.307 9.93495 410.307 22.945 430.347C38.9949 455.087 62.3649 464.917 91.4349 463.537C115.635 462.387 136.545 452.707 156.685 440.487C195.615 416.877 237.045 408.887 282.115 418.057C316.945 425.147 337.375 411.837 347.975 377.777C351.915 365.107 353.745 352.027 355.445 338.917C360.575 299.377 358.675 259.667 358.515 219.997C358.455 205.657 358.325 191.327 359.925 176.997C362.015 158.217 366.885 140.007 370.275 121.497C370.925 117.947 371.655 114.227 368.115 111.387C364.465 108.457 361.315 110.037 358.115 112.157C354.695 114.427 351.155 114.637 347.915 112.047C343.195 108.257 339.275 109.007 335.565 113.477C330.125 120.037 324.925 119.087 319.225 113.407C312.015 106.217 310.815 106.497 305.045 114.277C299.655 121.557 297.045 122.037 290.105 116.197C286.685 113.317 283.835 112.227 279.615 114.837C268.815 121.487 268.515 121.477 260.635 111.527C256.535 106.347 253.075 106.497 249.105 111.247C247.845 112.757 246.595 114.297 245.215 115.697C239.505 121.527 235.655 121.807 230.585 115.397C226.155 109.797 223.095 110.397 218.575 115.187C212.235 121.907 208.495 122.017 202.495 115.147C197.555 109.497 193.805 110.447 189.315 115.147C183.755 120.967 177.925 121.947 171.775 115.807C169.315 113.347 166.485 111.747 162.675 112.747C154.485 114.877 144.045 128.707 144.725 137.127C145.245 143.567 146.155 149.987 146.945 156.407C149.385 176.207 153.365 195.827 152.665 215.957C151.645 245.387 138.495 263.217 110.585 272.277C106.855 273.487 103.055 274.647 99.2049 275.327C82.8949 278.237 66.475 280.577 50.235 283.837C28.305 288.227 14.375 301.387 8.94495 323.347C5.62495 336.757 3.47495 350.307 3.60495 364.177ZM459.435 258.447C459.585 231.057 456.295 203.927 453.605 176.757C451.165 152.107 448.505 127.467 451.775 102.657C453.215 91.7871 454.625 80.8871 455.335 69.9571C455.865 61.7671 451.235 59.1471 444.265 63.4471C440.175 65.9771 436.595 66.5371 432.545 63.8671C429.065 61.5771 425.905 62.4771 423.745 65.6771C418.115 74.0071 412.295 73.1271 405.765 66.7371C401.425 62.4871 397.605 63.6571 395.115 68.9171C391.525 76.4971 386.745 78.3671 379.915 72.6771C378.145 71.2071 375.885 69.8971 373.725 71.2571C371.325 72.7771 372.635 75.2371 373.155 77.3771C376.845 92.4271 376.215 107.447 373.225 122.547C368.095 148.447 361.685 174.117 361.595 200.837C361.425 250.047 365.075 299.397 357.305 348.387C356.715 352.077 358.025 353.507 361.835 353.187C377.055 351.907 392.195 354.507 407.385 354.377C430.355 354.187 444.075 344.337 451.975 322.657C459.575 301.857 458.625 280.037 459.435 258.447ZM371.915 90.2571C370.885 77.2271 367.035 66.4671 360.025 56.6471C354.265 48.5871 346.505 44.9371 336.885 45.4471C295.045 47.6771 253.005 46.3371 211.375 52.1971C197.745 54.1171 184.055 56.0171 172.045 63.6271C160.255 71.0971 153.035 81.6671 149.115 96.4471C156.595 91.6471 163.045 85.6171 170.085 92.3571C177.075 99.0471 182.025 97.3171 187.745 91.1971C192.175 86.4571 197.195 86.2271 201.365 91.7171C206.395 98.3471 211.055 98.2971 216.255 91.8971C220.355 86.8471 224.675 86.0271 229.535 91.5471C236.225 99.1371 236.715 98.9571 243.635 91.3571C252.075 82.0871 255.025 81.9771 262.605 91.8371C266.485 96.8971 270.065 98.2071 275.075 93.7271C280.415 88.9471 285.705 89.1271 290.625 94.4071C295.165 99.2871 298.075 96.9871 301.245 92.5971C307.955 83.3171 311.135 82.9571 319.115 90.8471C323.695 95.3671 327.585 97.0971 332.325 91.2471C336.485 86.1071 341.475 85.0271 347.065 89.2571C349.205 90.8771 351.915 92.1271 354.085 90.3871C359.685 85.8571 365.365 87.0371 371.915 90.2571ZM256.705 44.9271C283.255 43.9871 308.235 43.3171 333.195 42.0971C342.615 41.6371 351.375 42.5371 357.985 49.7771C361.405 53.5171 363.725 54.9671 368.135 51.0771C371.625 47.9971 375.705 49.8971 378.895 52.5571C383.205 56.1571 386.035 55.3571 389.005 50.6371C395.005 41.1171 397.265 40.6971 406.015 47.7071C410.755 51.4971 414.315 51.7271 417.935 46.5671C421.585 41.3671 426.235 40.1171 431.775 43.7571C434.535 45.5671 436.995 44.8671 439.575 43.1371C441.395 41.9171 443.495 40.6171 445.595 40.3871C454.915 39.3471 455.005 39.4471 451.325 30.1771C449.875 26.5271 448.255 22.8971 446.245 19.5271C438.025 5.69712 429.925 2.17712 413.865 4.24712C397.115 6.40712 380.265 7.72712 363.535 10.0271C335.405 13.8971 307.075 16.9271 280.085 26.5671C270.915 29.8471 263.085 34.9871 256.705 44.9271ZM371.935 108.837C372.025 102.767 373.985 97.7571 368.705 93.3871C363.695 89.2371 359.635 90.7571 354.945 93.6071C352.115 95.3371 348.855 94.8071 346.255 92.6071C341.595 88.6671 337.705 89.5471 333.975 93.9871C328.965 99.9371 323.925 99.9971 318.205 94.4771C310.065 86.6071 309.805 86.7271 302.535 96.2271C298.785 101.127 294.505 102.907 289.875 98.0771C284.945 92.9371 280.575 92.9071 275.305 97.4071C270.305 101.677 265.725 100.677 261.465 95.6771C253.245 86.0171 253.145 86.1071 244.215 95.4971C238.075 101.947 233.975 102.467 228.955 95.9171C224.125 89.6071 220.785 91.0071 216.485 96.0771C211.815 101.577 206.155 102.537 201.525 96.4471C196.115 89.3271 191.765 90.9571 186.595 96.4571C181.895 101.467 176.835 102.197 171.045 97.3371C163.805 91.2571 159.555 91.5571 153.025 98.4271C147.025 104.737 144.865 112.647 144.465 122.917C149.205 118.687 152.535 115.357 156.235 112.507C161.405 108.527 167.305 107.147 172.345 112.147C178.475 118.237 183.335 117.137 188.765 111.407C193.295 106.617 198.545 105.447 203.135 111.377C208.275 118.027 212.885 117.727 218.055 111.417C222.235 106.307 227.135 105.467 231.255 111.407C236.165 118.477 240.105 117.087 245.045 111.297C253.665 101.197 256.305 101.277 264.475 111.567C268.185 116.237 271.645 117.537 276.365 113.347C281.585 108.717 286.865 108.137 291.935 113.547C296.155 118.047 299.255 117.087 302.725 112.357C309.875 102.637 312.505 102.397 321.175 110.817C325.715 115.227 329.455 116.157 333.775 110.857C338.245 105.367 343.395 104.457 349.205 108.987C351.385 110.687 354.055 111.147 356.285 109.407C361.055 105.647 366.005 105.587 371.935 108.837ZM451.175 58.3171C452.845 58.4771 455.235 60.3771 456.035 56.4871C457.135 51.1171 451.675 42.3771 446.845 43.8471C439.385 46.1071 432.665 49.3171 424.895 45.0571C423.455 44.2671 421.425 46.6471 420.295 48.2471C415.095 55.6071 409.555 55.2471 403.475 49.3371C398.565 44.5671 394.595 45.4971 391.655 51.6071C388.225 58.7171 383.645 60.6871 377.145 54.9671C374.275 52.4471 371.145 52.1471 367.985 54.7671C366.075 56.3471 364.485 58.1871 366.415 60.4171C368.665 63.0171 367.795 68.9771 373.935 67.5971C376.965 66.9171 379.495 68.4571 381.645 70.2771C386.275 74.1871 389.315 73.0871 392.405 68.1071C397.995 59.1071 400.605 58.6171 408.845 65.4871C413.925 69.7271 417.515 69.6171 421.315 64.2071C424.445 59.7571 428.675 58.0171 433.725 61.1171C437.435 63.3971 440.595 62.7771 443.765 60.1971C445.805 58.5271 448.185 57.8071 451.175 58.3171Z" fill="#5C208C"/>
</svg>
