<svg width="248" height="280" viewBox="0 0 248 280" fill="none" xmlns="http://www.w3.org/2000/svg">
<path d="M82.8305 247.714C79.9625 251.391 77.4401 254.901 74.6363 258.164C65.2477 269.092 53.5439 268.446 45.335 256.52C43.5185 253.884 42.0771 250.972 40.6604 248.089C39.1944 245.102 37.4272 244.589 34.9246 246.875C34.1051 247.625 33.2018 248.286 32.3084 248.958C23.5417 255.577 13.5458 253.696 7.87907 244.253C3.02184 236.153 2.15307 227.184 2.97248 218.047C3.30814 214.281 4.16704 210.421 5.5788 206.921C8.79227 198.964 15.7474 195.39 24.1537 196.91C32.0862 198.347 39.0167 201.54 43.9035 209.216C44.3873 207.568 44.6933 206.472 45.0339 205.391C48.6521 193.825 52.2803 182.26 55.9034 170.694C56.2342 169.633 56.6685 168.591 56.8709 167.505C57.4534 164.415 56.0565 163.068 53.1786 164.366C50.755 165.462 48.4399 167.066 46.4852 168.882C43.3161 171.824 40.5321 175.176 37.4914 178.266C32.3972 183.439 26.2072 186.673 19.1287 188.173C5.67752 191.026 -3.1188 181.435 1.03749 168.27C3.84125 159.39 10.4064 153.99 18.6548 150.273C33.3845 143.639 48.4843 142.8 63.9791 147.04C67.8441 148.096 71.7733 148.925 75.8655 149.577C61.6048 136.136 51.3424 120.572 48.6916 100.886C46.0211 81.092 51.6336 63.6672 64.8478 48.4588C56.5797 42.17 55.9281 33.4823 57.5126 24.5675C59.3045 14.4828 66.6397 8.63836 75.3965 4.67459C79.9971 2.59151 85.0567 1.52529 89.909 0C90.1657 0.473876 90.4174 0.947752 90.6741 1.41669C89.9731 2.24597 89.3314 3.13449 88.5663 3.8996C84.0793 8.42611 80.7622 13.5993 80.5302 20.1397C80.4463 22.5338 80.9103 25.1253 81.8235 27.3367C83.6153 31.6707 86.0439 32.4309 90.3236 30.565C134.019 11.526 190.657 31.5621 211.572 73.3224C212.159 74.4923 213.793 75.6227 215.106 75.8596C225.28 77.691 234.777 67.9617 234.545 56.1494C234.52 54.9943 234.54 53.8392 234.54 52.541C241.742 55.1226 248.035 69.2007 247.004 78.3524C245.938 87.8003 232.131 101.952 219.109 100.565C219.973 120.33 213.413 137.276 199.236 151.053C185.232 164.662 167.955 170.99 148.694 173.621C150.274 174.11 151.829 174.683 153.428 175.072C165.255 177.945 176.91 181.292 187.078 188.316C194.798 193.647 201.704 199.951 202.711 209.868C203.891 221.493 200.248 232.086 192.197 240.502C184.734 248.301 174.254 245.33 171.105 235.023C170.098 231.72 169.476 228.29 168.834 224.894C166.894 214.646 163.157 205.193 156.365 196.575C155.398 197.759 154.119 198.816 153.512 200.168C151.755 204.107 149.988 208.081 148.729 212.193C146.345 219.982 144.306 227.88 142.001 236.178C143.575 235.916 144.992 235.699 146.399 235.442C159.86 232.994 171.337 242.526 170.414 256.016C170.162 259.669 168.237 263.717 165.892 266.619C160.097 273.782 152.115 277.82 143.131 279.636C136.625 280.954 132.504 278.703 129.552 272.691C128.737 271.027 128.105 269.27 127.291 267.607C125.405 263.751 123.52 262.878 119.506 264.462C116.179 265.775 113.055 267.602 109.762 269.023C99.6234 273.407 91.7304 270.455 87.2434 260.39C85.5009 256.5 84.4051 252.304 82.8305 247.714ZM136.68 170.694C153.285 170.655 165.714 168.305 177.517 162.939C214.449 146.156 227.481 105.487 207.075 70.4298C197.257 53.5677 182.947 41.6567 165.117 34.1437C137.879 22.6621 110.666 22.3166 84.2126 36.4687C50.5477 54.476 40.2014 94.9726 61.1605 127.808C79.5034 156.547 107.087 169.1 136.68 170.694ZM137.242 239.761C138.18 237.698 139.059 236.207 139.552 234.598C141.759 227.386 143.6 220.046 146.073 212.928C148.048 207.252 150.452 201.674 153.231 196.343C155.215 192.537 158.231 192.729 160.299 196.609C164.653 204.788 169.145 212.923 170.71 222.277C171.44 226.661 172.349 231.064 173.711 235.289C175.967 242.264 182.897 244.471 188.865 240.181C190.825 238.774 192.883 236.913 193.821 234.786C196.299 229.163 198.683 223.408 200.184 217.474C202.005 210.268 199.828 203.466 194.631 198.322C190.282 194.023 185.434 189.851 180.074 187.023C165.275 179.214 148.995 175.536 132.642 173.014C118.904 170.892 105.443 168.191 93.5322 160.989C82.8107 154.508 71.2205 151.206 59.2354 148.427C45.2462 145.184 31.9431 146.981 19.0398 152.776C11.3887 156.211 5.42084 161.429 3.1255 169.83C0.208203 180.532 7.0103 187.926 17.865 185.947C25.141 184.619 31.3804 181.253 36.5041 175.882C39.5794 172.659 42.398 169.119 45.799 166.291C48.2721 164.237 51.3671 162.53 54.4571 161.735C57.9125 160.851 60.1584 163.541 59.4328 167.086C58.9392 169.49 57.8927 171.775 57.1572 174.135C53.1786 186.939 49.2198 199.754 45.256 212.563C45.572 212.736 45.8879 212.909 46.2038 213.081C52.9615 202.937 62.1625 199.141 73.8466 202.533C85.0912 205.8 90.9357 212.968 88.4084 226.231C94.9933 220.594 101.272 217.025 108.553 215.535C122.537 212.667 131.941 219.691 134.389 229.055C135.243 232.352 136.141 235.645 137.242 239.761ZM86.0884 233.295C85.6786 233.152 85.2689 233.009 84.8592 232.866C85.3035 230.294 85.8317 227.732 86.1821 225.145C86.9127 219.76 87.3125 214.256 82.8058 210.228C76.3986 204.507 68.7672 202.246 60.4003 204.68C52.147 207.084 47.7389 213.323 45.6855 221.409C45.3794 222.608 45.2955 223.872 44.8908 225.032C44.6045 225.846 43.9381 226.528 43.4395 227.263C43.0002 227.149 42.5559 227.036 42.1166 226.917C42.3141 225.131 42.3733 223.319 42.7336 221.567C44.328 213.832 41.934 207.439 35.043 203.604C31.3409 201.54 27.0957 200.139 22.9246 199.299C16.3397 197.972 10.668 200.948 8.15056 207.178C6.5611 211.112 5.65284 215.49 5.33199 219.735C4.73471 227.717 5.57386 235.595 9.77951 242.718C14.7601 251.159 23.0727 252.847 30.8719 247.023C31.8641 246.282 32.797 245.463 33.7942 244.727C37.8172 241.756 40.0138 242.175 42.4918 246.455C44.2244 249.451 45.6114 252.68 47.5909 255.498C54.7829 265.731 64.4036 266.239 72.573 256.836C75.4903 253.479 77.9584 249.733 80.7918 246.292C81.4878 245.448 82.9292 244.535 83.798 244.722C84.6075 244.895 85.3677 246.406 85.7132 247.467C86.8584 250.986 87.4952 254.698 88.8822 258.109C93.0978 268.5 99.7616 271.003 109.93 266.343C113.297 264.798 116.599 263.046 120.084 261.836C124.043 260.464 126.758 261.673 128.791 265.356C130.105 267.73 131.042 270.312 132.276 272.735C134.113 276.324 137.163 278.096 141.132 277.464C151.197 275.875 159.692 271.319 165.769 263.006C169.732 257.586 168.957 250.137 164.332 243.972C160.146 238.399 154.233 236.741 147.638 238.434C141.236 240.077 137.973 244.446 135.682 250.068C135.332 250.927 134.774 251.707 134.31 252.522C133.501 251.51 133.293 250.769 133.456 250.128C135.179 243.395 134.058 236.864 132.242 230.348C130.109 222.677 123.998 217.475 116.071 217.435C104.18 217.376 94.4651 221.947 87.584 231.938C87.2138 232.481 86.5918 232.851 86.0884 233.295ZM236.949 57.7438C236.376 64.0868 234.184 69.2303 229.885 73.357C225.551 77.5182 220.383 79.3742 214.287 78.2883C216.024 85.115 217.633 91.4235 219.238 97.7369C227.792 98.9463 239.234 91.8085 243.173 82.8C246.53 75.1291 243.805 63.5685 236.949 57.7438ZM83.9757 4.46727C75.441 6.42694 67.9675 10.0106 63.0165 17.3656C57.8236 25.0759 58.5196 33.3194 61.8614 41.4938C62.4735 42.9894 63.9593 44.2284 65.2822 45.2848C65.84 45.729 67.3061 45.7883 67.8639 45.3687C72.958 41.5135 77.9436 37.5102 82.9933 33.5267C73.8466 23.6741 78.0226 14.1719 83.9757 4.46727Z" fill="#B4172A"/>
<path d="M136.68 170.694C107.087 169.105 79.5039 156.547 61.161 127.808C40.2068 94.9777 50.5481 54.4761 84.2131 36.4689C110.666 22.3217 137.88 22.6623 165.118 34.1439C182.942 41.6617 197.257 53.5679 207.075 70.43C227.486 105.487 214.45 146.151 177.517 162.939C165.715 168.305 153.29 170.65 136.68 170.694ZM134.074 156.493C150.003 155.639 162.304 148.861 169.244 133.742C171.253 129.358 173.302 124.995 175.212 120.567C177.384 115.542 176.599 113.306 171.13 112.442C166.228 111.667 160.937 111.47 156.114 112.467C144.889 114.792 133.866 115.419 122.74 112.245C118.707 111.094 114.645 109.885 110.513 109.308C103.992 108.399 98.9476 112.195 97.8666 118.509C97.0768 123.109 97.2002 127.779 99.7819 131.817C102.966 136.797 106.209 141.827 110.059 146.285C116.234 153.437 124.547 156.315 134.074 156.493ZM147.905 81.5315C147.9 93.0723 157.057 102.451 168.464 102.604C180.217 102.762 189.813 93.2846 189.813 81.5216C189.813 70.4102 180.326 60.6612 169.392 60.5378C157.6 60.4045 147.91 69.8722 147.905 81.5315ZM139.286 65.9726C139.321 54.8513 129.893 45.1023 118.924 44.9246C107.152 44.7321 97.4075 54.1898 97.3681 65.8541C97.3286 77.5381 106.752 87.0798 118.238 86.9959C129.927 86.912 139.247 77.6023 139.286 65.9726Z" fill="#DE8903"/>
<path d="M137.241 239.762C136.14 235.645 135.242 232.352 134.378 229.055C131.93 219.691 122.526 212.672 108.542 215.535C101.261 217.025 94.9871 220.594 88.3973 226.231C90.9246 212.968 85.0851 205.8 73.8355 202.533C62.1515 199.137 52.9504 202.937 46.1927 213.081C45.8768 212.909 45.5609 212.736 45.245 212.563C49.2088 199.754 53.1676 186.939 57.1462 174.135C57.8817 171.775 58.9281 169.49 59.4218 167.086C60.1474 163.542 57.8965 160.851 54.4461 161.735C51.356 162.525 48.261 164.238 45.788 166.291C42.382 169.119 39.5683 172.659 36.4931 175.882C31.3693 181.253 25.1299 184.619 17.854 185.947C7.00418 187.931 0.197153 180.537 3.11445 169.835C5.40979 161.429 11.3777 156.216 19.0288 152.781C31.937 146.985 45.2351 145.189 59.2243 148.432C71.2094 151.211 82.7996 154.508 93.5211 160.994C105.432 168.196 118.893 170.896 132.631 173.019C148.984 175.546 165.264 179.219 180.063 187.028C185.423 189.856 190.271 194.028 194.62 198.327C199.817 203.471 201.999 210.273 200.173 217.479C198.672 223.413 196.288 229.168 193.81 234.791C192.872 236.918 190.814 238.779 188.854 240.186C182.886 244.476 175.951 242.269 173.7 235.294C172.338 231.074 171.429 226.671 170.699 222.282C169.139 212.928 164.647 204.793 160.288 196.614C158.22 192.734 155.204 192.537 153.22 196.348C150.441 201.674 148.037 207.257 146.062 212.933C143.584 220.051 141.748 227.386 139.541 234.603C139.058 236.207 138.179 237.698 137.241 239.762Z" fill="#DE8903"/>
<path d="M86.0883 233.295C86.5918 232.851 87.2138 232.485 87.584 231.947C94.4601 221.957 104.18 217.386 116.071 217.445C123.993 217.484 130.104 222.687 132.242 230.358C134.053 236.874 135.174 243.404 133.456 250.137C133.293 250.779 133.501 251.515 134.31 252.531C134.774 251.717 135.332 250.942 135.682 250.078C137.973 244.451 141.236 240.082 147.638 238.443C154.233 236.75 160.151 238.409 164.332 243.982C168.962 250.147 169.732 257.596 165.769 263.016C159.692 271.329 151.197 275.885 141.132 277.474C137.163 278.101 134.113 276.334 132.276 272.745C131.037 270.322 130.104 267.745 128.791 265.366C126.758 261.683 124.043 260.474 120.084 261.846C116.599 263.055 113.297 264.808 109.93 266.353C99.7616 271.013 93.0977 268.505 88.8822 258.119C87.4951 254.708 86.8584 250.996 85.7132 247.477C85.3676 246.415 84.6074 244.9 83.7979 244.732C82.9291 244.545 81.4878 245.458 80.7918 246.302C77.9584 249.738 75.4903 253.484 72.573 256.846C64.4035 266.249 54.7829 265.741 47.5908 255.508C45.6114 252.689 44.2243 249.461 42.4917 246.465C40.0137 242.18 37.8171 241.761 33.7941 244.737C32.797 245.473 31.8641 246.292 30.8719 247.032C23.0727 252.857 14.7601 251.169 9.77946 242.728C5.57381 235.605 4.73466 227.722 5.33194 219.745C5.64786 215.5 6.56106 211.122 8.15052 207.187C10.668 200.958 16.3397 197.981 22.9246 199.309C27.0957 200.153 31.3359 201.555 35.043 203.614C41.9339 207.449 44.328 213.841 42.7336 221.576C42.3732 223.329 42.314 225.14 42.1166 226.927C42.5559 227.041 43.0001 227.154 43.4395 227.273C43.938 226.532 44.5995 225.851 44.8907 225.042C45.3004 223.887 45.3843 222.618 45.6854 221.419C47.7389 213.338 52.142 207.094 60.4003 204.69C68.7671 202.256 76.3985 204.517 82.8057 210.238C87.3125 214.261 86.9127 219.77 86.1821 225.155C85.8316 227.742 85.3084 230.304 84.8592 232.875C85.2689 233.009 85.6786 233.152 86.0883 233.295Z" fill="#DE8903"/>
<path d="M236.949 57.7437C243.806 63.5733 246.53 75.129 243.174 82.7998C239.235 91.8084 227.793 98.9462 219.238 97.7368C217.634 91.4283 216.025 85.1149 214.287 78.2881C220.383 79.3741 225.552 77.5181 229.886 73.3569C234.185 69.2253 236.377 64.0867 236.949 57.7437Z" fill="#B4172A"/>
<path d="M83.9769 4.46729C78.0287 14.1719 73.8527 23.6741 82.9896 33.5267C77.9399 37.5103 72.9543 41.5135 67.8602 45.3687C67.3024 45.7883 65.8363 45.734 65.2785 45.2848C63.9556 44.2284 62.4698 42.9895 61.8577 41.4938C58.5159 33.3194 57.8199 25.076 63.0128 17.3656C67.9687 10.0106 75.4372 6.42202 83.9769 4.46729Z" fill="#B4172A"/>
<path d="M134.073 156.493C124.546 156.315 116.233 153.432 110.058 146.285C106.208 141.827 102.965 136.802 99.781 131.816C97.1993 127.779 97.0759 123.109 97.8657 118.508C98.9517 112.195 103.992 108.399 110.512 109.307C114.644 109.885 118.711 111.094 122.739 112.244C133.861 115.418 144.888 114.792 156.113 112.467C160.936 111.469 166.227 111.667 171.129 112.442C176.598 113.311 177.383 115.547 175.211 120.567C173.301 124.99 171.252 129.358 169.243 133.742C162.303 148.861 150.002 155.644 134.073 156.493ZM167.901 114.135C165.882 119.219 164.194 123.928 162.096 128.445C161.543 129.64 159.736 130.252 158.502 131.135C157.589 129.788 156.335 128.554 155.837 127.063C154.864 124.146 154.514 121.011 153.477 118.123C153.117 117.116 151.29 115.749 150.446 115.937C140.332 118.183 130.479 116.865 120.73 114.086C118.316 113.4 117.23 114.184 116.702 116.361C116.036 119.126 115.557 121.944 114.678 124.634C114.18 126.16 113.03 127.468 112.176 128.875C110.848 127.961 108.947 127.349 108.291 126.086C106.267 122.191 104.717 118.049 103.034 114.11C99.4799 117.112 98.2112 124.032 101.583 129.793C105.053 135.716 109.18 141.393 113.81 146.452C116.539 149.434 120.804 151.013 123.677 152.795C126.19 149.434 128.026 146.981 129.857 144.527C131.239 145.84 132.622 147.148 133.841 148.308C134.408 146.916 135.08 145.278 136.121 142.721C137.898 145.337 139.132 147.158 139.991 148.417C141.132 146.862 142.099 144.28 143.471 144.048C144.789 143.821 146.522 146.023 148.072 147.163C148.541 140.934 149.316 140.563 155.185 143.787C156.325 135.968 156.631 135.81 163.256 140.371C166.499 133.475 169.579 126.619 172.945 119.905C174.441 116.914 173.311 115.557 170.65 114.713C169.515 114.352 168.31 114.219 167.901 114.135ZM110.369 126.071C110.838 125.997 111.312 125.918 111.781 125.844C112.901 121.46 114.022 117.077 115.216 112.412C113.286 112.131 111.722 111.899 110.157 111.677C107.027 111.233 105.616 112.506 106.603 115.616C107.723 119.14 109.101 122.586 110.369 126.071ZM163.986 113.72C160.704 114.155 157.989 114.51 155.259 114.87C156.498 119.614 157.609 123.859 158.867 128.672C162.688 124.239 164.203 119.683 163.986 113.72ZM133.071 154.252C132.123 151.112 131.378 148.639 130.632 146.161C130.237 146.127 129.842 146.097 129.448 146.062C128.505 148.343 127.562 150.623 126.481 153.23C128.865 153.6 130.534 153.857 133.071 154.252ZM144.014 145.406C143.629 145.485 143.244 145.569 142.859 145.648C142.859 147.928 142.859 150.214 142.859 152.929C144.73 152.287 146.137 151.803 147.894 151.201C146.394 148.96 145.204 147.183 144.014 145.406ZM155.777 147.282C153.847 145.623 152.426 144.399 150.239 142.518C150.239 145.598 150.239 147.647 150.239 150.337C152.159 149.281 153.6 148.481 155.777 147.282ZM140.682 153.328C139.236 150.836 137.992 148.688 136.26 145.707C135.662 148.94 135.238 151.265 134.724 154.054C136.788 153.802 138.323 153.615 140.682 153.328ZM161.242 141.526C160.195 140.687 159.139 139.843 157.485 138.52C157.485 141.255 157.485 143.022 157.485 144.784C157.747 144.927 158.008 145.065 158.27 145.208C159.164 144.103 160.057 142.997 161.242 141.526Z" fill="#B4172A"/>
<path d="M147.904 81.5312C147.909 69.8718 157.599 60.4091 169.397 60.5424C180.33 60.6658 189.818 70.4148 189.818 81.5262C189.818 93.2892 180.217 102.767 168.469 102.609C157.056 102.451 147.904 93.072 147.904 81.5312ZM167.624 99.7803C175.972 100.363 182.887 96.014 185.958 88.7923C189.033 81.5657 187.103 73.1199 181.155 67.7789C175.335 62.5514 166.593 61.6136 159.736 65.4786C152.836 69.3683 149.346 76.7776 150.841 84.3547C152.781 74.6402 158.571 69.4029 166.953 69.7879C173.977 70.1088 179.945 75.7212 180.863 82.859C181.865 90.6335 177.112 96.9815 167.624 99.7803ZM166.07 97.1C173.015 97.1049 178.662 91.4579 178.588 84.5817C178.514 77.7303 172.812 72.2264 165.818 72.256C159.095 72.2807 153.546 77.8636 153.532 84.6163C153.522 91.5369 159.1 97.095 166.07 97.1Z" fill="#B4172A"/>
<path d="M139.286 65.9725C139.246 77.6022 129.927 86.9119 118.238 86.9958C106.746 87.0797 97.3229 77.538 97.3673 65.854C97.4068 54.1898 107.151 44.732 118.924 44.9245C129.892 45.1072 139.32 54.8512 139.286 65.9725ZM129.393 80.6084C138.284 73.594 139.226 61.5497 132.02 53.5678C124.867 45.6452 112.27 45.4675 104.9 53.1828C98.4731 59.9059 98.0189 71.9404 104.002 76.8766C101.652 68.0803 103.75 61.5349 110.118 57.7537C115.814 54.3724 122.888 55.0487 127.626 59.4222C133.436 64.7878 134.083 71.1555 129.393 80.6084ZM117.69 82.9679C124.64 83.0074 130.302 77.4097 130.277 70.5286C130.247 63.687 124.576 58.1486 117.581 58.1338C110.858 58.1239 105.285 63.6624 105.231 70.4102C105.176 77.3307 110.73 82.9284 117.69 82.9679Z" fill="#B4172A"/>
<path d="M167.901 114.135C168.315 114.219 169.515 114.352 170.65 114.708C173.316 115.552 174.446 116.914 172.946 119.9C169.579 126.614 166.499 133.47 163.256 140.366C156.631 135.805 156.325 135.963 155.185 143.782C149.316 140.563 148.541 140.929 148.072 147.158C146.522 146.023 144.789 143.821 143.471 144.043C142.104 144.275 141.137 146.862 139.991 148.412C139.132 147.148 137.898 145.327 136.121 142.716C135.075 145.277 134.409 146.916 133.841 148.303C132.617 147.143 131.235 145.83 129.857 144.522C128.026 146.976 126.19 149.424 123.677 152.79C120.804 151.013 116.539 149.434 113.81 146.447C109.18 141.388 105.053 135.711 101.583 129.788C98.2113 124.027 99.4799 117.107 103.034 114.105C104.722 118.044 106.272 122.186 108.291 126.081C108.948 127.344 110.843 127.956 112.176 128.87C113.03 127.463 114.18 126.155 114.678 124.629C115.562 121.939 116.036 119.116 116.702 116.356C117.231 114.179 118.316 113.395 120.73 114.081C130.479 116.86 140.332 118.178 150.446 115.932C151.295 115.744 153.117 117.111 153.477 118.118C154.519 121.006 154.864 124.141 155.837 127.058C156.335 128.544 157.589 129.778 158.502 131.13C159.736 130.252 161.543 129.635 162.096 128.44C164.189 123.928 165.877 119.224 167.901 114.135Z" fill="white"/>
<path d="M110.369 126.071C109.101 122.586 107.723 119.14 106.598 115.611C105.611 112.506 107.023 111.228 110.152 111.672C111.717 111.894 113.277 112.126 115.212 112.407C114.017 117.072 112.897 121.455 111.776 125.839C111.312 125.918 110.838 125.997 110.369 126.071Z" fill="#B4172A"/>
<path d="M163.987 113.72C164.209 119.683 162.689 124.239 158.868 128.672C157.609 123.859 156.499 119.614 155.26 114.87C157.989 114.51 160.704 114.15 163.987 113.72Z" fill="#B4172A"/>
<path d="M133.072 154.251C130.535 153.857 128.867 153.6 126.482 153.23C127.559 150.628 128.501 148.343 129.449 146.062C129.844 146.097 130.239 146.126 130.634 146.161C131.379 148.639 132.125 151.112 133.072 154.251Z" fill="#B4172A"/>
<path d="M144.014 145.406C145.204 147.183 146.394 148.96 147.894 151.201C146.137 151.803 144.73 152.287 142.859 152.929C142.859 150.214 142.859 147.933 142.859 145.648C143.244 145.569 143.629 145.49 144.014 145.406Z" fill="#B4172A"/>
<path d="M155.777 147.282C153.6 148.481 152.158 149.276 150.238 150.332C150.238 147.647 150.238 145.593 150.238 142.513C152.425 144.399 153.847 145.623 155.777 147.282Z" fill="#B4172A"/>
<path d="M140.684 153.329C138.324 153.615 136.789 153.802 134.721 154.054C135.234 151.265 135.664 148.94 136.256 145.707C137.988 148.689 139.237 150.836 140.684 153.329Z" fill="#B4172A"/>
<path d="M161.242 141.526C160.057 142.997 159.164 144.098 158.275 145.203C158.013 145.06 157.752 144.922 157.49 144.779C157.49 143.017 157.49 141.25 157.49 138.515C159.139 139.843 160.195 140.687 161.242 141.526Z" fill="#B4172A"/>
<path d="M167.625 99.7803C177.113 96.9815 181.866 90.6335 180.864 82.859C179.946 75.7163 173.973 70.1088 166.954 69.7879C158.572 69.4029 152.782 74.6402 150.842 84.3547C149.346 76.7776 152.836 69.3684 159.737 65.4786C166.593 61.6136 175.34 62.5515 181.155 67.7789C187.098 73.1199 189.029 81.5608 185.958 88.7923C182.883 96.014 175.972 100.363 167.625 99.7803Z" fill="white"/>
<path d="M166.069 97.0999C159.094 97.095 153.521 91.5418 153.531 84.6113C153.541 77.8635 159.094 72.2807 165.817 72.2511C172.812 72.2264 178.513 77.7253 178.587 84.5768C178.662 91.4578 173.014 97.1049 166.069 97.0999ZM169.747 94.0642C172.857 94.0247 175.379 91.5418 175.428 88.4714C175.483 85.2333 172.866 82.6763 169.549 82.7257C166.43 82.7751 163.932 85.2333 163.882 88.3036C163.833 91.522 166.464 94.1036 169.747 94.0642Z" fill="#B4172A"/>
<path d="M129.395 80.6082C134.089 71.1504 133.437 64.7877 127.622 59.422C122.884 55.0485 115.81 54.3772 110.114 57.7536C103.746 61.5347 101.653 68.0801 103.998 76.8764C98.015 71.9402 98.4741 59.9058 104.896 53.1826C112.271 45.4673 124.863 45.645 132.016 53.5677C139.223 61.5495 138.285 73.5988 129.395 80.6082Z" fill="white"/>
<path d="M117.69 82.9678C110.73 82.9283 105.172 77.3307 105.231 70.4151C105.285 63.6623 110.858 58.1239 117.581 58.1387C124.576 58.1486 130.248 63.687 130.277 70.5335C130.302 77.4097 124.64 83.0073 117.69 82.9678ZM127.128 74.2702C127.133 71.1703 124.685 68.6874 121.535 68.5985C118.243 68.5097 115.572 71.037 115.572 74.2505C115.572 77.4689 118.233 80.016 121.515 79.937C124.615 79.863 127.123 77.3307 127.128 74.2702Z" fill="#B4172A"/>
<path d="M169.748 94.0643C166.465 94.1038 163.839 91.5221 163.883 88.3037C163.928 85.2334 166.426 82.7702 169.55 82.7258C172.867 82.6764 175.483 85.2334 175.429 88.4715C175.375 91.5369 172.852 94.0248 169.748 94.0643ZM171.006 92.7414C171.781 91.6653 173.692 90.1647 173.899 88.4518C174.21 85.9096 172.403 84.0536 169.56 84.1375C166.993 84.2116 165.389 85.6776 165.364 88.3037C165.34 91.1173 167.003 92.4995 171.006 92.7414Z" fill="white"/>
<path d="M127.127 74.2704C127.122 77.3357 124.614 79.8631 121.51 79.9421C118.232 80.021 115.566 77.469 115.566 74.2555C115.566 71.0421 118.242 68.5147 121.529 68.6036C124.689 68.6875 127.137 71.1704 127.127 74.2704ZM119.886 78.5155C124.042 78.5007 125.681 76.8865 125.681 74.2407C125.681 71.8121 124.18 70.04 121.515 70.0153C118.76 69.9907 116.781 71.5456 117.181 74.2555C117.437 75.9931 119.204 77.5085 119.886 78.5155Z" fill="white"/>
<path d="M171.007 92.7413C167.003 92.4994 165.345 91.1173 165.369 88.3037C165.394 85.6776 166.998 84.2115 169.565 84.1375C172.408 84.0536 174.22 85.9145 173.904 88.4517C173.692 90.1646 171.782 91.6652 171.007 92.7413Z" fill="white"/>
<path d="M119.885 78.5154C119.204 77.5035 117.437 75.993 117.18 74.2604C116.78 71.5455 118.76 69.9906 121.514 70.0202C124.18 70.0449 125.68 71.817 125.68 74.2456C125.68 76.8865 124.042 78.5006 119.885 78.5154Z" fill="white"/>
</svg>
