<?xml version="1.0" encoding="UTF-8"?>
<svg id="Camada_2" data-name="Camada 2" xmlns="http://www.w3.org/2000/svg" viewBox="0 0 135.34 209.35">
  <defs>
    <style>
      .cls-1 {
        fill: #bc1d1d;
      }

      .cls-2, .cls-3 {
        fill: #a1bd34;
      }

      .cls-3 {
        stroke: #64840d;
        stroke-miterlimit: 10;
        stroke-width: 5px;
      }

      .cls-4 {
        fill: #a5a5a5;
      }

      .cls-5 {
        fill: #f7c452;
      }
    </style>
  </defs>
  <g id="portas_c_frame_fechadas" data-name="portas c/frame fechadas">
    <g id="_11" data-name="11">
      <polygon class="cls-2" points="112.39 209.35 20.08 209.35 12.95 22.84 121.4 24.72 112.39 209.35"/>
      <path class="cls-3" d="M51.42,42.91s1.56,6.55,0,10.92c-2.3,6.44-12.19,8.65-20.28,9.51.23,37.11.46,74.21.69,111.32.73-.12,8.92-1.34,14.78,4.93,4.38,4.69,5.72,11.69,3.44,17.97,10.08.12,20.16.23,30.24.35-.32-1.79-.92-6.56,1.72-10.92,3.59-5.94,11.7-8.72,19.93-6.34.92-39.57,1.83-79.14,2.75-118.71-.36.16-8.22,3.54-14.43-1.06-5.6-4.14-7.45-12.96-3.44-20.43-26.14-4.33-35.4,2.47-35.4,2.47Z"/>
      <ellipse class="cls-5" cx="105.26" cy="124.35" rx="7.69" ry="6.75"/>
      <g>
        <polygon class="cls-4" points="9.98 209.28 20.08 209.35 13.14 22.57 121.21 25.02 112.39 209.35 122.49 209.28 135.34 13.28 123.09 13.79 95.32 5.3 84.49 7.07 75.01 0 62.56 0 54.97 6.82 43.06 5.3 9.48 13.39 0 13.13 9.98 209.28"/>
        <ellipse class="cls-1" cx="68.91" cy="9.19" rx="5.03" ry="4.42"/>
      </g>
    </g>
  </g>
</svg>