<?xml version="1.0" encoding="UTF-8"?>
<svg id="Camada_2" data-name="Camada 2" xmlns="http://www.w3.org/2000/svg" viewBox="0 0 123.23 209.32">
  <defs>
    <style>
      .cls-1 {
        stroke: #b270e5;
        stroke-miterlimit: 10;
        stroke-width: 5px;
      }

      .cls-1, .cls-2 {
        fill: #e7aeff;
      }

      .cls-3 {
        fill: #bc1d1d;
      }

      .cls-4 {
        fill: #ffce00;
      }

      .cls-5 {
        fill: #a5a5a5;
      }
    </style>
  </defs>
  <g id="portas_c_frame_fechadas" data-name="portas c/frame fechadas">
    <g id="_12" data-name="12">
      <polygon class="cls-2" points="113.28 209.32 9.7 208.94 19.62 24.69 105.07 25.07 113.28 209.32"/>
      <g>
        <polygon class="cls-1" points="23.48 192.71 98.34 196.58 94.48 125.14 29.95 127.42 23.48 192.71"/>
        <path class="cls-1" d="M56.36,114.19h-25.29l1.52-58.8c.12-4.49,2.13-8.66,5.45-11.27h0c3.3-2.6,7.73-2.65,11.08-.11h0c3.69,2.79,5.94,7.37,6.04,12.3l1.2,57.89Z"/>
        <path class="cls-1" d="M93.62,114.19h-25.29l1.52-56.96c.12-4.35,2.13-8.39,5.45-10.92h0c3.3-2.52,7.73-2.56,11.08-.11h0c3.69,2.7,5.94,7.14,6.04,11.91l1.2,56.08Z"/>
      </g>
      <ellipse class="cls-4" cx="100.73" cy="118.74" rx="8.54" ry="5.25" transform="translate(-51.16 84.46) rotate(-36.97)"/>
      <g>
        <polygon class="cls-5" points="0 208.94 9.7 208.94 19.62 24.69 105.07 25.07 113.28 209.32 123.23 209.28 118.21 13.03 107.83 13.03 93.79 4.94 80.68 7.24 72.34 0 57.97 0 49.22 6.76 35.48 5.26 17.6 12.85 5.42 13.61 0 208.94"/>
        <ellipse class="cls-3" cx="64.85" cy="9.17" rx="5.39" ry="4.95"/>
      </g>
    </g>
  </g>
</svg>