<?xml version="1.0" encoding="UTF-8"?>
<svg id="Camada_2" data-name="Camada 2" xmlns="http://www.w3.org/2000/svg" viewBox="0 0 135.34 209.28">
  <defs>
    <style>
      .cls-1 {
        fill: #0b2757;
      }

      .cls-2 {
        fill: #bc1d1d;
      }

      .cls-3 {
        fill: #a5a5a5;
      }

      .cls-4 {
        fill: #457f97;
      }

      .cls-5 {
        fill: #ededed;
      }

      .cls-6 {
        fill: none;
        stroke: #457f97;
        stroke-miterlimit: 10;
        stroke-width: 5px;
      }
    </style>
  </defs>
  <g id="portas_c_frame_fechadas" data-name="portas c/frame fechadas">
    <g id="_5" data-name="5">
      <polygon class="cls-4" points="112.58 209.08 20.27 209.08 13.14 22.57 121.59 24.45 112.58 209.08"/>
      <g>
        <g>
          <polygon class="cls-1" points="102.83 198.57 29.27 198.57 27.02 153.54 106.2 153.16 102.83 198.57"/>
          <polygon class="cls-6" points="91.9 190.62 40.54 190.62 38.96 162.38 94.26 162.15 91.9 190.62"/>
        </g>
        <g>
          <polygon class="cls-1" points="103.79 138.53 29.8 138.53 27.54 93.5 107.19 93.12 103.79 138.53"/>
          <polygon class="cls-6" points="92.8 130.3 41.13 130.3 39.55 102.41 95.17 102.17 92.8 130.3"/>
        </g>
        <g>
          <polygon class="cls-1" points="105.5 80.55 26.9 80.55 24.49 35.52 109.11 35.14 105.5 80.55"/>
          <polygon class="cls-6" points="93.83 72.06 38.93 72.06 37.25 43.87 96.35 43.63 93.83 72.06"/>
        </g>
      </g>
      <ellipse class="cls-5" cx="104.7" cy="134.21" rx="6.75" ry="8.82"/>
      <g>
        <polygon class="cls-3" points="9.98 209.28 20.27 209.08 13.14 22.57 121.21 25.02 112.01 209.22 122.49 209.28 135.34 13.28 123.09 13.79 95.32 5.3 84.49 7.07 75.01 0 62.56 0 54.97 6.82 43.06 5.3 9.48 13.39 0 13.13 9.98 209.28"/>
        <ellipse class="cls-2" cx="68.91" cy="9.19" rx="5.03" ry="4.42"/>
      </g>
    </g>
  </g>
</svg>