<?xml version="1.0" encoding="UTF-8"?>
<svg id="Camada_2" data-name="Camada 2" xmlns="http://www.w3.org/2000/svg" viewBox="0 0 132.51 210.4">
  <defs>
    <style>
      .cls-1 {
        fill: #bc1d1d;
      }

      .cls-2, .cls-3 {
        fill: #d63c0d;
      }

      .cls-4 {
        fill: #a5a5a5;
      }

      .cls-3 {
        stroke: #ff8d76;
        stroke-miterlimit: 10;
        stroke-width: 4px;
      }

      .cls-5 {
        fill: #f7c452;
      }
    </style>
  </defs>
  <g id="portas_c_frame_fechadas" data-name="portas c/frame fechadas">
    <g id="_7" data-name="7">
      <polygon class="cls-2" points="121.27 210.4 10.66 210.03 21.25 25.77 112.51 26.15 121.27 210.4"/>
      <polygon class="cls-3" points="108.34 192.39 24.49 191.49 34.16 127.38 100.23 127.38 108.34 192.39"/>
      <path class="cls-3" d="M100.28,115.27H34.4l3.97-60.15c.3-4.59,5.55-8.86,14.19-11.53h0c8.61-2.66,20.14-2.71,28.86-.12h0c9.61,2.85,15.46,7.53,15.72,12.58l3.14,59.21Z"/>
      <ellipse class="cls-5" cx="102.93" cy="121.47" rx="8.22" ry="6.75"/>
      <g>
        <polygon class="cls-4" points="0 210 10.66 210.03 21.25 25.77 112.51 26.15 121.27 210.4 132.51 210.34 125.36 15.7 113.02 13.49 99.64 5.29 87.06 7.06 76.05 0 61.59 0 52.78 6.81 38.95 5.29 22.3 14 9.36 15.02 0 210"/>
        <ellipse class="cls-1" cx="68.51" cy="9.23" rx="5.43" ry="4.98"/>
      </g>
    </g>
  </g>
</svg>