<?xml version="1.0" encoding="UTF-8"?>
<svg id="Camada_2" data-name="Camada 2" xmlns="http://www.w3.org/2000/svg" viewBox="0 0 131.32 213.76">
  <defs>
    <style>
      .cls-1, .cls-2 {
        fill: #f49914;
      }

      .cls-3 {
        fill: #bc1d1d;
      }

      .cls-2 {
        stroke: #ad6302;
        stroke-miterlimit: 10;
        stroke-width: 4px;
      }

      .cls-4 {
        fill: #e5d33b;
      }

      .cls-5 {
        fill: #a5a5a5;
      }
    </style>
  </defs>
  <g id="portas_c_frame_fechadas" data-name="portas c/frame fechadas">
    <g id="_8" data-name="8">
      <polygon class="cls-1" points="120.85 24.49 9.4 17.74 20.37 213.62 112.41 213.62 120.85 24.49"/>
      <g>
        <polygon class="cls-2" points="59.12 69.99 24.97 69.62 21.59 33.97 59.49 37.34 59.12 69.99"/>
        <polygon class="cls-2" points="59.16 115.4 27.97 116.15 26.09 84.25 59.49 85.54 59.16 115.4"/>
        <polygon class="cls-2" points="58.45 158.18 30.6 157.43 28.72 129.66 58.74 129.62 58.45 158.18"/>
        <polygon class="cls-2" points="58.37 199.46 31.72 199.1 31.35 171.69 58.37 171.31 58.37 199.46"/>
        <polygon class="cls-2" points="71.99 70.44 106.13 70.07 109.03 39.97 71.61 37.79 71.99 70.44"/>
        <polygon class="cls-2" points="71.95 115.85 103.13 116.6 105.01 84.7 71.61 85.99 71.95 115.85"/>
        <polygon class="cls-2" points="72.65 158.63 100.51 157.88 102.38 130.11 72.36 130.07 72.65 158.63"/>
        <polygon class="cls-2" points="72.74 199.91 99.38 199.55 99.75 172.14 72.74 171.76 72.74 199.91"/>
      </g>
      <path class="cls-4" d="M98.03,137.54c-.48-.4-.1-1.93.77-4.22,1.49-3.59,3.17-8.24,5.59-11.41,4.3-5.6,10.26-2.69,8.34,2.88-1.78,4.83-7.43,8.25-11.2,11.24-1.75,1.24-2.97,1.87-3.45,1.56l-.06-.04Z"/>
      <g>
        <polygon class="cls-5" points="121.28 213.76 112.41 213.62 120.85 24.49 12.26 22.35 20.37 213.62 12 213.76 0 11.41 9.32 11.41 38.43 4.65 50.97 7.21 59.99 0 71.83 0 79.04 6.95 90.38 5.41 122.31 13.65 131.32 13.39 121.28 213.76"/>
        <ellipse class="cls-3" cx="65.9" cy="8.85" rx="5.41" ry="4.51"/>
      </g>
    </g>
  </g>
</svg>