<?xml version="1.0" encoding="UTF-8"?>
<svg id="Camada_2" data-name="Camada 2" xmlns="http://www.w3.org/2000/svg" viewBox="0 0 127.15 216.16">
  <defs>
    <style>
      .cls-1 {
        fill: none;
        stroke: #f9bd00;
        stroke-miterlimit: 10;
        stroke-width: 4px;
      }

      .cls-2 {
        fill: #a35d08;
      }

      .cls-3 {
        fill: #bc1d1d;
      }

      .cls-4 {
        fill: #a5a5a5;
      }

      .cls-5 {
        fill: #ffe885;
      }
    </style>
  </defs>
  <g id="portas_c_frame_fechadas" data-name="portas c/frame fechadas">
    <g id="_9" data-name="9">
      <rect class="cls-5" x="14.55" y="25.28" width="98.79" height="190.82"/>
      <g>
        <polygon class="cls-1" points="28.71 37.74 27.96 108.29 56.11 88.77 56.11 37.36 28.71 37.74"/>
        <polygon class="cls-1" points="98.16 37.51 98.91 108.06 70.77 88.54 70.77 37.13 98.16 37.51"/>
        <polygon class="cls-1" points="97.74 200.7 98.49 130.15 70.35 149.66 70.35 201.07 97.74 200.7"/>
        <polygon class="cls-1" points="29.84 200.1 29.09 129.55 57.23 149.07 57.23 200.48 29.84 200.1"/>
        <polygon class="cls-1" points="63.61 98.93 32.84 118.82 63.24 139.08 94.76 118.82 63.61 98.93"/>
      </g>
      <ellipse class="cls-2" cx="103.53" cy="127.19" rx="6.75" ry="8.82"/>
      <g>
        <polygon class="cls-4" points="6.09 216.16 14.55 216.1 14.55 25.28 113.34 25.28 113.34 216.1 121.24 215.78 127.15 14.81 115.91 15.15 89.53 4.77 78.3 7.66 71.66 0 57.02 0 50.89 7.66 41.02 5.62 12.09 14.98 0 14.81 6.09 216.16"/>
        <ellipse class="cls-3" cx="63" cy="10.19" rx="5.35" ry="4.45"/>
      </g>
    </g>
  </g>
</svg>