<svg width="360" height="527" viewBox="0 0 360 527" fill="none" xmlns="http://www.w3.org/2000/svg">
<path d="M165.985 280.374L143.315 283.314L119.415 281.954L87.4954 267.854L49.6054 237.694L16.9154 200.854L8.27539 169.704L14.0054 146.744L39.6854 104.674L62.6654 78.9542L86.0054 64.0742L117.195 56.5142L153.045 58.5442L178.245 66.3642L195.945 76.6142L218.405 99.7042L241.165 131.454L247.465 157.264L245.445 161.664L232.485 163.194L210.185 176.954L185.185 207.084L168.845 236.904L167.375 257.554L165.985 280.374Z" fill="#D9F17B" stroke="#285643" stroke-miterlimit="10"/>
<path d="M215.395 330.744L215.195 356.774L219.695 393.484L221.325 409.694L231.735 428.854L241.705 435.024L256.935 436.674L289.225 423.854L306.955 408.964L310.585 388.244L306.825 373.194L306.095 351.534L310.135 342.724L305.285 327.714L293.005 317.264C293.005 317.264 279.785 311.204 274.375 311.394C268.965 311.574 268.925 310.494 268.925 310.494L250.805 319.784L226.085 326.044L215.395 330.744Z" fill="#D9F17B"/>
<path d="M7.88547 254.294L6.85547 287.944L8.67548 309.564L11.4255 326.814C11.4255 326.814 14.5255 322.374 22.1055 322.114C29.6855 321.854 28.6055 321.894 28.6055 321.894L49.4055 327.694L75.8755 340.894L102.385 355.174L116.945 368.774L131.725 388.874L133.545 410.494L144.375 410.124L155.025 404.344L164.555 397.514L162.225 360.734L155.345 317.594L149.015 290.704L147.675 283.164L119.445 281.954L87.5655 268.944L55.2055 242.924L32.6655 217.664L16.9155 200.854L12.0355 184.754L9.96545 219.524L7.88547 254.294Z" fill="#D9F17B" stroke="#285643" stroke-miterlimit="10"/>
<path d="M147.715 285.334L156.545 321.894L160.105 362.974L163.415 396.474L168.755 394.124L172.815 417.834L174.995 450.294L173.035 488.304L165.465 521.084L173.155 524.074L212.035 519.504L248.275 500.934L272.515 480.594L280.775 468.384L282.205 446.654L281.625 429.324L261.225 435.444L243.865 434.944L230.645 428.884L218.905 402.184L215.355 329.654L221.785 327.274L235.785 324.624L256.145 317.434L267.835 310.534L269.745 302.874L266.445 269.374L259.595 227.324L255.245 194.944L245.445 161.664L240.025 161.854L220.755 169.014L191.425 199.274L173.965 228.064L167.085 248.894L165.985 280.374L147.715 285.334Z" fill="#52B15D"/>
<path d="M226.864 253.374L244.014 247.374L246.254 249.464L247.844 264.584L249.224 273.214L246.164 278.744L234.434 284.554L224.574 281.644L225.144 266.444L226.864 253.374Z" fill="#D9F17B" stroke="#D9F17B" stroke-miterlimit="10"/>
<path d="M244.344 129.184L260.384 154.654L278.484 176.814L299.944 202.104L322.774 236.024L343.954 285.184L357.154 322.684L356.164 357.414L344.344 392.504L320.714 431.254L283.054 471.564L275.654 477.234L282.504 455.324L280.504 428.284L296.494 420.154L306.954 408.954L309.504 388.264L321.804 367.254L326.264 338.914L323.434 319.494L314.934 292.674L297.774 266.144L274.114 239.844L259.334 219.744L254.384 201.484L252.644 182.024L246.564 162.714L247.464 157.264L244.854 144.344L244.344 129.184Z" fill="#D9F17B" stroke="#285643" stroke-miterlimit="10"/>
<path d="M13.5551 325.654C9.55505 335.544 3.33505 375.874 3.33505 375.874L3.20508 404.064L10.5151 427.674L27.5651 450.944L48.7651 468.654L79.5251 480.624L102.375 483.104L121.755 479.194L137.195 454.814L137.395 428.784L132.255 405.104L131.665 387.774L106.845 359.344L60.4451 333.814L29.6851 321.844L13.5551 325.654Z" stroke="#FFAD17" stroke-miterlimit="10"/>
<path d="M33.8636 220.884L28.2637 215.654L33.8036 187.274L45.0937 168.464L52.6037 166.034L61.3737 168.994L76.8636 178.224L83.5836 184.504L84.9237 192.044L85.6637 213.704L81.8737 230.094L74.8437 246.594L71.9337 256.454L63.0037 249.164L54.0536 240.794L44.0137 232.464L33.8636 220.884Z" fill="#52B15D"/>
<path d="M54.515 222.354L46.675 215.024L46.375 206.364L53.155 182.284L58.605 183.184L67.455 188.304L72.045 195.734L71.285 205.524L65.235 218.734L61.115 225.384L54.515 222.354Z" fill="#D9F17B"/>
<path d="M156.814 57.8742L136.164 56.4042L116.674 57.0742L113.994 41.9842L118.454 13.6442L122.454 3.74416L133.284 3.38416L146.394 6.18416L154.264 14.5942L152.834 36.3242L156.774 56.7942" fill="#52B15D"/>
<path d="M41.6848 259.654L35.3249 264.204L31.7148 253.484L33.3249 237.164L36.1749 225.144L45.0948 232.424L65.1749 249.094L69.8748 259.774L71.4348 273.824L70.6449 282.524L64.1848 283.824L56.6049 284.084L57.6148 281.874L61.7949 277.404L64.7849 269.704L62.3648 262.204L56.9549 262.384L49.3348 261.554L41.6848 259.654Z" fill="#52B15D"/>
<path d="M195.385 76.0842L192.955 68.5742L193.485 52.2942L198.465 39.1142L205.975 36.6942L216.985 41.7442L229.225 51.0842L229.445 57.5842L227.905 76.0642L226.255 91.3042L231.135 107.404L229.005 108.554L221.245 103.404L195.385 76.0842Z" fill="#52B15D"/>
<path d="M11.1547 350.674L24.7747 368.644L57.0647 393.574L82.4447 406.804L107.575 412.454L134.655 411.544L137.405 428.794L94.9147 422.644L63.0247 409.634L41.0047 399.534L22.1447 387.164L4.30469 372.594L6.0347 359.524L11.1547 350.674Z" fill="#D9F17B"/>
<path d="M137.864 410.344L157.134 403.194L166.584 394.194L171.434 409.214L172.884 420.004L157.944 427.014L139.564 428.724L137.104 420.134L136.994 416.884L137.864 410.344Z" fill="#D9F17B"/>
<path d="M137.924 428.234L152.005 427.754L173.405 419.444L175.185 439.984L168.805 507.424L163.825 520.604L140.895 515.954L117.645 501.564L101.895 484.754L116.945 480.994L129.615 470.804L137.724 454.264L137.924 428.234Z" fill="#D9F17B"/>
<path d="M4.3053 372.594L2.94531 396.494L8.0553 419.084L18.4953 439.334L29.8053 453.044L48.7253 467.584L69.6753 477.714L90.4353 482.434L114.435 481.614L129.125 472.444L137.165 453.744L139.035 445.004L137.365 427.714L108.015 425.454L66.3853 412.774L34.3953 396.504L17.8053 383.614L4.3053 372.594Z" fill="#52B15D"/>
<path d="M13.1051 328.384L8.20508 343.724L11.6751 350.114L20.7451 361.734L34.0651 375.814L54.6151 391.684L67.8751 399.204L91.8451 408.914L108.575 412.424L132.025 411.634L132.785 404.554L131.155 388.354L120.855 372.434L103.015 357.864L68.6751 336.254L42.2351 324.144L25.8851 321.444L13.1051 328.384Z" fill="#52B15D"/>
<path d="M242.685 133.784C242.545 133.884 242.285 134.014 242.295 134.094C242.325 134.344 242.465 134.584 242.675 135.094C242.675 134.484 242.685 134.134 242.685 133.784Z" fill="#52B15D"/>
<path d="M353.715 304.104C346.725 284.754 339.495 265.494 330.595 246.944C317.845 220.374 300.155 196.974 280.685 175.194C262.225 154.544 248.985 130.604 233.925 107.774C229.355 100.834 228.255 93.0842 229.175 84.9442C230.185 75.9842 231.035 67.0142 232.115 58.0642C232.785 52.5142 230.935 48.3142 226.535 44.8642C221.365 40.8142 215.835 37.4142 209.795 34.9842C202.505 32.0542 198.335 33.8642 194.885 41.0642C193.005 44.9942 191.965 49.2042 191.625 53.5642C191.425 56.0842 191.205 58.5942 190.975 61.1142C190.785 63.2542 190.555 65.3842 190.195 69.1442C180.205 64.5042 171.535 60.1042 162.065 57.8742C157.655 56.8342 157.285 52.9142 156.435 49.4642C154.135 40.1542 155.955 30.7642 156.155 21.4142C156.355 11.7342 154.835 8.51419 146.505 4.53419C144.565 3.60419 142.495 2.88418 140.415 2.31418C122.075 -2.78582 117.915 -0.285818 114.985 18.2342C113.345 28.5542 111.445 38.9942 113.615 49.4242C114.695 54.6542 112.165 55.5442 108.115 56.2142C100.635 57.4642 93.3146 59.2542 86.2346 62.2042C76.8046 66.1442 68.1145 71.1842 60.5645 78.0142C41.8845 94.9042 27.0445 114.564 15.7545 137.224C7.83454 153.124 4.29455 168.954 9.01455 186.274C9.69455 188.774 9.17454 191.244 8.91454 193.774C5.72454 225.724 4.54454 257.794 4.03454 289.884C3.89454 298.994 6.02453 307.804 7.62453 316.684C8.70453 322.724 8.20453 328.544 7.43453 334.734C4.73453 356.464 -1.70545 377.794 0.424552 400.094C2.25455 419.264 11.0445 435.294 23.0045 449.434C36.0945 464.914 53.8945 474.104 72.3545 481.854C77.4245 483.984 82.9045 484.404 88.2845 484.584C93.6545 484.754 97.8645 486.264 101.555 490.484C108.715 498.674 117.555 505.044 126.185 511.594C133.505 517.154 141.775 520.484 150.675 522.614C190.485 532.114 225.885 522.404 257.065 497.104C281.175 477.534 303.765 456.254 322.655 431.334C337.465 411.804 348.105 390.334 354.965 366.844C361.125 345.744 361.235 324.914 353.715 304.104ZM242.685 133.784C242.685 134.134 242.675 134.484 242.675 135.094C242.465 134.584 242.325 134.344 242.295 134.094C242.285 134.014 242.545 133.894 242.685 133.784ZM195.395 57.3942C195.865 54.9142 195.935 52.3642 196.465 49.9042C199.165 37.2342 202.655 35.9442 214.295 41.7842C224.455 46.8742 229.495 53.3942 227.315 65.6942C225.265 77.2642 223.155 89.1742 225.765 101.114C226.695 102.554 227.925 104.194 226.495 105.654C226.115 106.044 224.785 104.044 224.435 102.754C217.125 96.3442 213.145 86.7242 204.835 81.4442C195.555 75.5342 193.515 67.3942 195.395 57.3942ZM119.335 17.9442C121.645 4.82418 124.365 2.99418 137.345 5.91418C140.115 6.53418 142.805 7.65418 145.415 8.80418C150.135 10.8842 152.465 14.2042 152.045 19.7842C151.155 31.5242 150.265 43.3042 152.885 55.8542C143.615 54.4342 135.065 54.1742 126.505 54.0142C118.935 53.8742 117.715 53.0042 117.235 45.7642C116.625 36.4242 117.715 27.1442 119.335 17.9442ZM14.4246 154.464C22.4846 132.574 34.8045 113.294 50.1045 95.6142C72.2145 70.0642 99.9945 58.4042 133.335 59.4242C167.345 60.4642 195.865 72.3842 215.075 102.044C217.025 105.054 219.365 107.844 221.695 110.584C233.125 124.044 239.285 140.094 245.505 157.814C228.215 159.644 216.385 168.874 205.495 179.764C194.985 190.264 185.775 201.774 177.725 214.254C167.415 230.234 163.005 247.764 163.435 266.644C163.485 268.804 163.375 270.984 163.615 273.134C164.155 277.954 162.545 279.934 157.275 280.604C128.155 284.304 102.345 276.564 78.8946 259.424C74.7046 256.364 73.5745 254.154 76.5145 249.124C87.1445 230.934 88.3645 210.874 86.5945 190.434C86.3245 187.274 86.0145 184.204 83.2145 181.684C76.7545 175.874 70.2445 170.184 62.2945 166.494C51.1245 161.304 45.1445 163.144 39.1245 174.094C35.7445 180.234 33.0345 186.734 29.6645 193.844C26.0445 190.364 25.8445 184.614 18.2145 183.294C21.8645 188.744 21.0645 194.504 27.0545 196.364C29.5245 197.134 29.1945 198.634 28.9645 200.434C28.5845 203.414 28.6645 206.514 26.8845 209.454C21.9145 204.904 19.3745 199.214 17.2745 193.564C12.5545 180.874 9.53455 167.764 14.4246 154.464ZM64.8845 263.454C63.9545 260.164 62.6945 258.474 58.8745 259.424C53.8745 260.664 48.1145 260.544 44.2145 257.964C39.3845 254.774 38.2546 258.684 35.7046 260.544C33.6646 250.574 34.0846 240.974 36.7046 229.574C44.2746 236.454 50.3046 243.394 57.7046 248.284C68.0446 255.134 68.7245 265.034 69.1145 275.514C69.3345 281.254 66.4845 283.324 60.9645 282.304C66.4645 275.094 67.1245 271.344 64.8845 263.454ZM56.3345 278.734C51.6945 280.194 46.2145 278.274 44.3345 274.094C42.8845 270.864 41.6845 267.384 42.8345 263.694C47.5645 262.734 52.1245 264.544 56.7445 264.214C60.7645 263.924 61.5745 266.304 61.8445 269.494C62.2045 273.914 60.8945 277.294 56.3345 278.734ZM35.1746 220.294C33.0246 218.264 32.3045 215.654 32.2645 212.514C32.0845 197.924 37.3446 185.114 44.7346 172.974C46.9846 169.274 50.3645 167.204 54.7445 168.344C64.4645 170.864 71.9745 177.014 79.0045 183.814C84.0645 188.714 82.5245 195.204 82.7845 201.134C83.0245 206.854 82.8945 212.664 82.1945 218.334C80.7445 230.204 76.8345 241.244 69.6045 252.454C57.6645 241.314 46.3746 230.854 35.1746 220.294ZM129.615 402.324C131.225 408.134 128.705 410.014 123.235 410.324C114.165 410.834 105.215 410.484 96.4445 407.984C62.6845 398.324 35.4545 379.284 14.3045 351.274C9.32453 344.674 11.2445 338.324 13.7445 331.994C16.0445 326.154 21.5946 324.954 27.1746 324.684C33.4546 324.374 39.2346 326.604 44.9246 328.874C63.7646 336.384 81.2345 346.534 98.4745 357.044C109.765 363.924 117.935 374.054 125.395 384.784C127.735 388.154 128.905 391.834 129.055 395.884C129.235 398.024 129.045 400.274 129.615 402.324ZM11.0645 355.894C14.5745 359.844 17.5845 363.434 20.7945 366.814C49.8845 397.544 83.4845 418.294 127.915 414.784C131.085 414.534 132.635 415.794 133.065 418.784C133.365 420.864 134.395 422.914 133.105 425.234C131.795 425.254 130.365 425.354 128.945 425.294C126.795 425.194 124.635 425.074 122.495 424.814C87.5145 420.404 55.8545 407.514 27.1045 387.264C21.7845 383.514 17.3445 378.824 12.9745 374.004C8.09454 368.584 6.36454 363.134 11.0645 355.894ZM69.9745 475.124C59.6845 470.724 49.8145 465.324 40.9145 458.524C13.9045 437.894 2.26453 410.664 6.09453 376.994C7.77453 376.364 8.55455 376.924 9.29455 377.784C22.6045 393.134 39.6946 403.064 57.8946 411.264C80.6846 421.524 104.115 429.724 129.425 430.694C134.635 430.894 136.105 433.114 136.265 437.914C136.665 449.664 132.085 459.664 126.115 469.304C122.435 475.234 117.115 478.994 110.345 479.474C96.6746 480.444 82.8945 480.644 69.9745 475.124ZM155.615 518.264C136.975 515.494 123.875 503.584 110.575 491.934C108.955 490.514 105.985 489.514 107.025 485.824C121.605 484.684 129.955 475.564 135.775 462.974C139.475 454.974 142.255 446.794 141.225 437.984C140.595 432.584 142.565 431.024 147.525 430.734C155.045 430.294 162.405 428.754 170.835 424.244C173.515 455.464 172.205 484.334 165.065 512.894C163.675 518.464 160.825 519.034 155.615 518.264ZM141.035 412.384C150.425 410.684 158.135 405.554 166.705 398.754C167.745 404.634 168.495 409.134 169.355 413.614C169.795 415.934 169.405 417.854 167.395 419.304C160.015 424.644 151.545 426.124 142.785 425.544C137.745 425.214 139.045 420.164 138.025 417.014C137.215 414.494 138.455 412.854 141.035 412.384ZM269.555 477.604C247.395 502.554 219.935 517.944 186.145 520.654C180.435 521.114 174.675 521.294 169.045 518.584C174.635 499.574 176.455 480.224 177.375 460.734C178.445 438.204 175.945 416.044 170.615 394.174C169.275 388.694 167.555 388.194 163.835 392.524C159.275 397.824 154.195 402.104 147.615 404.744C135.875 409.444 134.455 408.724 134.395 396.524C134.375 392.924 135.045 389.414 132.815 386.104C124.095 373.154 114.715 360.744 101.175 352.454C85.4745 342.844 69.5245 333.624 52.5745 326.294C40.5145 321.084 28.4445 316.144 14.8145 322.454C12.4245 313.464 10.8145 305.394 9.98455 297.154C7.72455 274.764 11.1745 252.504 11.5845 230.174C11.7645 220.634 12.6645 211.114 13.3345 200.134C18.1645 206.964 21.2845 212.854 25.7745 217.384C31.5445 223.184 32.3545 229.284 30.9945 236.884C28.6645 249.954 31.2345 262.734 34.7745 275.344C36.6445 281.984 40.9745 285.834 47.6845 286.814C52.6745 287.544 57.7345 287.924 62.7845 287.224C70.9145 286.094 73.4645 283.054 73.3145 275.134C73.2445 271.244 71.3745 267.404 73.3245 262.464C80.0145 266.514 85.7545 270.184 91.6745 273.534C106.045 281.674 121.445 286.754 138.045 286.484C144.555 286.374 146.695 288.564 147.905 294.594C152.775 318.684 157.295 342.794 158.365 367.414C158.465 369.794 157.755 373.414 161.295 373.254C164.755 373.104 163.655 369.564 163.675 367.234C163.685 365.794 163.355 364.364 163.305 362.924C162.635 344.444 159.325 326.344 155.785 308.264C154.415 301.274 153.285 294.234 152.085 287.444C155.745 285.374 159.065 285.714 162.185 285.134C169.505 283.764 169.525 283.804 169.185 276.134C169.085 273.974 168.825 271.814 168.755 269.654C168.255 253.534 170.405 237.944 178.445 223.654C188.815 205.234 202.095 189.164 218.145 175.394C223.405 170.874 229.325 167.454 235.835 165.144C242.245 162.874 243.165 163.294 245.345 169.544C249.045 180.144 251.395 191.064 253.025 202.174C255.595 219.674 258.295 237.154 261.155 254.604C263.315 267.794 265.575 280.954 265.775 294.364C265.845 299.034 267.615 304.224 266.105 308.234C264.275 313.094 257.725 312.924 253.235 314.754C241.295 319.614 229.575 325.734 215.955 324.264C213.365 323.984 211.865 325.914 211.745 328.234C211.545 332.184 211.485 336.194 211.965 340.114C213.605 353.384 214.245 366.714 215.005 380.044C215.675 391.934 216.945 403.834 220.595 415.264C226.225 432.904 239.855 441.184 258.175 438.264C264.915 437.194 271.375 435.024 278.075 432.564C282.825 449.324 280.955 464.764 269.555 477.604ZM302.005 320.934C295.825 315.084 288.235 311.304 279.885 310.514C273.275 309.884 271.535 307.014 271.435 301.014C271.095 279.334 267.805 257.994 263.695 236.754C263.195 234.174 262.985 231.544 262.645 228.944C271.825 240.224 280.345 251.184 290.135 261.104C301.685 272.794 309.845 286.654 316.175 301.724C327.595 328.914 325.915 355.464 312.025 381.574C309.975 371.394 306.205 361.094 310.145 350.944C314.955 338.574 310.745 329.204 302.005 320.934ZM306.455 399.064C306.335 404.234 304.955 408.414 301.285 411.524C287.265 423.394 271.405 431.894 252.915 433.484C241.705 434.454 232.755 429.514 227.655 418.644C224.685 412.314 223.035 405.684 222.395 398.894C220.505 378.834 219.035 358.734 217.475 338.644C217.445 338.254 218.305 337.794 219.125 336.994C242.035 361.984 268.445 374.214 303.365 357.254C303.245 372.724 306.775 385.664 306.455 399.064ZM298.635 353.454C292.485 356.714 285.805 358.304 279.045 359.384C258.765 362.604 232.895 349.244 222.585 329.754C235.825 328.194 247.735 323.254 259.485 318.054C273.815 311.714 286.165 315.664 297.785 324.334C301.885 327.394 304.805 331.514 306.115 336.624C308.245 344.904 306.255 349.414 298.635 353.454ZM351.925 361.714C340.935 403.264 317.575 436.794 285.715 464.924C285.035 465.524 284.365 466.714 283.385 465.834C282.525 465.054 282.945 464.014 283.905 463.344C285.645 454.074 286.445 444.764 284.315 435.454C283.355 431.284 284.515 428.744 288.545 426.914C292.125 425.294 295.445 422.984 298.655 420.674C303.975 416.864 309.925 412.784 310.895 406.084C312.895 392.274 319.165 379.984 323.465 367.024C330.765 345.024 328.835 323.654 320.915 302.404C314.135 284.204 303.445 268.624 290.015 254.604C272.255 236.064 258.755 215.124 255.815 188.704C255.105 182.284 253.465 175.934 251.025 169.844C250.115 167.564 248.655 165.214 249.815 162.614C252.165 157.324 249.225 152.774 247.805 148.054C246.945 145.194 244.955 142.664 245.455 137.274C256.575 156.344 271.905 169.674 284.055 185.634C299.325 205.704 315.655 225.124 326.525 248.154C335.305 266.754 342.765 285.924 349.625 305.304C356.185 323.834 356.985 342.604 351.925 361.714Z" fill="#52B15D"/>
<path d="M251.594 271.424C250.734 264.284 249.784 257.144 248.864 250.014C248.634 248.214 248.434 246.034 246.704 245.334C246.084 245.084 245.584 244.814 245.174 244.524C239.924 248.694 232.394 249.794 225.604 249.194C225.344 250.614 225.044 252.044 224.664 253.494C222.494 261.894 222.064 271.114 221.034 279.994C220.564 284.034 222.424 286.344 226.384 286.354C232.904 286.364 239.354 285.344 245.394 282.834C250.324 280.774 252.224 276.654 251.594 271.424ZM243.774 277.444C238.924 280.004 233.694 281.584 228.214 280.424C226.064 279.974 226.744 277.444 226.974 275.754C227.614 271.134 229.204 266.484 228.934 261.924C228.584 255.994 231.114 253.374 236.324 252.034C238.354 251.514 240.254 250.474 243.554 249.114C243.834 256.764 244.274 262.814 245.604 268.784C246.284 271.794 247.664 275.394 243.774 277.444Z" fill="#52B15D"/>
<path d="M245.545 244.604C245.475 242.434 244.155 239.834 244.955 237.304C247.135 230.414 246.465 223.844 243.245 217.424C238.035 207.054 234.605 196.094 232.485 184.704C232.225 183.284 231.965 181.864 231.555 180.484C230.965 178.484 230.405 175.684 227.725 176.494C225.245 177.244 225.735 180.034 226.245 182.124C229.305 194.714 232.305 207.274 238.135 219.034C242.415 227.664 242.275 236.184 232.955 245.604C231.275 227.704 226.115 213.114 221.845 198.294C221.345 196.564 221.035 194.754 220.295 193.124C219.375 191.084 219.465 187.144 216.015 188.354C212.985 189.424 214.545 192.704 215.185 194.974C218.425 206.404 222.025 217.734 225.065 229.214C226.825 235.864 226.875 242.314 225.605 249.164C232.395 249.784 240.295 248.774 245.545 244.604Z" fill="#D9F17B" stroke="#D9F17B" stroke-miterlimit="10"/>
<path d="M230.754 152.004C221.914 149.734 214.494 154.554 210.154 165.044C218.174 161.644 222.384 153.614 230.754 152.004Z" fill="#52B15D"/>
<path d="M55.4838 117.794C49.5438 126.444 44.9237 133.164 40.5938 139.454C46.4437 136.964 52.8938 128.454 55.4838 117.794Z" fill="#52B15D"/>
<path d="M155.715 229.954C150.575 236.084 148.655 243.054 150.135 250.894C154.615 244.674 155.335 237.354 155.715 229.954Z" fill="#52B15D"/>
<path d="M173.455 201.004C178.385 196.334 179.965 189.374 187.315 185.224C178.115 184.984 174.225 189.774 173.455 201.004Z" fill="#52B15D"/>
<path d="M84.7139 84.3342C74.8739 84.1042 71.2639 91.6642 67.0039 98.4842C74.9439 96.4742 77.6539 87.8642 84.7139 84.3342Z" fill="#52B15D"/>
<path d="M135.874 269.614C130.094 266.864 123.934 265.564 118.314 262.664C122.254 270.244 125.584 271.554 135.874 269.614Z" fill="#52B15D"/>
<path d="M32.6137 151.774C24.8937 154.094 24.4038 160.204 23.8438 168.904C29.7438 162.994 29.9737 156.754 32.6137 151.774Z" fill="#52B15D"/>
<path d="M92.505 258.024C89.695 252.434 86.245 250.234 80.625 248.254C82.785 254.524 86.025 256.984 92.505 258.024Z" fill="#52B15D"/>
<path d="M245.704 395.624C245.224 393.234 245.234 390.454 242.474 390.504C239.634 390.554 238.004 393.314 238.034 395.634C238.104 400.204 238.984 404.774 239.734 409.314C239.984 410.804 241.384 411.804 242.854 411.644C244.794 411.434 246.114 410.004 246.114 408.054C246.124 403.794 245.854 399.534 245.704 395.624Z" fill="#52B15D"/>
<path d="M244.505 370.884C242.355 367.634 244.305 361.414 239.835 361.844C234.295 362.374 236.645 368.084 237.215 371.514C237.855 375.424 237.015 382.544 242.455 381.634C248.335 380.664 243.795 374.414 244.505 370.884Z" fill="#52B15D"/>
<path d="M51.9947 179.734C49.1247 189.824 45.5047 199.924 43.8547 210.614C43.1647 215.094 44.6047 217.914 48.2747 220.614C62.2747 230.884 62.1747 231.004 68.9747 215.504C69.6947 213.854 70.5647 212.264 71.3447 210.644C77.4547 198.084 74.2047 188.244 61.7547 182.214C58.9247 180.844 56.0747 179.014 51.9947 179.734ZM55.0547 184.454C70.5947 190.764 73.3447 197.054 66.7147 210.224C64.5247 214.574 63.9547 219.744 60.1047 224.044C58.5047 222.694 57.2947 221.164 55.7247 220.454C48.4547 217.184 46.9747 211.794 49.2247 204.624C51.2447 198.174 52.9847 191.644 55.0547 184.454Z" fill="#52B15D"/>
<path d="M163.595 413.484C162.915 411.184 161.345 409.854 158.915 410.554C156.515 411.244 155.845 413.254 156.425 415.574C156.935 417.574 158.525 418.534 160.395 418.164C162.715 417.714 164.025 416.114 163.595 413.484Z" fill="#52B15D"/>
<path d="M237.054 260.734C235.034 261.694 231.554 260.614 231.544 264.404C231.534 267.924 231.514 271.484 232.064 274.934C232.244 276.054 234.324 276.294 235.874 275.894C240.534 274.694 244.474 264.534 241.584 260.664C240.304 258.944 238.544 259.184 237.054 260.734Z" fill="#52B15D"/>
</svg>
