<svg width="473" height="222" viewBox="0 0 473 222" fill="none" xmlns="http://www.w3.org/2000/svg">
<path d="M42.6032 115.242C47.7383 113.018 52.7325 110.499 57.7178 107.962C74.1448 99.6119 91.5627 93.6577 108.778 87.2806C128.31 80.0448 148.084 73.452 167.479 65.8243C173.658 63.3933 180.114 61.6845 186.817 63.1731C194.573 64.895 200.139 69.3343 202.531 77.191C202.685 77.6975 202.817 78.2348 202.821 78.7545C202.896 88.3112 199.104 95.9478 191.16 101.294C188.544 103.056 185.518 103.562 182.479 101.832C181.616 101.338 181.506 100.885 181.999 100.101C182.876 98.7135 184.148 97.749 185.456 96.8242C187.306 95.5206 189.27 94.3491 190.992 92.8914C197.017 87.7915 195.656 79.2301 188.359 76.2178C182.946 73.9805 177.393 74.3989 171.857 75.6981C165.277 77.2483 159.028 79.7454 152.955 82.6432C134.982 91.2178 116.529 98.7267 98.4418 107.037C86.7051 112.428 75.0917 118.091 63.4474 123.675C63.1083 123.838 62.8177 123.896 62.5402 123.887C63.5399 124.79 64.7995 124.909 65.993 125.23C65.83 125.168 65.6715 125.107 65.5085 125.045C66.015 124.653 66.1515 124.499 66.3233 124.42C77.0206 119.315 87.6739 114.106 98.4374 109.147C116.886 100.651 135.709 92.9971 154.051 84.2639C160.851 81.0269 167.84 78.1775 175.34 76.9752C179.458 76.3146 183.598 76.297 187.548 77.9353C193.604 80.45 194.709 87.1882 189.741 91.4513C188.284 92.702 186.61 93.7105 185.02 94.8027C183.646 95.7496 182.281 96.7097 181.189 97.9912C178.67 100.942 179.352 103.294 183.109 104.342C187.68 105.615 191.543 103.937 194.916 101.048C200.289 96.441 203.231 90.4075 204.592 83.5505C205.389 79.5208 204.72 75.6717 202.57 72.2101C197.365 63.816 189.671 60.1959 179.907 60.8874C175.221 61.2221 170.729 62.508 166.352 64.164C156.451 67.9118 146.688 72.0648 136.655 75.4162C113.715 83.0704 91.1135 91.6318 68.7191 100.717C59.7921 104.342 51.1999 108.834 42.6076 113.225C40.181 114.462 37.9438 114.775 35.4863 114.612C37.4813 114.991 39.723 114.841 41.5551 115.81C41.9514 115.572 42.2729 115.387 42.6032 115.242Z" fill="#333333"/>
<path d="M295.917 153.438C294.777 153.574 293.641 153.68 292.5 153.751C293.61 154.072 294.878 153.773 295.917 153.438Z" fill="#582D91"/>
<path d="M292.496 153.751C291.787 153.79 291.078 153.821 290.369 153.821C291.083 153.821 291.787 153.79 292.496 153.751C292.408 153.724 292.32 153.693 292.237 153.663C291.871 153.764 291.466 153.808 290.995 153.79C284.596 153.539 278.223 153.02 271.82 152.372C271.921 152.266 272.018 152.165 272.119 152.059C270.987 152.059 269.697 152.051 268.459 151.927C268.081 152.029 267.662 152.055 267.16 152.015C256.599 151.157 246.052 149.99 235.434 151.439C225.397 152.808 215.285 153.685 205.292 155.31C194.199 157.115 183.757 161.277 173.306 165.285C170.501 166.359 167.77 167.641 165.401 169.504C164.538 170.182 164.014 170.085 163.168 169.64C156.738 166.24 149.978 165.157 142.857 166.945C142.126 167.13 141.659 167.055 141.13 166.443C136.198 160.731 130.169 156.287 123.823 152.363C109.694 143.635 95.1436 135.703 79.3463 130.295C74.9247 128.78 70.5912 126.996 65.989 125.235C64.7955 124.913 63.5359 124.794 62.5362 123.891C62.2852 123.883 62.0386 123.821 61.7655 123.72C54.9525 121.231 48.1351 118.743 40.9741 116.132C41.1855 116.013 41.3705 115.907 41.5423 115.81C39.7146 114.841 37.4685 114.991 35.4735 114.612C34.7336 114.564 33.9762 114.476 33.1878 114.352C25.3179 113.141 18.9717 109.763 14.114 103.452C12.74 101.664 11.1677 99.9908 9.34008 98.6299C7.23055 97.0621 4.77751 95.2565 2.25401 96.6393C-0.295915 98.0354 -0.18141 101.109 0.219355 103.69C1.38642 111.159 4.45602 117.946 8.23026 124.424C9.82011 127.155 11.8504 129.634 14.4267 131.418C19.9714 135.254 23.3316 140.468 25.0977 146.854C25.3267 147.686 25.6746 148.483 25.9873 149.289C31.2765 162.99 37.5434 175.964 48.7604 186.138C57.0224 193.629 65.9934 199.323 77.0298 201.336C84.9042 202.772 92.8138 202.146 100.754 201.605C116.437 200.535 129.165 192.779 141.553 184.169C142.438 183.553 143.178 183.178 144.196 183.147C150.092 182.971 155.703 184.266 161.16 186.389C162.19 186.79 162.939 187.538 163.657 188.331C167.145 192.189 170.58 196.091 174.138 199.887C188.562 215.284 206.411 222.277 227.396 221.181C242.339 220.401 256.234 215.724 268.931 208.07C284.327 198.786 298.367 187.635 310.98 174.762C311.733 173.992 312.46 173.322 313.627 173.133C318.537 172.344 322.549 169.861 326.17 166.544C334.907 158.533 337.915 148.105 338.91 136.8C338.976 136.064 339.056 135.254 338.008 135.113C337.052 134.985 336.215 135.029 335.673 136.108C334.198 139.037 331.82 141.182 329.239 143.115C323.038 147.748 315.882 150.236 308.531 152.266C304.845 153.284 301.049 153.557 297.248 153.693C296.804 153.711 296.213 153.918 295.949 153.495C295.936 153.478 295.936 153.46 295.927 153.438C295.923 153.438 295.914 153.438 295.91 153.438C294.879 153.773 293.611 154.072 292.496 153.751ZM322.303 149.448C327.442 146.938 332.212 143.96 335.858 139.442C336.013 139.253 336.149 138.98 336.66 139.138C335.823 147.233 333.74 154.86 328.402 161.308C324.038 166.584 319.009 170.772 311.834 171.468C311.244 171.525 310.923 171.895 310.544 172.292C296.539 186.816 280.976 199.42 263.192 209.003C251.526 215.288 238.913 219.045 225.551 219.384C205.839 219.881 189.033 213.095 175.53 198.566C171.809 194.563 168.162 190.489 164.502 186.428C163.674 185.512 162.701 184.905 161.547 184.469C157.161 182.808 152.651 181.778 147.974 181.28C144.605 180.919 141.826 181.804 138.964 183.592C133.432 187.049 128.24 191.07 122.299 193.854C110.465 199.403 97.8476 200.499 85.0187 200.253C76.0786 200.081 67.6317 197.751 60.2858 192.739C48.7869 184.896 39.2478 175.154 33.571 162.131C30.726 155.6 27.7753 149.118 25.4896 142.357C24.0407 138.072 21.5392 134.54 17.8751 131.841C8.45046 124.895 4.84357 114.652 2.11308 103.932C1.78719 102.655 2.025 101.303 2.23199 99.9688C2.52706 98.0618 3.59724 97.9341 5.07258 98.4186C6.89144 99.0175 8.38881 100.123 9.6924 101.488C11.5773 103.466 13.4578 105.452 15.2679 107.5C18.9761 111.697 23.4902 114.432 29.0701 115.299C39.1024 116.858 48.3685 120.875 57.7887 124.349C71.1505 129.282 84.7589 133.659 97.5526 139.975C110.219 146.224 122.726 152.835 133.679 161.929C136.127 163.964 138.765 165.844 140.267 168.799C140.637 169.526 141.196 169.627 141.941 169.354C149.15 166.703 155.972 168.055 162.538 171.49C163.877 172.19 164.771 172.437 166.163 171.287C168.519 169.341 171.355 168.055 174.235 166.971C185.646 162.682 196.995 158.036 209.208 156.631C223.618 154.971 237.944 151.927 252.561 152.83C263.003 153.478 273.423 154.495 283.856 155.345C297.143 156.419 310.095 155.415 322.303 149.448Z" fill="#582D91"/>
<path d="M396.335 80.0229C395.401 75.8611 392.94 72.9148 389.24 70.8405C382.542 67.0795 375.658 66.9342 368.629 69.6603C361.574 72.3952 355.113 76.2575 348.811 80.3929C339.787 86.3163 332.265 94.0321 324.105 100.986C305.423 116.911 287.349 133.488 270.059 150.914C269.53 151.447 269.046 151.773 268.469 151.927C269.706 152.051 270.997 152.059 272.128 152.059C275.775 148.29 279.285 144.577 282.892 140.97C301.058 122.799 320.943 106.522 340.087 89.4299C348.481 81.9343 358.113 76.1694 368.502 71.7742C374.513 69.2287 380.577 68.8367 386.712 71.6773C391.244 73.7736 394.01 77.037 394.882 82.0003C396.141 89.1613 396.67 96.287 394.455 103.364C392.442 109.79 387.721 113.515 381.643 113.485C380.983 113.48 380.304 113.423 379.666 113.264C376.825 112.555 376.38 111.291 378.367 109.116C380.798 106.456 383.132 103.756 385.012 100.651C388.122 95.5163 387.514 90.4604 384.836 85.4619C383.229 82.4539 379.78 81.0314 376.085 81.6128C372.822 82.128 369.788 83.2951 366.894 84.8497C357.434 89.9276 349.19 96.7053 340.88 103.386C323.171 117.624 307.396 133.717 294.135 152.209C293.58 152.984 293.004 153.456 292.246 153.663C292.334 153.698 292.418 153.724 292.506 153.751C293.647 153.685 294.783 153.574 295.923 153.438C295.928 153.438 295.932 153.434 295.941 153.434C295.655 152.883 296.285 152.544 296.558 152.17C297.659 150.663 298.834 149.214 299.957 147.721C317.239 124.794 338.576 106.214 362.05 89.9408C365.67 87.4305 369.523 85.2857 373.795 84.0482C380.45 82.1236 384.413 84.5987 385.589 91.3985C385.827 92.7814 385.779 94.1774 385.506 95.5735C384.774 99.3433 382.647 102.263 379.939 104.831C378.49 106.205 376.922 107.473 375.892 109.226C374.553 111.507 374.962 113.062 377.261 114.37C378.944 115.326 380.789 115.563 382.683 115.361C389.588 114.616 394.045 110.864 396.154 104.293C398.735 96.2297 398.154 88.1263 396.335 80.0229Z" fill="#333333"/>
<path d="M321.615 177.215C320.792 172.719 325.685 168.768 329.234 168.795C334.123 168.834 338.848 173.525 338.945 178.629C339.033 183.117 335.572 186.715 331.181 186.807C325.931 186.917 320.95 181.927 321.615 177.215ZM337.012 178.761C336.976 174.678 333.233 170.697 329.362 170.763C325.227 170.834 323.989 173.547 323.535 177.88C323.165 181.421 327.191 184.918 331.044 184.922C334.378 184.931 337.043 182.179 337.012 178.761Z" fill="#582D91"/>
<path d="M270.155 9.71278C270.168 14.4647 267.667 17.5563 263.651 17.7633C258.824 18.01 253.962 13.9098 253.623 9.30321C253.156 2.95702 258.423 -1.34571 264.536 0.385071C268.627 1.54333 270.142 4.05362 270.155 9.71278ZM268.275 9.71719C268.266 4.56889 266.108 1.9529 261.841 1.92648C258.247 1.90446 255.569 4.67458 255.525 8.47085C255.477 12.3772 259.282 15.9269 263.435 15.852C266.421 15.7991 268.279 13.443 268.275 9.71719Z" fill="#582D91"/>
<path d="M431.451 44.6145C436.238 44.6101 440.079 48.4812 440.039 53.2772C440.004 58.0159 436.075 61.8474 431.306 61.8034C426.624 61.7593 422.828 57.9146 422.828 53.2156C422.828 48.3755 426.594 44.6189 431.451 44.6145ZM431.508 59.8788C435.164 59.8392 438.207 56.6859 438.119 53.0306C438.031 49.4061 435.023 46.4686 431.416 46.4818C427.708 46.4994 424.669 49.5514 424.695 53.2288C424.722 56.9149 427.8 59.9229 431.508 59.8788Z" fill="#582D91"/>
<path d="M45.3463 105.624C40.5416 105.571 36.7145 101.691 36.7761 96.9388C36.8378 92.2573 40.9555 88.188 45.5137 88.3025C50.2788 88.4258 54.0839 92.3498 54.0487 97.1018C54.009 101.898 50.1555 105.672 45.3463 105.624ZM45.5225 90.3812C41.691 90.3548 38.7667 93.1778 38.7315 96.9344C38.6963 100.669 41.6514 103.725 45.3331 103.761C49.0281 103.796 52.0757 100.828 52.1506 97.1238C52.2254 93.42 49.2659 90.4077 45.5225 90.3812Z" fill="#582D91"/>
<path d="M350.782 192.761C346.013 192.779 342.115 188.895 342.155 184.16C342.194 179.497 345.999 175.691 350.659 175.656C355.397 175.621 359.339 179.541 359.313 184.262C359.282 188.926 355.45 192.744 350.782 192.761ZM350.646 190.824C354.336 190.863 357.296 188.01 357.348 184.359C357.401 180.589 354.451 177.559 350.729 177.563C347.153 177.568 344.128 180.593 344.106 184.187C344.084 187.847 346.977 190.784 350.646 190.824Z" fill="#582D91"/>
<path d="M399.18 193.994C396.572 193.889 393.776 192.713 391.6 190.185C391.142 189.652 390.869 188.93 389.971 188.868C389.416 188.829 389.249 188.34 389.284 187.82C389.641 182.817 395.67 175.964 402.166 178.431C405.649 179.752 407.904 183.896 407.221 187.705C406.53 191.563 403.725 193.964 399.18 193.994ZM405.372 186.331C405.372 182.681 402.804 179.88 399.439 179.862C396.211 179.844 391.873 183.442 391.843 186.155C391.812 188.991 396.062 192.158 399.831 192.11C403.143 192.065 405.372 189.74 405.372 186.331Z" fill="#582D91"/>
<path d="M440.783 73.188C440.862 72.501 440.885 71.7655 441.043 71.0565C442.03 66.6172 445.918 63.6489 449.798 64.3359C453.898 65.0582 457.378 69.9863 456.673 74.2318C456.36 76.1079 455.497 77.7373 453.696 78.6886C452.696 79.2171 451.749 79.8469 450.732 80.3313C446.006 82.595 441.831 80.4062 440.964 75.2271C440.858 74.5665 440.845 73.897 440.783 73.188ZM442.659 73.5491C442.743 74.0336 442.818 74.6942 442.972 75.3328C443.826 78.922 446.345 80.1375 449.715 78.715C451.463 77.9752 452.639 76.5262 454.101 75.434C454.995 74.769 455.021 73.5579 454.832 72.4745C454.572 71.0168 454.022 69.6824 453.07 68.5197C450.252 65.0802 445.914 65.4766 443.725 69.3697C443.025 70.6205 442.752 71.9637 442.659 73.5491Z" fill="#582D91"/>
<path d="M440.823 183.548C436.141 183.557 432.363 179.818 432.261 175.075C432.169 170.675 436.141 166.743 440.717 166.698C445.381 166.654 449.256 170.517 449.217 175.172C449.177 179.792 445.425 183.539 440.823 183.548ZM440.774 181.615C444.359 181.615 447.275 178.748 447.31 175.176C447.345 171.613 444.447 168.667 440.876 168.645C437.123 168.619 434.327 171.384 434.278 175.176C434.234 178.708 437.167 181.615 440.774 181.615Z" fill="#582D91"/>
<path d="M406.85 39.0612C406.881 34.4766 410.554 30.9402 415.226 30.993C419.674 31.0459 423.308 34.754 423.294 39.2285C423.281 43.7471 419.569 47.4024 414.984 47.4112C410.457 47.42 406.819 43.681 406.85 39.0612ZM414.975 32.8515C411.514 32.8955 408.616 35.8727 408.713 39.2858C408.814 42.8002 411.699 45.5571 415.191 45.4778C418.688 45.3986 421.427 42.4963 421.343 38.9555C421.264 35.5952 418.358 32.8119 414.975 32.8515Z" fill="#582D91"/>
<path d="M427.831 184.262C427.827 188.864 424.159 192.48 419.53 192.436C414.892 192.391 411.325 188.674 411.316 183.883C411.312 179.77 415.262 175.995 419.587 175.982C424.145 175.969 427.831 179.673 427.831 184.262ZM413.364 184.301C413.259 187.635 416.09 190.502 419.534 190.559C422.921 190.617 425.819 187.864 425.938 184.473C426.061 180.963 423.322 178.039 419.812 177.929C416.192 177.814 413.483 180.492 413.364 184.301Z" fill="#582D91"/>
<path d="M111.201 39.5455C115.244 39.5191 119.969 44.3063 119.859 48.3536C119.828 49.4942 119.52 50.5776 118.881 51.5553C116.768 54.8187 111.76 55.9549 107.339 54.1581C103.727 52.6915 101.992 49.5911 102.723 45.8829C103.481 42.0206 106.757 39.5719 111.201 39.5455ZM111.641 53.176C112.421 53.035 113.218 52.9514 113.98 52.74C118.014 51.6213 119.172 47.966 116.552 44.7026C115.442 43.3198 114.068 42.3553 112.372 41.7872C109.298 40.7566 105.885 42.4037 104.797 45.513C103.714 48.609 105.181 51.432 108.492 52.555C109.496 52.8985 110.54 53.1363 111.641 53.176Z" fill="#582D91"/>
<path d="M74.942 61.0504C79.3064 61.1253 82.8869 64.9171 82.8296 69.4048C82.7724 73.9322 78.9805 77.5963 74.4356 77.5215C69.8862 77.4466 66.2661 73.69 66.341 69.1142C66.4203 64.4635 70.1461 60.9667 74.942 61.0504ZM74.6293 75.5749C78.1922 75.5352 80.9579 72.7123 80.9007 69.1758C80.8434 65.6394 77.9764 62.8825 74.4224 62.9397C71.0004 62.997 68.2832 65.798 68.2788 69.2771C68.2699 72.8356 71.0665 75.6101 74.6293 75.5749Z" fill="#582D91"/>
<path d="M224.493 13.0157C224.515 17.477 220.829 21.1544 216.345 21.1412C211.933 21.1324 208.282 17.5695 208.202 13.1919C208.123 8.69981 211.712 4.9652 216.187 4.88593C220.802 4.80666 224.475 8.40034 224.493 13.0157ZM216.341 19.1902C219.816 19.2078 222.582 16.4685 222.56 13.029C222.538 9.62906 219.715 6.79287 216.341 6.78406C212.95 6.77525 210.131 9.59383 210.109 13.0113C210.092 16.4201 212.866 19.1726 216.341 19.1902Z" fill="#582D91"/>
<path d="M329.375 3.78482C333.889 3.81124 337.337 7.2772 337.333 11.7825C337.329 16.2966 333.66 19.952 329.19 19.8991C324.76 19.8419 321.228 16.2702 321.219 11.831C321.214 7.29482 324.795 3.75839 329.375 3.78482ZM329.199 17.9481C332.603 17.9834 335.303 15.3938 335.391 12.0027C335.479 8.62043 332.66 5.67414 329.327 5.65212C325.922 5.6301 323.112 8.43986 323.13 11.853C323.139 15.2132 325.83 17.9129 329.199 17.9481Z" fill="#582D91"/>
<path d="M464.693 158.793C464.671 163.158 461.002 166.804 456.66 166.782C452.357 166.756 448.684 163.003 448.733 158.67C448.781 154.235 452.384 150.681 456.788 150.716C461.196 150.751 464.715 154.35 464.693 158.793ZM456.695 164.681C460.064 164.699 462.738 162.171 462.826 158.886C462.914 155.539 460.214 152.729 456.854 152.672C453.458 152.614 450.693 155.261 450.631 158.626C450.565 162.008 453.225 164.664 456.695 164.681Z" fill="#121212"/>
<path d="M374.389 178.21C378.785 178.215 382.391 181.782 382.444 186.182C382.502 190.634 378.833 194.347 374.372 194.351C369.941 194.356 366.127 190.608 366.141 186.265C366.154 181.897 369.933 178.202 374.389 178.21ZM374.403 192.405C377.86 192.387 380.573 189.599 380.515 186.124C380.458 182.804 377.635 180.051 374.319 180.091C370.849 180.131 368.202 182.892 368.255 186.411C368.307 189.85 370.945 192.422 374.403 192.405Z" fill="#582D91"/>
<path d="M84.3617 57.3158C84.4058 52.9823 88.0831 49.3798 92.4916 49.3578C96.715 49.3357 100.436 53.2069 100.375 57.5448C100.313 61.9224 96.5873 65.5557 92.2449 65.4677C87.8409 65.384 84.3177 61.733 84.3617 57.3158ZM92.2978 63.5079C95.7021 63.5431 98.415 60.8611 98.4194 57.4656C98.4238 53.9291 95.8915 51.5289 92.1084 51.4849C88.9287 51.4497 86.3259 54.0701 86.2995 57.3422C86.2731 60.7774 88.8935 63.477 92.2978 63.5079Z" fill="#582D91"/>
<path d="M246.544 10.3866C246.518 14.817 242.916 18.3579 238.503 18.2962C234.165 18.2345 230.699 14.7113 230.686 10.3558C230.672 5.94293 234.257 2.34925 238.666 2.36246C243.136 2.37568 246.575 5.87687 246.544 10.3866ZM238.67 16.3452C242.057 16.3232 244.73 13.5751 244.664 10.1884C244.602 7.01751 241.744 4.28262 238.538 4.31785C235.266 4.35308 232.579 7.04393 232.549 10.3073C232.522 13.65 235.275 16.3672 238.67 16.3452Z" fill="#582D91"/>
<path d="M393.873 21.3922C398.291 21.3922 401.814 24.9374 401.836 29.3987C401.853 33.5517 398.097 37.1674 393.794 37.1322C389.447 37.0969 386.012 33.6002 386.008 29.2093C386.003 24.8494 389.478 21.3966 393.873 21.3922ZM399.735 29.1125C399.77 25.9151 397.15 23.2683 393.935 23.2551C390.658 23.2375 387.915 25.9239 387.884 29.1741C387.853 32.4771 390.482 35.1592 393.785 35.1856C397.273 35.2164 399.696 32.7458 399.735 29.1125Z" fill="#582D91"/>
<path d="M315.736 10.2193C315.763 14.6321 312.191 18.2522 307.796 18.261C303.427 18.2698 299.794 14.6277 299.803 10.2413C299.812 5.96057 303.388 2.3713 307.69 2.31845C312.081 2.2656 315.71 5.82845 315.736 10.2193ZM307.752 16.3144C311.156 16.3232 313.847 13.6192 313.808 10.2281C313.772 6.91625 311.108 4.27824 307.805 4.28264C304.471 4.28705 301.789 6.88982 301.732 10.1664C301.674 13.5443 304.383 16.3056 307.752 16.3144Z" fill="#582D91"/>
<path d="M293.857 6.95578C293.764 12.408 290.461 15.8651 285.463 15.7418C281.165 15.6361 277.342 11.9147 277.421 7.91145C277.505 3.76287 281.812 0.195613 286.599 0.296906C290.567 0.384986 293.919 3.45899 293.857 6.95578ZM291.998 7.60317C292.082 4.58642 289.757 2.29633 286.546 2.23467C282.878 2.16421 279.46 4.80662 279.341 7.80576C279.222 10.871 282.226 13.7776 285.586 13.8481C289.158 13.9229 291.897 11.2541 291.998 7.60317Z" fill="#582D91"/>
<path d="M373.958 29.2136C369.008 29.2401 364.895 25.7389 364.912 21.5154C364.93 17.6267 368.449 14.6716 372.919 14.5571C376.693 14.4602 381.647 17.6971 381.489 21.4802C381.295 26.2057 378.595 29.1872 373.958 29.2136ZM379.441 22.405C379.489 18.9655 376.909 16.5565 373.077 16.4684C369.616 16.3891 366.876 18.644 366.872 21.5727C366.868 24.6687 369.981 27.2494 373.817 27.3331C377.045 27.3948 379.401 25.3293 379.441 22.405Z" fill="#582D91"/>
<path d="M464.813 146.453C460.03 146.255 455.234 139.684 456.529 135.104C457.493 131.695 460.911 129.414 464.483 129.797C468.098 130.185 471.062 133.615 471.344 137.751C471.608 141.644 469.64 144.299 466.566 146.339C465.998 146.717 465.399 146.435 464.813 146.453ZM469.393 138.398C469.49 137.434 469.274 136.39 468.825 135.412C467.803 133.21 466.209 131.638 463.659 131.642C461.426 131.642 459.691 132.774 458.713 134.8C457.603 137.103 458.194 139.204 459.779 141.085C460.651 142.119 461.77 142.837 462.968 143.441C465.584 144.753 467.508 144.092 468.772 141.419C469.204 140.508 469.45 139.543 469.393 138.398Z" fill="#582D91"/>
<path d="M473 117.003C473.04 121.421 469.508 125.054 465.113 125.107C460.731 125.16 457.049 121.57 457 117.21C456.956 112.828 460.541 109.156 464.91 109.111C469.314 109.067 472.956 112.621 473 117.003ZM464.95 111.058C461.55 111.084 458.903 113.797 458.947 117.215C458.991 120.61 461.713 123.209 465.157 123.147C468.557 123.081 471.124 120.368 471.049 116.907C470.983 113.612 468.283 111.027 464.95 111.058Z" fill="#582D91"/>
<path d="M193.376 24.3209C189.091 24.3032 185.616 20.8373 185.611 16.5742C185.607 12.2098 189.165 8.68218 193.503 8.74384C197.749 8.80549 201.188 12.3243 201.171 16.583C201.153 20.8329 197.621 24.3385 193.376 24.3209ZM193.332 22.3743C196.608 22.3963 199.202 19.8508 199.224 16.5962C199.246 13.3548 196.643 10.7124 193.424 10.6992C190.147 10.686 187.571 13.2227 187.545 16.4949C187.514 19.7583 190.073 22.3523 193.332 22.3743Z" fill="#582D91"/>
<path d="M353.597 7.61646C356.31 7.72656 358.432 9.10061 359.912 11.5801C360.48 12.5269 360.48 13.7997 361.586 14.4471C361.731 14.5308 361.749 14.9403 361.722 15.1914C361.37 18.7718 356.288 22.85 352.597 22.5241C348.316 22.1497 344.718 18.4063 344.908 14.5131C345.088 10.7785 348.906 7.67811 353.597 7.61646ZM359.009 15.1693C358.899 12.0425 356.226 9.46614 353.183 9.55422C349.677 9.65992 346.801 12.0953 346.854 14.9139C346.907 17.9175 350.188 20.7933 353.39 20.6523C356.195 20.529 359.097 17.6973 359.009 15.1693Z" fill="#582D91"/>
<path d="M178.556 22.1497C178.481 26.426 175.081 29.7158 170.823 29.6277C166.599 29.544 163.19 26.0164 163.314 21.8678C163.442 17.6576 166.987 14.2577 171.131 14.3722C175.491 14.4999 178.631 17.7897 178.556 22.1497ZM171.034 16.3232C167.872 16.2879 165.287 18.807 165.256 21.9515C165.225 25.0916 167.744 27.6943 170.88 27.7648C173.958 27.8309 176.623 25.2545 176.702 22.1277C176.777 19.155 174.042 16.354 171.034 16.3232Z" fill="#582D91"/>
<path d="M143.144 30.1034C143.21 25.8447 146.618 22.5505 150.868 22.6386C155.021 22.7222 158.324 26.0737 158.315 30.1871C158.307 34.3797 154.836 37.8412 150.67 37.8016C146.455 37.762 143.077 34.3092 143.144 30.1034ZM150.644 24.5323C147.512 24.5543 144.967 27.1791 145.028 30.3236C145.086 33.3712 147.614 35.8638 150.674 35.8814C153.819 35.9035 156.378 33.3579 156.386 30.1959C156.391 27.0778 153.788 24.5059 150.644 24.5323Z" fill="#582D91"/>
<path d="M451.16 92.3057C451.151 88.4522 454.269 85.387 458.176 85.4091C462.364 85.4311 466.143 89.4872 466.195 94.0145C466.24 97.9209 463.328 100.484 458.788 100.528C454.842 100.572 451.169 96.6085 451.16 92.3057ZM464.249 93.9925C464.2 90.5397 461.25 87.2984 458.136 87.2852C455.37 87.272 453.036 89.5973 453.045 92.3498C453.058 95.5295 455.978 98.7048 458.828 98.6343C461.188 98.5727 464.275 95.9347 464.249 93.9925Z" fill="#582D91"/>
<path d="M58.6821 88.1263C54.6921 88.1791 51.3803 85.0126 51.2702 81.0402C51.1601 76.9709 54.582 73.4785 58.6821 73.4785C62.4828 73.4785 65.8915 76.9533 65.9003 80.842C65.9135 84.7836 62.6501 88.0734 58.6821 88.1263ZM63.9537 80.9125C63.9978 77.953 61.6989 75.6145 58.6821 75.5572C55.6566 75.4956 53.3048 77.7108 53.2123 80.7055C53.1198 83.7091 55.5773 86.2458 58.5764 86.2458C61.5007 86.2414 63.9097 83.85 63.9537 80.9125Z" fill="#582D91"/>
<path d="M138.095 37.577C138.117 41.6507 134.977 44.8172 130.908 44.8304C126.971 44.8436 123.734 41.6904 123.677 37.784C123.619 33.7895 126.839 30.4689 130.824 30.4117C134.858 30.3588 138.073 33.5297 138.095 37.577ZM130.895 32.345C127.944 32.3582 125.597 34.7408 125.623 37.7047C125.645 40.5453 127.984 42.9103 130.82 42.9587C133.735 43.0116 136.188 40.6202 136.228 37.6871C136.268 34.8509 133.757 32.3318 130.895 32.345Z" fill="#582D91"/>
<path d="M336.66 139.142C335.824 147.237 333.741 154.865 328.403 161.312C324.039 166.588 319.009 170.777 311.835 171.472C311.245 171.53 310.923 171.9 310.545 172.296C296.54 186.82 280.976 199.425 263.193 209.008C251.526 215.292 238.913 219.049 225.552 219.388C205.839 219.886 189.033 213.099 175.531 198.57C171.809 194.567 168.163 190.493 164.503 186.433C163.675 185.517 162.702 184.909 161.548 184.473C157.162 182.813 152.652 181.782 147.975 181.285C144.606 180.923 141.827 181.809 138.964 183.597C133.433 187.054 128.24 191.075 122.299 193.858C110.466 199.407 97.8482 200.504 85.0193 200.257C76.0792 200.085 67.6323 197.756 60.2864 192.744C48.7875 184.9 39.2484 175.159 33.5716 162.136C30.7266 155.605 27.7759 149.122 25.4902 142.362C24.0413 138.077 21.5398 134.545 17.8757 131.845C8.45106 124.9 4.84417 114.656 2.11368 103.937C1.78778 102.66 2.0256 101.308 2.23259 99.9731C2.52766 98.0662 3.59783 97.9385 5.07318 98.4229C6.89204 99.0219 8.3894 100.127 9.69299 101.493C11.5779 103.47 13.4584 105.456 15.2685 107.504C18.9767 111.701 23.4908 114.436 29.0707 115.304C39.103 116.863 48.3691 120.879 57.7893 124.354C71.1511 129.286 84.7595 133.664 97.5532 139.979C110.219 146.229 122.727 152.839 133.679 161.933C136.128 163.968 138.766 165.848 140.268 168.804C140.638 169.53 141.197 169.631 141.941 169.358C149.151 166.707 155.972 168.059 162.539 171.494C163.878 172.195 164.772 172.441 166.163 171.292C168.52 169.341 171.356 168.059 174.236 166.976C185.647 162.686 196.996 158.04 209.208 156.635C223.618 154.975 237.944 151.932 252.561 152.835C263.003 153.482 273.423 154.499 283.856 155.349C297.134 156.433 310.091 155.429 322.299 149.461C327.438 146.951 332.208 143.974 335.855 139.455C336.013 139.253 336.15 138.984 336.66 139.142ZM245.008 160.559C227.37 160.687 212.74 161.392 198.361 164.699C190.808 166.439 183.405 168.592 176.707 172.653C174.113 174.225 171.875 176.163 170.321 178.849C169.237 180.716 168.564 182.381 170.748 183.984C171.356 184.429 171.734 185.239 172.104 185.94C176.733 194.629 184.035 200.596 192.464 205.132C212.247 215.781 232.409 214.817 252.553 206.185C262.735 201.82 270.424 194.25 277.308 185.794C279.998 182.487 282.716 179.179 284.468 175.242C287.481 168.464 285.34 164.298 278.122 162.796C277.862 162.744 277.594 162.713 277.334 162.669C265.641 160.837 253.878 160.238 245.008 160.559ZM91.6782 197.535C99.9666 197.518 109.695 195.342 118.6 191.674C124.832 189.106 130.015 185.151 134.045 179.73C135.886 177.255 135.842 174.634 133.922 172.225C132.878 170.913 131.561 169.883 130.253 168.848C127.848 166.954 125.378 165.126 123.061 163.131C117.459 158.313 111.329 154.314 104.489 151.553C89.8065 145.625 75.0839 139.777 60.3084 134.082C54.1648 131.713 47.8406 129.749 41.2434 129.031C33.8006 128.225 30.6385 131.779 32.0698 139.147C32.083 139.213 32.105 139.275 32.1227 139.341C36.2756 155.2 43.5687 169.213 54.9839 181.258C65.3642 192.211 78.2459 196.373 91.6782 197.535Z" fill="#582D91"/>
<path d="M40.9785 116.132C41.692 115.74 42.128 115.449 42.6036 115.242C47.7387 113.018 52.7328 110.499 57.7182 107.962C74.1452 99.6121 91.5631 93.6578 108.778 87.2808C128.31 80.045 148.084 73.4522 167.48 65.8245C173.658 63.3934 180.115 61.6847 186.818 63.1732C194.573 64.8952 200.14 69.3345 202.531 77.1912C202.685 77.6977 202.817 78.235 202.822 78.7547C202.897 88.3114 199.105 95.9435 191.16 101.294C188.544 103.056 185.518 103.562 182.48 101.832C181.616 101.338 181.506 100.885 182 100.101C182.876 98.7137 184.149 97.7492 185.457 96.8243C187.306 95.5208 189.271 94.3493 190.993 92.8916C197.017 87.7917 195.656 79.2303 188.359 76.2179C182.946 73.9807 177.393 74.3991 171.857 75.6983C165.278 77.2441 159.028 79.7456 152.955 82.6434C134.982 91.218 116.529 98.7269 98.4421 107.037C86.7054 112.428 75.092 118.091 63.4478 123.676C62.8048 123.984 62.338 123.922 61.7699 123.715C54.9569 121.231 48.1394 118.748 40.9785 116.132Z" fill="#4D4D4D"/>
<path d="M271.818 152.372C275.575 148.497 279.173 144.678 282.881 140.97C301.048 122.799 320.932 106.522 340.076 89.4299C348.47 81.9342 358.102 76.1694 368.491 71.7742C374.502 69.2286 380.567 68.8367 386.702 71.6773C391.233 73.7736 393.999 77.037 394.871 82.0003C396.131 89.1612 396.659 96.2869 394.444 103.364C392.431 109.79 387.71 113.515 381.633 113.485C380.972 113.48 380.294 113.423 379.655 113.264C376.815 112.555 376.37 111.291 378.356 109.116C380.787 106.456 383.121 103.756 385.002 100.651C388.111 95.5162 387.503 90.4604 384.825 85.4619C383.218 82.4539 379.77 81.0314 376.075 81.6127C372.811 82.128 369.777 83.2951 366.883 84.8497C357.424 89.9275 349.179 96.7053 340.869 103.386C323.16 117.624 307.385 133.717 294.125 152.209C293.301 153.359 292.447 153.847 290.993 153.79C284.599 153.539 278.222 153.02 271.818 152.372Z" fill="#4D4D4D"/>
<path d="M337.012 178.761C337.043 182.179 334.378 184.931 331.044 184.927C327.191 184.922 323.165 181.425 323.535 177.885C323.989 173.551 325.231 170.838 329.362 170.768C333.233 170.697 336.976 174.679 337.012 178.761Z" fill="#A896E8"/>
<path d="M268.275 9.71716C268.279 13.443 266.421 15.7991 263.439 15.852C259.282 15.9268 255.481 12.3772 255.53 8.47083C255.574 4.67456 258.251 1.90003 261.845 1.92646C266.104 1.95288 268.266 4.56887 268.275 9.71716Z" fill="#A896E8"/>
<path d="M431.508 59.8788C427.805 59.9184 424.722 56.9105 424.695 53.2287C424.669 49.5514 427.708 46.4994 431.416 46.4818C435.023 46.4642 438.031 49.406 438.119 53.0305C438.207 56.6903 435.164 59.8392 431.508 59.8788Z" fill="#A896E8"/>
<path d="M45.5237 90.3813C49.2627 90.4077 52.2266 93.4201 52.1518 97.1238C52.0769 100.828 49.0249 103.8 45.3344 103.761C41.6526 103.725 38.6975 100.673 38.7327 96.9345C38.768 93.1822 41.6966 90.3549 45.5237 90.3813Z" fill="#A896E8"/>
<path d="M350.647 190.824C346.983 190.784 344.09 187.847 344.108 184.187C344.13 180.593 347.151 177.568 350.731 177.563C354.453 177.559 357.403 180.589 357.35 184.359C357.298 188.01 354.338 190.863 350.647 190.824Z" fill="#A896E8"/>
<path d="M405.371 186.332C405.371 189.74 403.143 192.066 399.831 192.11C396.061 192.162 391.811 188.992 391.842 186.155C391.873 183.438 396.211 179.844 399.439 179.862C402.804 179.88 405.371 182.681 405.371 186.332Z" fill="#A896E8"/>
<path d="M442.66 73.5491C442.753 71.9637 443.026 70.6205 443.726 69.3697C445.91 65.481 450.253 65.0802 453.071 68.5197C454.023 69.678 454.573 71.0168 454.833 72.4745C455.027 73.5579 454.996 74.769 454.102 75.434C452.64 76.5218 451.468 77.9752 449.715 78.715C446.342 80.1375 443.823 78.922 442.973 75.3328C442.819 74.6942 442.744 74.0336 442.66 73.5491Z" fill="#A896E8"/>
<path d="M440.776 181.615C437.169 181.615 434.236 178.704 434.28 175.176C434.328 171.384 437.125 168.619 440.877 168.645C444.449 168.672 447.346 171.613 447.311 175.176C447.276 178.748 444.365 181.615 440.776 181.615Z" fill="#A896E8"/>
<path d="M414.976 32.8514C418.358 32.8117 421.265 35.5951 421.344 38.9553C421.428 42.4962 418.693 45.3984 415.192 45.4777C411.695 45.557 408.81 42.8 408.713 39.2856C408.616 35.8725 411.514 32.8954 414.976 32.8514Z" fill="#A896E8"/>
<path d="M413.364 184.301C413.483 180.492 416.191 177.81 419.811 177.924C423.321 178.034 426.061 180.958 425.937 184.468C425.819 187.86 422.925 190.612 419.534 190.555C416.09 190.502 413.263 187.635 413.364 184.301Z" fill="#A896E8"/>
<path d="M111.64 53.176C110.539 53.1364 109.499 52.8985 108.491 52.5594C105.175 51.4364 103.708 48.609 104.796 45.5174C105.884 42.4082 109.297 40.7611 112.371 41.7916C114.066 42.3597 115.44 43.3242 116.55 44.7071C119.171 47.9705 118.012 51.6214 113.978 52.7444C113.216 52.9514 112.419 53.0351 111.64 53.176Z" fill="#A896E8"/>
<path d="M74.6299 75.5747C71.0671 75.6144 68.2705 72.8398 68.2793 69.277C68.2837 65.7978 71.001 62.9924 74.4229 62.9396C77.977 62.8823 80.8396 65.6393 80.9012 69.1757C80.9585 72.7121 78.1884 75.5351 74.6299 75.5747Z" fill="#A896E8"/>
<path d="M216.343 19.1903C212.868 19.1727 210.093 16.4202 210.115 13.0071C210.137 9.58955 212.956 6.77539 216.347 6.77979C219.721 6.7886 222.544 9.62479 222.566 13.0247C222.583 16.4686 219.822 19.2079 216.343 19.1903Z" fill="#A896E8"/>
<path d="M329.198 17.9482C325.829 17.913 323.143 15.2134 323.125 11.8531C323.107 8.43997 325.917 5.63021 329.322 5.65223C332.66 5.67425 335.474 8.62054 335.386 12.0028C335.302 15.3939 332.603 17.9835 329.198 17.9482Z" fill="#A896E8"/>
<path d="M456.695 164.681C453.224 164.664 450.564 162.008 450.626 158.626C450.688 155.261 453.453 152.614 456.849 152.672C460.209 152.729 462.913 155.539 462.821 158.886C462.737 162.171 460.064 164.699 456.695 164.681Z" fill="#A896E8"/>
<path d="M374.402 192.405C370.95 192.422 368.312 189.85 368.259 186.411C368.201 182.892 370.853 180.126 374.323 180.091C377.635 180.051 380.462 182.808 380.52 186.124C380.572 189.599 377.859 192.387 374.402 192.405Z" fill="#A896E8"/>
<path d="M92.2993 63.5077C88.8949 63.4725 86.2746 60.7772 86.301 57.3421C86.3274 54.0743 88.9302 51.4495 92.1099 51.4847C95.8929 51.5288 98.4252 53.9245 98.4208 57.4654C98.4164 60.8653 95.7036 63.5429 92.2993 63.5077Z" fill="#A896E8"/>
<path d="M238.671 16.3453C235.275 16.3674 232.523 13.6501 232.549 10.3074C232.575 7.04405 235.266 4.3532 238.538 4.31796C241.749 4.28273 244.603 7.02203 244.664 10.1885C244.731 13.5708 242.057 16.3189 238.671 16.3453Z" fill="#A896E8"/>
<path d="M399.734 29.1126C399.695 32.7459 397.272 35.2165 393.784 35.1857C390.481 35.1593 387.852 32.4772 387.883 29.1742C387.914 25.924 390.658 23.2376 393.934 23.2552C397.149 23.2684 399.77 25.9152 399.734 29.1126Z" fill="#A896E8"/>
<path d="M307.752 16.3143C304.383 16.3054 301.674 13.5441 301.731 10.1662C301.784 6.88965 304.471 4.28688 307.805 4.28248C311.112 4.27807 313.772 6.91167 313.807 10.2279C313.847 13.619 311.156 16.3231 307.752 16.3143Z" fill="#A896E8"/>
<path d="M291.998 7.60327C291.897 11.2542 289.162 13.923 285.586 13.8482C282.226 13.7777 279.222 10.8711 279.341 7.80586C279.46 4.81112 282.878 2.16431 286.546 2.23477C289.752 2.29643 292.078 4.58652 291.998 7.60327Z" fill="#A896E8"/>
<path d="M379.44 22.4052C379.401 25.3295 377.04 27.395 373.816 27.3289C369.98 27.2496 366.871 24.6645 366.871 21.5684C366.875 18.6398 369.615 16.3849 373.076 16.4642C376.908 16.5523 379.489 18.9613 379.44 22.4052Z" fill="#A896E8"/>
<path d="M469.393 138.398C469.45 139.543 469.204 140.508 468.772 141.419C467.508 144.093 465.584 144.753 462.968 143.441C461.77 142.838 460.651 142.12 459.779 141.085C458.194 139.204 457.604 137.103 458.713 134.8C459.691 132.774 461.426 131.643 463.659 131.643C466.209 131.643 467.803 133.21 468.825 135.412C469.274 136.39 469.49 137.434 469.393 138.398Z" fill="#A896E8"/>
<path d="M464.948 111.058C468.282 111.032 470.982 113.617 471.048 116.902C471.123 120.359 468.555 123.077 465.155 123.143C461.711 123.209 458.99 120.61 458.946 117.21C458.906 113.797 461.549 111.084 464.948 111.058Z" fill="#A896E8"/>
<path d="M193.331 22.3742C190.067 22.3522 187.513 19.7582 187.539 16.4948C187.566 13.2271 190.146 10.6859 193.419 10.6991C196.638 10.7124 199.241 13.3592 199.219 16.5961C199.201 19.8507 196.607 22.3918 193.331 22.3742Z" fill="#A896E8"/>
<path d="M359.009 15.1693C359.097 17.6972 356.199 20.529 353.39 20.6567C350.184 20.7976 346.907 17.9218 346.854 14.9182C346.806 12.0953 349.677 9.66425 353.183 9.55855C356.221 9.46166 358.899 12.0424 359.009 15.1693Z" fill="#A896E8"/>
<path d="M171.032 16.3232C174.04 16.3541 176.779 19.1594 176.7 22.1233C176.621 25.2502 173.957 27.8265 170.878 27.7605C167.742 27.69 165.223 25.0916 165.254 21.9472C165.281 18.8071 167.87 16.288 171.032 16.3232Z" fill="#A896E8"/>
<path d="M150.644 24.5324C153.788 24.5103 156.391 27.0779 156.386 30.1959C156.378 33.358 153.819 35.9035 150.674 35.8815C147.614 35.8595 145.086 33.3712 145.028 30.3237C144.967 27.1748 147.512 24.5544 150.644 24.5324Z" fill="#A896E8"/>
<path d="M464.249 93.9925C464.275 95.9303 461.188 98.5727 458.827 98.6344C455.982 98.7048 453.058 95.5295 453.045 92.3498C453.036 89.5973 455.37 87.272 458.136 87.2852C461.25 87.2984 464.2 90.5398 464.249 93.9925Z" fill="#A896E8"/>
<path d="M63.9534 80.9126C63.9094 83.8501 61.496 86.2414 58.5717 86.2458C55.577 86.2502 53.1151 83.7091 53.2076 80.7056C53.3001 77.7109 55.6518 75.4956 58.6774 75.5573C61.6985 75.6145 64.0018 77.9531 63.9534 80.9126Z" fill="#A896E8"/>
<path d="M130.895 32.345C133.757 32.3318 136.268 34.8465 136.228 37.6915C136.189 40.6246 133.735 43.016 130.82 42.9631C127.979 42.9103 125.645 40.5497 125.623 37.7091C125.597 34.7452 127.94 32.3626 130.895 32.345Z" fill="#A896E8"/>
<path d="M245.008 160.559C253.873 160.238 265.641 160.837 277.333 162.669C277.598 162.708 277.862 162.739 278.122 162.796C285.34 164.303 287.48 168.464 284.468 175.242C282.72 179.179 280.002 182.487 277.307 185.794C270.424 194.25 262.734 201.82 252.552 206.185C232.408 214.817 212.246 215.781 192.464 205.132C184.034 200.596 176.732 194.629 172.104 185.94C171.729 185.239 171.351 184.429 170.747 183.984C168.563 182.381 169.237 180.716 170.32 178.849C171.875 176.167 174.112 174.225 176.706 172.653C183.4 168.592 190.808 166.439 198.361 164.699C212.74 161.392 227.37 160.687 245.008 160.559ZM237.962 162.506C228.907 162.748 216.25 163.069 203.764 165.536C195.445 167.183 187.24 169.169 179.67 173.146C177.063 174.516 174.627 176.123 172.804 178.523C171.531 180.197 170.853 181.698 172.751 183.509C173.729 184.442 174.284 185.829 174.98 187.041C177.274 191.039 180.467 194.206 184.083 197.007C187.571 199.706 191.715 201.063 195.714 202.666C209.763 208.294 223.948 207.405 238.265 203.613C251.385 200.138 260.788 191.92 268.107 180.959C271.137 176.422 272.758 171.428 271.842 165.813C271.573 164.17 270.904 163.704 269.314 163.51C260.092 162.4 250.83 162.36 237.962 162.506ZM199.955 206.524C201.342 207.11 202.694 207.832 204.13 208.268C212.471 210.791 221.054 211.386 229.638 210.523C252.728 208.193 269.402 195.791 281.597 176.665C282.856 174.687 283.702 172.507 283.794 170.103C283.873 167.993 282.949 166.522 281.028 165.681C279.117 164.84 277.06 164.602 275.03 164.219C273.572 163.941 273.475 164.47 273.705 165.655C274.665 170.6 273.498 175.229 271.141 179.518C266.764 187.481 260.792 194.175 253.164 199.033C240.93 206.828 227.18 208.92 212.925 208.462C208.551 208.321 204.253 207.603 199.955 206.524Z" fill="#A896E8"/>
<path d="M91.6782 197.535C78.2503 196.373 65.3642 192.215 54.9839 181.254C43.5731 169.209 36.2756 155.195 32.1226 139.336C32.105 139.27 32.083 139.208 32.0698 139.142C30.6385 131.779 33.805 128.22 41.2434 129.026C47.8406 129.744 54.1647 131.708 60.3084 134.078C75.0838 139.772 89.8065 145.621 104.489 151.549C111.329 154.31 117.459 158.309 123.061 163.127C125.382 165.122 127.848 166.949 130.253 168.843C131.565 169.874 132.878 170.909 133.922 172.221C135.842 174.63 135.886 177.246 134.045 179.725C130.015 185.147 124.832 189.102 118.6 191.669C109.695 195.342 99.9665 197.518 91.6782 197.535ZM91.4315 188.247C94.4439 188.322 97.4166 187.904 100.385 187.477C107.356 186.472 113.8 184.055 119.56 180.003C123.092 177.519 125.765 174.37 126.21 169.799C126.294 168.931 126.228 168.271 125.536 167.663C118.336 161.339 110.607 155.856 101.6 152.341C92.5502 148.805 83.5175 145.229 74.4849 141.644C65.6416 138.129 56.8776 134.39 47.5807 132.162C44.7313 131.479 41.8863 130.735 38.9268 130.784C35.2539 130.841 33.5407 132.616 33.6905 136.297C33.7433 137.614 33.9635 138.957 34.3114 140.23C36.9274 149.787 40.5123 158.969 46.2287 167.108C49.9105 172.349 54.3101 177.039 60.0045 180.232C69.7594 185.693 80.3466 187.965 91.4315 188.247ZM128.152 169.953C127.597 174.938 124.818 178.488 121.009 181.315C116.852 184.407 112.192 186.582 107.211 187.93C91.9072 192.061 77.1229 190.163 62.7746 183.799C62.0832 183.491 61.3917 183.178 60.7444 182.883C60.4493 183.376 60.555 183.605 60.762 183.786C63.9152 186.565 67.0333 189.45 71.0674 190.89C82.9406 195.135 94.9327 197.275 107.453 193.484C115.557 191.031 123.422 188.265 129.694 182.293C135.067 177.176 134.749 174.154 128.557 170.01C128.513 169.984 128.439 169.997 128.152 169.953ZM59.6918 182.954C59.8019 183.015 59.9076 183.09 60.0221 183.143C60.2731 183.257 60.3568 183.112 60.2995 182.91C60.2775 182.835 60.0926 182.76 59.9869 182.764C59.8812 182.769 59.7887 182.879 59.6918 182.954Z" fill="#A896E8"/>
<path d="M237.961 162.506C250.829 162.36 260.091 162.4 269.317 163.514C270.907 163.708 271.577 164.175 271.845 165.818C272.761 171.433 271.141 176.427 268.111 180.963C260.791 191.92 251.393 200.142 238.269 203.617C223.951 207.409 209.766 208.299 195.717 202.67C191.714 201.067 187.574 199.715 184.086 197.011C180.471 194.21 177.278 191.044 174.983 187.045C174.287 185.834 173.732 184.447 172.755 183.513C170.857 181.707 171.539 180.205 172.808 178.528C174.631 176.127 177.066 174.52 179.673 173.15C187.248 169.173 195.449 167.183 203.768 165.54C216.249 163.069 228.906 162.748 237.961 162.506Z" fill="#9CDDE8"/>
<path d="M199.955 206.524C204.258 207.607 208.552 208.325 212.921 208.466C227.176 208.924 240.926 206.832 253.16 199.037C260.788 194.175 266.76 187.481 271.137 179.523C273.498 175.233 274.66 170.605 273.7 165.659C273.471 164.47 273.568 163.946 275.026 164.223C277.056 164.606 279.109 164.844 281.024 165.685C282.944 166.531 283.874 167.998 283.79 170.107C283.697 172.512 282.856 174.687 281.592 176.669C269.398 195.8 252.724 208.202 229.634 210.527C221.05 211.395 212.462 210.796 204.126 208.272C202.69 207.832 201.342 207.11 199.955 206.524Z" fill="#A896E8"/>
<path d="M91.4313 188.247C80.3463 187.965 69.7591 185.693 60.0086 180.232C54.3098 177.039 49.9102 172.349 46.2328 167.108C40.5164 158.965 36.9315 149.787 34.3155 140.23C33.9676 138.957 33.7474 137.619 33.6946 136.297C33.5448 132.616 35.258 130.841 38.9309 130.783C41.8904 130.735 44.7354 131.479 47.5848 132.162C56.8817 134.39 65.6457 138.134 74.489 141.644C83.5172 145.229 92.5543 148.809 101.605 152.341C110.611 155.856 118.34 161.339 125.54 167.663C126.232 168.271 126.298 168.931 126.214 169.799C125.769 174.37 123.096 177.519 119.564 180.003C113.804 184.055 107.356 186.472 100.389 187.476C97.4163 187.904 94.4436 188.322 91.4313 188.247Z" fill="#9CDDE8"/>
<path d="M128.152 169.953C128.434 169.993 128.513 169.984 128.562 170.015C134.754 174.154 135.071 177.176 129.698 182.297C123.427 188.269 115.565 191.035 107.458 193.488C94.937 197.28 82.9449 195.14 71.0717 190.894C67.0376 189.454 63.9195 186.569 60.7663 183.79C60.5593 183.61 60.4536 183.381 60.7486 182.888C61.396 183.178 62.0875 183.495 62.7789 183.804C77.1272 190.167 91.9115 192.066 107.215 187.935C112.196 186.591 116.851 184.416 121.013 181.32C124.818 178.488 127.597 174.943 128.152 169.953Z" fill="#A896E8"/>
<path d="M59.6914 182.949C59.7883 182.879 59.8852 182.769 59.9865 182.76C60.0922 182.751 60.2815 182.83 60.2992 182.905C60.3564 183.112 60.2727 183.258 60.0217 183.139C59.9072 183.09 59.8015 183.015 59.6914 182.949Z" fill="#F8F8F8"/>
</svg>
