<svg width="84" height="67" viewBox="0 0 84 67" fill="none" xmlns="http://www.w3.org/2000/svg">
<path d="M0 8.375C0 6.15381 0.884997 4.0236 2.4603 2.45298C4.03561 0.882363 6.17218 0 8.4 0H29.4C30.5138 0.000237169 31.5819 0.441575 32.3694 1.22694L39.5388 8.375H75.6C77.8278 8.375 79.9644 9.25736 81.5397 10.828C83.115 12.3986 84 14.5288 84 16.75V58.625C84 60.8462 83.115 62.9764 81.5397 64.547C79.9644 66.1176 77.8278 67 75.6 67H8.4C6.17218 67 4.03561 66.1176 2.4603 64.547C0.884997 62.9764 0 60.8462 0 58.625V8.375Z" fill="#FFE00A"/>
<path d="M8 13.625C8 11.8679 8.70589 11.1828 9.96238 9.94042C11.2189 8.69799 12.923 8 14.7 8H28.45C29.3384 8.00019 30.1903 8.34931 30.8184 8.97056L36.5369 14.625H68.3C70.077 14.625 71.7811 15.323 73.0376 16.5654C74.2941 17.8078 75 18.4929 75 20.25V53.375C75 55.1321 74.2941 56.8172 73.0376 58.0596C71.7811 59.302 70.077 60 68.3 60H14.7C12.923 60 11.2189 59.302 9.96238 58.0596C8.70589 56.8172 8 55.1321 8 53.375V13.625Z" fill="#FFE00A"/>
</svg>
