<svg width="78" height="61" viewBox="0 0 78 61" fill="none" xmlns="http://www.w3.org/2000/svg">
<path d="M2.11894 37.6555C0.732435 35.3457 0 32.7024 0 30.0084C0 27.3144 0.732435 24.6711 2.11894 22.3613C2.54504 21.6502 3.11521 21.036 3.79281 20.5584C4.47041 20.0807 5.24044 19.7501 6.05342 19.5877L12.7615 18.2446C13.1615 18.1653 13.5223 17.9514 13.7837 17.6383L21.9776 7.80015C26.6609 2.17379 29.0066 -0.635419 31.0946 0.121365C33.1827 0.878149 33.1907 4.53924 33.1907 11.8614V48.1633C33.1907 55.4815 33.1907 59.1386 31.0986 59.8994C29.0105 60.6522 26.6649 57.843 21.9815 52.2206L13.7758 42.3784C13.5154 42.0662 13.1561 41.8523 12.7575 41.7722L6.04946 40.429C5.23648 40.2667 4.46644 39.9361 3.78885 39.4584C3.11125 38.9807 2.54504 38.3666 2.11894 37.6555Z" fill="#FFE00A"/>
<path d="M49.6738 16.0331C53.3707 19.7298 55.4565 24.738 55.4765 29.966C55.4965 35.194 53.4492 40.218 49.7808 43.943M66.0021 7.62921C71.9171 13.5435 75.2545 21.556 75.2872 29.9204C75.3199 38.2848 72.045 46.3231 66.1765 52.2834" stroke="#FFE00A" stroke-width="5" stroke-linecap="round"/>
</svg>
