<?xml version="1.0" encoding="UTF-8"?>
<svg id="Camada_2" data-name="Camada 2" xmlns="http://www.w3.org/2000/svg" viewBox="0 0 213.3 222.15">
  <defs>
    <style>
      .cls-1 {
        fill: #820f25;
      }

      .cls-2 {
        fill: #b11f34;
      }

      .cls-3 {
        fill: #bc1d1d;
      }

      .cls-4 {
        fill: #e5d33b;
      }

      .cls-5 {
        fill: #a5a5a5;
      }
    </style>
  </defs>
  <g id="portas_abertas" data-name="portas abertas">
    <g id="_1" data-name="1">
      <polygon class="cls-1" points="101.47 23.85 193.79 23.85 200.92 210.35 190.13 210.4 184.68 32.7 110.47 33.04 103.66 208.36 92.47 208.48 101.47 23.85"/>
      <g>
        <polygon class="cls-5" points="80.41 208.48 92.47 208.48 101.47 23.85 193.79 23.85 200.92 210.35 213.3 210.64 206.23 12.85 194.32 12.17 180.41 5.29 167.83 7.06 156.82 0 142.36 0 133.56 6.81 119.72 5.29 101.72 12.94 89.47 13.7 80.41 208.48"/>
        <ellipse class="cls-3" cx="149.28" cy="9.23" rx="5.43" ry="4.98"/>
      </g>
      <polygon class="cls-2" points="101.47 23.85 16.34 33.55 0 222.15 92.89 208.49 101.47 23.85"/>
      <path class="cls-4" d="M35.54,142.81c-.42.46-1.93,0-4.18-.99-3.51-1.67-8.07-3.59-11.11-6.17-5.37-4.58-2.16-10.38,3.3-8.18,4.73,2.02,7.86,7.84,10.65,11.76,1.15,1.82,1.72,3.06,1.38,3.53l-.05.06Z"/>
    </g>
  </g>
</svg>