<svg width="420" height="315" viewBox="0 0 420 315" fill="none" xmlns="http://www.w3.org/2000/svg">
<path d="M28.5645 232.555L14.5645 235.555L3.56445 242.555L2.56445 255.555L8.56445 269.555L24.5645 282.555L51.5645 294.555L100.564 307.555L132.564 311.555L151.564 312.555L181.564 310.555L218.564 308.555L253.564 304.555L295.564 296.555L334.564 285.555L363.564 271.555L388.564 251.555L406.564 231.555L414.564 215.555L417.564 202.555L415.564 190.555L403.564 171.555L386.564 158.555L372.304 151.885L372.564 167.555L367.564 190.555L357.564 209.555L334.564 233.555L308.564 248.555L275.034 260.805L231.564 272.555L187.564 274.555L139.564 271.555L105.564 264.555L75.8045 255.695C67.7745 251.765 59.7445 248.825 51.7045 244.895C43.9945 241.115 36.2745 236.335 28.5645 232.555Z" fill="#61B3E5" stroke="#61B3E5" stroke-miterlimit="10"/>
<path d="M28.5645 232.555L20.5645 185.555L24.5645 163.555L35.5645 145.555L39.5645 112.555L60.5645 72.5547L96.5645 43.5547L120.564 26.5547L140.564 8.55469L161.564 2.55469L178.564 4.55469L201.564 10.5547L220.564 9.55469L250.564 11.5547L278.564 20.5547L305.564 37.5547L328.564 61.5547L344.564 84.5547L357.564 116.555L371.564 148.555L373.564 157.555L369.564 186.555L353.564 215.555L330.564 235.555L295.564 253.555L261.564 265.555L222.564 272.555L175.564 274.555L118.564 267.555L77.5645 256.555L28.5645 232.555Z" fill="#61B3E5" stroke="#61B3E5" stroke-miterlimit="10"/>
<path d="M279.225 240.274C307.391 240.274 330.225 217.441 330.225 189.274C330.225 161.108 307.391 138.274 279.225 138.274C251.058 138.274 228.225 161.108 228.225 189.274C228.225 217.441 251.058 240.274 279.225 240.274Z" fill="#F2F2F2"/>
<path d="M247.225 210.274L248.225 169.274L250.225 166.274L266.225 165.274L271.225 166.274L273.225 170.274C273.225 170.274 273.225 174.274 274.225 172.274C275.225 170.274 275.225 170.274 275.225 170.274L276.225 165.274L278.345 163.574L297.225 163.274L304.225 182.274L310.225 196.274L311.225 198.274L313.225 203.274" fill="#61B3E5"/>
<path d="M247.225 210.274L248.225 169.274L250.225 166.274L266.225 165.274L271.225 166.274L273.225 170.274C273.225 170.274 273.225 174.274 274.225 172.274C275.225 170.274 275.225 170.274 275.225 170.274L276.225 165.274L278.345 163.574L297.225 163.274L304.225 182.274L310.225 196.274L311.225 198.274L313.225 203.274" stroke="#61B3E5" stroke-miterlimit="10"/>
<path d="M21.3848 238.055C31.4048 231.805 46.7848 237.065 58.4348 243.035C69.5648 248.735 78.5248 254.585 84.5248 268.365" fill="#61B3E5"/>
<path d="M21.3848 238.055C31.4048 231.805 46.7848 237.065 58.4348 243.035C69.5648 248.735 78.5248 254.585 84.5248 268.365" stroke="#61B3E5" stroke-miterlimit="10"/>
<path d="M277.725 193.274C281.867 193.274 285.225 190.364 285.225 186.774C285.225 183.185 281.867 180.274 277.725 180.274C273.582 180.274 270.225 183.185 270.225 186.774C270.225 190.364 273.582 193.274 277.725 193.274Z" fill="black"/>
<path d="M268.445 180.274L259.225 185.274L256.225 189.274L255.225 190.274V191.274L257.115 193.274L264.665 195.274L272.225 194.274L268.445 180.274Z" fill="#F2F2F2"/>
<path d="M285.224 193.274L293.594 190.584L297.224 187.274L298.224 185.274L296.934 184.144L295.224 182.274L289.224 179.274L284.584 180.104L285.224 193.274Z" fill="#F2F2F2"/>
<path d="M153.254 314.164C110.504 314.724 72.4943 304.164 35.3743 289.624C26.0343 285.964 17.4943 280.684 10.2543 273.584C5.42429 268.844 1.58429 263.494 0.414289 256.594C-1.46571 245.564 3.07429 237.684 13.5943 233.924C15.4743 233.254 17.4043 232.454 19.3543 232.324C25.2943 231.924 25.2943 228.884 23.8543 224.184C20.8243 214.304 18.7743 204.204 18.0543 193.834C17.1543 180.884 18.9443 168.634 25.9343 157.394C31.1143 149.054 34.0743 139.904 34.8443 130.124C37.9443 91.0444 60.6143 64.6244 91.7243 44.4944C103.524 36.8644 115.374 29.7444 125.064 19.4144C131.034 13.0544 138.144 8.04444 146.134 4.46444C158.634 -1.13556 171.394 -1.70556 183.874 4.11444C193.594 8.64444 203.574 9.67444 214.044 8.70444C251.914 5.22444 284.874 15.9444 313.064 41.9244C332.334 59.6744 346.774 80.2444 355.684 104.944C360.754 119.014 367.124 132.604 372.614 146.534C373.874 149.714 375.874 151.084 378.794 152.324C389.724 156.934 398.894 164.094 406.704 172.924C421.684 189.854 423.524 207.904 411.354 226.984C396.094 250.904 374.834 268.314 349.374 280.454C323.624 292.724 295.794 298.114 268.194 304.384C241.974 310.334 215.264 309.964 188.734 312.034C176.144 313.014 163.564 314.854 153.254 314.164ZM36.5543 230.584C36.9043 232.684 35.8143 233.174 34.9543 233.434C32.4243 234.194 29.8443 234.854 27.2343 235.334C24.2943 235.874 21.2543 235.894 18.3643 236.594C4.52429 239.964 -0.0257115 250.794 7.02429 263.244C9.19429 267.074 12.1943 270.174 15.4843 273.024C21.0643 277.854 27.2443 281.854 34.0543 284.624C68.7843 298.784 104.404 309.094 142.274 310.084C162.664 310.624 182.864 308.274 203.144 307.124C215.444 306.424 227.834 306.404 240.044 304.894C266.854 301.574 293.104 295.404 319.034 287.864C343.684 280.694 366.014 269.274 385.044 251.784C394.414 243.174 403.054 233.974 409.324 222.794C418.164 207.014 417.114 192.274 405.944 178.174C399.244 169.714 391.024 162.974 381.474 157.934C379.544 156.914 377.654 155.064 375.194 156.774C373.234 196.284 359.114 220.094 325.074 240.884C319.124 244.514 312.894 247.744 306.604 250.784C279.684 263.804 251.324 271.914 221.574 274.984C172.824 280.014 125.184 274.674 78.6743 259.264C76.7543 258.624 73.7143 258.764 73.8043 253.844C114.844 267.164 156.374 274.944 200.084 272.174C199.284 269.684 199.014 268.394 198.484 267.234C187.474 243.024 184.524 217.444 185.224 191.164C186.114 157.724 203.064 134.164 230.314 116.804C240.434 110.364 251.364 108.904 262.914 111.914C264.714 112.384 267.074 112.484 266.124 115.504C263.394 116.664 260.874 115.414 258.304 114.934C251.584 113.684 244.754 113.764 238.744 116.954C217.504 128.224 200.564 143.634 193.094 167.404C188.734 181.294 188.574 195.664 189.324 210.004C190.354 229.774 194.134 248.944 202.624 267.034C204.454 270.934 206.604 272.474 210.984 272.134C221.624 271.294 232.194 270.014 242.644 267.894C273.924 261.534 303.484 250.804 330.164 232.954C344.854 223.124 356.634 210.614 363.714 194.194C371.974 175.044 373.964 155.824 364.524 136.254C359.904 126.674 355.784 116.804 352.244 106.774C342.884 80.2944 326.774 58.8944 305.664 40.5944C286.534 24.0144 264.344 15.4844 239.684 12.3744C231.704 11.3744 223.724 11.8944 213.664 12.6644C254.184 33.1744 271.954 49.9144 271.494 66.1644C270.344 66.4844 269.504 65.9744 269.094 64.9944C257.164 36.9744 233.604 23.8444 206.084 15.8544C197.794 13.4444 189.084 12.2044 181.424 8.02444C172.984 3.41444 164.334 3.25444 155.294 5.51444C145.994 7.84444 137.754 12.3844 131.244 19.1544C119.094 31.8144 104.294 40.5344 90.0043 50.3344C62.2743 69.3444 41.5143 93.9044 38.9143 129.714C38.1343 140.464 34.8543 150.574 29.1143 159.834C22.5143 170.464 20.7443 182.194 21.9443 194.414C22.7943 203.034 24.2843 211.554 26.7243 219.914C28.3243 225.374 28.6843 231.684 36.5543 230.584Z" fill="#4098F6"/>
<path d="M278.714 135.684C308.174 135.684 332.104 159.314 332.444 188.774C332.794 218.504 308.584 242.784 278.634 242.734C248.634 242.684 224.714 218.654 225.034 188.664C225.364 156.294 253.574 134.284 278.714 135.684ZM279.414 139.664C251.764 139.374 229.404 160.974 229.054 188.314C228.694 216.294 250.624 238.764 278.514 238.994C305.644 239.224 328.204 216.984 328.534 189.684C328.864 162.444 306.784 139.954 279.414 139.664Z" fill="#4098F6"/>
<path d="M118.584 40.8544C119.004 40.0744 119.304 38.6644 119.914 38.5144C132.654 35.4344 145.474 33.9844 158.254 38.1544C164.674 40.2544 170.284 43.8644 174.854 48.8544C182.934 57.6844 190.844 66.6544 198.804 75.5844C199.664 76.5444 200.404 77.6344 199.904 79.1144C197.384 80.9844 196.354 78.5344 195.164 77.2644C189.744 71.4144 183.834 65.8844 179.214 59.4444C166.314 41.4844 148.764 37.2044 128.154 40.5744C125.274 41.0444 122.494 42.6744 119.434 41.6044C119.174 41.5144 118.974 41.2144 118.584 40.8544Z" fill="#4098F6"/>
<path d="M45.6445 158.714C53.0745 155.984 59.1745 158.434 64.4645 163.534C70.1045 168.974 74.0045 175.624 75.9045 183.144C79.3445 196.714 81.5345 210.514 81.6445 224.564C81.6545 225.804 81.8245 227.294 80.1445 227.994C77.3045 227.534 78.0645 225.124 77.9945 223.434C77.5545 213.094 75.7045 202.924 74.2145 192.724C73.5045 187.804 72.2045 182.954 70.0545 178.394C64.6745 166.954 60.9045 164.014 45.6445 158.714Z" fill="#4098F6"/>
<path d="M310.825 198.184C314.455 197.954 314.065 201.094 315.535 204.274C291.675 203.784 269.135 210.914 246.255 211.884C246.255 198.494 246.145 185.744 246.395 172.994C246.425 171.434 245.295 168.004 249.185 168.184L248.965 168.004C247.955 179.944 249.855 191.994 247.535 203.894C247.245 205.404 246.985 207.464 249.045 208.084C253.985 209.564 258.975 208.354 263.895 207.804C267.925 207.354 265.365 202.404 268.055 200.814C275.545 207.614 277.695 207.804 285.115 201.714C286.285 200.754 287.355 199.884 288.415 200.744C295.445 206.464 302.875 200.344 310.045 201.474C310.195 201.494 310.715 199.224 311.055 198.034L310.825 198.184Z" fill="#4098F6"/>
<path d="M277.075 164.084C283.445 158.944 290.775 162.554 297.635 161.904C298.425 161.834 298.955 163.044 299.205 164.124C301.855 175.524 306.815 186.034 311.685 196.584C311.835 196.914 311.135 197.634 310.825 198.174L311.065 198.024C307.585 195.704 307.065 191.534 305.025 188.324C304.005 186.714 304.595 183.584 301.195 184.124C301.185 184.114 301.385 184.314 301.385 184.314C301.785 183.814 302.605 183.214 302.515 182.824C298.215 163.724 297.965 163.544 278.805 164.434C278.175 164.464 277.535 164.104 276.895 163.924L277.075 164.084Z" fill="#4098F6"/>
<path d="M249.195 168.184C248.555 166.914 248.565 165.054 249.805 164.934C256.905 164.284 264.175 161.654 271.005 166.094L271.185 165.964C263.835 167.184 256.135 164.664 248.985 168.014L249.195 168.184Z" fill="#4098F6"/>
<path d="M270.995 166.094C274.365 169.494 274.865 164.194 277.075 164.084L276.905 163.944C277.775 167.464 277.475 170.684 274.275 174.024C273.235 170.884 268.965 169.914 271.175 165.964L270.995 166.094Z" fill="#4098F6"/>
<path d="M288.905 191.944C287.945 194.994 284.925 195.324 282.695 195.674C273.855 197.054 264.985 197.284 256.345 194.174C254.885 193.644 252.655 193.834 253.045 191.554C253.385 189.584 254.735 188.034 257.145 188.164L256.955 187.984C256.885 189.784 255.795 191.684 258.535 192.824C262.675 194.534 266.795 194.654 271.985 193.884C268.755 190.134 269.685 185.844 269.055 182.204C265.585 181.604 263.825 185.054 260.915 183.974L261.095 184.134C270.175 176.344 280.015 174.164 290.935 180.144L291.125 179.954C289.195 180.084 287.265 180.224 284.625 180.404C285.465 183.894 287.265 187.114 285.875 190.744C285.465 191.814 287.925 191.784 289.095 192.184L288.905 191.944ZM278.055 192.754C281.385 192.974 284.645 190.284 284.415 186.964C284.145 183.034 281.305 181.324 277.805 180.844C274.875 180.444 271.065 183.934 271.225 186.824C271.445 190.844 274.325 192.224 278.055 192.754Z" fill="#4098F6"/>
<path d="M296.964 184.124C298.434 184.184 299.904 184.244 301.384 184.314C301.394 184.314 301.194 184.124 301.194 184.124C298.214 188.484 294.404 191.544 288.904 191.934L289.094 192.154C290.874 188.534 296.464 188.654 297.154 183.964L296.964 184.124Z" fill="#4098F6"/>
<path d="M257.145 188.154C256.985 185.364 258.835 184.534 261.105 184.114L260.925 183.954C261.255 186.924 259.165 187.504 256.965 187.974L257.145 188.154Z" fill="#4098F6"/>
<path d="M290.943 180.124C292.653 180.044 294.203 180.264 294.963 182.104L295.153 181.934C293.233 182.424 291.343 182.854 291.133 179.934L290.943 180.124Z" fill="#4098F6"/>
<path d="M294.965 182.104C296.235 182.174 297.355 182.404 296.965 184.124L297.155 183.964C295.935 183.824 294.095 184.314 295.155 181.934L294.965 182.104Z" fill="#4098F6"/>
</svg>
