<svg width="360" height="200" viewBox="0 0 360 200" fill="none" xmlns="http://www.w3.org/2000/svg">
<path d="M80.8585 160.023C60.8785 161.333 40.8885 162.043 20.9985 159.203C17.3885 158.693 13.7185 158.113 10.3085 156.903C-0.801471 152.973 -3.10147 144.433 4.23853 135.023C7.55853 130.773 11.7785 127.493 16.2285 124.543C28.1985 116.623 40.7185 109.693 54.3485 105.093C58.1085 103.823 59.3885 102.793 59.8285 98.1027C60.5585 90.2527 64.7685 82.8727 69.1485 76.2627C89.5285 45.5027 116.049 21.9827 151.039 8.97273C165.229 3.69273 179.819 3.83271 194.319 7.48271C206.569 10.5627 218.649 14.3127 230.839 17.6327C238.809 19.8027 239.249 19.9427 243.519 12.9727C255.739 -7.01727 282.409 -1.93727 291.269 14.8727C293.279 18.6827 295.909 22.5827 296.399 26.6727C297.019 31.8027 300.009 33.1427 303.879 34.5427C316.519 39.1027 328.319 45.1327 337.849 54.8827C350.379 67.7027 358.499 82.8327 359.369 100.893C360.959 134.053 356.929 166.033 337.679 194.513C334.629 199.023 331.789 200.683 326.259 199.653C298.659 194.543 270.609 194.633 242.709 193.003C234.409 192.513 226.099 192.613 217.779 191.833C199.749 190.143 183.539 183.783 168.569 173.963C151.569 162.813 133.449 157.273 112.789 159.803C102.299 161.083 91.5085 160.023 80.8585 160.023ZM65.4985 100.833C67.8785 102.533 69.8685 101.753 71.8085 101.623C81.3285 101.013 90.5085 102.603 98.7685 107.303C103.409 109.943 107.879 110.293 112.999 110.133C135.129 109.433 156.099 113.793 174.459 126.813C185.919 134.933 198.069 141.593 210.849 147.363C227.099 154.683 241.909 164.463 253.099 178.443C258.699 185.433 264.929 188.473 273.409 188.273C275.729 188.213 278.089 188.273 280.389 188.603C285.029 189.263 287.739 187.873 289.059 182.933C291.959 172.013 295.079 161.193 297.019 150.013C301.339 125.153 299.789 100.243 298.299 75.3327C297.739 65.9627 294.769 57.1827 290.519 48.7227C285.339 38.3927 277.769 32.3727 266.009 30.8427C244.879 28.1027 224.149 23.3427 203.869 16.6927C200.089 15.4527 196.179 14.5627 192.299 13.6627C175.859 9.82274 160.079 11.5227 144.619 18.5327C117.519 30.8127 96.2985 50.0527 78.6585 73.5227C72.4785 81.7127 68.2485 91.0827 65.4985 100.833ZM294.349 188.623C304.369 189.953 313.249 191.023 322.099 192.333C330.449 193.573 330.229 193.543 334.699 186.643C351.439 160.783 354.339 131.783 352.879 102.243C351.309 70.6727 325.529 43.9927 292.819 38.8827C294.119 41.5027 295.149 43.7827 296.339 45.9727C300.689 53.9627 303.749 62.4827 304.399 71.4927C306.199 96.7027 307.999 121.903 304.089 147.163C301.929 160.993 298.019 174.353 294.349 188.623ZM140.079 152.643C128.419 141.323 118.719 130.023 107.239 120.473C92.4485 108.163 75.8785 105.133 57.7285 110.923C42.4085 115.813 28.5385 123.633 15.5985 133.113C12.6385 135.283 9.93853 137.823 8.03853 140.983C5.59853 145.053 6.35853 147.903 10.5185 149.993C14.1085 151.793 18.0585 152.393 22.0485 152.893C38.2685 154.923 54.5385 155.073 70.8485 154.603C93.3785 153.953 115.899 153.323 140.079 152.643ZM251.409 186.353C238.559 170.563 223.929 160.393 207.379 152.943C194.609 147.193 182.419 140.583 171.059 132.343C156.309 121.653 139.319 117.533 121.419 116.603C119.379 116.493 116.809 115.263 115.559 117.443C125.149 127.423 134.369 137.393 144.009 146.943C155.919 158.733 170.209 167.433 184.689 175.493C204.819 186.693 227.149 186.853 251.409 186.353ZM246.919 20.6727C261.559 23.5827 275.369 26.3227 289.429 29.1227C286.629 15.9127 279.739 8.40272 269.609 6.86272C258.819 5.22272 252.019 10.3427 246.919 20.6727Z" fill="#9D2460"/>
<path d="M122.679 71.7927C122.919 48.0827 147.039 21.5827 170.669 19.0627C185.419 17.4927 196.579 27.2528 197.069 42.1628C197.859 66.1728 173.929 93.9827 150.119 96.7427C133.709 98.6427 122.519 88.4627 122.679 71.7927ZM190.639 43.6027C190.459 30.6127 181.629 23.2427 168.869 26.1427C150.529 30.3127 139.099 42.6627 131.829 59.3027C129.979 63.5327 128.969 68.1227 129.109 72.8727C129.459 84.5227 137.009 91.3827 148.489 90.3627C168.609 88.5627 190.919 63.8127 190.639 43.6027Z" fill="#9D2460"/>
<path d="M274.768 30.0327L314.568 41.3827L337.568 58.3827L352.568 82.3827L357.568 112.383L351.568 157.383L335.568 192.383L328.568 197.383L289.568 190.383L301.408 144.673L303.678 98.9927L300.568 64.3827L289.568 37.3827L274.768 30.0327Z" fill="#F14C9A"/>
<path d="M62.5684 103.383L67.5684 85.3828L90.5684 54.3828L125.568 25.3828L155.568 10.3828L179.568 8.38281L207.568 14.3828L240.568 23.3828L273.568 29.3828L286.568 36.3828L294.568 49.3828L302.568 73.3828L304.568 119.383L299.568 159.383L289.568 191.383L258.568 188.383L240.568 168.383L210.568 151.383L182.568 137.383L150.568 117.383L122.568 112.383H104.568L83.5684 105.383L62.5684 103.383Z" fill="#F14C9A"/>
<path d="M60.5684 105.383L26.5684 121.383L7.56836 136.383L3.56836 143.383L5.56836 150.383L23.5684 156.383L66.5684 157.383H102.568L145.568 154.383L118.568 124.383L100.078 110.883L81.2984 105.163L60.5684 105.383Z" fill="#F14C9A"/>
<path d="M146.568 154.383L168.568 170.383L193.568 183.383L220.568 188.383H258.568L240.568 168.383L190.568 139.383L153.238 119.043L119.598 112.383L106.568 113.383L121.528 127.673L146.568 154.383Z" fill="#9D2460"/>
<path d="M239.648 23.1328L252.568 7.38281L270.568 2.38281L283.568 9.38281L291.568 20.3828L296.608 36.2628L269.568 27.3828L239.648 23.1328Z" fill="#9D2460"/>
<path d="M179.764 74.3989C194.56 57.2663 197.799 35.8162 186.999 26.4887C176.199 17.1611 155.449 23.4883 140.652 40.6209C125.856 57.7534 122.617 79.2036 133.417 88.5311C144.217 97.8587 164.968 91.5314 179.764 74.3989Z" fill="#9D2460"/>
<path d="M80.8585 160.023C60.8785 161.333 40.8885 162.043 20.9985 159.203C17.3885 158.693 13.7185 158.113 10.3085 156.903C-0.801471 152.973 -3.10147 144.433 4.23853 135.023C7.55853 130.773 11.7785 127.493 16.2285 124.543C28.1985 116.623 40.7185 109.693 54.3485 105.093C58.1085 103.823 59.3885 102.793 59.8285 98.1027C60.5585 90.2527 64.7685 82.8727 69.1485 76.2627C89.5285 45.5027 116.049 21.9827 151.039 8.97273C165.229 3.69273 179.819 3.83271 194.319 7.48271C206.569 10.5627 218.649 14.3127 230.839 17.6327C238.809 19.8027 239.249 19.9427 243.519 12.9727C255.739 -7.01727 282.409 -1.93727 291.269 14.8727C293.279 18.6827 295.909 22.5827 296.399 26.6727C297.019 31.8027 300.009 33.1427 303.879 34.5427C316.519 39.1027 328.319 45.1327 337.849 54.8827C350.379 67.7027 358.499 82.8327 359.369 100.893C360.959 134.053 356.929 166.033 337.679 194.513C334.629 199.023 331.789 200.683 326.259 199.653C298.659 194.543 270.609 194.633 242.709 193.003C234.409 192.513 226.099 192.613 217.779 191.833C199.749 190.143 183.539 183.783 168.569 173.963C151.569 162.813 133.449 157.273 112.789 159.803C102.299 161.083 91.5085 160.023 80.8585 160.023ZM65.4985 100.833C67.8785 102.533 69.8685 101.753 71.8085 101.623C81.3285 101.013 90.5085 102.603 98.7685 107.303C103.409 109.943 107.879 110.293 112.999 110.133C135.129 109.433 156.099 113.793 174.459 126.813C185.919 134.933 198.069 141.593 210.849 147.363C227.099 154.683 241.909 164.463 253.099 178.443C258.699 185.433 264.929 188.473 273.409 188.273C275.729 188.213 278.089 188.273 280.389 188.603C285.029 189.263 287.739 187.873 289.059 182.933C291.959 172.013 295.079 161.193 297.019 150.013C301.339 125.153 299.789 100.243 298.299 75.3327C297.739 65.9627 294.769 57.1827 290.519 48.7227C285.339 38.3927 277.769 32.3727 266.009 30.8427C244.879 28.1027 224.149 23.3427 203.869 16.6927C200.089 15.4527 196.179 14.5627 192.299 13.6627C175.859 9.82274 160.079 11.5227 144.619 18.5327C117.519 30.8127 96.2985 50.0527 78.6585 73.5227C72.4785 81.7127 68.2485 91.0827 65.4985 100.833ZM294.349 188.623C304.369 189.953 313.249 191.023 322.099 192.333C330.449 193.573 330.229 193.543 334.699 186.643C351.439 160.783 354.339 131.783 352.879 102.243C351.309 70.6727 325.529 43.9927 292.819 38.8827C294.119 41.5027 295.149 43.7827 296.339 45.9727C300.689 53.9627 303.749 62.4827 304.399 71.4927C306.199 96.7027 307.999 121.903 304.089 147.163C301.929 160.993 298.019 174.353 294.349 188.623ZM140.079 152.643C128.419 141.323 118.719 130.023 107.239 120.473C92.4485 108.163 75.8785 105.133 57.7285 110.923C42.4085 115.813 28.5385 123.633 15.5985 133.113C12.6385 135.283 9.93853 137.823 8.03853 140.983C5.59853 145.053 6.35853 147.903 10.5185 149.993C14.1085 151.793 18.0585 152.393 22.0485 152.893C38.2685 154.923 54.5385 155.073 70.8485 154.603C93.3785 153.953 115.899 153.323 140.079 152.643ZM251.409 186.353C238.559 170.563 223.929 160.393 207.379 152.943C194.609 147.193 182.419 140.583 171.059 132.343C156.309 121.653 139.319 117.533 121.419 116.603C119.379 116.493 116.809 115.263 115.559 117.443C125.149 127.423 134.369 137.393 144.009 146.943C155.919 158.733 170.209 167.433 184.689 175.493C204.819 186.693 227.149 186.853 251.409 186.353ZM246.919 20.6727C261.559 23.5827 275.369 26.3227 289.429 29.1227C286.629 15.9127 279.739 8.40272 269.609 6.86272C258.819 5.22272 252.019 10.3427 246.919 20.6727Z" fill="#9D2460"/>
<path d="M122.679 71.7927C122.919 48.0827 147.039 21.5827 170.669 19.0627C185.419 17.4927 196.579 27.2528 197.069 42.1628C197.859 66.1728 173.929 93.9827 150.119 96.7427C133.709 98.6427 122.519 88.4627 122.679 71.7927ZM190.639 43.6027C190.459 30.6127 181.629 23.2427 168.869 26.1427C150.529 30.3127 139.099 42.6627 131.829 59.3027C129.979 63.5327 128.969 68.1227 129.109 72.8727C129.459 84.5227 137.009 91.3827 148.489 90.3627C168.609 88.5627 190.919 63.8127 190.639 43.6027Z" fill="#9D2460"/>
</svg>
