<?xml version="1.0" encoding="UTF-8"?>
<svg id="Camada_2" data-name="Camada 2" xmlns="http://www.w3.org/2000/svg" viewBox="0 0 213.72 214.15">
  <defs>
    <style>
      .cls-1 {
        fill: #bc1d1d;
      }

      .cls-2 {
        fill: #066e8e;
      }

      .cls-3 {
        fill: #e5d33b;
      }

      .cls-4 {
        fill: #a5a5a5;
      }

      .cls-5 {
        fill: #27a6d8;
      }
    </style>
  </defs>
  <g id="portas_abertas" data-name="portas abertas">
    <g id="_10" data-name="10">
      <polygon class="cls-2" points="199.02 211.18 188.05 211.18 189.33 33.63 110.69 33.63 111.2 211.18 100.33 211.18 100.33 24.67 199.02 24.67 199.02 211.18"/>
      <g>
        <polygon class="cls-4" points="90.81 211.36 100.33 211.18 100.33 24.67 199.02 24.67 199.02 211.18 208.77 211.36 213.72 14.81 202.49 15.15 176.11 4.77 164.87 7.66 158.24 0 143.6 0 137.47 7.66 127.6 5.62 98.66 14.98 86.58 14.81 90.81 211.36"/>
        <ellipse class="cls-1" cx="149.58" cy="10.19" rx="5.35" ry="4.45"/>
      </g>
      <polygon class="cls-5" points="100.33 24.67 0 26.66 2.87 214.15 100.33 211.18 100.33 24.67"/>
      <path class="cls-3" d="M5.56,141.42c-.51-.35-.28-1.91.38-4.28,1.15-3.71,2.4-8.49,4.52-11.87,3.77-5.97,9.97-3.62,8.57,2.1-1.33,4.97-6.64,8.89-10.12,12.22-1.63,1.4-2.79,2.14-3.3,1.87l-.06-.04Z"/>
    </g>
  </g>
</svg>