<?xml version="1.0" encoding="UTF-8"?>
<svg id="Camada_2" data-name="Camada 2" xmlns="http://www.w3.org/2000/svg" viewBox="0 0 205.79 220.44">
  <defs>
    <style>
      .cls-1 {
        fill: #a648d8;
      }

      .cls-2 {
        fill: #e7aeff;
      }

      .cls-3 {
        fill: #bc1d1d;
      }

      .cls-4 {
        fill: #ffce00;
      }

      .cls-5 {
        fill: #a5a5a5;
      }
    </style>
  </defs>
  <g id="portas_abertas" data-name="portas abertas">
    <g id="_12" data-name="12">
      <polygon class="cls-1" points="195.84 209.32 185.73 209.28 178.33 34.15 110.16 33.64 101.73 208.98 92.26 208.94 102.18 24.69 187.63 25.07 195.84 209.32"/>
      <g>
        <polygon class="cls-5" points="82.56 208.94 92.26 208.94 102.18 24.69 187.63 25.07 195.84 209.32 205.79 209.28 200.77 13.03 190.39 13.03 176.35 4.94 163.24 7.24 154.9 0 140.53 0 131.78 6.76 118.04 5.26 100.16 12.85 87.98 13.61 82.56 208.94"/>
        <ellipse class="cls-3" cx="147.41" cy="9.17" rx="5.39" ry="4.95"/>
      </g>
      <polygon class="cls-2" points="102.18 24.69 16.68 31.84 0 220.44 92.26 208.94 102.18 24.69"/>
      <ellipse class="cls-4" cx="19.88" cy="128.19" rx="5.25" ry="8.54" transform="translate(-105.01 93.13) rotate(-65.5)"/>
    </g>
  </g>
</svg>