<?xml version="1.0" encoding="UTF-8"?>
<svg id="Camada_2" data-name="Camada 2" xmlns="http://www.w3.org/2000/svg" viewBox="0 0 227.05 218.57">
  <defs>
    <style>
      .cls-1 {
        fill: #ffef9f;
      }

      .cls-2 {
        fill: #c45f9e;
      }

      .cls-3 {
        fill: #bc1d1d;
      }

      .cls-4 {
        fill: #ef97ca;
      }

      .cls-5 {
        fill: #a5a5a5;
      }
    </style>
  </defs>
  <g id="portas_abertas" data-name="portas abertas">
    <g id="_2" data-name="2">
      <polygon class="cls-2" points="204.52 209.26 195.32 209.37 202.38 34.23 116.94 32.86 121.02 209.37 112.21 209.26 105.08 22.75 213.53 24.63 204.52 209.26"/>
      <g>
        <polygon class="cls-5" points="101.69 209.28 112.21 209.26 105.08 22.75 213.53 24.63 204.52 209.26 214.2 209.28 227.05 13.28 214.8 13.79 187.04 5.3 176.2 7.07 166.73 0 154.27 0 146.69 6.82 134.77 5.3 101.19 13.39 91.71 13.13 101.69 209.28"/>
        <ellipse class="cls-3" cx="160.62" cy="9.19" rx="5.03" ry="4.42"/>
      </g>
      <polygon class="cls-4" points="105.53 22.75 0 31.16 34.89 218.57 112.21 209.26 105.53 22.75"/>
      <ellipse class="cls-1" cx="31.15" cy="129.2" rx="5.25" ry="8.54" transform="translate(-78.8 54.53) rotate(-42.26)"/>
    </g>
  </g>
</svg>