<?xml version="1.0" encoding="UTF-8"?>
<svg id="Camada_2" data-name="Camada 2" xmlns="http://www.w3.org/2000/svg" viewBox="0 0 222.15 216.14">
  <defs>
    <style>
      .cls-1 {
        fill: #1a5668;
      }

      .cls-2 {
        fill: #bc1d1d;
      }

      .cls-3 {
        fill: #a5a5a5;
      }

      .cls-4 {
        fill: #457f97;
      }

      .cls-5 {
        fill: #ededed;
      }
    </style>
  </defs>
  <g id="portas_abertas" data-name="portas abertas">
    <g id="_5" data-name="5">
      <polygon class="cls-1" points="198.82 209.22 189.83 209.04 197.23 33.51 109.91 31.97 116.81 209.17 107.08 209.08 99.95 22.57 208.4 24.45 198.82 209.22"/>
      <g>
        <polygon class="cls-3" points="96.79 209.28 107.08 209.08 99.95 22.57 208.02 25.02 198.82 209.22 209.3 209.28 222.15 13.28 209.9 13.79 182.13 5.3 171.3 7.07 161.82 0 149.37 0 141.78 6.82 129.87 5.3 96.29 13.39 86.81 13.13 96.79 209.28"/>
        <ellipse class="cls-2" cx="155.72" cy="9.19" rx="5.03" ry="4.42"/>
      </g>
      <polygon class="cls-4" points="99.95 22.57 0 28.57 10.55 216.14 107.08 209.08 99.95 22.57"/>
      <ellipse class="cls-5" cx="21.62" cy="142" rx="6.75" ry="8.82" transform="translate(-5.94 1.03) rotate(-2.4)"/>
    </g>
  </g>
</svg>