<?xml version="1.0" encoding="UTF-8"?>
<svg id="Camada_2" data-name="Camada 2" xmlns="http://www.w3.org/2000/svg" viewBox="0 0 214.15 214.54">
  <defs>
    <style>
      .cls-1 {
        fill: #722cb5;
      }

      .cls-2 {
        fill: #bc1d1d;
      }

      .cls-3 {
        fill: #42117c;
      }

      .cls-4 {
        fill: #e5d33b;
      }

      .cls-5 {
        fill: #a5a5a5;
      }
    </style>
  </defs>
  <g id="portas_abertas" data-name="portas abertas">
    <g id="_6" data-name="6">
      <polygon class="cls-3" points="199.08 210.99 190.64 211.04 189.36 35.21 109.7 34.87 108.76 210.74 100.38 210.99 100.38 24.48 199.08 24.48 199.08 210.99"/>
      <g>
        <polygon class="cls-5" points="90.23 211.06 100.38 210.99 100.38 24.48 199.08 24.48 199.08 210.99 209.38 210.89 214.15 14.81 202.91 15.15 176.53 4.77 165.3 7.66 158.66 0 144.02 0 137.89 7.66 128.02 5.62 99.08 14.98 87 14.81 90.23 211.06"/>
        <ellipse class="cls-2" cx="150" cy="10.19" rx="5.35" ry="4.45"/>
      </g>
      <polygon class="cls-1" points="100.38 24.48 0 26.7 3.4 214.54 100.38 210.99 100.38 24.48"/>
      <path class="cls-4" d="M4.91,146.87c-.49-.39-.14-1.93.7-4.23,1.43-3.61,3.03-8.29,5.4-11.5,4.21-5.67,10.21-2.86,8.39,2.74-1.7,4.86-7.29,8.37-11.01,11.42-1.73,1.27-2.94,1.92-3.43,1.61l-.06-.04Z"/>
    </g>
  </g>
</svg>