<?xml version="1.0" encoding="UTF-8"?>
<svg id="Camada_2" data-name="Camada 2" xmlns="http://www.w3.org/2000/svg" viewBox="0 0 223.37 224.33">
  <defs>
    <style>
      .cls-1 {
        fill: #a86000;
      }

      .cls-2 {
        fill: #f49914;
      }

      .cls-3 {
        fill: #bc1d1d;
      }

      .cls-4 {
        fill: #e5d33b;
      }

      .cls-5 {
        fill: #a5a5a5;
      }
    </style>
  </defs>
  <g id="portas_abertas" data-name="portas abertas">
    <g id="_8" data-name="8">
      <polygon class="cls-1" points="212.89 24.49 101.44 17.74 112.41 213.62 121.87 213.77 114.72 33.01 200.51 34.71 194.04 213.43 204.45 213.62 212.89 24.49"/>
      <g>
        <polygon class="cls-5" points="213.32 213.76 204.45 213.62 212.89 24.49 104.3 22.35 112.41 213.62 104.04 213.76 92.04 11.41 101.36 11.41 130.47 4.65 143.02 7.21 152.03 0 163.88 0 171.09 6.95 182.42 5.41 214.35 13.65 223.37 13.39 213.32 213.76"/>
        <ellipse class="cls-3" cx="157.94" cy="8.85" rx="5.41" ry="4.51"/>
      </g>
      <polygon class="cls-2" points="104.79 22.35 0 31.31 35.01 224.33 112.41 213.62 104.79 22.35"/>
      <path class="cls-4" d="M42.39,152.66c-.46.42-1.93-.15-4.08-1.32-3.36-1.95-7.75-4.23-10.57-7.05-4.98-5.01-1.31-10.52,3.96-7.89,4.55,2.4,7.19,8.45,9.66,12.58,1,1.9,1.46,3.19,1.09,3.63l-.05.05Z"/>
    </g>
  </g>
</svg>