<svg width="280" height="498" viewBox="0 0 280 498" fill="none" xmlns="http://www.w3.org/2000/svg">
<path d="M1.01172 3.03452L226.719 0L223.787 39.4487L4.95426 14.4746L1.01172 3.03452Z" fill="#EF8639"/>
<path d="M1.46563 4.33984L222.776 31.6505L230.104 34.685V43.7886L158.288 442.827L155.357 445.862L2.93126 458L0 454.965L1.46563 4.33984Z" fill="#FFCA00"/>
<path d="M21.9836 31.6511L46.8993 25.582H73.2807L77.6776 30.1338L67.4181 115.1L64.4869 183.377V239.515L16.1211 245.584L17.5867 127.238L21.9836 31.6511Z" fill="#EF8639"/>
<path d="M86.4719 28.6165L92.3344 25.582L130.441 30.1338L142.166 33.1683L143.631 42.2719L131.906 128.756L126.044 183.377L121.647 218.274V227.377V231.929L74.7469 236.481L73.2812 231.929L82.075 124.204L86.4719 28.6165Z" fill="#EF8639"/>
<path d="M153.891 40.7539L158.288 36.2021L191.998 37.7194L212.517 48.3402V55.9265L208.12 66.5473L200.792 107.513L189.067 163.652L184.67 216.756V227.377L161.22 228.894L131.907 236.48L130.441 227.377L142.166 130.272L153.891 43.7884V40.7539Z" fill="#EF8639"/>
<path d="M14.659 445.861L30.781 438.275L55.6967 432.206L54.2311 420.068L61.5592 350.274L64.4905 313.86L67.4217 262.273L63.0248 259.238L30.781 262.273L14.659 271.376V304.756L16.1247 354.826L11.2734 415.728L11.7278 441.309L14.659 445.861Z" fill="#EF8639"/>
<path d="M82.0735 254.688L106.989 251.653H126.042L130.439 254.688L128.974 272.895L123.111 307.792L117.249 351.792L114.317 377.586L111.386 414V430.69L92.3329 433.724L71.8141 438.276L68.8828 435.242L74.7453 335.103L76.211 281.998L77.6766 259.24L82.0735 254.688Z" fill="#EF8639"/>
<path d="M146.562 248.619L168.546 247.102L180.271 250.136V262.274L175.874 291.102L168.546 336.62L155.356 423.103L134.837 427.655L120.18 432.207L118.715 426.138L128.974 344.206L137.768 262.274L139.234 250.136L146.562 248.619Z" fill="#EF8639"/>
<path d="M161.218 151.514L172.943 153.031L183.202 154.548L180.271 174.273L171.477 210.687L162.684 213.721H155.355L159.298 180.554L161.218 151.514Z" fill="#E94738"/>
<path d="M171.479 178.825C176.242 178.461 180.082 183.271 180.272 187.929C180.434 191.676 178.25 196 174.41 197.032C169.896 198.246 164.942 194.407 164.151 189.446C163.359 184.484 166.73 179.204 171.479 178.825Z" fill="#FFCA00"/>
<path d="M136.826 423.55C137.42 428.459 137.42 433.421 136.826 438.33C136.47 442.394 135.495 446.38 133.936 450.15C132.845 453.062 131.205 455.737 129.106 458.03C126.696 460.52 123.946 461.92 117.536 463.94C106.456 467.43 100.176 467.79 100.176 468.86C100.176 470.73 119.406 471.5 119.466 473.79C119.526 475.85 104.036 477.15 104.036 479.7C104.036 482.25 121.296 483.43 121.396 486.59C121.476 489.31 108.856 490.84 108.856 492.5C108.856 494.44 112.856 494.44 134.856 494.44C138.716 494.44 154.146 494.44 159.936 489.55C163.159 487.231 165.799 484.195 167.646 480.68C172.436 471.97 171.516 464.14 171.506 450.15C171.506 443.82 171.666 434.72 172.506 423.55" fill="#1CAAC2"/>
<path d="M185.047 425.479C185.247 434.689 185.157 442.13 185.047 447.14C184.957 451.48 184.737 458.58 185.047 467.81C185.457 479.86 186.317 482.379 187.947 484.539C189.247 486.279 191.347 488.19 201.447 491.43C208.887 493.82 213.017 495.369 221.697 496.359C237.037 498.099 251.597 496.359 253.527 495.359C255.757 494.219 236.787 489.21 237.127 487.49C237.467 485.77 255.017 488.55 255.457 486.49C255.857 484.62 241.547 480.56 241.957 478.62C242.367 476.68 259.147 478.81 259.317 477.62C259.457 476.62 246.677 472.45 237.127 469.75C234.417 468.98 231.727 468.26 229.417 465.81C226.617 462.81 225.987 459.07 225.557 454C224.926 446.466 224.926 438.893 225.557 431.359" fill="#1CAAC2"/>
<path d="M276.676 430.79C276.676 430.79 275.136 414.88 273.776 404.79C270.776 382.67 264.776 372.13 265.096 372C265.416 371.87 275.706 392.25 275.706 392.25C275.706 392.25 274.376 384.33 270.886 370.07C266.526 352.26 262.736 336.8 264.136 336.31C265.996 335.67 277.636 361.39 277.636 361.39C277.636 361.39 264.636 315.33 267.996 314.13C270.086 313.37 279.566 326.67 279.566 326.67C277.326 316.525 274.427 306.537 270.886 296.77C265.586 282.53 261.986 272.52 263.166 271.69C264.666 270.69 276.676 284.23 276.676 284.23C276.676 284.23 271.456 267.11 257.386 254.33C249.016 246.74 240.516 242.69 240.986 241.8C241.636 240.56 258.346 247.58 258.346 247.58C258.346 247.58 242.346 228.44 218.806 224.44C209.626 222.87 199.536 223.37 199.516 222.51C199.496 221.65 209.156 220.58 209.156 220.58C209.156 220.58 196.936 216.26 186.976 221.58C181.976 224.23 177.336 227.37 177.336 227.37C177.336 227.37 170.196 221.28 163.826 219.65C148.666 215.79 134.896 227.37 134.896 227.37C137.696 226.46 151.526 225.1 149.366 227.37C148.516 228.26 141.646 228.37 129.106 236.05C123.346 239.6 116.266 243.52 110.786 249.55C102.336 258.84 100.176 271.73 100.176 271.73C100.176 271.73 111.636 260.29 112.716 261.12C113.486 261.72 108.716 268.12 104.036 277.52C99.9787 285.754 97.0586 294.5 95.3564 303.52C95.3564 303.52 98.6764 297.1 105.966 286.16C108.706 282.05 111.966 277.16 112.716 277.48C113.716 277.98 109.216 287.71 103.066 303.48C102.176 305.78 92.4664 335.31 92.4664 335.31C92.4664 335.31 104.046 313.31 105.966 314.09C108.866 315.25 92.4664 370.03 92.4664 370.03L104.996 352.67L89.5664 407.67C89.5664 407.67 100.436 387.67 102.106 388.38C104.486 389.38 89.5664 438.53 89.5664 438.53C89.5664 438.53 97.9064 419.16 103.066 421.17C107.486 422.89 106.926 438.53 106.926 438.53C106.926 438.53 114.076 426.85 116.576 427.92C118.576 428.78 118.506 443.36 118.506 443.36C118.506 443.36 134.876 422.36 138.756 425.03C141.756 427.03 142.616 443.36 142.616 443.36C142.616 443.36 156.616 423.3 159.976 425.03C162.856 426.52 162.866 445.28 162.866 445.28C162.866 445.28 171.606 422.06 175.406 423.1C178.556 423.97 178.296 440.46 178.296 440.46C178.296 440.46 182.866 426.28 186.976 426C191.846 425.67 199.516 446.25 199.516 446.25C199.516 446.25 199.416 426.56 203.376 429.85C209.156 434.68 213.016 444.32 213.016 444.32C213.016 444.32 215.706 431.78 222.666 431.78C226.516 431.78 234.236 443.36 234.236 443.36C234.236 443.36 241.676 428.43 243.876 427.92C246.076 427.41 257.386 443.36 257.386 443.36C257.386 443.36 253.216 422.96 256.386 422.14C259.176 421.43 266.036 437.57 266.036 437.57C266.036 437.57 264.796 418.57 266.036 418.28C267.276 417.99 276.676 430.79 276.676 430.79Z" fill="#38D1B3"/>
<path d="M180.228 286.12C188.219 286.12 194.698 279.641 194.698 271.65C194.698 263.658 188.219 257.18 180.228 257.18C172.236 257.18 165.758 263.658 165.758 271.65C165.758 279.641 172.236 286.12 180.228 286.12Z" fill="white"/>
<path d="M185.047 269.7C185.047 274.17 179.747 282.7 179.747 282.7C179.747 282.7 174.438 274.13 174.438 269.7C174.438 265.27 179.747 261.59 179.747 261.59C179.747 261.59 185.047 265.22 185.047 269.7Z" fill="#107CE8"/>
<path d="M164.927 251.11C164.487 250.06 169.197 244.62 175.177 242.83C178.363 241.9 181.706 241.642 184.997 242.07C190.727 242.62 191.497 244.53 191.997 245.07C194.317 247.47 195.187 251.62 194.457 252.29C194.017 252.7 193.057 251.74 191.267 250.49C189.198 248.961 186.801 247.934 184.267 247.49C182.027 247.19 177.997 247.34 172.027 249.3C166.057 251.26 165.107 251.56 164.927 251.11Z" fill="#1071C1"/>
<path d="M157.565 288.77C157.56 288.75 157.562 288.729 157.57 288.709C157.578 288.69 157.592 288.674 157.609 288.663C157.627 288.652 157.648 288.647 157.668 288.648C157.689 288.649 157.709 288.657 157.725 288.67C161.96 292.093 166.815 294.667 172.025 296.25C175.736 297.566 179.723 297.91 183.605 297.25C186.728 296.559 189.68 295.246 192.285 293.39C196.748 290.61 200.806 287.228 204.345 283.34C204.367 283.319 204.396 283.306 204.426 283.303C204.456 283.3 204.487 283.307 204.513 283.323C204.539 283.339 204.559 283.363 204.57 283.391C204.581 283.419 204.583 283.451 204.575 283.48C203.543 286.221 202.338 288.893 200.965 291.48C195.785 301.26 193.665 303.61 192.285 304.99C190.412 307.073 188.105 308.719 185.525 309.81C182.785 310.958 179.775 311.305 176.845 310.81C173.536 310.103 170.514 308.424 168.165 305.99C166.165 304.19 164.575 301.55 161.415 296.35C158.255 291.15 157.665 289.31 157.565 288.77Z" fill="black"/>
<path d="M183.113 297.34L186.493 305.37L189.873 294.8L186.013 296.49L183.113 297.34Z" fill="white" stroke="white" stroke-width="0.5" stroke-miterlimit="10"/>
<path d="M184.568 376.78C194.956 376.78 203.378 368.359 203.378 357.97C203.378 347.582 194.956 339.16 184.568 339.16C174.179 339.16 165.758 347.582 165.758 357.97C165.758 368.359 174.179 376.78 184.568 376.78Z" fill="#F7ADF7"/>
<path d="M161.418 357.49H208.658L185.038 418.04L161.418 357.49Z" fill="#DBA437"/>
<path d="M181.77 337.2L185.15 343.47" stroke="#754C24" stroke-width="2" stroke-miterlimit="10"/>
<path d="M188.656 342.31L195.076 340.05" stroke="#754C24" stroke-width="2" stroke-miterlimit="10"/>
<path d="M180.59 342.591L186.12 338.101" stroke="#FFFF00" stroke-width="2" stroke-miterlimit="10"/>
<path d="M196.02 349.34L200.099 345.88" stroke="#FFFF00" stroke-width="2" stroke-miterlimit="10"/>
<path d="M166.309 347.641L173.389 348.471" stroke="#FFFF00" stroke-width="2" stroke-miterlimit="10"/>
<path d="M171.59 344.05L177.76 340.49" stroke="#FFFF00" stroke-width="2" stroke-miterlimit="10"/>
<path d="M174.477 345.01L180.807 349.74" stroke="#754C24" stroke-width="2" stroke-miterlimit="10"/>
<path d="M193.467 343.561L192.527 350.621" stroke="#754C24" stroke-width="2" stroke-miterlimit="10"/>
<path d="M187.156 345.99L191.236 342.53" stroke="#FFFF00" stroke-width="2" stroke-miterlimit="10"/>
<path d="M176.547 350.811L180.627 347.351" stroke="#FFFF00" stroke-width="2" stroke-miterlimit="10"/>
<path d="M180.199 346.351L186.619 344.101" stroke="#754C24" stroke-width="2" stroke-miterlimit="10"/>
<path d="M173.559 340.92L179.759 343.74" stroke="#754C24" stroke-width="2" stroke-miterlimit="10"/>
<path d="M182.828 345.09L187.858 350.12" stroke="#FFFF00" stroke-width="2" stroke-miterlimit="10"/>
<path d="M117.056 324.22C116.406 324.34 117.556 333.22 118.986 346.4C120.556 360.83 120.986 367.4 119.986 367.62C118.986 367.84 116.986 361.62 116.126 361.83C115.266 362.04 115.606 368.22 118.056 374.37C120.506 380.52 124.356 384.54 123.846 384.98C123.336 385.42 118.846 380.5 118.056 381.12C117.266 381.74 119.336 387.45 123.846 391.73C129.126 396.73 135.626 397.73 135.416 398.48C135.206 399.23 127.866 397.8 127.706 398.48C127.586 398.96 131.136 400.73 135.416 401.37C142.806 402.48 148.646 399.67 148.926 400.37C149.206 401.07 141.836 404.09 142.166 405.19C142.496 406.29 148.836 406.19 154.706 403.26C160.346 400.42 159.796 397.67 165.316 394.58C172.316 390.67 178.316 392.16 178.816 389.76C179.146 388.06 176.426 385.84 173.996 384.94C169.646 383.32 165.656 385.73 165.316 384.94C164.976 384.15 167.656 381.73 171.106 381.08C174.346 380.47 176.366 381.89 176.886 381.08C177.536 380.08 175.376 376.58 172.066 375.29C168.256 373.81 164.616 375.94 164.356 375.29C164.096 374.64 167.116 372.21 171.106 371.43C175.096 370.65 177.696 372.88 177.856 372.43C178.016 371.98 174.016 368.54 169.176 367.61C166.296 367.05 163.976 366.61 161.456 367.61C160.086 368.15 159.916 368.61 154.706 373.39C151.516 376.32 150.866 376.79 149.886 377.25C147.83 378.385 145.433 378.74 143.136 378.25C142.216 377.951 141.388 377.419 140.733 376.706C140.077 375.993 139.617 375.123 139.396 374.18C138.988 372.886 138.782 371.537 138.786 370.18C138.616 344.45 136.466 336.81 135.416 336.76C134.366 336.71 133.716 343.57 132.526 343.52C130.396 343.42 130.166 321.37 128.666 321.33C127.166 321.29 126.746 341.33 123.846 341.59C121.066 341.77 117.996 324 117.056 324.22Z" fill="#83EDE6"/>
<path d="M254.358 323.91C255.018 324.03 253.858 332.96 252.428 346.09C250.868 360.52 250.428 367.09 251.428 367.31C252.428 367.53 254.428 361.31 255.288 361.52C256.148 361.73 255.808 367.91 253.358 374.06C250.908 380.21 247.068 384.23 247.568 384.67C248.068 385.11 252.568 380.19 253.358 380.81C254.148 381.43 252.078 387.14 247.568 391.42C242.288 396.42 235.788 397.42 235.998 398.17C236.208 398.92 243.548 397.5 243.708 398.17C243.828 398.66 240.288 400.42 235.998 401.06C228.608 402.17 222.778 399.37 222.498 400.06C222.218 400.75 229.578 403.78 229.248 404.88C228.918 405.98 222.578 405.88 216.708 402.95C211.068 400.11 211.618 397.37 206.098 394.27C199.098 390.36 193.098 391.85 192.598 389.45C192.268 387.76 194.998 385.53 197.418 384.63C201.768 383.01 205.758 385.42 206.098 384.63C206.438 383.84 203.758 381.42 200.308 380.77C197.068 380.16 195.048 381.58 194.528 380.77C193.878 379.77 196.038 376.27 199.348 374.98C203.158 373.5 206.808 375.63 207.068 374.98C207.328 374.33 204.298 371.9 200.308 371.13C196.318 370.36 193.718 372.58 193.558 372.13C193.398 371.68 197.398 368.24 202.238 367.31C205.118 366.75 207.438 366.31 209.958 367.31C211.338 367.86 211.508 368.31 216.708 373.1C219.908 376.02 220.548 376.49 221.528 376.95C223.584 378.084 225.981 378.439 228.278 377.95C229.2 377.654 230.03 377.123 230.686 376.41C231.341 375.696 231.8 374.824 232.018 373.88C232.426 372.586 232.632 371.237 232.628 369.88C232.798 344.15 234.948 336.52 235.998 336.47C237.048 336.42 237.698 343.27 238.888 343.22C241.018 343.12 241.248 321.07 242.748 321.04C244.248 321.01 244.678 341.04 247.568 341.29C250.458 341.54 253.438 323.73 254.358 323.91Z" fill="#83EDE6"/>
<path d="M127.186 293.839C126.926 293.839 125.186 287.509 128.186 282.259C128.536 281.649 129.966 279.109 131.076 279.369C131.686 279.509 132.126 280.479 132.076 281.299C131.926 282.679 132.076 283.229 131.076 284.189C127.996 287.239 127.446 293.819 127.186 293.839Z" fill="#AB67C1"/>
<path d="M117.617 277.57C117.437 277.57 117.617 272.17 121.017 268.66C121.397 268.25 123.017 266.55 123.747 266.99C124.147 267.23 124.237 268.09 123.987 268.72C123.557 269.78 123.537 270.24 122.627 270.79C119.737 272.55 117.817 277.62 117.617 277.57Z" fill="#AB67C1"/>
<path d="M116.058 300.78C115.868 300.78 114.878 295.51 117.318 291.33C117.608 290.84 118.788 288.82 119.608 289.08C120.048 289.22 120.328 290.03 120.228 290.7C120.058 291.83 120.138 292.28 119.378 293.03C116.998 295.4 116.258 300.78 116.058 300.78Z" fill="#1071C1"/>
<path d="M135.378 264.85C135.198 264.78 136.298 259.53 140.168 256.61C140.608 256.27 142.488 254.85 143.168 255.41C143.518 255.71 143.468 256.57 143.168 257.15C142.578 258.15 142.478 258.57 141.488 258.97C138.278 260.24 135.558 264.93 135.378 264.85Z" fill="#1071C1"/>
<path d="M133.168 245.07C135.201 242.55 137.9 240.652 140.958 239.59C141.468 239.44 143.618 238.78 143.838 239.4C143.958 239.75 143.498 240.4 142.938 240.82C141.998 241.46 141.698 241.82 140.738 241.82C137.698 242.07 133.268 245.18 133.168 245.07Z" fill="#1071C1"/>
<path d="M236.348 313.1C236.453 309.193 235.684 305.311 234.098 301.74C233.818 301.16 232.668 298.74 232.098 299.11C231.798 299.3 231.698 300.3 231.868 301.11C231.951 302.108 232.296 303.067 232.868 303.89C234.928 306.65 236.198 313.11 236.348 313.1Z" fill="#1071C1"/>
<path d="M226.779 271.05C226.959 271.05 226.779 265.65 223.379 262.14C222.999 261.73 221.379 260.03 220.649 260.47C220.249 260.71 220.159 261.57 220.409 262.19C220.839 263.25 220.859 263.71 221.769 264.27C224.659 266 226.579 271.09 226.779 271.05Z" fill="#AB67C1"/>
<path d="M251.276 303.1C251.506 303.1 252.646 296.19 249.716 290.68C249.386 290.04 247.966 287.38 247.006 287.68C246.486 287.87 246.156 288.93 246.286 289.81C246.496 291.29 246.406 291.89 247.286 292.88C250.166 296 251.046 303.1 251.276 303.1Z" fill="#AB67C1"/>
<path d="M233.139 261.22C233.309 261.15 232.209 255.9 228.349 252.98C227.899 252.64 226.029 251.22 225.349 251.78C224.989 252.08 225.039 252.94 225.349 253.52C225.949 254.52 226.039 254.94 227.029 255.34C230.229 256.61 232.999 261.3 233.139 261.22Z" fill="#1071C1"/>
<path d="M211.228 238.55C209.201 236.024 206.5 234.124 203.438 233.07C202.928 232.91 200.778 232.25 200.558 232.88C200.438 233.22 200.898 233.88 201.458 234.29C202.398 234.94 202.698 235.29 203.658 235.34C206.698 235.54 211.128 238.66 211.228 238.55Z" fill="#1071C1"/>
<path d="M262.709 308.389C262.814 304.479 262.046 300.595 260.459 297.019C260.189 296.449 259.029 294.019 258.459 294.399C258.149 294.589 258.049 295.579 258.219 296.399C258.3 297.402 258.645 298.364 259.219 299.189C261.289 301.929 262.559 308.399 262.709 308.389Z" fill="#1071C1"/>
<path d="M250.999 280.63C251.106 276.721 250.341 272.837 248.759 269.26C248.479 268.68 247.319 266.26 246.759 266.64C246.449 266.83 246.359 267.82 246.519 268.64C246.598 269.639 246.943 270.599 247.519 271.42C249.549 274.17 250.829 280.63 250.999 280.63Z" fill="#1071C1"/>
<path d="M223.097 348C223.347 348 225.977 342 223.777 336.41C223.527 335.75 222.467 333.03 221.327 333.13C220.707 333.19 220.127 334.13 220.097 334.9C220.097 336.3 219.827 336.81 220.647 337.9C223.227 341.35 222.837 347.94 223.097 348Z" fill="#AB67C1"/>
<path d="M135.366 330.41C135.076 330.41 133.046 323.08 136.486 316.99C136.886 316.28 138.556 313.33 139.846 313.63C140.556 313.79 141.066 314.92 140.966 315.87C140.796 317.47 140.966 318.1 139.846 319.22C136.306 322.76 135.676 330.4 135.366 330.41Z" fill="#1071C1"/>
<path d="M149.416 364.36C149.116 364.36 147.096 357.03 150.536 350.94C150.936 350.23 152.606 347.28 153.896 347.58C154.606 347.75 155.116 348.87 155.016 349.82C154.846 351.43 155.016 352.06 153.896 353.17C150.356 356.71 149.726 364.35 149.416 364.36Z" fill="#AB67C1"/>
<path d="M208.396 341.9C208.586 341.9 209.396 336.6 206.846 332.49C206.546 332.02 205.296 330.03 204.496 330.32C204.056 330.47 203.796 331.32 203.916 331.96C204.126 333.08 204.056 333.54 204.846 334.26C207.316 336.56 208.196 341.91 208.396 341.9Z" fill="#1071C1"/>
<path d="M222.207 370C222.397 370 223.697 364.81 221.487 360.49C221.237 359.99 220.167 357.9 219.337 358.11C218.887 358.23 218.557 359.03 218.627 359.7C218.737 360.84 218.627 361.28 219.337 362.08C221.607 364.57 221.997 370 222.207 370Z" fill="#1071C1"/>
<path d="M111.208 391.4C111.028 391.4 109.008 386.47 110.588 381.88C110.768 381.35 111.528 379.13 112.378 379.23C112.838 379.23 113.278 380.02 113.308 380.7C113.358 381.84 113.538 382.26 112.938 383.15C111.048 386 111.408 391.36 111.208 391.4Z" fill="#AB67C1"/>
<path d="M151.136 338.39C150.946 338.39 148.926 333.46 150.506 328.88C150.686 328.34 151.506 326.12 152.296 326.22C152.766 326.22 153.206 327.01 153.236 327.69C153.236 328.83 153.456 329.26 152.856 330.14C150.996 332.94 151.326 338.35 151.136 338.39Z" fill="#AB67C1"/>
<path d="M138.269 418.409C138.079 418.469 135.529 413.749 136.589 409.029C136.709 408.479 137.219 406.189 138.079 406.189C138.539 406.189 139.079 406.879 139.169 407.539C139.339 408.669 139.559 409.079 139.059 410.019C137.489 412.999 138.449 418.349 138.269 418.409Z" fill="#1071C1"/>
<path d="M120.298 412.88C119.069 409.168 118.683 405.229 119.168 401.35C119.268 400.72 119.688 398.09 120.328 398.26C120.678 398.36 121.048 399.26 121.118 400.1C121.335 401.06 121.293 402.061 120.998 403C119.798 406.29 120.438 412.85 120.298 412.88Z" fill="#AB67C1"/>
<path d="M112.048 420.909C110.105 418.589 108.878 415.754 108.518 412.749C108.518 412.249 108.298 410.149 108.928 410.059C109.278 409.999 109.828 410.559 110.068 411.139C110.487 411.799 110.673 412.581 110.598 413.359C110.158 416.199 112.178 420.839 112.048 420.909Z" fill="#1071C1"/>
<path d="M261.578 406.669C261.768 406.669 263.068 401.469 260.868 397.159C260.608 396.659 259.538 394.569 258.718 394.779C258.258 394.899 257.928 395.689 257.998 396.369C258.108 397.499 257.998 397.949 258.718 398.739C260.998 401.249 261.388 406.659 261.578 406.669Z" fill="#AB67C1"/>
<path d="M210.189 425.999C210.409 425.999 212.469 419.329 210.309 413.479C210.059 412.799 209.019 409.969 208.029 410.169C207.489 410.289 207.029 411.299 207.029 412.169C207.029 413.669 206.869 414.249 207.639 415.349C209.999 418.869 209.999 425.999 210.189 425.999Z" fill="#AB67C1"/>
<path d="M233.646 427.9C233.806 428 237.436 424.05 237.566 419.21C237.566 418.64 237.636 416.3 236.806 416.09C236.356 415.98 235.686 416.52 235.426 417.09C234.976 418.14 234.666 418.48 234.916 419.52C235.706 422.85 233.476 427.8 233.646 427.9Z" fill="#AB67C1"/>
<path d="M246.307 417.12C246.497 417.12 247.457 411.85 244.977 407.68C244.697 407.2 243.497 405.18 242.677 405.45C242.237 405.59 241.957 406.45 242.067 407.07C242.247 408.2 242.167 408.65 242.937 409.4C245.357 411.75 246.107 417.12 246.307 417.12Z" fill="#1071C1"/>
</svg>
