<svg width="420" height="556" viewBox="0 0 420 556" fill="none" xmlns="http://www.w3.org/2000/svg">
<path d="M10.7461 107.636L231.74 0.949219L225.644 45.148" fill="#DAF07B"/>
<path d="M237.759 530.36L4.57229 495.306L0 489.21L10.6687 106.661L246.904 38.0771L253 45.6976" fill="#52B15D"/>
<path d="M26.6707 288.792C24.2212 258.098 26.7952 227.21 34.2912 197.346C40.9058 171.131 51.5287 147.264 76.9659 119.617C88.3626 107.296 101.76 96.9899 116.592 89.1349C146.358 82.0326 165.805 90.1408 172.984 93.7072C198.497 106.433 205.874 125.713 217.183 153.147C224.8 171.694 229.925 191.169 232.424 211.063L26.6707 288.792Z" fill="#DAF07B"/>
<path d="M32.7616 281.17C32.4873 277.543 35.947 263.369 35.8098 258.309C35.8098 258.309 38.5836 238.404 38.858 235.447C41.9062 203.441 44.9544 193.748 44.9544 193.748C51.0508 169.362 60.9574 148.604 83.3616 123.883C93.4966 112.746 105.447 103.408 118.705 96.2668C145.27 89.8351 162.615 97.166 169.001 100.412C191.771 111.934 197.958 128.776 208.109 153.756C210.7 160.126 209.877 157.49 212.574 168.448C214.403 175.87 218.518 187.362 218.671 188.261C219.25 191.751 224.767 206.55 226.291 208.074C228.486 210.269 210.898 211.549 208.002 212.647L177.52 223.315C126.265 242.976 103.83 253.797 51.8128 271.401C51.1117 271.629 49.0389 272.468 46.2041 273.55C46.1584 273.519 32.8226 281.155 32.7616 281.17Z" fill="#52B15D"/>
<path d="M29.7175 304.033L25.1452 307.081L23.6211 310.129V480.828L28.1934 483.876L227.85 514.358L229.374 511.31L233.946 224.78L232.422 221.731L229.374 224.78L29.7175 304.033Z" fill="#DAF07B"/>
<path d="M43.4405 310.129C43.4405 310.571 38.8682 311.302 38.8682 310.906L34.2959 310.129C35.0215 311.571 35.5348 313.111 35.82 314.701C35.82 316.225 35.82 319.06 35.82 319.38C35.82 362.954 32.7718 411.115 32.7718 454.704V466.394C32.7718 466.699 32.7718 467.187 32.6803 467.476L31.1562 476.255C36.0334 476.255 44.8731 471.911 49.7655 471.942C101.295 472.338 128.47 502.515 205.985 503.597C211.868 503.674 219.458 506.737 221.668 506.737C222.126 505.823 220.144 497.592 220.144 493.02C220.144 484.287 221.668 452.982 221.668 444.249L224.716 249.165C224.716 247.641 226.073 234.061 226.241 233.924L218.178 240.645C217.462 241.244 216.654 241.723 215.785 242.062L43.4405 310.129Z" fill="#52B15D"/>
<path d="M189.75 270.501C189.596 270.005 189.596 269.473 189.75 268.977C190.048 268.295 190.593 267.751 191.274 267.453H204.991C205.091 267.153 205.249 266.875 205.456 266.636C205.664 266.396 205.916 266.2 206.199 266.059C206.482 265.917 206.791 265.833 207.106 265.811C207.422 265.788 207.739 265.828 208.039 265.929L209.563 267.453V281.17C208.715 281.977 208.176 283.055 208.039 284.218C207.948 285.742 208.771 286.535 209.32 288.196C209.766 289.881 209.849 291.642 209.563 293.363C209.091 299.825 208.146 307.72 208.039 308.604V319.272C207.943 320.447 207.397 321.539 206.515 322.32C204.991 323.631 197.371 323.342 195.847 323.844L191.274 325.369C190.446 325.485 189.603 325.408 188.81 325.143C188.017 324.878 187.296 324.432 186.705 323.841C186.114 323.25 185.668 322.53 185.403 321.737C185.138 320.944 185.061 320.1 185.178 319.272C185.681 315.721 186.199 312.17 186.702 308.604V302.507C186.702 300.983 188.226 297.935 188.226 294.887V279.646C188.226 273.549 190.025 271.507 189.75 270.501Z" fill="#DAF07B"/>
<path d="M194.323 272.025C194.886 271.4 196.228 271.659 197.371 272.025C197.91 271.548 198.419 271.039 198.895 270.5C199.946 269.357 200.023 268.976 200.419 268.976C201.318 268.885 201.41 270.5 203.467 272.025C204.138 272.528 204.732 272.802 204.991 273.549C205.145 274.045 205.145 274.576 204.991 275.073C203.833 278.121 203.924 280.559 204.991 281.169C205.229 281.284 205.489 281.343 205.753 281.343C206.017 281.343 206.278 281.284 206.515 281.169V299.458L208.039 308.603C207.692 308.734 207.376 308.938 207.113 309.201C206.851 309.464 206.647 309.779 206.515 310.127C206.354 310.622 206.354 311.156 206.515 311.651V317.747L204.991 320.796V313.175L203.467 310.127L201.943 313.175C202.406 313.539 202.783 314.001 203.047 314.528C203.31 315.056 203.454 315.634 203.467 316.223C203.457 316.813 203.315 317.393 203.051 317.92C202.787 318.448 202.409 318.91 201.943 319.272L200.419 320.796L198.895 322.32C198.176 322.644 197.397 322.811 196.609 322.811C195.82 322.811 195.041 322.644 194.323 322.32C193.454 321.897 192.715 321.25 192.179 320.447C191.643 319.643 191.331 318.712 191.274 317.747V314.699C190.472 313.289 189.955 311.736 189.75 310.127C189.62 309.115 189.62 308.091 189.75 307.079V291.838C188.866 287.083 189.506 283.41 191.274 282.693C191.768 282.52 192.305 282.52 192.798 282.693V281.169C192.524 280.172 192.524 279.118 192.798 278.121C193.24 276.597 194.048 276.475 194.323 275.073C194.597 273.671 193.789 272.619 194.323 272.025Z" fill="#52B15D"/>
<path d="M191.41 298.911C190.541 295.268 193.97 290.208 197.598 290.315C200.204 290.407 201.895 293.15 202.17 293.76C203.694 296.381 203.953 300.389 202.17 302.355C199.533 305.343 192.431 303.27 191.41 298.911Z" fill="#DAF07B"/>
<path d="M197.249 308.818C197.401 308.742 198.285 308.285 198.773 308.818C199.26 309.352 198.773 310.586 198.773 310.647C198.376 311.76 197.706 311.577 197.249 312.476C196.669 313.863 197.812 315.403 197.249 316.134C197.058 316.322 196.8 316.427 196.532 316.427C196.264 316.427 196.007 316.322 195.816 316.134C194.764 315.265 195.069 312.4 195.816 310.647C196.054 309.883 196.564 309.233 197.249 308.818Z" fill="#DAF07B"/>
<path d="M229.888 166.78C225.348 169.46 218.658 165.39 215.498 161.98C209.238 155.21 209.378 142.93 215.498 130.79C214.752 134.95 215.61 139.237 217.898 142.79C222.768 150.08 241.268 150 241.898 149.98C245.128 157.28 233.878 164.42 229.888 166.78Z" fill="#C7BDB2"/>
<path d="M307.86 165.58C312.4 168.26 319.11 163.02 322.26 159.58C328.52 152.82 328.38 140.53 322.26 128.4C323.009 132.56 322.151 136.849 319.86 140.4C314.99 147.69 306.08 148.79 305.46 148.77C302.22 156.08 303.87 163.22 307.86 165.58Z" fill="#C7BDB2"/>
<path d="M218.848 194.93C225.901 194.93 231.618 189.898 231.618 183.69C231.618 177.483 225.901 172.45 218.848 172.45C211.795 172.45 206.078 177.483 206.078 183.69C206.078 189.898 211.795 194.93 218.848 194.93Z" fill="#5E0606"/>
<path d="M229.195 188.841C230.119 186.463 226.992 183.028 222.209 181.169C217.427 179.31 212.801 179.732 211.877 182.11C210.952 184.488 214.08 187.923 218.862 189.782C223.644 191.64 228.27 191.219 229.195 188.841Z" fill="#D68A8A"/>
<path d="M314.129 193.6C321.182 193.6 326.899 188.568 326.899 182.36C326.899 176.152 321.182 171.12 314.129 171.12C307.077 171.12 301.359 176.152 301.359 182.36C301.359 188.568 307.077 193.6 314.129 193.6Z" fill="#5E0606"/>
<path d="M315.216 187.687C319.66 185.122 322.227 181.251 320.951 179.041C319.676 176.831 315.04 177.12 310.596 179.685C306.153 182.25 303.585 186.121 304.861 188.331C306.137 190.541 310.773 190.252 315.216 187.687Z" fill="#D68A8A"/>
<path d="M351.268 529.901L343.708 524.871L342.578 532.521L351.268 529.901Z" fill="#C7BDB2"/>
<path d="M350.047 537.63L342.526 532.53L341.316 540.16L350.047 537.63Z" fill="#C7BDB2"/>
<path d="M347.779 552.771L340.209 547.751L338.969 555.391L347.779 552.771Z" fill="#C7BDB2"/>
<path d="M348.899 545.131L341.339 540.101L340.199 547.741L348.899 545.131Z" fill="#C7BDB2"/>
<path d="M128.758 523.201L137.718 519.351L137.538 527.591L128.758 523.201Z" fill="#C7BDB2"/>
<path d="M128.719 531.681L137.539 527.591L137.609 535.911L128.719 531.681Z" fill="#C7BDB2"/>
<path d="M128.508 548.27L137.588 544.16L137.618 552.68L128.508 548.27Z" fill="#C7BDB2"/>
<path d="M128.637 539.901L137.607 535.841L137.627 544.281L128.637 539.901Z" fill="#C7BDB2"/>
<path d="M307.859 148.78H230.349L216.699 223.47H151.959L183.119 408.79V430.92L163.929 508.37L137.539 519.43V552.62L228.689 555.39L233.489 450.28H262.279L262.609 555.39H338.969L343.839 524.96L319.849 511.13L305.459 430.92L307.859 406.02L351.039 231.76L315.049 226.23L307.859 148.78Z" fill="#A50707"/>
<path d="M179.227 385C179.227 385 188.427 386.45 190.047 388.58C192.788 392.301 194.04 396.913 193.557 401.51C192.867 406.74 182.947 410.34 182.947 410.34L180.947 396.72L179.227 385Z" fill="#FF800D"/>
<path d="M183.288 416.55C183.288 416.55 188.288 418.27 189.048 419.8C190.337 422.471 190.583 425.527 189.738 428.37C188.738 431.58 182.668 432.64 182.668 432.64L182.988 423.93L183.288 416.55Z" fill="#FF800D"/>
<path d="M167.568 493.65C167.568 493.65 170.948 495.65 171.278 496.79C171.831 498.844 171.585 501.031 170.588 502.91C169.398 505.02 164.738 504.91 164.738 504.91L166.228 498.74L167.568 493.65Z" fill="#FF800D"/>
<path d="M184.779 474.25C184.792 473.169 184.619 472.094 184.269 471.07C183.958 470.351 183.454 469.732 182.812 469.283C182.171 468.833 181.417 468.569 180.635 468.522C179.853 468.474 179.073 468.644 178.382 469.013C177.691 469.381 177.115 469.934 176.719 470.61C175.479 472.74 175.069 477.9 176.229 479.09C177.019 479.9 178.229 476.61 180.939 476.96C182.689 477.19 183.229 478.52 183.829 477.83C184.5 476.76 184.831 475.512 184.779 474.25Z" fill="#FF800D"/>
<path d="M195.728 416.06C196.085 415.49 196.31 414.848 196.389 414.18C196.649 412.25 193.958 409.32 191.698 409.97C190.238 410.4 188.368 412.8 188.698 413.97C188.948 414.79 190.779 413.78 192.379 415.36C193.379 416.36 193.378 417.36 193.958 417.36C194.33 417.284 194.68 417.128 194.986 416.904C195.291 416.679 195.545 416.392 195.728 416.06Z" fill="#FF800D"/>
<path d="M192.85 438.81C192.461 437.801 191.899 436.867 191.19 436.05C190.634 435.498 189.935 435.111 189.173 434.932C188.41 434.753 187.612 434.788 186.869 435.035C186.125 435.281 185.464 435.729 184.959 436.328C184.455 436.928 184.126 437.655 184.01 438.43C183.65 440.86 185.2 445.81 186.71 446.49C187.71 446.95 187.71 443.42 190.29 442.75C192 442.31 193 443.35 193.29 442.49C193.522 441.247 193.368 439.963 192.85 438.81Z" fill="#FF800D"/>
<path d="M182.648 450.6C183.017 450.5 183.359 450.319 183.648 450.07C184.528 449.37 184.558 447.07 183.358 446.45C182.578 446.05 180.838 446.32 180.518 446.97C180.288 447.42 181.458 447.72 181.518 448.97C181.518 449.83 181.138 450.2 181.408 450.42C181.59 450.536 181.795 450.612 182.009 450.643C182.223 450.674 182.441 450.66 182.648 450.6Z" fill="#FF800D"/>
<path d="M198.219 491.72C198.859 492.399 199.632 492.94 200.489 493.31C202.909 494.39 207.169 491.92 206.769 488.66C206.509 486.55 203.769 483.15 202.189 483.19C201.079 483.19 202.019 486.03 199.689 487.56C198.159 488.56 196.949 488.11 196.879 488.92C196.959 489.988 197.438 490.987 198.219 491.72Z" fill="#FF800D"/>
<path d="M201.738 466.42C201.478 466.5 199.368 467.23 199.158 468.7C198.848 470.85 202.668 474.29 205.728 473.53C206.449 473.373 207.107 473.003 207.615 472.468C208.123 471.933 208.459 471.258 208.578 470.53C208.648 468.28 205.578 466.88 205.258 466.74C204.166 466.198 202.91 466.084 201.738 466.42Z" fill="#FF800D"/>
<path d="M199.729 477C199.669 476.65 199.169 473.79 196.969 473.28C193.739 472.52 187.329 476.89 187.619 480.97C187.702 481.999 188.126 482.97 188.823 483.731C189.521 484.491 190.451 484.998 191.469 485.17C194.909 485.65 197.959 481.88 198.259 481.51C198.804 480.902 199.217 480.187 199.47 479.41C199.723 478.634 199.811 477.813 199.729 477Z" fill="#FF800D"/>
<path d="M197.637 440.4C198.15 440.94 198.797 441.335 199.511 441.546C200.226 441.756 200.983 441.775 201.707 441.6C203.937 440.89 203.647 437.99 206.447 436.6C207.877 435.92 208.807 436.28 209.097 435.6C209.707 434.27 206.027 432.47 206.467 430.21C206.757 428.69 208.597 428.55 208.677 427.31C208.797 425.63 205.537 423.52 202.357 423.45C198.017 423.36 195.137 427.09 194.357 428.16C193.577 429.23 192.287 430.84 192.677 432.3C193.107 433.93 194.947 433.68 196.217 435.77C197.487 437.86 196.357 439 197.637 440.4Z" fill="#FF800D"/>
<path d="M192.568 448.66C191.919 448.754 191.305 449.017 190.79 449.423C190.274 449.828 189.873 450.362 189.628 450.97C189.018 452.91 191.298 454.12 190.858 456.77C190.628 458.13 189.858 458.61 190.228 459.14C190.898 460.22 194.078 458.49 195.508 459.91C196.508 460.91 195.658 462.24 196.508 462.91C197.688 463.83 200.878 462.54 202.508 460.3C204.768 457.3 203.508 453.38 203.128 452.3C202.748 451.22 202.208 449.51 200.938 449.07C199.668 448.63 198.778 450.07 196.608 449.9C194.438 449.73 194.208 448.42 192.568 448.66Z" fill="#FF800D"/>
<path d="M175 464.37C175.71 465.68 179.69 466.099 182.11 464.719C185.41 462.839 185.8 458.719 185.91 457.599C186.02 456.479 186.19 454.68 185.2 453.77C184.21 452.86 182.84 453.77 180.9 452.77C178.96 451.77 179.96 451.17 178.35 450.77" fill="#FF800D"/>
<path d="M191.318 463.2C190.646 463.236 189.99 463.42 189.398 463.74C187.658 464.63 186.808 468.52 188.638 469.99C189.828 470.99 192.868 471.1 193.638 470.1C194.168 469.42 192.288 468.5 192.638 466.28C192.888 464.82 193.718 464.33 193.338 463.86C193.066 463.615 192.746 463.43 192.398 463.316C192.05 463.202 191.682 463.163 191.318 463.2Z" fill="#FF800D"/>
<path d="M208.446 480C208.501 479.615 208.47 479.222 208.356 478.85C208.046 477.77 205.946 476.85 204.906 477.73C204.236 478.29 203.806 480 204.286 480.55C204.606 480.93 205.286 479.97 206.546 480.43C207.346 480.73 207.546 481.25 207.836 481.09C208.01 480.962 208.154 480.799 208.259 480.611C208.365 480.423 208.428 480.214 208.446 480Z" fill="#FF800D"/>
<path d="M205.717 413.58C205.431 413.318 205.089 413.123 204.717 413.01C203.657 412.65 201.717 413.86 201.837 415.22C201.927 416.09 203.087 417.4 203.837 417.32C204.337 417.27 203.957 416.13 205.027 415.39C205.727 414.9 206.257 415.04 206.307 414.7C206.293 414.482 206.233 414.27 206.131 414.077C206.029 413.884 205.889 413.715 205.717 413.58Z" fill="#FF800D"/>
<path d="M184.048 481.84C183.282 481.337 182.398 481.044 181.483 480.991C180.568 480.938 179.656 481.128 178.838 481.54C176.408 483.01 177.668 486.39 174.758 488.75C173.258 489.97 172.058 489.75 171.908 490.65C171.608 492.41 176.538 493.53 176.728 496.35C176.858 498.23 174.728 498.91 175.008 500.41C175.398 502.46 179.938 504.06 183.738 503.26C188.928 502.16 191.178 496.91 191.828 495.41C192.548 493.74 193.448 491.64 192.528 490.01C191.528 488.19 189.388 489.01 187.218 486.86C185.048 484.71 185.998 483.11 184.048 481.84Z" fill="#FF800D"/>
<path d="M208.46 496.27C208.173 496.005 207.832 495.807 207.46 495.69C206.4 495.34 204.46 496.55 204.58 497.9C204.66 498.77 205.83 500.09 206.58 500.01C207.08 499.95 206.7 498.81 207.77 498.07C208.47 497.58 209 497.73 209.05 497.38C209.035 497.164 208.975 496.953 208.873 496.762C208.771 496.571 208.63 496.403 208.46 496.27Z" fill="#FF800D"/>
<path d="M210.148 516.57C209.33 514.627 208.137 512.863 206.638 511.38C202.478 507.16 192.088 509.08 190.638 516.38C189.698 521.07 192.828 530.48 196.138 531.68C198.398 532.5 198.458 525.74 204.268 524.31C208.078 523.36 210.268 525.31 210.928 523.62C211.588 521.93 211.228 519.35 210.148 516.57Z" fill="#FF800D"/>
<path d="M228.797 553.12C228.797 553.12 219.397 549.12 218.287 546.74C216.435 542.504 216.228 537.73 217.707 533.35C219.537 528.41 230.007 527.08 230.007 527.08L229.357 540.75L228.797 553.12Z" fill="#FF800D"/>
<path d="M206.838 527.09C206.488 527.09 203.598 527.33 202.838 529.47C201.768 532.6 205.488 539.41 209.578 539.53C210.609 539.549 211.617 539.224 212.443 538.607C213.269 537.989 213.865 537.114 214.138 536.12C214.948 532.74 211.508 529.33 211.138 529C210.59 528.405 209.925 527.929 209.186 527.6C208.446 527.272 207.647 527.098 206.838 527.09Z" fill="#FF800D"/>
<path d="M202.25 507.45C202.77 507.339 203.254 507.098 203.655 506.747C204.056 506.397 204.36 505.951 204.54 505.45C204.91 503.9 202.93 503.13 203.11 501.04C203.2 499.96 203.78 499.53 203.47 499.15C202.83 498.35 200.3 499.95 199 498.96C198.13 498.29 198.72 497.16 198 496.7C197 496.08 194.38 497.34 193.15 499.2C191.47 501.75 192.81 504.67 193.2 505.5C193.59 506.33 194.2 507.6 195.2 507.85C196.2 508.1 196.94 506.95 198.76 506.85C200.58 506.75 200.9 507.76 202.25 507.45Z" fill="#FF800D"/>
<path d="M217.208 527C218.136 527.104 219.074 527.019 219.968 526.75C222.518 526.03 224.188 521.39 221.778 519.15C220.228 517.71 215.968 516.85 214.778 517.92C213.948 518.65 216.478 520.2 215.688 522.87C215.168 524.63 213.948 525.06 214.418 525.72C215.156 526.48 216.151 526.937 217.208 527Z" fill="#FF800D"/>
<path d="M209.21 544.12C208.375 544.541 207.636 545.13 207.04 545.85C205.31 547.85 206.48 552.65 209.72 553.19C211.81 553.54 215.84 551.91 216.26 550.35C216.55 549.28 213.59 549.35 212.78 546.71C212.24 544.95 213.03 543.93 212.27 543.63C211.224 543.402 210.131 543.577 209.21 544.12Z" fill="#FF800D"/>
<path d="M221.72 553.59C221.77 553.205 221.729 552.815 221.6 552.45C221.27 551.37 219.14 550.51 218.13 551.45C217.47 552.03 217.13 553.74 217.58 554.28C217.91 554.65 218.58 553.67 219.84 554.1C220.64 554.39 220.84 554.9 221.15 554.74C221.323 554.601 221.464 554.426 221.562 554.228C221.661 554.029 221.714 553.811 221.72 553.59Z" fill="#FF800D"/>
<path d="M192.697 537.909C193.06 537.343 193.286 536.699 193.357 536.03C193.627 534.09 190.937 531.16 188.667 531.82C187.217 532.25 185.337 534.65 185.667 535.82C185.927 536.65 187.757 535.639 189.357 537.219C190.357 538.219 190.357 539.219 190.937 539.219C191.308 539.141 191.657 538.984 191.961 538.758C192.265 538.531 192.516 538.242 192.697 537.909Z" fill="#FF800D"/>
<path d="M210 506.58C209.61 507.128 209.347 507.757 209.23 508.42C208.85 510.34 211.36 513.42 213.66 512.9C215.14 512.57 217.15 510.28 216.85 509.05C216.65 508.21 214.77 509.11 213.26 507.43C212.26 506.33 212.4 505.43 211.8 505.43C211.436 505.486 211.089 505.617 210.779 505.815C210.469 506.013 210.204 506.274 210 506.58Z" fill="#FF800D"/>
<path d="M228.739 517.38C228.794 516.994 228.764 516.602 228.649 516.23C228.339 515.15 226.239 514.23 225.199 515.11C224.529 515.67 224.099 517.38 224.579 517.93C224.899 518.31 225.629 517.35 226.839 517.81C227.639 518.11 227.839 518.63 228.139 518.47C228.31 518.34 228.452 518.176 228.555 517.988C228.659 517.801 228.721 517.593 228.739 517.38Z" fill="#FF800D"/>
<path d="M189.998 509.1C189.938 508.75 189.438 505.9 187.238 505.38C184.008 504.63 177.598 509 177.888 513.08C177.975 514.107 178.4 515.076 179.097 515.836C179.793 516.596 180.722 517.104 181.738 517.28C185.178 517.75 188.228 513.99 188.528 513.62C189.072 513.008 189.483 512.291 189.736 511.513C189.989 510.735 190.078 509.914 189.998 509.1Z" fill="#FF800D"/>
<path d="M311.077 393C311.077 393 302.187 394.19 300.647 396.2C298.03 399.757 296.787 404.139 297.147 408.54C297.677 413.54 306.747 417.23 306.747 417.23L307.857 405.99L311.077 393Z" fill="#FF800D"/>
<path d="M306.257 422.56C306.257 422.56 300.547 423.81 299.807 425.27C298.555 427.815 298.263 430.727 298.987 433.47C299.887 436.58 306.617 437.38 306.617 437.38L305.457 430.92L306.257 422.56Z" fill="#FF800D"/>
<path d="M318.289 502.28C318.289 502.28 315.289 503.45 315.009 504.4C314.557 506.042 314.709 507.792 315.439 509.33C316.319 511.05 319.879 511.01 319.879 511.01L318.939 506.01L318.289 502.28Z" fill="#FF800D"/>
<path d="M304.498 478.54C304.513 477.517 304.695 476.503 305.038 475.54C305.314 474.853 305.783 474.26 306.387 473.834C306.992 473.407 307.708 473.164 308.447 473.135C309.187 473.105 309.919 473.29 310.556 473.667C311.193 474.044 311.708 474.597 312.038 475.26C313.138 477.32 313.408 482.26 312.318 483.41C311.568 484.17 310.488 480.98 308.018 481.26C306.398 481.44 305.878 482.71 305.338 482.03C304.722 480.973 304.43 479.76 304.498 478.54Z" fill="#FF800D"/>
<path d="M295.597 422.46C295.279 421.901 295.085 421.28 295.027 420.64C294.827 418.78 297.367 416.02 299.437 416.7C300.777 417.14 302.437 419.49 302.087 420.64C301.837 421.43 300.167 420.42 298.657 421.9C297.657 422.9 297.717 423.8 297.167 423.75C296.828 423.661 296.512 423.499 296.241 423.276C295.97 423.054 295.75 422.775 295.597 422.46Z" fill="#FF800D"/>
<path d="M297.787 444.35C298.166 443.397 298.704 442.514 299.377 441.74C301.207 439.61 305.497 440.54 305.937 444.17C306.227 446.52 304.697 451.24 303.287 451.85C302.287 452.27 302.457 448.85 300.067 448.19C298.497 447.73 297.557 448.71 297.307 447.87C297.123 446.675 297.29 445.452 297.787 444.35Z" fill="#FF800D"/>
<path d="M306.997 455.88C306.652 455.779 306.334 455.601 306.067 455.36C305.277 454.66 305.287 452.46 306.417 451.89C307.137 451.52 308.737 451.81 309.017 452.45C309.217 452.88 308.137 453.14 308.017 454.39C308.017 455.2 308.347 455.57 308.097 455.78C307.931 455.873 307.747 455.93 307.558 455.947C307.368 455.965 307.177 455.942 306.997 455.88Z" fill="#FF800D"/>
<path d="M291.755 495C291.159 495.637 290.433 496.138 289.625 496.47C287.375 497.47 283.505 495 283.935 491.88C284.215 489.88 286.785 486.66 288.275 486.73C289.275 486.73 288.365 489.45 290.485 490.98C291.875 491.98 292.995 491.56 293.045 492.34C292.955 493.354 292.496 494.3 291.755 495Z" fill="#FF800D"/>
<path d="M288.997 470.66C289.237 470.75 291.167 471.49 291.327 472.9C291.567 474.98 287.977 478.2 285.177 477.4C284.495 477.221 283.884 476.838 283.426 476.302C282.969 475.765 282.686 475.102 282.617 474.4C282.617 472.24 285.467 470.96 285.747 470.84C286.765 470.356 287.932 470.292 288.997 470.66Z" fill="#FF800D"/>
<path d="M290.669 480.88C290.729 480.54 291.249 477.81 293.289 477.36C296.289 476.71 302.098 481.04 301.738 484.95C301.657 485.916 301.258 486.828 300.603 487.543C299.948 488.258 299.074 488.735 298.118 488.9C294.928 489.28 292.199 485.6 291.929 485.24C291.439 484.634 291.076 483.936 290.859 483.187C290.643 482.438 290.578 481.654 290.669 480.88Z" fill="#FF800D"/>
<path d="M293.338 445.781C292.867 446.285 292.266 446.65 291.601 446.837C290.937 447.024 290.234 447.025 289.568 446.841C287.568 446.111 287.858 443.33 285.298 441.99C283.988 441.31 283.128 441.63 282.868 440.99C282.338 439.7 285.768 438.06 285.408 435.87C285.168 434.41 283.478 434.24 283.408 433.05C283.328 431.42 286.408 429.48 289.308 429.48C293.308 429.48 295.898 433.12 296.638 434.17C297.378 435.22 298.488 436.79 298.098 438.17C297.668 439.72 295.978 439.44 294.768 441.42C293.558 443.4 294.548 444.491 293.338 445.781Z" fill="#FF800D"/>
<path d="M297.848 453.809C298.453 453.921 299.018 454.191 299.485 454.592C299.952 454.992 300.305 455.509 300.508 456.09C301.028 457.97 298.908 459.09 299.258 461.63C299.438 462.94 300.098 463.419 299.788 463.919C299.148 464.919 296.258 463.209 294.898 464.549C293.998 465.439 294.718 466.78 293.898 467.4C292.788 468.25 289.898 466.94 288.388 464.77C286.388 461.77 287.618 458.09 287.978 457.03C288.338 455.97 288.888 454.38 290.068 454.03C291.248 453.68 292.068 454.979 294.068 454.919C296.068 454.859 296.338 453.549 297.848 453.809Z" fill="#FF800D"/>
<path d="M312.258 468.82C311.628 469.88 308.258 470.24 306.328 469.13C303.708 467.62 303.548 464.34 303.498 463.4C303.448 462.46 303.388 461.04 304.228 460.31C305.068 459.58 306.158 460.31 307.778 459.5C309.398 458.69 308.968 458.27 310.298 457.91" fill="#FF800D"/>
<path d="M298.699 467.79C299.32 467.841 299.922 468.033 300.459 468.35C302.039 469.24 302.749 472.99 301.029 474.35C299.919 475.24 297.109 475.35 296.409 474.35C295.939 473.68 297.689 472.84 297.409 470.7C297.209 469.3 296.409 468.81 296.819 468.37C297.072 468.143 297.371 467.975 297.695 467.874C298.02 467.774 298.362 467.745 298.699 467.79Z" fill="#FF800D"/>
<path d="M282.569 483.52C282.531 483.153 282.569 482.782 282.679 482.43C282.989 481.43 284.939 480.56 285.879 481.43C286.489 481.99 286.879 483.63 286.389 484.15C286.089 484.51 285.389 483.57 284.309 483.98C283.569 484.26 283.389 484.76 283.109 484.6C282.949 484.468 282.819 484.303 282.726 484.117C282.633 483.931 282.579 483.728 282.569 483.52Z" fill="#FF800D"/>
<path d="M286.437 419.87C286.701 419.622 287.019 419.44 287.367 419.34C287.684 419.3 288.006 419.325 288.313 419.414C288.62 419.504 288.905 419.656 289.151 419.86C289.397 420.065 289.598 420.318 289.742 420.603C289.886 420.889 289.969 421.201 289.987 421.52C289.887 422.35 288.787 423.59 288.117 423.52C287.667 423.45 288.037 422.36 287.117 421.63C286.487 421.15 285.987 421.28 285.957 420.95C285.958 420.746 286.001 420.545 286.084 420.359C286.166 420.174 286.287 420.007 286.437 419.87Z" fill="#FF800D"/>
<path d="M304.997 485.841C305.706 485.376 306.529 485.113 307.377 485.081C308.225 485.05 309.065 485.25 309.807 485.66C312.017 487.12 310.807 490.34 313.427 492.66C314.777 493.86 315.897 493.721 316.007 494.551C316.257 496.241 311.687 497.21 311.447 499.91C311.297 501.72 313.247 502.41 312.947 503.85C312.547 505.8 308.337 507.241 304.847 506.391C300.087 505.231 298.117 500.151 297.547 498.691C296.927 497.071 296.137 495.031 297.017 493.491C298.017 491.771 299.927 492.581 302.017 490.581C304.107 488.581 303.197 487.001 304.997 485.841Z" fill="#FF800D"/>
<path d="M282.228 499.17C282.49 498.92 282.809 498.738 283.158 498.64C283.473 498.599 283.794 498.625 284.1 498.714C284.406 498.803 284.69 498.954 284.934 499.157C285.179 499.361 285.38 499.612 285.523 499.897C285.666 500.181 285.75 500.492 285.768 500.81C285.678 501.65 284.578 502.89 283.908 502.81C283.458 502.74 283.828 501.65 282.858 500.92C282.218 500.44 281.727 500.57 281.688 500.24C281.699 500.034 281.752 499.832 281.845 499.648C281.938 499.464 282.068 499.301 282.228 499.17Z" fill="#FF800D"/>
<path d="M280.249 518.62C281.042 516.787 282.175 515.121 283.588 513.71C287.508 509.71 297.049 511.81 298.249 518.83C299.019 523.35 295.949 532.31 292.869 533.4C290.769 534.14 290.869 527.65 285.529 526.15C282.029 525.15 280.019 526.97 279.399 525.35C278.779 523.73 279.199 521.26 280.249 518.62Z" fill="#FF800D"/>
<path d="M262.607 553.67C262.607 553.67 271.067 549.67 272.127 547.4C273.938 543.358 274.226 538.797 272.937 534.56C271.357 529.78 262.527 528.22 262.527 528.22V541.55L262.607 553.67Z" fill="#FF800D"/>
<path d="M283.086 528.79C283.416 528.79 286.086 529.09 286.706 531.15C287.626 534.15 284.066 540.64 280.296 540.66C279.329 540.646 278.395 540.307 277.644 539.697C276.893 539.088 276.369 538.244 276.156 537.3C275.476 534.04 278.726 530.83 279.046 530.52C279.557 529.961 280.182 529.517 280.879 529.219C281.576 528.92 282.328 528.774 283.086 528.79Z" fill="#FF800D"/>
<path d="M287.718 510C287.23 509.874 286.783 509.623 286.42 509.272C286.057 508.922 285.791 508.483 285.648 508C285.338 506.5 287.188 505.8 287.058 503.79C286.998 502.79 286.478 502.33 286.768 501.97C287.368 501.22 289.668 502.81 290.888 501.88C291.708 501.26 291.188 500.16 291.888 499.74C292.888 499.17 295.218 500.42 296.308 502.24C297.798 504.72 296.508 507.49 296.128 508.29C295.748 509.09 295.208 510.29 294.198 510.49C293.188 510.69 292.608 509.59 290.938 509.49C289.268 509.39 288.998 510.36 287.718 510Z" fill="#FF800D"/>
<path d="M273.538 528.51C272.676 528.591 271.807 528.489 270.988 528.21C268.658 527.46 267.218 522.97 269.478 520.88C270.938 519.52 274.888 518.79 275.988 519.88C276.728 520.6 274.368 522.03 275.048 524.62C275.488 526.32 276.608 526.75 276.158 527.38C275.458 528.074 274.522 528.478 273.538 528.51Z" fill="#FF800D"/>
<path d="M280.559 545.08C281.338 545.499 282.019 546.079 282.559 546.78C284.109 548.78 282.938 553.32 279.948 553.78C278.008 554.07 274.328 552.42 273.948 550.91C273.708 549.91 276.439 550.04 277.239 547.5C277.769 545.83 277.069 544.82 277.769 544.5C278.739 544.325 279.739 544.533 280.559 545.08Z" fill="#FF800D"/>
<path d="M268.829 553.9C268.792 553.532 268.837 553.16 268.959 552.81C269.299 551.81 271.269 551 272.189 551.88C272.779 552.45 273.099 554.11 272.639 554.62C272.319 554.96 271.699 554.01 270.559 554.4C269.809 554.65 269.619 555.14 269.339 554.98C269.185 554.844 269.06 554.678 268.973 554.493C268.885 554.307 268.836 554.105 268.829 553.9Z" fill="#FF800D"/>
<path d="M295.899 539.47C295.581 538.911 295.387 538.29 295.329 537.65C295.119 535.79 297.669 533.03 299.739 533.71C301.069 534.15 302.739 536.5 302.379 537.65C302.129 538.44 300.469 537.43 298.959 538.92C297.959 539.92 298.019 540.81 297.459 540.76C297.121 540.67 296.807 540.508 296.538 540.285C296.269 540.062 296.051 539.784 295.899 539.47Z" fill="#FF800D"/>
<path d="M280.618 509C280.968 509.538 281.196 510.145 281.288 510.78C281.598 512.62 279.218 515.53 277.118 514.98C275.758 514.63 273.948 512.39 274.248 511.21C274.448 510.41 276.168 511.32 277.588 509.74C278.528 508.74 278.428 507.79 278.978 507.8C279.321 507.871 279.645 508.015 279.928 508.222C280.211 508.429 280.446 508.694 280.618 509Z" fill="#FF800D"/>
<path d="M263.097 519C263.058 518.63 263.096 518.256 263.207 517.9C263.517 516.9 265.477 516.03 266.417 516.9C267.017 517.46 267.417 519.1 266.927 519.62C266.617 519.98 265.927 519.04 264.837 519.46C264.097 519.73 263.917 520.23 263.637 520.07C263.477 519.94 263.346 519.777 263.253 519.593C263.16 519.408 263.106 519.206 263.097 519Z" fill="#FF800D"/>
<path d="M298.998 511.88C299.058 511.54 299.588 508.81 301.618 508.37C304.618 507.71 310.428 512.04 310.078 515.95C309.995 516.917 309.593 517.829 308.937 518.544C308.28 519.259 307.404 519.735 306.448 519.9C303.268 520.28 300.528 516.61 300.268 516.24C299.774 515.636 299.407 514.938 299.188 514.189C298.97 513.44 298.905 512.655 298.998 511.88Z" fill="#FF800D"/>
<path d="M289.87 296C283.15 287 271.87 284.5 258.68 281.54C246.09 278.71 224.58 274.01 210.68 283.95C195.28 294.95 190.2 320.61 198.68 346.62C209.87 383.62 221.07 413.31 232.26 450.28H263.45C269.62 407.64 278.14 379.28 285.04 356.28C292.57 331.22 300.54 310.21 289.87 296Z" fill="#D68A8A"/>
<path d="M401.92 416.511C404.83 419.251 410.7 428.661 413.92 434.971C422.31 451.661 419.44 452.811 417.92 453.231C417.04 453.481 415.92 452.961 410.16 443.511C407.36 438.901 404.75 434.681 403.82 435.261C403.17 435.661 406.55 439.031 409.82 450.081C411.99 457.321 412.32 464.081 410.74 464.271C406.9 464.821 406 458.551 400.24 448.621C392.53 435.351 392.24 438.241 392 438.351C391.46 438.651 395.72 444.161 399.07 455.041C403.76 470.281 399.3 469.781 399.07 469.731C396.12 469.151 395.48 463.731 388.79 453.901C387.24 451.631 379.68 442.011 378.79 442.711C378.2 443.171 382.7 448.551 386.96 459.891C389.48 466.601 389.16 471.941 388.08 472.491C386.08 473.491 383.08 468.491 376.92 460.211C368.24 448.521 367.64 445.551 365.28 446.131C362.92 446.711 362.22 452.651 361.97 455.281C361.13 463.931 364.28 469.791 362.81 470.961C361.34 472.131 356.53 468.371 353.42 463.641C346.34 452.871 346.36 434.111 353.23 422.281C363.83 404.001 389.28 404.561 401.92 416.511Z" fill="#5E0606"/>
<path d="M342.619 237.22C387.529 233.45 393.939 411.36 393.939 411.36L353.189 423.54L301.359 265.45C301.359 265.45 316.999 239.38 342.619 237.22Z" fill="#A50707"/>
<path d="M382.171 306.61C382.171 306.61 374.911 310.24 373.921 312.73C372.245 317.04 372.245 321.821 373.921 326.13C375.981 330.98 386.401 331.78 386.401 331.78L384.261 318.06L382.171 306.61Z" fill="#FF800D"/>
<path d="M387.383 338.73C387.383 338.73 382.383 340.85 381.753 342.44C380.652 345.193 380.624 348.258 381.673 351.031C382.953 354.161 389.373 354.75 389.373 354.75L388.373 345.94L387.383 338.73Z" fill="#FF800D"/>
<path d="M377.359 285.9C377.359 285.9 372.499 288.51 372.049 290.16C371.303 293.032 371.66 296.079 373.049 298.7C374.709 301.64 381.049 301.43 381.049 301.43L379.139 293.03L377.359 285.9Z" fill="#FF800D"/>
<path d="M369.209 304.001C368.696 304.964 368.02 305.831 367.209 306.561C366.595 307.047 365.858 307.354 365.081 307.447C364.303 307.541 363.515 307.417 362.804 307.09C362.092 306.762 361.485 306.245 361.05 305.593C360.615 304.942 360.369 304.184 360.339 303.401C360.249 300.941 362.339 296.201 363.919 295.701C364.999 295.361 364.539 298.851 367.059 299.801C368.709 300.431 369.819 299.511 370.059 300.401C370.142 301.659 369.846 302.913 369.209 304.001Z" fill="#FF800D"/>
<path d="M375.082 340.701C374.59 340.244 374.204 339.684 373.952 339.061C373.182 337.261 374.952 333.721 377.352 333.761C378.872 333.761 381.352 335.601 381.282 336.871C381.282 337.731 379.222 337.241 378.102 339.191C377.362 340.471 377.682 341.381 377.102 341.501C376.728 341.517 376.355 341.454 376.007 341.316C375.659 341.178 375.344 340.969 375.082 340.701Z" fill="#FF800D"/>
<path d="M378.741 363.291C378.843 362.215 379.134 361.165 379.601 360.191C379.991 359.512 380.562 358.955 381.25 358.58C381.937 358.205 382.715 358.028 383.497 358.067C384.279 358.106 385.035 358.361 385.681 358.803C386.328 359.244 386.84 359.856 387.161 360.571C388.161 362.821 387.981 368.001 386.691 369.051C385.821 369.771 384.951 366.361 382.261 366.411C380.491 366.411 379.801 367.701 379.261 366.951C378.72 365.812 378.538 364.535 378.741 363.291Z" fill="#FF800D"/>
<path d="M388.342 375.691C387.956 375.694 387.575 375.616 387.222 375.461C386.222 375.011 385.542 372.811 386.542 371.891C387.182 371.301 388.922 371.091 389.412 371.631C389.752 372.001 388.702 372.631 389.012 373.861C389.212 374.691 389.702 374.941 389.502 375.231C389.352 375.386 389.172 375.507 388.971 375.586C388.771 375.666 388.557 375.701 388.342 375.691Z" fill="#FF800D"/>
<path d="M375.809 305.601C375.691 305.977 375.485 306.32 375.209 306.601C374.449 307.421 372.209 307.291 371.629 306.041C371.279 305.241 371.629 303.531 372.349 303.251C372.809 303.061 373.019 304.251 374.349 304.381C375.199 304.471 375.599 304.091 375.809 304.381C375.892 304.574 375.935 304.781 375.935 304.991C375.935 305.201 375.892 305.408 375.809 305.601Z" fill="#FF800D"/>
<path d="M363.631 311.581C364.111 311.581 368.071 311.851 369.131 314.131C370.681 317.451 365.791 324.661 360.201 324.771C357.831 324.771 354.701 323.581 353.881 321.131C352.671 317.541 357.291 313.941 357.741 313.591C359.397 312.232 361.489 311.518 363.631 311.581Z" fill="#FF800D"/>
<path d="M362.192 350.521C362.192 350.041 361.842 346.091 364.352 344.681C368.032 342.681 377.232 346.321 378.192 351.831C378.592 354.171 377.622 357.461 374.862 358.661C370.862 360.421 365.863 356.431 365.423 356.031C364.545 355.374 363.807 354.548 363.252 353.602C362.697 352.656 362.337 351.608 362.192 350.521Z" fill="#FF800D"/>
<path d="M366.341 326.431C367.241 326.592 368.085 326.986 368.786 327.574C369.488 328.162 370.024 328.922 370.341 329.781C371.101 332.511 367.871 334.111 368.341 337.831C368.601 339.741 369.601 340.441 369.121 341.171C368.121 342.651 363.771 340.091 361.701 342.011C360.321 343.301 361.411 345.261 360.181 346.151C358.491 347.381 354.081 345.441 351.861 342.251C348.861 337.901 350.781 332.531 351.341 330.991C351.961 329.291 352.741 327.141 354.531 326.581C356.531 325.961 357.531 327.991 360.531 327.921C363.441 327.851 364.051 326.001 366.341 326.431Z" fill="#FF800D"/>
<path d="M379.17 370.93C379.821 370.848 380.482 370.937 381.087 371.19C381.693 371.442 382.221 371.849 382.62 372.37C383.72 374.08 381.85 375.86 382.97 378.29C383.55 379.54 384.39 379.81 384.21 380.41C383.85 381.63 380.33 380.8 379.32 382.55C378.65 383.73 379.8 384.84 379.15 385.71C378.26 386.9 374.83 386.51 372.64 384.8C369.64 382.46 369.85 378.38 369.91 377.21C369.97 376.04 370.05 374.28 371.16 373.52C372.27 372.76 373.49 373.85 375.56 373.16C377.63 372.47 377.52 371.14 379.17 370.93Z" fill="#FF800D"/>
<path d="M393.182 395.12C392.292 396.32 388.862 395.92 386.672 394.21C383.672 391.88 383.881 387.8 383.941 386.62C384.001 385.44 384.081 383.69 385.191 382.93C386.301 382.17 387.521 383.27 389.581 382.57C391.641 381.87 390.322 381.07 391.972 380.86" fill="#FF800D"/>
<path d="M372.3 392.76C372.678 392.204 373.173 391.736 373.75 391.39C375.42 390.39 379.19 391.64 379.5 393.98C379.7 395.48 378.26 398.17 377 398.32C376.15 398.43 376.33 396.32 374.24 395.52C372.86 394.98 372.01 395.43 371.8 394.87C371.731 394.503 371.739 394.126 371.826 393.762C371.912 393.398 372.074 393.057 372.3 392.76Z" fill="#FF800D"/>
<path d="M382.271 402.65C382.115 402.295 382.044 401.908 382.061 401.52C382.061 400.4 383.851 398.96 385.061 399.52C385.861 399.89 386.721 401.42 386.411 402.08C386.201 402.53 385.241 401.79 384.191 402.56C383.501 403.06 383.461 403.62 383.131 403.56C382.931 403.478 382.751 403.355 382.603 403.198C382.455 403.041 382.342 402.854 382.271 402.65Z" fill="#FF800D"/>
<path d="M354.402 350.211C354.605 349.879 354.882 349.598 355.212 349.391C356.142 348.761 358.342 349.391 358.572 350.751C358.722 351.611 357.952 353.191 357.232 353.301C356.742 353.381 356.802 352.181 355.582 351.751C354.772 351.471 354.292 351.751 354.162 351.431C354.112 351.222 354.108 351.005 354.149 350.795C354.191 350.584 354.277 350.385 354.402 350.211Z" fill="#FF800D"/>
<path d="M372.52 270.661C369.62 270.171 364.43 271.441 364.26 272.921C364.13 274.011 365.68 274.391 365.69 275.741C365.69 277.741 362.23 278.811 362.53 280.041C362.68 280.651 363.53 280.471 364.66 281.261C366.85 282.801 366.12 285.261 367.93 286.261C368.535 286.512 369.195 286.599 369.844 286.515C370.494 286.431 371.109 286.178 371.63 285.781C372.96 284.781 372.3 283.571 373.63 282.041C374.96 280.511 375.09 281.621 375.73 280.281L374.25 275.691L372.52 270.661Z" fill="#FF800D"/>
<path d="M94.7887 397.081C91.7187 399.641 85.2786 408.671 81.7186 414.771C72.3086 430.911 75.1087 432.241 76.5587 432.771C77.4187 433.071 78.5586 432.621 84.8986 423.541C87.9786 419.111 90.8386 415.051 91.7286 415.691C92.3486 416.141 88.7287 419.291 84.7987 430.121C82.1887 437.211 81.4486 443.901 83.0086 444.221C86.8086 445.001 88.0886 438.801 94.4586 429.221C102.969 416.451 103.119 419.361 103.309 419.481C103.829 419.811 99.2386 425.041 95.2286 435.701C89.6086 450.621 94.0886 450.401 94.3486 450.361C97.3486 449.971 98.3486 444.611 105.589 435.201C107.279 433.021 115.409 423.891 116.259 424.641C116.819 425.141 112.009 430.231 107.059 441.291C104.129 447.831 104.119 453.181 105.159 453.791C107.109 454.931 110.369 450.161 117.049 442.221C126.439 431.091 127.219 428.161 129.539 428.891C131.859 429.621 132.189 435.581 132.279 438.231C132.579 446.911 129.079 452.561 130.479 453.821C131.879 455.081 136.909 451.621 140.299 447.091C148.029 436.781 149.169 418.091 143.029 405.821C133.579 387.001 108.139 385.931 94.7887 397.081Z" fill="#5E0606"/>
<path d="M164.999 221.781C120.399 215.251 103.059 392.431 103.059 392.431L142.999 407.101L204.448 252.491C204.448 252.491 190.479 225.501 164.999 221.781Z" fill="#A50707"/>
<path d="M120.996 289.42C120.996 289.42 127.696 293.42 128.566 295.9C130.02 300.288 129.778 305.062 127.886 309.28C125.606 314.03 115.156 314.35 115.156 314.35L117.936 300.74L120.996 289.42Z" fill="#FF800D"/>
<path d="M113.796 321.2C113.796 321.2 118.626 323.62 119.186 325.2C120.126 328.013 119.972 331.076 118.756 333.78C117.296 336.78 110.836 337.03 110.836 337.03L112.366 328.31L113.796 321.2Z" fill="#FF800D"/>
<path d="M127.15 268.86C127.15 268.86 131.69 271.8 132.06 273.48C132.667 276.383 132.167 279.407 130.66 281.96C128.87 284.82 122.43 284.29 122.43 284.29L124.93 275.79L127.15 268.86Z" fill="#FF800D"/>
<path d="M133.066 287.4C133.515 288.381 134.135 289.275 134.896 290.04C135.486 290.551 136.206 290.89 136.977 291.018C137.747 291.146 138.538 291.059 139.262 290.766C139.986 290.474 140.615 289.987 141.08 289.359C141.545 288.732 141.827 287.988 141.896 287.21C142.106 284.76 140.246 279.92 138.686 279.35C137.626 278.95 137.916 282.47 135.356 283.3C133.676 283.85 132.616 282.88 132.356 283.76C132.222 285.017 132.469 286.286 133.066 287.4Z" fill="#FF800D"/>
<path d="M125.479 323.76C125.996 323.327 126.409 322.783 126.689 322.17C127.539 320.42 125.899 316.79 123.539 316.72C122.019 316.67 119.539 318.37 119.469 319.64C119.469 320.5 121.469 320.11 122.539 322.11C123.219 323.42 122.849 324.31 123.429 324.47C123.801 324.502 124.176 324.456 124.529 324.333C124.883 324.211 125.206 324.016 125.479 323.76Z" fill="#FF800D"/>
<path d="M120.768 346.151C120.714 345.07 120.47 344.007 120.048 343.011C119.694 342.313 119.153 341.727 118.486 341.317C117.819 340.908 117.051 340.691 116.268 340.691C115.486 340.691 114.718 340.908 114.051 341.317C113.384 341.727 112.843 342.313 112.488 343.011C111.388 345.211 111.318 350.401 112.548 351.511C113.388 352.271 114.418 348.901 117.108 349.071C118.878 349.181 119.498 350.481 120.048 349.751C120.644 348.65 120.895 347.396 120.768 346.151Z" fill="#FF800D"/>
<path d="M110.589 358.091C110.978 358.116 111.368 358.054 111.73 357.911C112.73 357.511 113.529 355.341 112.579 354.381C111.959 353.751 110.23 353.461 109.72 353.981C109.37 354.341 110.38 354.981 110.02 356.231C109.78 357.051 109.269 357.231 109.459 357.571C109.601 357.732 109.775 357.861 109.969 357.951C110.164 358.04 110.375 358.088 110.589 358.091Z" fill="#FF800D"/>
<path d="M126.397 288.66C126.503 289.031 126.691 289.372 126.947 289.66C127.677 290.52 129.947 290.49 130.557 289.27C130.937 288.48 130.627 286.75 129.967 286.45C129.517 286.24 129.247 287.45 127.967 287.45C127.117 287.45 126.737 287.1 126.517 287.37C126.402 287.563 126.332 287.779 126.311 288.002C126.29 288.225 126.32 288.45 126.397 288.66Z" fill="#FF800D"/>
<path d="M138.276 295.21C137.796 295.21 133.836 295.27 132.666 297.49C130.966 300.74 135.506 308.17 141.086 308.49C143.456 308.64 146.636 307.56 147.576 305.16C148.946 301.63 144.506 297.81 144.066 297.44C142.466 296.026 140.411 295.235 138.276 295.21Z" fill="#FF800D"/>
<path d="M137.899 334.18C137.969 333.7 138.459 329.76 136.009 328.24C132.439 326.01 123.069 329.24 121.859 334.73C121.339 337.05 122.159 340.38 124.859 341.73C128.859 343.68 133.919 339.92 134.409 339.54C135.319 338.925 136.096 338.134 136.696 337.213C137.295 336.293 137.704 335.262 137.899 334.18Z" fill="#FF800D"/>
<path d="M134.878 309.911C133.969 310.028 133.107 310.382 132.377 310.937C131.647 311.491 131.075 312.227 130.718 313.071C129.828 315.771 132.988 317.521 132.308 321.201C131.958 323.101 130.928 323.751 131.378 324.501C132.288 326.031 136.768 323.681 138.738 325.701C140.068 327.051 138.888 328.951 140.078 329.901C141.698 331.211 146.188 329.481 148.558 326.401C151.798 322.191 150.098 316.741 149.558 315.181C149.018 313.441 148.348 311.261 146.558 310.621C144.558 309.901 143.558 311.881 140.488 311.621C137.708 311.471 137.188 309.621 134.878 309.911Z" fill="#FF800D"/>
<path d="M119.997 353.76C119.352 353.648 118.687 353.707 118.072 353.932C117.456 354.157 116.91 354.539 116.487 355.04C115.307 356.7 117.087 358.56 115.847 360.94C115.217 362.16 114.367 362.39 114.517 363C114.817 364.23 118.377 363.57 119.297 365.37C119.917 366.57 118.717 367.62 119.297 368.53C120.127 369.76 123.567 369.53 125.837 367.92C128.937 365.73 128.927 361.64 128.927 360.47C128.927 359.3 128.927 357.54 127.847 356.72C126.767 355.9 125.497 356.95 123.477 356.16C121.457 355.37 121.617 354.05 119.997 353.76Z" fill="#FF800D"/>
<path d="M104.848 377.27C105.688 378.51 109.118 378.27 111.388 376.67C114.488 374.48 114.488 370.39 114.478 369.22C114.468 368.05 114.478 366.28 113.408 365.47C112.338 364.66 111.058 365.69 109.028 364.91C106.998 364.13 108.358 363.37 106.728 363.08" fill="#FF800D"/>
<path d="M125.818 375.891C125.467 375.316 124.992 374.828 124.428 374.461C122.818 373.361 118.988 374.461 118.568 376.771C118.298 378.261 119.568 381.021 120.858 381.231C121.708 381.371 121.618 379.231 123.748 378.561C125.158 378.081 125.978 378.561 126.218 378.021C126.303 377.657 126.311 377.28 126.242 376.914C126.173 376.547 126.029 376.199 125.818 375.891Z" fill="#FF800D"/>
<path d="M115.39 385.311C115.563 384.963 115.656 384.58 115.66 384.191C115.66 383.061 113.99 381.541 112.73 382.051C111.92 382.371 110.99 383.861 111.27 384.531C111.46 384.991 112.45 384.311 113.46 385.121C114.12 385.661 114.14 386.211 114.46 386.121C114.662 386.056 114.848 385.951 115.008 385.812C115.168 385.672 115.298 385.502 115.39 385.311Z" fill="#FF800D"/>
<path d="M145.687 334.22C145.503 333.881 145.243 333.59 144.927 333.37C144.017 332.7 141.797 333.24 141.497 334.57C141.307 335.42 141.997 337.04 142.717 337.19C143.207 337.29 143.197 336.08 144.447 335.71C145.257 335.47 145.727 335.77 145.877 335.46C145.934 335.251 145.947 335.033 145.914 334.82C145.881 334.606 145.804 334.402 145.687 334.22Z" fill="#FF800D"/>
<path d="M132.698 254C135.618 253.65 140.698 255.16 140.848 256.65C140.928 257.74 139.358 258.04 139.288 259.4C139.188 261.4 142.608 262.62 142.288 263.84C142.108 264.44 141.288 264.22 140.098 264.96C137.838 266.4 138.448 268.9 136.598 269.75C135.981 269.971 135.317 270.027 134.672 269.913C134.027 269.799 133.422 269.519 132.918 269.1C131.648 268.03 132.358 266.86 131.078 265.27C129.798 263.68 129.648 264.78 129.078 263.41L130.768 258.89L132.698 254Z" fill="#FF800D"/>
<path d="M167.877 202.17C166.267 203.41 161.467 191.98 160.787 192.59C160.107 193.2 162.587 199.51 160.787 201.87C158.537 204.87 147.687 199.73 147.227 200.59C146.767 201.45 156.397 204.65 155.287 207.69C154.177 210.73 149.397 210.06 149.287 210.87C149.177 211.68 155.457 211.65 156.207 217.66C156.877 223.05 149.207 231.74 149.497 232.19C149.787 232.64 157.777 221.79 159.047 223.36C160.137 224.71 157.047 234.57 157.667 235.11C158.287 235.65 164.327 226.11 166.457 227.11C169.077 228.4 164.097 244.93 164.987 245.16C165.877 245.39 170.227 230.16 171.987 230.39C174.097 230.63 171.317 251.75 172.687 251.81C173.827 251.86 176.357 237.35 177.807 237.34C179.707 237.34 178.267 261.7 179.267 261.63C180.087 261.57 181.367 245.35 183.107 245.08C184.637 244.84 185.577 257.21 186.397 256.99C187.217 256.77 186.737 246.34 187.687 246.05C188.637 245.76 190.137 259.1 192.257 258.74C193.557 258.52 194.087 251.29 194.917 251.21C195.747 251.13 195.677 259.39 196.707 259.34C197.737 259.29 199.097 251.49 199.477 251.52C199.857 251.55 197.667 263.73 199.157 264.11C200.647 264.49 204.367 254.55 205.327 254.9C206.287 255.25 203.517 263.6 204.607 264.09C205.957 264.69 211.497 252.77 212.827 253.32C214.357 253.96 208.827 270.38 210.207 270.96C211.587 271.54 217.887 257.6 218.987 258.11C219.927 258.54 215.987 268.87 217.197 269.52C218.407 270.17 224.997 258.37 225.997 259C226.997 259.63 220.147 276 221.117 276.49C221.917 276.92 227.307 265.62 229.047 266.26C230.787 266.9 227.317 280.43 228.477 280.72C229.637 281.01 233.197 267.04 236.747 266.72C240.297 266.4 241.037 281.78 242.377 281.42C243.517 281.1 243.227 270 244.257 269.71C245.627 269.32 248.167 288.19 248.877 287.95C249.587 287.71 247.127 267.43 249.487 266.35C251.257 265.53 254.887 276.04 255.847 275.44C256.807 274.84 253.517 263.17 254.777 262.36C255.497 261.9 256.557 265.72 259.977 267.46C264.137 269.57 269.557 267.46 269.797 266.05C269.987 264.95 266.887 264.71 263.077 260.88C261.897 259.69 259.607 257.39 260.157 256.12C261.027 254.12 268.437 256.65 269.067 255.04C269.477 253.98 266.897 251.18 263.507 250.15C259.507 248.93 257.397 251.05 255.757 249.36C253.317 246.83 255.697 239.71 254.937 239.57C254.177 239.43 251.727 247.98 250.677 247.88C249.287 247.75 251.547 232.48 250.307 232.33C249.417 232.23 247.007 244.88 245.807 244.85C244.607 244.82 245.807 232.21 244.657 232.19C243.797 232.19 242.187 242.1 241.657 242.08C241.127 242.06 243.037 226.25 242.027 226.17C241.017 226.09 237.547 242.54 236.257 242.45C235.257 242.37 236.407 232.27 235.487 232.24C234.567 232.21 232.967 239.79 232.817 239.76C232.667 239.73 237.017 223.12 235.537 222.59C234.057 222.06 227.537 237.26 226.607 236.83C225.677 236.4 230.117 225.43 228.847 224.73C227.577 224.03 222.667 232.38 222.407 232.17C222.147 231.96 229.097 220.7 228.407 220.08C227.717 219.46 221.577 228.23 220.407 227.34C219.237 226.45 224.407 215.14 224.017 214.94C223.627 214.74 219.017 226.38 216.607 226C214.197 225.62 215.247 212.92 214.457 213C213.667 213.08 212.457 224.37 212.007 224.38C211.557 224.39 212.787 219.19 211.157 213.97C209.827 209.73 207.267 207.19 206.997 207.43C206.727 207.67 208.207 209.56 208.537 213.05C208.857 216.38 208.067 219.83 207.537 219.93C206.627 220.09 206.267 211.78 205.447 211.93C204.627 212.08 204.277 220.4 203.857 220.46C203.437 220.52 203.737 205.71 202.457 205.75C201.377 205.75 199.657 216.11 199.187 216.07C198.717 216.03 200.667 204.01 199.827 203.89C199.227 203.8 197.037 214.45 196.107 214.4C195.177 214.35 196.107 206.25 195.477 206.25C194.847 206.25 193.927 213 193.477 213.01C192.817 213.01 194.117 198.88 193.247 198.87C192.987 198.87 192.647 200.06 190.497 206.63C189.497 209.8 189.197 210.55 188.907 210.57C187.717 210.64 187.907 198.62 187.277 198.71C186.647 198.8 186.407 208.18 185.397 208.4C184.387 208.62 183.637 200.2 182.787 200.4C181.937 200.6 181.787 207.1 181.787 207.11C181.787 207.12 183.077 189.46 182.217 189.45C181.357 189.44 179.047 206.45 177.527 206.52C176.007 206.59 176.307 189.46 175.367 189.59C174.637 189.68 174.297 199.92 172.727 200.32C171.157 200.72 169.637 192.84 169.527 192.89C169.417 192.94 169.197 201.15 167.877 202.17Z" fill="#5E0606"/>
<path d="M183.998 248.38C183.138 250.59 172.548 241.08 172.228 242.11C171.978 242.94 177.598 248.48 177.228 251.99C176.708 256.41 172.139 256.59 172.149 257.76C172.159 258.93 175.508 257.19 176.088 261.04C176.668 264.89 170.889 267.04 171.179 268.04C171.469 269.04 177.399 265.43 181.299 271.43C184.799 276.8 182.298 290.32 182.748 290.65C183.198 290.98 184.978 274.96 187.008 275.93C188.758 276.76 191.148 288.93 192.008 289.21C192.868 289.49 193.458 275.89 196.008 275.82C199.158 275.73 203.288 296.13 204.248 295.82C205.208 295.51 201.188 276.96 202.998 276.17C205.118 275.24 213.758 299.3 215.078 298.6C216.168 298.03 210.818 281.16 212.188 280.33C213.958 279.26 225.598 306.05 226.498 305.41C227.238 304.89 219.799 286.89 221.279 285.63C222.599 284.53 230.078 297.19 230.728 296.5C231.378 295.81 225.358 284.96 226.098 284.12C226.838 283.28 235.359 296.67 237.169 295.12C238.269 294.12 234.909 286.12 235.659 285.61C236.409 285.1 240.729 293.91 241.659 293.28C242.589 292.65 239.718 283.59 240.098 283.41C240.478 283.23 244.898 297.41 246.508 297.01C248.118 296.61 246.309 283.92 247.399 283.75C248.489 283.58 250.328 294.04 251.618 293.95C253.198 293.84 252.058 278.05 253.618 277.9C255.398 277.73 258.929 298.33 260.559 298.15C262.189 297.97 260.648 279.65 261.958 279.58C263.068 279.51 264.868 292.73 266.358 292.74C268.018 292.74 267.678 276.54 268.948 276.6C270.398 276.66 272.499 297.94 273.679 297.96C274.679 297.96 273.679 282.96 275.679 282.65C277.679 282.34 281.608 298.71 282.848 298.37C284.088 298.03 279.989 281.16 283.159 278.84C286.329 276.52 295.219 292.51 296.279 291.37C297.189 290.37 290.999 278.73 291.809 277.84C292.889 276.67 305.328 295.37 305.878 294.72C306.428 294.07 293.288 273.82 294.878 271.36C296.108 269.5 305.128 278.68 305.708 277.51C306.288 276.34 296.978 265.72 297.708 264.16C298.138 263.27 301.159 266.75 305.299 266.7C310.299 266.64 314.299 261.37 313.789 259.7C313.379 258.42 310.338 259.9 304.718 257.93C302.968 257.32 299.589 256.13 299.429 254.48C299.169 251.82 306.878 247.83 306.608 245.78C306.438 244.42 303.139 245.46 299.399 246.25C295.019 247.16 294.138 250.61 291.688 249.71C288.058 248.38 286.498 239.47 285.688 239.71C284.878 239.95 287.158 250.46 286.118 250.94C284.748 251.57 278.728 234.04 277.488 234.57C276.588 234.96 281.069 249.78 279.929 250.42C278.789 251.06 273.148 236.97 272.108 237.56C271.288 238.03 275.049 249.5 274.539 249.78C274.029 250.06 267.409 232.14 266.399 232.62C265.389 233.1 270.919 252.55 269.659 253.17C268.659 253.65 264.368 242.24 263.488 242.72C262.608 243.2 265.148 252.17 264.998 252.22C264.848 252.27 260.079 232.15 258.399 232.41C256.719 232.67 258.718 252.48 257.588 252.55C256.638 252.62 254.818 238.45 253.248 238.41C251.678 238.37 251.519 250 251.159 249.92C250.799 249.84 251.338 233.98 250.388 233.68C249.438 233.38 248.308 246.18 246.728 245.88C245.148 245.58 245.529 232.05 245.059 232.05C244.589 232.05 244.898 245.63 242.438 246.56C239.978 247.49 234.188 233.38 233.438 233.9C232.688 234.42 237.568 247.14 237.198 247.38C236.828 247.62 235.198 241.38 230.848 236.77C227.338 232.98 223.578 231.7 223.448 232.11C223.318 232.52 225.719 233.7 227.899 237.23C229.969 240.6 231.068 244.73 230.578 245.15C229.808 245.82 225.038 237.15 224.348 237.8C223.658 238.45 227.768 247.48 227.348 247.8C226.928 248.12 219.348 232.14 218.198 232.9C217.198 233.54 221.088 245.5 220.628 245.72C220.168 245.94 215.628 232.04 214.738 232.37C214.128 232.61 217.738 245.18 216.838 245.65C215.938 246.12 212.449 236.98 211.909 237.32C211.369 237.66 214.048 245.37 213.618 245.63C212.998 246.01 206.678 230.22 205.858 230.69C205.618 230.83 205.939 232.29 207.409 240.49C208.129 244.49 208.289 245.4 208.019 245.58C206.949 246.32 200.689 233.41 200.169 233.84C199.649 234.27 204.398 244.41 203.568 245.22C202.738 246.03 197.568 237.45 196.848 238.15C196.128 238.85 199.498 245.85 199.468 245.87C199.438 245.89 191.278 226.34 190.468 226.81C189.658 227.28 196.549 246.69 195.169 247.62C193.789 248.55 184.918 230.11 184.108 230.77C183.468 231.27 188.608 242.37 187.348 243.67C186.088 244.97 180.448 237.41 180.348 237.54C180.248 237.67 184.678 246.56 183.998 248.38Z" fill="#5E0606"/>
<path d="M258.996 266.851C258.696 268.851 246.556 264.751 246.496 265.681C246.496 266.431 253.006 269.031 253.426 271.981C253.946 275.701 249.686 277.341 249.966 278.281C250.246 279.221 252.966 276.711 254.416 279.621C255.866 282.531 250.916 286.141 251.416 286.811C251.916 287.481 256.666 282.681 261.716 286.201C266.236 289.361 266.926 301.051 267.476 301.151C268.026 301.251 265.976 287.831 268.116 287.941C269.946 288.031 274.986 297.041 275.826 296.941C276.666 296.841 274.136 285.771 276.526 284.871C279.466 283.771 288.016 298.781 288.866 298.251C289.716 297.721 281.666 284.121 283.186 282.891C284.966 281.461 298.606 297.891 299.686 296.891C300.576 296.061 291.686 284.291 292.776 283.181C294.196 281.741 311.286 299.401 311.986 298.601C312.686 297.801 301.436 285.941 302.546 284.441C303.546 283.121 313.466 290.831 313.916 290.061C314.366 289.291 306.236 282.561 306.736 281.651C307.236 280.741 318.316 288.651 319.656 286.831C320.476 285.701 315.486 280.381 316.066 279.701C316.646 279.021 322.726 284.701 323.476 283.871C324.226 283.041 319.476 276.741 319.746 276.471C320.016 276.201 327.466 286.131 328.886 285.271C330.306 284.411 325.696 274.841 326.686 274.351C327.676 273.861 331.806 281.631 332.996 281.141C334.456 280.531 329.766 268.241 331.186 267.611C332.816 266.891 340.856 282.261 342.346 281.611C343.836 280.961 338.206 266.741 339.416 266.251C340.416 265.831 345.156 275.841 346.566 275.361C348.136 274.831 344.096 261.931 345.306 261.561C346.686 261.141 353.536 277.561 354.646 277.141C355.576 276.831 351.226 265.081 353.026 264.201C354.826 263.321 362.286 275.141 363.366 274.461C364.446 273.781 356.746 261.601 359.196 258.691C361.646 255.781 373.666 265.691 374.406 264.431C375.036 263.361 366.536 256.031 367.106 255.051C367.846 253.761 386.666 252.051 387.026 251.311C387.386 250.571 367.576 251.311 368.546 248.821C369.286 246.931 379.646 241.271 379.926 240.131C380.206 238.991 369.236 243.611 369.586 242.131C369.786 241.271 371.436 240.131 375.326 238.701C380.046 237.001 384.566 234.441 383.706 233.311C383.026 232.411 380.656 233.801 374.766 234.861C373.006 235.181 369.676 236.291 369.136 235.021C368.286 232.971 375.666 227.941 374.946 226.371C374.466 225.371 371.786 228.171 368.446 230.021C364.536 232.201 370.946 229.941 368.446 230.021C364.716 230.151 369.136 219.811 368.446 220.291C367.756 220.771 360.916 228.781 359.806 228.581C356.256 227.921 344.876 224.251 343.806 225.091C343.056 225.691 350.656 236.091 349.726 237.001C348.796 237.911 340.276 228.441 339.426 229.261C338.766 229.891 344.936 237.861 344.516 238.261C344.096 238.661 333.766 226.461 332.936 227.171C332.106 227.881 341.746 241.681 340.706 242.591C339.886 243.301 333.226 235.591 332.516 236.231C331.806 236.871 336.236 243.231 336.106 243.361C335.976 243.491 326.876 228.881 325.356 229.641C323.836 230.401 330.256 245.641 329.216 246.061C328.176 246.481 323.376 235.651 321.896 236.141C320.416 236.631 322.896 246.001 322.566 246.061C322.236 246.121 319.076 233.211 318.116 233.281C317.156 233.351 319.026 243.991 317.466 244.281C315.906 244.571 311.406 232.961 310.966 233.121C310.526 233.281 315.696 244.681 313.586 246.231C311.476 247.781 302.816 238.371 302.276 239.021C301.736 239.671 309.186 248.291 308.896 248.601C308.606 248.911 308.446 248.141 303.326 245.831C302.066 245.222 300.942 244.364 300.022 243.308C299.103 242.253 298.407 241.022 297.976 239.691C299.396 241.871 297.976 244.251 300.796 246.371C303.616 248.491 302.516 248.481 302.156 248.981C301.586 249.781 295.156 244.401 294.616 245.131C294.076 245.861 300.046 251.781 299.766 252.131C299.486 252.481 288.696 242.191 287.766 243.191C286.986 244.021 293.366 252.351 292.986 252.681C292.606 253.011 285.116 243.351 284.386 243.901C283.866 244.301 290.146 253.191 289.386 253.901C288.626 254.611 283.276 248.391 282.836 248.841C282.396 249.291 286.696 254.591 286.356 254.941C285.856 255.451 276.296 244.861 275.636 245.511C275.436 245.701 276.066 246.771 279.336 252.861C280.916 255.801 281.276 256.511 281.076 256.741C280.226 257.691 271.396 249.391 270.996 249.901C270.596 250.411 277.406 257.001 276.806 257.901C276.206 258.801 269.356 253.641 268.866 254.431C268.376 255.221 273.116 259.741 273.096 259.761C273.076 259.781 260.926 246.761 260.266 247.431C259.606 248.101 270.526 261.381 269.436 262.581C268.346 263.781 255.796 251.901 255.176 252.701C254.706 253.311 262.076 260.521 261.176 261.981C260.276 263.441 253.256 259.231 253.176 259.351C253.096 259.471 259.226 265.151 258.996 266.851Z" fill="#5E0606"/>
<path d="M359.338 234.29C359.398 232.79 368.438 234.85 368.408 234.18C368.378 233.51 363.478 232.27 362.948 230.18C362.298 227.54 365.228 226.04 364.948 225.39C364.668 224.74 362.888 226.74 361.648 224.76C360.408 222.78 363.648 219.81 363.278 219.36C362.908 218.91 359.808 222.73 355.918 220.58C352.428 218.65 351.048 210.31 350.648 210.28C350.248 210.25 352.728 219.74 351.188 219.82C349.868 219.89 345.558 213.82 344.958 213.92C344.358 214.02 347.018 221.81 345.368 222.64C343.368 223.64 336.058 213.52 335.488 213.96C334.918 214.4 341.738 223.57 340.738 224.57C339.568 225.73 328.518 214.94 327.818 215.73C327.118 216.52 334.518 224.18 333.818 225.06C332.908 226.2 319.288 214.8 318.818 215.44C318.348 216.08 327.358 223.74 326.668 224.89C325.978 226.04 318.338 221.13 318.068 221.72C317.798 222.31 324.168 226.53 323.868 227.22C323.568 227.91 315.018 223.05 314.198 224.48C313.688 225.35 317.678 228.79 317.318 229.33C316.958 229.87 312.148 226.25 311.678 226.89C311.208 227.53 315.118 231.71 314.918 231.89C314.718 232.07 308.628 225.53 307.678 226.26C306.728 226.99 310.758 233.51 310.088 233.94C309.418 234.37 305.858 229.09 305.038 229.54C304.038 230.08 308.338 238.54 307.358 239.12C306.378 239.7 299.308 229.33 298.278 229.93C297.248 230.53 302.388 240.31 301.558 240.75C300.728 241.19 296.698 234.29 295.718 234.75C294.738 235.21 298.518 244.21 297.718 244.57C296.918 244.93 290.598 233.73 289.828 234.08C289.058 234.43 293.188 242.5 291.968 243.26C290.748 244.02 284.488 236.1 283.758 236.67C283.028 237.24 289.488 245.41 287.948 247.67C286.408 249.93 282.348 244.29 281.948 245.25C281.548 246.21 282.948 250.14 282.588 250.88C282.148 251.88 277.428 247.26 277.218 247.79C277.008 248.32 282.528 253.59 282.018 255.47C281.628 256.89 273.698 254.52 273.578 255.36C273.458 256.2 281.918 259.27 281.778 260.36C281.698 260.99 278.948 259.97 276.258 261.27C272.988 262.86 271.598 267.03 272.258 267.78C272.808 268.37 274.458 266.61 278.558 265.98C279.838 265.78 282.298 265.41 282.778 266.28C283.548 267.69 278.438 271.03 279.078 272.09C279.498 272.8 282.398 272.47 284.648 270.88C287.298 269.02 287.098 266.82 288.888 266.57C291.558 266.2 294.578 270.7 295.038 270.31C295.498 269.92 291.658 264.75 292.228 264.16C292.978 263.38 300.848 271.34 301.538 270.66C302.028 270.17 295.778 263.26 296.378 262.54C296.978 261.82 303.818 267.98 304.378 267.33C304.938 266.68 299.768 261.56 300.038 261.25C300.308 260.94 308.658 268.92 309.198 268.35C309.738 267.78 301.768 258.58 302.448 257.85C302.978 257.28 308.358 262.34 308.818 261.85C309.278 261.36 305.608 257.08 305.698 257C305.788 256.92 313.428 266.71 314.458 266C315.488 265.29 309.728 254.87 310.458 254.49C311.188 254.11 315.458 261.49 316.458 261.06C317.458 260.63 314.968 254.06 315.228 253.99C315.488 253.92 318.708 262.99 319.388 262.83C320.068 262.67 317.928 255.2 319.028 254.88C320.128 254.56 324.238 262.56 324.548 262.41C324.858 262.26 320.268 254.41 321.658 253.18C323.048 251.95 329.998 258.02 330.348 257.51C330.698 257 324.668 251.37 324.858 251.13C325.048 250.89 327.528 253.84 331.378 255.13C334.518 256.13 337.258 255.73 337.248 255.47C337.238 255.21 335.408 255.27 333.248 253.96C331.088 252.65 329.498 250.75 329.718 250.36C330.068 249.75 335.128 253.12 335.428 252.56C335.728 252 331.028 248.19 331.198 247.92C331.368 247.65 339.908 254.22 340.508 253.43C341.108 252.64 335.788 247.28 336.038 247.01C336.288 246.74 342.408 253.11 342.878 252.66C343.348 252.21 338.038 246.43 338.528 245.89C339.018 245.35 343.328 249.38 343.618 249.03C343.908 248.68 340.408 245.18 340.618 244.91C340.828 244.64 348.618 251.4 349.028 250.91C349.158 250.76 348.628 250.03 345.818 245.91C344.458 243.91 344.138 243.44 344.268 243.25C344.808 242.51 351.788 247.8 352.028 247.41C352.268 247.02 346.888 242.79 347.248 242.09C347.608 241.39 352.928 244.58 353.248 243.98C353.568 243.38 349.788 240.48 349.798 240.47C349.808 240.46 359.538 248.87 359.958 248.35C360.378 247.83 351.528 239.1 352.218 238.16C352.908 237.22 362.828 244.81 363.218 244.16C363.608 243.51 357.668 239.05 358.218 237.94C358.768 236.83 364.118 239.32 364.138 239.23C364.158 239.14 359.288 235.52 359.338 234.29Z" fill="#5E0606"/>
<path d="M202.926 276.36C201.996 278.17 192.786 269.88 192.426 270.73C191.072 273.99 189.92 277.33 188.976 280.73C188.216 284.38 184.606 295.03 185.816 294.67C187.576 294.14 192.716 285.22 193.006 288.44C193.296 291.66 191.406 298.96 191.606 299.75C191.806 300.54 198.946 289.31 198.956 295.37C198.956 300.37 197.746 305.77 198.186 306.07C198.626 306.37 202.186 298.43 203.956 299.31C205.526 300.07 206.956 310.31 207.726 310.52C208.496 310.73 209.896 299.52 212.266 299.52C215.186 299.52 217.736 316.64 218.636 316.46C219.536 316.28 216.986 300.69 218.706 300.1C220.706 299.41 227.226 319.7 228.486 319.17C229.486 318.73 225.636 304.53 226.946 303.9C228.656 303.08 237.756 325.74 238.626 325.24C239.346 324.84 233.626 309.62 235.036 308.64C236.316 307.77 242.456 318.55 243.096 318C243.736 317.45 238.856 308.23 239.586 307.56C240.316 306.89 247.376 318.31 249.146 317.09C250.226 316.34 247.616 309.57 248.346 309.15C249.076 308.73 252.516 316.21 253.426 315.73C254.336 315.25 252.236 307.62 252.596 307.48C252.956 307.34 256.166 319.29 257.676 319C259.186 318.71 258.306 308.13 259.326 308C260.346 307.87 261.396 316.64 262.596 316.62C264.066 316.62 263.996 303.44 265.436 303.37C267.086 303.29 269.076 320.52 270.596 320.44C272.116 320.36 272.596 307.31 273.756 307.3C274.756 307.3 277.896 320.39 279.276 320.45C280.816 320.53 278.526 302.76 279.696 302.86C281.036 302.97 281.696 320.71 282.696 320.76C283.606 320.76 283.696 308.29 285.506 308.13C287.316 307.97 289.996 321.68 291.166 321.45C292.336 321.22 289.586 307.06 292.666 305.25C295.746 303.44 302.976 317.04 304.026 316.14C305.076 315.24 299.926 305.45 300.736 304.75C301.806 303.81 312.156 319.75 312.736 319.28C313.316 318.81 302.396 301.46 304.066 299.48C305.316 297.98 313.066 305.94 313.696 304.98C314.326 304.02 306.356 294.88 307.156 293.61C307.606 292.89 310.156 295.89 314.026 296.01C318.696 296.14 322.686 291.91 322.306 290.54C322.006 289.46 319.106 290.54 314.026 288.73C312.446 288.16 309.396 287.05 309.346 285.73C309.276 283.51 317.066 282.67 316.946 280.95C316.866 279.82 313.346 278.38 309.836 278.89C305.726 279.49 304.696 282.32 302.486 281.48C299.206 280.24 298.326 272.79 297.566 272.98C296.806 273.17 298.256 281.98 297.266 282.32C295.956 282.79 291.476 268.01 290.266 268.41C289.416 268.7 292.636 281.17 291.536 281.66C290.436 282.15 286.106 270.25 285.096 270.66C284.316 271.01 287.096 280.66 286.596 280.88C286.096 281.1 281.096 265.98 280.136 266.34C279.176 266.7 283.066 283.05 281.866 283.52C280.926 283.88 277.656 274.25 276.816 274.62C275.976 274.99 277.756 282.52 277.616 282.56C277.476 282.6 274.306 265.72 272.736 265.87C271.166 266.02 271.736 282.54 270.736 282.56C269.856 282.56 269.056 270.75 267.606 270.66C266.156 270.57 265.286 280.22 264.956 280.13C264.626 280.04 266.106 266.91 265.246 266.63C264.386 266.35 262.546 276.92 261.106 276.63C259.666 276.34 259.516 263.89 259.106 263.88C258.696 263.87 259.456 276.36 257.106 277.04C254.756 277.72 250.296 265.79 249.606 266.2C248.916 266.61 252.606 277.34 252.246 277.53C251.886 277.72 250.736 272.53 247.036 268.48C244.036 265.21 240.626 264.01 240.486 264.34C240.346 264.67 242.486 265.75 244.276 268.76C246.066 271.77 246.736 275.1 246.276 275.43C245.516 275.96 241.646 268.6 240.976 269.1C240.306 269.6 243.526 277.26 243.166 277.49C242.806 277.72 236.776 264.2 235.626 264.79C234.626 265.28 237.516 275.35 237.076 275.52C236.636 275.69 233.266 263.98 232.466 264.22C231.886 264.4 234.466 274.96 233.576 275.32C232.686 275.68 230.056 267.97 229.576 268.22C229.096 268.47 231.066 274.98 230.646 275.22C230.056 275.51 225.196 262.17 224.396 262.54C224.166 262.64 224.396 263.87 225.226 270.73C225.636 274.04 225.726 274.83 225.466 274.97C224.466 275.55 219.466 264.6 218.936 264.97C218.406 265.34 222.196 273.9 221.376 274.54C220.556 275.18 216.286 267.87 215.606 268.42C214.926 268.97 217.606 274.91 217.546 274.92C217.486 274.93 211.176 258.41 210.396 258.77C209.616 259.13 214.776 275.5 213.446 276.22C212.116 276.94 205.056 261.3 204.256 261.82C203.646 262.22 207.706 271.62 206.456 272.65C205.206 273.68 200.456 267.2 200.396 267.3C200.336 267.4 203.686 274.88 202.926 276.36Z" fill="#5E0606"/>
<path d="M156.657 208.64C154.837 209.22 156.657 198.09 155.867 198.41C155.217 198.67 153.867 204.83 151.417 206.32C148.277 208.21 141.347 198.68 140.577 199.27C139.807 199.86 147.257 207.87 144.957 210.13C142.657 212.39 137.407 205.13 136.897 205.76C136.387 206.39 145.387 215.6 140.297 218.43C138.477 219.43 134.667 218.2 129.707 218.3C129.107 218.3 137.307 222.23 137.867 224.17C138.277 225.59 132.867 233.09 133.007 233.72C133.147 234.35 142.417 227.97 143.537 229.48C144.917 231.33 133.157 243.97 133.727 244.42C134.297 244.87 144.927 233.19 146.207 233.89C147.707 234.71 135.417 251.89 136.427 252.35C137.267 252.72 146.177 241.09 147.297 241.51C148.747 242.05 135.907 262.4 136.707 262.63C137.357 262.82 146.147 249.37 147.597 249.63C148.887 249.88 143.597 260.69 144.367 260.74C145.137 260.79 149.757 251.74 150.617 251.79C151.477 251.84 146.197 263.63 147.997 264C149.087 264.19 152.997 258.18 153.657 258.36C154.317 258.54 150.287 265.55 151.097 265.8C151.907 266.05 156.697 259.8 156.967 259.95C157.237 260.1 149.717 269.82 150.667 270.59C151.617 271.36 159.237 263.96 159.797 264.53C160.357 265.1 154.227 271.42 154.797 272.15C155.527 273.06 165.497 264.51 166.247 265.37C166.997 266.23 154.957 278.74 155.757 279.64C156.557 280.54 168.027 270.49 168.627 271.24C169.227 271.99 161.147 279.54 161.767 280.45C162.387 281.36 173.027 273.19 173.527 273.98C174.027 274.77 160.897 286.74 161.377 287.46C161.857 288.18 171.327 280 172.377 281.06C173.427 282.12 164.237 292.63 164.977 293.21C165.717 293.79 175.157 282.93 177.977 283.69C180.797 284.45 173.977 297.77 175.187 297.85C176.187 297.91 180.997 289.75 181.927 289.85C183.147 289.92 182.667 299.93 183.327 299.93C183.987 299.93 184.427 289.48 186.747 289.24C188.487 289.06 187.297 296.96 188.317 296.73C189.337 296.5 192.457 285.6 193.807 285.27C194.577 285.09 194.207 288.61 194.727 291.6C195.467 295.99 195.357 301.93 196.217 300.81C196.887 299.92 201.887 290.81 200.837 286.43C200.507 285.07 199.837 282.43 200.897 281.52C202.557 280.04 206.957 284.38 208.207 283.2C209.027 282.41 208.417 279.28 206.337 277.41C203.897 275.22 201.247 276.41 200.817 274.48C200.177 271.62 205.417 266.24 204.907 265.9C204.397 265.56 198.407 272.13 197.657 271.74C196.657 271.22 205.737 258.87 204.867 258.39C204.237 258.04 196.307 268.12 195.407 267.74C194.507 267.36 201.407 256.96 200.637 256.62C199.987 256.36 193.977 264.34 193.577 264.17C193.177 264 202.257 251.09 201.517 250.72C200.777 250.35 190.227 263.36 189.287 262.91C188.557 262.55 194.287 254.28 193.617 253.99C192.947 253.7 188.057 259.69 187.967 259.62C187.877 259.55 199.177 246.67 198.297 245.78C197.417 244.89 185.157 255.96 184.637 255.31C184.117 254.66 192.817 246.62 192.177 245.66C191.537 244.7 183.787 250.38 183.697 250.12C183.607 249.86 194.307 242.29 194.107 241.58C193.907 240.87 184.977 246.53 184.507 245.43C184.037 244.33 193.437 236.2 193.237 235.92C193.037 235.64 183.907 244.2 182.237 243.18C180.567 242.16 187.497 231.64 186.857 231.47C186.217 231.3 179.857 240.56 179.517 240.47C179.177 240.38 182.607 236.28 183.877 231.36C184.877 227.36 184.177 224.45 183.877 224.57C183.577 224.69 183.777 226.74 182.347 229.81C180.917 232.88 178.727 235.45 178.237 235.36C177.467 235.23 181.237 228.05 180.497 227.95C179.757 227.85 175.497 234.83 175.167 234.75C174.837 234.67 182.167 222.15 181.167 221.82C180.337 221.54 174.047 229.82 173.707 229.66C173.367 229.5 180.647 219.81 180.067 219.46C179.657 219.22 172.857 227.65 172.177 227.33C171.497 227.01 176.057 220.38 175.617 220.21C175.177 220.04 171.187 225.51 170.837 225.38C170.327 225.19 178.127 213.53 177.467 213.26C177.277 213.19 176.467 214.11 171.637 219.08C169.317 221.47 168.757 222.08 168.527 221.97C167.587 221.69 173.527 211.49 172.997 211.39C172.467 211.29 167.777 219.21 166.897 219.1C166.017 218.99 169.517 211.6 168.757 211.53C167.997 211.46 164.757 216.96 164.757 216.95C164.757 216.94 174.237 202.29 173.587 202.03C172.937 201.77 162.977 215.59 161.787 215.22C160.597 214.85 169.077 200.32 168.297 200.16C167.697 200.03 162.517 208.65 161.127 208.53C159.737 208.41 162.377 201.26 162.267 201.27C162.157 201.28 158.157 208.16 156.657 208.64Z" fill="#5E0606"/>
<path d="M377.356 267.54C377.356 265.54 389.356 268.72 389.266 267.8C389.266 267.07 381.496 263.57 380.716 260.72C379.716 257.12 389.656 256.8 389.266 255.91C388.876 255.02 378.586 256.71 376.856 253.98C375.126 251.25 386.346 244.43 385.856 243.81C385.366 243.19 377.706 248.61 372.496 245.52C367.826 242.75 365.496 234.68 364.926 234.62C364.356 234.56 368.086 247.53 366.066 247.57C364.336 247.57 358.396 239.17 357.616 239.3C356.836 239.43 360.686 250.09 358.556 251.13C355.936 252.42 345.906 238.35 345.186 238.93C344.466 239.51 353.816 252.23 352.546 253.53C351.066 255.06 336.066 239.94 335.176 240.98C334.446 241.85 344.366 252.73 343.486 253.89C342.336 255.4 323.936 239.34 323.386 240.18C322.936 240.86 334.976 251.8 334.126 253.34C333.376 254.7 323.016 247.87 322.686 248.65C322.356 249.43 330.916 255.44 330.556 256.37C330.196 257.3 318.736 250.32 317.726 252.22C317.106 253.37 322.496 258.22 322.036 258.93C321.576 259.64 315.116 254.52 314.526 255.37C313.936 256.22 319.266 262.05 319.006 262.37C318.746 262.69 310.466 253.47 309.246 254.37C308.026 255.27 313.616 264.37 312.756 264.89C311.896 265.41 306.986 258.13 305.926 258.7C304.636 259.39 310.666 271.07 309.416 271.79C307.976 272.61 298.416 258.16 297.066 258.92C295.716 259.68 302.936 273.17 301.856 273.73C300.946 274.2 295.186 264.73 293.926 265.33C292.666 265.93 298.026 278.27 296.926 278.72C295.686 279.23 287.076 263.72 286.086 264.15C285.246 264.53 290.886 275.7 289.316 276.68C287.746 277.66 279.166 266.68 278.236 267.39C277.306 268.1 286.166 279.49 284.236 282.5C282.306 285.51 269.706 276.67 269.176 277.96C268.726 279.05 277.686 285.62 277.286 286.61C276.756 287.93 260.286 278.39 260.026 279.1C259.766 279.81 277.326 290.27 276.746 292.8C276.306 294.7 265.746 291.14 265.656 292.27C265.566 293.4 276.786 297.94 276.656 299.43C276.576 300.28 269.766 299.28 266.296 300.92C262.076 302.92 265.296 322.67 266.296 323.71C267.056 324.54 267.386 307.56 272.746 306.89C274.406 306.69 277.636 306.29 278.296 307.49C279.376 309.49 272.296 317.59 273.136 319.07C273.726 320.07 278.076 315.85 280.966 313.81C284.366 311.41 283.966 308.42 286.336 308.16C289.826 307.78 294.006 314.02 294.586 313.5C295.166 312.98 289.896 305.81 290.586 305.05C291.586 304.05 302.236 315.16 303.106 314.27C303.736 313.63 295.206 303.98 295.966 303.05C296.726 302.12 305.966 310.75 306.676 309.89C307.216 309.22 300.356 301.89 300.676 301.46C300.996 301.03 312.346 312.24 313.036 311.46C313.726 310.68 302.836 297.9 303.696 296.94C304.366 296.19 311.696 303.29 312.246 302.58C312.796 301.87 307.816 295.97 307.926 295.87C308.036 295.77 318.506 309.37 319.836 308.52C321.166 307.67 313.126 293.24 314.046 292.75C314.966 292.26 320.916 302.51 322.236 301.93C323.556 301.35 319.966 292.36 320.296 292.28C320.626 292.2 325.296 304.59 326.166 304.45C327.036 304.31 323.906 294.05 325.326 293.67C326.746 293.29 332.526 304.3 332.926 304.12C333.326 303.94 326.926 293.12 328.716 291.49C330.506 289.86 339.896 298.42 340.316 297.75C340.736 297.08 332.586 289.17 332.826 288.85C333.066 288.53 336.456 292.64 341.576 294.54C345.736 296.09 349.316 295.61 349.296 295.26C349.276 294.91 346.876 294.91 343.906 293.04C340.936 291.17 338.836 288.51 339.106 288.04C339.536 287.22 346.336 292.04 346.706 291.28C347.076 290.52 340.706 285.16 340.936 284.79C341.166 284.42 352.676 293.73 353.426 292.69C354.046 291.82 346.946 284.13 347.256 283.78C347.566 283.43 355.896 292.34 356.506 291.78C356.936 291.36 349.866 283.11 350.506 282.41C351.146 281.71 356.986 287.41 357.336 286.89C357.686 286.37 352.946 281.54 353.226 281.17C353.626 280.64 364.016 290.32 364.556 289.64C364.706 289.44 363.976 288.44 360.096 282.72C358.226 279.95 357.786 279.29 357.956 279.05C358.616 278.05 368.026 285.55 368.336 285.05C368.646 284.55 361.336 278.57 361.816 277.63C362.296 276.69 369.376 281.26 369.736 280.46C370.096 279.66 365.036 275.57 365.046 275.55C365.056 275.53 378.216 287.37 378.756 286.69C379.296 286.01 367.256 273.78 368.116 272.53C368.976 271.28 382.366 282.01 382.836 281.19C383.206 280.56 375.316 274.03 375.966 272.54C376.616 271.05 383.776 274.67 383.796 274.54C383.816 274.41 377.346 269.21 377.356 267.54Z" fill="#5E0606"/>
<path d="M266.191 173.851L273.941 189.181L281.691 202.191L271.361 198.141L266.191 206.501L261.031 198.141H250.691L261.031 190.041L266.191 173.851Z" fill="black"/>
<path d="M249.879 217.49C249.839 217.51 249.806 217.541 249.782 217.579C249.759 217.617 249.746 217.661 249.746 217.705C249.746 217.75 249.759 217.794 249.782 217.832C249.806 217.87 249.839 217.901 249.879 217.92C251.819 218.92 260.169 222.79 267.239 222.7C271.382 222.84 275.497 221.983 279.239 220.2C283.46 218.077 286.985 214.791 289.399 210.73C289.431 210.68 289.447 210.622 289.446 210.563C289.445 210.503 289.427 210.446 289.395 210.396C289.362 210.347 289.316 210.308 289.262 210.284C289.208 210.259 289.148 210.251 289.089 210.26C261.539 212.66 251.889 216.54 249.879 217.49Z" fill="black" stroke="#FF8FA0" stroke-width="0.5" stroke-miterlimit="10"/>
<path d="M277.138 218.95L279.318 212.8L273.438 213.57L277.138 218.95Z" fill="white"/>
<path d="M270.887 219.81L272.897 213.61L267.047 214.54L270.887 219.81Z" fill="white"/>
<path d="M264.86 220.92L266.66 214.64L260.84 215.77L264.86 220.92Z" fill="white"/>
<path d="M259.098 221.19L260.268 215.88L255.488 217.12L259.098 221.19Z" fill="white"/>
<path d="M282.61 217.32L284.58 212.25L279.66 212.75L282.61 217.32Z" fill="white"/>
<path d="M281.411 183.69C285.84 183.69 289.431 180.1 289.431 175.67C289.431 171.241 285.84 167.65 281.411 167.65C276.981 167.65 273.391 171.241 273.391 175.67C273.391 180.1 276.981 183.69 281.411 183.69Z" fill="white"/>
<path d="M280.569 182.71C283.773 182.71 286.37 180.114 286.37 176.91C286.37 173.707 283.773 171.11 280.569 171.11C277.366 171.11 274.77 173.707 274.77 176.91C274.77 180.114 277.366 182.71 280.569 182.71Z" fill="#71D100"/>
<path d="M280.571 180.931C282.791 180.931 284.591 179.131 284.591 176.911C284.591 174.69 282.791 172.891 280.571 172.891C278.35 172.891 276.551 174.69 276.551 176.911C276.551 179.131 278.35 180.931 280.571 180.931Z" fill="black"/>
<path d="M251.95 183.69C256.379 183.69 259.97 180.1 259.97 175.67C259.97 171.241 256.379 167.65 251.95 167.65C247.52 167.65 243.93 171.241 243.93 175.67C243.93 180.1 247.52 183.69 251.95 183.69Z" fill="white"/>
<path d="M252.491 182.71C255.695 182.71 258.292 180.114 258.292 176.91C258.292 173.707 255.695 171.11 252.491 171.11C249.288 171.11 246.691 173.707 246.691 176.91C246.691 180.114 249.288 182.71 252.491 182.71Z" fill="#71D100"/>
<path d="M252.489 180.931C254.709 180.931 256.509 179.131 256.509 176.911C256.509 174.69 254.709 172.891 252.489 172.891C250.269 172.891 248.469 174.69 248.469 176.911C248.469 179.131 250.269 180.931 252.489 180.931Z" fill="black"/>
<path d="M293.001 156.09C293.721 156.82 291.651 162.93 287.281 166.45C284.945 168.299 282.252 169.644 279.371 170.4C274.371 171.88 273.131 170.56 272.511 170.28C269.761 169.07 267.641 165.92 268.011 165.11C268.241 164.62 269.361 165.11 271.281 165.53C273.527 166.102 275.876 166.143 278.141 165.65C280.141 165.14 283.401 163.65 287.711 160C292.021 156.35 292.711 155.78 293.001 156.09Z" fill="#3F0505"/>
<path d="M239.09 156.09C238.37 156.82 240.44 162.93 244.81 166.45C247.145 168.299 249.839 169.644 252.72 170.4C257.72 171.88 258.96 170.56 259.58 170.28C262.33 169.07 264.45 165.92 264.08 165.11C263.85 164.62 262.73 165.11 260.82 165.53C258.57 166.101 256.218 166.142 253.95 165.65C251.95 165.14 248.69 163.65 244.38 160C240.07 156.35 239.39 155.78 239.09 156.09Z" fill="#3F0505"/>
</svg>
